<svg xmlns="http://www.w3.org/2000/svg" xmlns:xlink="http://www.w3.org/1999/xlink" width="1920" height="482" viewBox="0 0 1920 482"><defs><clipPath id="clip-path"><rect id="Rectangle_423" data-name="Rectangle 423" width="1920" height="482" transform="translate(0 6342)" fill="none"></rect></clipPath><linearGradient id="linear-gradient" x1="0.494" y1="0.29" x2="0.5" y2="1.145" gradientUnits="objectBoundingBox"><stop offset="0" stop-color="#412c4c" stop-opacity="0"></stop><stop offset="1" stop-color="#412c4c"></stop></linearGradient></defs><g id="Mask_Group_8" data-name="Mask Group 8" transform="translate(0 -6342)" clip-path="url(#clip-path)"><g id="Group_4470" data-name="Group 4470"><g id="Group_3130" data-name="Group 3130" transform="translate(-3345 -943)"><g id="Group_2625" data-name="Group 2625" transform="translate(3220.551 7320.569)"><path id="Path_17506" data-name="Path 17506" d="M360.169,275.627s13.665-54.655-23.912-60.35c0,0,6.351-73.354-46.687-96.789-48.963-21.634-78.57,14.8-78.57,14.8s-24.279-54.068-70.966-47.237-56.567,57.484-56.567,57.484-22.941-12.965-38.882-1.576-7.8,34.6-7.8,34.6-77.43-21.636-99.066,40.993,25.051,95.65,25.051,95.65-22.775,26.19-20.5,46.687,35.3,39.853,35.3,39.853Z" transform="translate(212.106 -85.458)" fill="#412c4c"></path><path id="Path_17507" data-name="Path 17507" d="M184.255,237.528s6.273-38.9,50.055-27.978c0,0,9.122-78.444,70.236-80.269s67.5,60.2,67.5,60.2,44.7-12.77,55.643,26.453c0,0,10.034-5.475,15.506-.913,0,0,11.856-33.749,48.343-28.276s36.487,54.729,36.487,54.729,12.77-13.683,28.276,5.473c0,0,37.4-36.487,87.566-4.561S676.7,339.075,676.7,339.075,734.17,327.217,743.292,371c0,0,119.763-4.239,129.8,111.2,0,0,23.84,6.273,12.546,36.386,0,0,60.226,17.565,66.5,96.613H-138.2s36.386-82.81,116.688-86.575c0,0-18.821-60.226,46.424-76.537,0,0,8.784-26.349,28.859-27.6,0,0-27.6-90.34,10.038-146.8S184.255,237.528,184.255,237.528Z" transform="translate(138.205 -39.368)" fill="#1d1421"></path><path id="Path_17508" data-name="Path 17508" d="M1230.463,216.556s-6.273-38.895-50.053-27.976c0,0-9.122-78.444-70.235-80.269s-67.5,60.2-67.5,60.2-44.7-12.77-55.643,26.453c0,0-10.034-5.475-15.506-.913,0,0-11.858-33.749-48.343-28.276S886.7,220.505,886.7,220.505s-12.77-13.683-28.276,5.473c0,0-37.4-36.487-87.567-4.561s-32.837,96.689-32.837,96.689-57.468-11.858-66.588,31.926c0,0-119.763-4.239-129.8,111.2,0,0-23.84,6.273-12.548,36.386,0,0-60.224,17.565-66.5,96.613H1552.925s-36.386-82.81-116.688-86.575c0,0,18.821-60.226-46.424-76.537,0,0-8.784-26.349-28.859-27.6,0,0,27.6-90.338-10.038-146.8S1230.463,216.556,1230.463,216.556Z" transform="translate(643.19 -108.074)" fill="#412c4c"></path></g><path id="Path_17509" data-name="Path 17509" d="M667.989,401.766s-13.665-54.658,23.912-60.352c0,0-6.351-73.354,46.687-96.787,48.963-21.636,78.57,14.8,78.57,14.8s24.279-54.068,70.966-47.235,56.566,57.484,56.566,57.484,22.941-12.965,38.882-1.579,7.8,34.6,7.8,34.6,77.43-21.636,99.064,40.993-25.051,95.65-25.051,95.65,22.775,26.188,20.5,46.685-35.3,39.855-35.3,39.855Z" transform="translate(4077.427 7402.391)" fill="#2a1e31"></path><path id="Path_17510" data-name="Path 17510" d="M1182.247,363.666s-6.273-38.9-50.055-27.976c0,0-9.12-78.446-70.235-80.271s-67.5,60.2-67.5,60.2-44.7-12.77-55.641,26.453c0,0-10.034-5.472-15.508-.911,0,0-11.856-33.751-48.344-28.278s-36.485,54.729-36.485,54.729-12.772-13.681-28.278,5.475c0,0-37.4-36.487-87.566-4.561S689.8,465.213,689.8,465.213s-57.466-11.856-66.588,31.926c0,0-119.763-4.237-129.8,111.2,0,0-23.838,6.273-12.546,36.386,0,0-60.227,17.567-66.5,96.613H1504.707s-36.386-82.81-116.688-86.575c0,0,18.821-60.227-46.424-76.537,0,0-8.781-26.349-28.859-27.6,0,0,27.6-90.34-10.036-146.8S1182.247,363.666,1182.247,363.666Z" transform="translate(3812.983 7448.48)" fill="#140e17"></path><g id="Group_2630" data-name="Group 2630" transform="translate(3288.158 7519.443)"><g id="Group_2626" data-name="Group 2626" transform="translate(401.12 75.334)"><path id="Path_17511" data-name="Path 17511" d="M668.144,449.739H339.1L152.237,327.87l57.886-35.551S271.048,258.8,274.106,258.8c3.038,0,81.246,35.553,81.246,35.553s21.328-8.129,24.366-8.129c3.059,0,67.678,47.194,67.678,47.194l18.249-4.867,132.564,66.9Z" transform="translate(-152.237 -258.796)" fill="#281c2e"></path><path id="Path_17512" data-name="Path 17512" d="M605.645,449.739l-44.687-26.4-157.4-78.21-32.494,3.038L376.132,336l-37.583-9.155-22.336-36.557L257.3,323.805,211.607,258.8c3.038,0,81.246,35.553,81.246,35.553s21.328-8.129,24.366-8.129c3.059,0,67.678,47.194,67.678,47.194l18.249-4.867,132.564,66.9Z" transform="translate(-89.738 -258.796)" fill="#412c4c"></path></g><g id="Group_2627" data-name="Group 2627" transform="translate(44.647 36.744)"><path id="Path_17513" data-name="Path 17513" d="M719.954,530.455H-21.423V321.243l143.2-37.565,18.289,7.1,25.372-10.161,31.489,4.064,32.494-22.333,21.328-3.059L304.589,240l3.592,2.4L403.1,306.012l56.86,74.144,51.81,20.322,71.66,52.8,5.522,4.064Z" transform="translate(21.423 -239.996)" fill="#2a1e31"></path><path id="Path_17514" data-name="Path 17514" d="M70.285,283.1l33.632-3.822,22.931,3.057,15.287-7.644,64.207,3.822-21.4,9.937-6.115,8.408-55.035,2.293Z" transform="translate(117.964 -203.476)" fill="#412c4c"></path><path id="Path_17515" data-name="Path 17515" d="M428.48,452.041l-52.755-25.125-16.052-13.753-25.228-4.577-13.754-12.235-24.468.76L222.84,358.13l4.6-12.234-8.416-6.877-25.988-17.571,19.871-9.935-45.858-6.877-41.28-19.891,15.293-14.513,25.556-2.032,3.489-.267-16.873-26.767L248.15,304.78l56.86,74.144,51.81,20.322Z" transform="translate(176.371 -238.764)" fill="#412c4c"></path><path id="Path_17516" data-name="Path 17516" d="M254.176,363.179l7.636-6.876-34.4-21.39,16.833-2.3-8.416-11.475-45.1-15.272-8.416-12.234-27.937-24.2-11.8-10.2L137.4,240l3.592,2.4,94.917,63.613,56.86,74.144Z" transform="translate(188.614 -239.996)" fill="#573b66"></path></g><g id="Group_2628" data-name="Group 2628"><path id="Path_17517" data-name="Path 17517" d="M589.492,534.806,186.176,602.032H-43.173l8.621-86.358L-14.7,316.749l6.4-64.19L-5.259,222.1s71.6,58.441,86.214,64.291,81.842,54.068,90.607,62.833l54.068,54.068,233.352,84.348Z" transform="translate(43.173 -222.096)" fill="#412c4c"></path><path id="Path_17518" data-name="Path 17518" d="M441.1,487.637,323.209,455.489l-91.407-24-47.992-36.559s-58.256-39.987-62.833-44.564L84.438,313.832l15.97,28.533L56.993,301.249S20.434,284.108,11.3,280.682c-4.393-1.644-21.163-14.823-37.482-28.124l3.038-30.462s71.6,58.441,86.214,64.291,81.842,54.068,90.607,62.833l54.068,54.068Z" transform="translate(61.059 -222.096)" fill="#573b66"></path><path id="Path_17519" data-name="Path 17519" d="M413.218,438.931,287.531,457.219s-71.968-20.568-75.4-20.568H139.017l35.409,28.574s-53.7,10.264-62.833,11.413c-9.155,1.149-113.125-15.989-113.125-15.989l-37.441,6.484,19.852-198.926,56.45,21.059L47.61,325.824l97.114,14.862s11.434,25.125,14.841,27.4c3.428,2.3,58.276,19.439,61.7,21.718s78.845,47.992,83.4,47.992C309.249,437.8,413.218,438.931,413.218,438.931Z" transform="translate(47.594 -173.555)" fill="#281c2e"></path></g><g id="Group_2629" data-name="Group 2629" transform="translate(142.561 209.688)"><path id="Path_17520" data-name="Path 17520" d="M1132.236,591.281l-5.378,2.443-193.53,88.082H59.079l-32.8-193.488s128.089-43.538,131.661-44.727,54.787-17.861,54.787-17.861l54.787-16.668s7.41-2.894,17.633-6.854h.021c21.882-8.459,56.655-21.822,59.364-22.272,3.982-.659,101.65-34.015,101.65-34.015s38.221-11.8,60-17.92c6.712-1.888,11.865-3.223,13.835-3.51,8.355-1.191,35.74,2.381,35.74,2.381L936.407,501.455Z" transform="translate(-26.277 -324.248)" fill="#39278b"></path><path id="Path_17521" data-name="Path 17521" d="M999.468,591.281l-5.378,2.443-116.1-22.68-64.332-40.5s-53.6-13.1-60.738-14.287-84.574-29.785-84.574-29.785-23.811,3.572-29.764,8.334c-5.953,4.783-119.117-55.978-119.117-55.978l-8.336,29.785s-72.646-29.785-81-36.928c-8.336-7.143-17.861-28.574-17.861-28.574l-22.621-4.783-19.07-22.621-28.574-5.953-13.117-11.906s-73.836,15.478-77.408,17.859c-1.765,1.172-50.25,13.876-99.084,26.5,21.882-8.459,56.655-21.822,59.364-22.272,3.982-.659,101.65-34.015,101.65-34.015s38.221-11.8,60-17.92c6.712-1.888,11.865-3.223,13.835-3.51,8.355-1.191,35.74,2.381,35.74,2.381L803.64,501.455Z" transform="translate(106.491 -324.248)" fill="#412c4c"></path><path id="Path_17522" data-name="Path 17522" d="M690.294,501.455c-27.465-7.308-62.423-16.914-67.39-19.745-8.334-4.762-65.522-29.764-65.522-29.764H507.357c-3.572,0-54.787-38.119-54.787-38.119s-25-15.5-28.574-16.69-20.26,0-23.832,1.19-48.834-22.621-48.834-22.621l-19.049-3.572-11.926-9.525-33.334-2.381-10.717-15.5L260.067,328c6.712-1.888,11.865-3.223,13.835-3.51,8.355-1.191,35.74,2.381,35.74,2.381Z" transform="translate(219.836 -324.248)" fill="#573b66"></path></g></g><g id="Group_2641" data-name="Group 2641" transform="translate(3273.625 7762.854)"><g id="Group_2633" data-name="Group 2633" transform="translate(0 113.842)"><g id="Group_2631" data-name="Group 2631" transform="translate(54.274 13.384)"><path id="Path_17523" data-name="Path 17523" d="M1027.729,605.587H-22.13L-23.813,458.02s6.4-1.562,17.633-4.19c60.658-14.121,261.926-58.666,352.1-50.086,106.843,10.183,269.664,108.547,269.664,108.547S669.859,502.13,736,503.814c65.646,1.683,288.221,100.213,291.69,101.753A.068.068,0,0,0,1027.729,605.587Z" transform="translate(23.813 -402.656)" fill="#2c3397"></path><path id="Path_17524" data-name="Path 17524" d="M1018.645,605.566C1015.2,604.54,794.078,537.93,738.758,528.3c-55.731-9.687-210.854,2.443-210.854,2.443l56.963-12.129s-126.034-76.34-221.775-90.874c-80.281-12.216-307.208,16.5-378.314,26.088,60.658-14.121,261.926-58.666,352.1-50.086,106.844,10.183,269.664,108.547,269.664,108.547s54.274-10.161,120.412-8.478C792.6,505.5,1015.175,604.027,1018.645,605.566Z" transform="translate(32.856 -402.656)" fill="#5c95ff"></path></g><g id="Group_2632" data-name="Group 2632"><path id="Path_17525" data-name="Path 17525" d="M726.513,615.838H-50.253l1.683-210.3s144.162-18.657,264.594-3.407C336.436,417.4,512.826,548,512.826,548l154.343,47.479Z" transform="translate(50.253 -396.136)" fill="#2c3397"></path><path id="Path_17526" data-name="Path 17526" d="M405.181,550.931l70.285-2.422S276.722,427.317,217.337,416.417s-266.77-10.879-266.77-10.879,144.162-18.657,264.594-3.407C335.573,417.4,511.962,548,511.962,548l154.343,47.479,59.344,20.363Z" transform="translate(51.116 -396.136)" fill="#5c95ff"></path></g></g><g id="Group_2640" data-name="Group 2640" transform="translate(62.866)"><g id="Group_2634" data-name="Group 2634" transform="translate(113.048 77.34)"><path id="Path_17527" data-name="Path 17527" d="M125.092,452.872l-13.733,2.648,12.48,77.716-5.4-.062-38.858-.492L68.806,462.889,51.215,466.42l-5.358-20.034,18.413-5.05s-6.815-27.794-7.944-34.609c-.883-5.378-.37-19.624,11.105-25.638a26.04,26.04,0,0,1,11.6-2.73c22.682-.554,24.961,40.295,27.794,55.033l19.277-2.833,2.851,21.553Z" transform="translate(-24.485 -378.353)" fill="#070019"></path><path id="Path_17528" data-name="Path 17528" d="M117.146,481.225l-13.109-.895L134.8,454.09l-5.413.021-38.843-.575L63.218,477.842l-16.76-1.193-10.071,6.766,17.224,1.7S40.258,494.5,37.526,496.805c-2.147,1.815-4.986,6.626,5.074,8.656a59.229,59.229,0,0,0,10.955.922C76.109,506.57,88,492.778,94.3,487.8l18.608.957,7.923-7.277Z" transform="translate(-35.445 -299.208)" fill="#070019"></path><path id="Path_17529" data-name="Path 17529" d="M80.757,415.946l12.481,77.716-5.4-.061L74.927,416.644Z" transform="translate(6.118 -338.779)" fill="#a0f2f9"></path><path id="Path_17530" data-name="Path 17530" d="M117.887,452.113l-3.859.76-2.771-17.735-19.419,2.976s-4.947-47.089-17.12-54.335c-6.138-3.654-13.035-3.613-18.351-2.689a26.04,26.04,0,0,1,11.6-2.73c22.682-.554,24.961,40.295,27.794,55.033l19.277-2.833Z" transform="translate(-13.421 -378.353)" fill="#a0f2f9"></path></g><g id="Group_2635" data-name="Group 2635"><path id="Path_17531" data-name="Path 17531" d="M74.587,370.667l-.8,35.573-3.633.164L58,406.958l.985,63.634-4.865.431L23,473.795l-4.578-65.05-15.4.7-3.2-33.993L16,374.423l-1.95-27.855-.246-3.49L57,340.676l.472,31.078Z" transform="translate(40.107 -340.676)" fill="#070019"></path><path id="Path_17532" data-name="Path 17532" d="M53.19,450.114,66.835,435.3l-3.567-.068L51.342,435l28.125-31.035-35.984,3.2L12.491,434.258l-15.112-.29-17.006,14.155,15.758.427-13.261,11.6-1.663,1.453,42.214,1,13.092-12.942Z" transform="translate(19.627 -274.05)" fill="#070019"></path><path id="Path_17533" data-name="Path 17533" d="M30.779,372.966l.985,63.634-4.865.431-1.211-63.819Z" transform="translate(67.33 -306.684)" fill="#a0f2f9"></path><path id="Path_17534" data-name="Path 17534" d="M67.418,370.667l-.8,35.573-3.633.164.246-31.3-17.776.288-.575-30.667-38,1.847-.246-3.49,43.189-2.4.472,31.078Z" transform="translate(47.276 -340.676)" fill="#a0f2f9"></path></g><g id="Group_2636" data-name="Group 2636" transform="translate(523.429 142.748)"><path id="Path_17535" data-name="Path 17535" d="M320.616,580.261l-3.161.267L273.978,584.2,237.646,450.468l-2.279-8.375,18-6.959s-1.622-20.32,13.014-24.407c14.656-4.064,21.163,17.489,21.163,17.489l22.375-.8Z" transform="translate(-235.367 -410.217)" fill="#070019"></path><path id="Path_17536" data-name="Path 17536" d="M300.815,493.056,254.177,497l2.061,39.527.127,2.476,20,2.057s4.212,6.006,20.02,7.213c15.824,1.2,16.142-5.169,16.142-5.169l22.6.236Z" transform="translate(-215.566 -323.012)" fill="#070019"></path><path id="Path_17537" data-name="Path 17537" d="M320.616,580.261l-3.161.267c-4.6-52.077-12.747-145.25-12.747-145.25l-23.627.926s-5.007-21.371-13.176-19.544c-8.192,1.806-7.739,23.177-7.739,23.177l-22.52,10.631-2.279-8.375,18-6.959s-1.622-20.32,13.014-24.407c14.656-4.064,21.163,17.489,21.163,17.489l22.375-.8Z" transform="translate(-235.367 -410.217)" fill="#a0f2f9"></path></g><g id="Group_2637" data-name="Group 2637" transform="translate(636.082 213.724)"><path id="Path_17538" data-name="Path 17538" d="M412.239,482.013l-.942,6.281L394.463,600.557l-97.278-8.271-1.5-.125c0-1.478-5.44-119.037-5.44-119.037s7.9-6.916,28.165-7.9c0,0,8.394-22.724,34.566-20.238,26.172,2.461,27.65,25.185,27.65,25.185S399.41,471.156,412.239,482.013Z" transform="translate(-290.247 -444.794)" fill="#070019"></path><path id="Path_17539" data-name="Path 17539" d="M412.239,482.013l-.942,6.281c-15.746-9.44-37.567-11.7-37.567-11.7s-5.44-21.738-23.709-22.229c-18.29-.495-28.163,19.252-28.163,19.252-17.777.493-24.2,5.44-24.2,5.44l-.472,113.229-1.5-.125c0-1.478-5.44-119.037-5.44-119.037s7.9-6.916,28.165-7.9c0,0,8.394-22.724,34.566-20.238,26.172,2.461,27.65,25.185,27.65,25.185S399.41,471.156,412.239,482.013Z" transform="translate(-290.247 -444.794)" fill="#a0f2f9"></path></g><g id="Group_2638" data-name="Group 2638" transform="translate(369.422 137.682)"><path id="Path_17540" data-name="Path 17540" d="M250.449,456.576l-1.377,4.578-5.871,19.48-14.923-4.719c-10.879,28.9-22.929,59.385-22.929,59.385l-32.433-5.955-3.88-.716S181,494.88,191.678,464.376l-10.92-3.449-2.915-.922,7.267-24.078,14.862,4.7c3.366-9.709,6.035-17.528,7.308-21.512,5.481-17.12,33.11-13.753,37.113,2.463a.02.02,0,0,1,.021.02,19.166,19.166,0,0,1-.452,10.12c-1.437,4.885-3.941,12.152-6.979,20.609Z" transform="translate(-151.187 -407.75)" fill="#070019"></path><path id="Path_17541" data-name="Path 17541" d="M232.728,524.127l.187-2.954.78-12.577-16.535,3.048c-1.012-18.659-2.656-38.336-2.656-38.336l-36.312-6.671s-1.831,32.763-1.57,52.455l-12.1,2.227-3.231.6-.952,15.545,16.467-3.036c.051,6.269.049,11.317-.037,13.889-.365,11.052,28.414,8.878,37.953-1.591a.039.039,0,0,0,.029-.012,10.776,10.776,0,0,0,3-6.534c.23-3.153.207-7.845.055-13.3Z" transform="translate(-160.341 -345.759)" fill="#070019"></path><path id="Path_17542" data-name="Path 17542" d="M191.678,435.336l2.771.862L172.917,500.3l-3.88-.716S181,465.839,191.678,435.336Z" transform="translate(-151.187 -378.71)" fill="#a0f2f9"></path><path id="Path_17543" data-name="Path 17543" d="M207.176,417.761c-3.387,7.059-9.894,27.135-9.894,27.135l-14.41-5.091-6.63,21.122-2.915-.922,7.267-24.078,14.862,4.7c3.366-9.709,6.035-17.528,7.308-21.512,5.481-17.12,33.11-13.753,37.113,2.463C229.448,406.88,210.235,411.4,207.176,417.761Z" transform="translate(-146.671 -407.75)" fill="#a0f2f9"></path><path id="Path_17544" data-name="Path 17544" d="M216.53,433.716l-1.376,4.577-13.9-4.105,1.807-4.721Z" transform="translate(-117.268 -384.889)" fill="#a0f2f9"></path></g><g id="Group_2639" data-name="Group 2639" transform="translate(255.456 71.886)"><path id="Path_17545" data-name="Path 17545" d="M200.649,434.076l-4.434-.165-23.647-.882-1.663,65.46H140.382L139.253,431.8l-23.585-.862v-30.5l23.031-.575-.329-19.377-.061-3.736,35.717-1.047-.6,23.3,26.5-.656Z" transform="translate(-93.403 -375.696)" fill="#070019"></path><path id="Path_17546" data-name="Path 17546" d="M197.442,468.786l-4.471.085-23.848.456,13.2-33.81H151.8l-16.271,34.447-23.781.445-6.926,15.755,22.9.3-4.728,10.009-.909,1.929,35.479.541,4.695-12.034,26.352.339Z" transform="translate(-104.821 -312.723)" fill="#070019"></path><path id="Path_17547" data-name="Path 17547" d="M115.668,388.041l23.031-.575-.041,3.51h-22.99Z" transform="translate(-93.403 -363.306)" fill="#a0f2f9"></path><path id="Path_17548" data-name="Path 17548" d="M142.114,403.5l4.105.267-1.663,65.46H140.7Z" transform="translate(-67.053 -346.431)" fill="#a0f2f9"></path><path id="Path_17549" data-name="Path 17549" d="M184.6,433.911l.185-31.365-26.706-.411.41-22.395-31.735.739-.061-3.736,35.717-1.047-.6,23.3,26.5-.656.718,35.738Z" transform="translate(-81.791 -375.696)" fill="#a0f2f9"></path></g></g></g><g id="Group_2646" data-name="Group 2646" transform="translate(4035.911 7579.899)"><g id="Group_2644" data-name="Group 2644" transform="translate(0 0.517)"><path id="Path_17550" data-name="Path 17550" d="M1019.786,280.751l-.472,22.908-17.756,25.228-.575,40.13s-18.413,23.647-33.377,42.491c-9.789,12.357-18.126,22.641-18.8,22.867-1.725.575-19.5-3.428-19.5-3.428l-15.478,4.578L908.1,462.477l-29.805,8.6-17.2,22.929,53.473,9.771s6.712,50.435,7.289,52.139c0,.472-26.913,17.017-68.275,42.183-76.073,46.247-201.124,121.643-297.684,179.8-77.141,46.453-136.115,81.9-137.449,82.683l-.018.021S400.238,806.326,398,802.981s-6.918-57.373-6.918-57.373l8.5-8.724,6.22-6.384s-12.809-37.38-15.044-41.834-35.144-30.216-35.144-30.216l-6.464-4.249-23.957-15.765s-10.426-12.912-11.249-16.237c-.842-3.346-3.695-38.263-3.695-38.263l7.533-2.833,23.67-8.929-3.2-21.615-.534-3.613-3.446-20.322-3.8-42.717,6.9-6.322,14.225-13.055S340.032,428.361,341.1,425.2c1.047-3.161,10.489-21.287,10.489-21.287l12.911-1.5L550,380.882s-13.261-42.84-20.548-65.6v-.021c-2.463-7.616-4.229-13.014-4.6-13.753-1.5-2.976-15.558-19.275-15.558-22.231s-2.239-28.163-2.239-28.163l-20.732,2.237-8.886-5.193s-.413-1.971-1.026-4.865c-1.562-7.287-4.374-20.424-4.908-22.559-.737-2.956-4.454-16.3-4.454-16.3l-9.237-8.683-3.346-3.161L450.8,160.5l7.675.369,15.5.76,66.633,3.284,313.038,34.4,97.976,13.26-4.539,45.8Z" transform="translate(-310.247 -160.503)" fill="#1d1421"></path><g id="Group_2642" data-name="Group 2642" transform="translate(0 0.369)"><path id="Path_17551" data-name="Path 17551" d="M409.253,226.431c0,1.991-6.936-.985-6.936-.985l-1.58,17.653c-1.562-7.287-4.374-20.424-4.908-22.559-.737-2.956-4.454-16.3-4.454-16.3l-9.237-8.683.657-34.876,15.5.759,3.512,26.829s-1.48,12.4,0,15.867C403.3,207.608,409.253,224.461,409.253,226.431Z" transform="translate(-234.568 -160.683)" fill="#573b66"></path><path id="Path_17552" data-name="Path 17552" d="M430.082,268.943l-1.56,18.249c-2.463-7.616-4.229-13.014-4.6-13.753-1.5-2.976-15.558-19.275-15.558-22.231s-2.239-28.163-2.239-28.163l15.046-35.881-.491,43.127,4.452,22.292,1.971-6.445Z" transform="translate(-209.313 -132.807)" fill="#573b66"></path><path id="Path_17553" data-name="Path 17553" d="M425.349,289.038l-2.478-44.113,11.9-20.818,10.9,20.322,2.974,39.157Z" transform="translate(-191.687 -93.915)" fill="#412c4c"></path><path id="Path_17554" data-name="Path 17554" d="M428.383,173.93l1.077,66.322,24.783-60.47Z" transform="translate(-185.884 -146.738)" fill="#573b66"></path><path id="Path_17555" data-name="Path 17555" d="M464.479,183.541l-2.974,30.731,6.443,63.94,5.949,21.313s3.966-39.652,3.966-41.138,1.983-48.575,1.983-48.575l-6.419-10.177L475.88,188Z" transform="translate(-151.016 -136.62)" fill="#573b66"></path><path id="Path_17556" data-name="Path 17556" d="M376.231,383.124l.557,30.111,14.5,41.822,6.172-37.01-1.308-33.353Z" transform="translate(-240.785 73.482)" fill="#2c3397"></path><path id="Path_17557" data-name="Path 17557" d="M363.493,284.409l-6.569,6.466L335.8,340.468s-11.557-36.169-10.489-39.33c1.047-3.161,10.489-21.287,10.489-21.287l12.911-1.5Z" transform="translate(-294.461 -36.811)" fill="#2c3397"></path><path id="Path_17558" data-name="Path 17558" d="M346.68,317.785l-3.92,9.156L330.34,370.109l-2.463,17.838-.534-3.613L323.9,364.012,320.1,321.3l6.9-6.322Z" transform="translate(-299.877 1.74)" fill="#2c3397"></path><path id="Path_17559" data-name="Path 17559" d="M349.148,438.5l-23.957-15.765s-10.426-12.912-11.249-16.237c-.842-3.346-3.695-38.263-3.695-38.263l7.533-2.833,13.117,8.519,1.95,40.541Z" transform="translate(-310.247 54.828)" fill="#2c3397"></path></g><path id="Path_17560" data-name="Path 17560" d="M514.439,445.543v32.289c-77.141,46.453-136.115,81.9-137.449,82.683l-.018.02s-18.189-54.274-20.426-57.619-6.918-57.373-6.918-57.373Z" transform="translate(-268.791 139.561)" fill="#271741"></path><path id="Path_17561" data-name="Path 17561" d="M816.907,254.044l-.472,22.908L798.679,302.18l-.575,40.13s-18.413,23.647-33.377,42.491c-9.789,12.357-18.125,22.641-18.8,22.867-1.724.575-19.5-3.428-19.5-3.428l-15.477,4.578-5.727,26.952-29.805,8.6-17.2,22.929,53.473,9.771s6.712,50.435,7.289,52.139c0,.472-26.913,17.017-68.275,42.183l-126.96,15.56L502.968,336.891,653,212.394l95.74-26.521-4.539,45.8Z" transform="translate(-107.368 -133.796)" fill="#271741"></path><g id="Group_2643" data-name="Group 2643" transform="translate(80.836 120.248)"><path id="Path_17562" data-name="Path 17562" d="M682.667,219.083l-.472,22.908-17.756,25.228-.575,40.13S645.451,331,630.487,349.841l15.375-35.963-1.683-29.559L652,267.589l-12.277-2.217,31.224-17.284Z" transform="translate(-53.963 -219.083)" fill="#573b66"></path><path id="Path_17563" data-name="Path 17563" d="M638.436,251.931l-15.559,87.35-5.733,26.946-29.812,8.6,7.109-25.261,7.249-14.5-15.056-6.692,6.692-21.19,10.595-15.056-5.494-15.748L601.69,257Z" transform="translate(-100.128 -184.504)" fill="#2c3397"></path><path id="Path_17564" data-name="Path 17564" d="M562.456,389.7c1.117-1.673,3.9-47.955,3.9-47.955l7.25-10.038,1.114,11.152,10.038-48.514,7.806-21.748-3.9,83.646-3.9,24.536Z" transform="translate(-125.58 -162.745)" fill="#2c3397"></path><path id="Path_17565" data-name="Path 17565" d="M386.884,537.955l-9.894,27.034-.018.021s-18.189-54.274-20.426-57.62-6.918-57.373-6.918-57.373l8.5-8.724c6.2.267,11.105.534,11.105.534l6.528,37.277Z" transform="translate(-349.627 14.84)" fill="#2c3397"></path></g></g><path id="Path_17566" data-name="Path 17566" d="M450.785,160.772s29.393,5.512,38.579,7.349,72.563,11.023,72.563,11.023l-9.186,9.186s24.8,11.941,33.985,13.776,33.067,11.943,33.067,11.943l12.86,10.1,77.155,8.266,73.481,9.186s-23.881,15.613-33.985,16.533S675.823,271,675.823,271s-22.046,36.739-33.067,41.333S600.5,328.863,600.5,328.863l-68.889,5.512-84.5,44.088-95.525,25.718L372.712,415.2s48.68,7.349,53.274,9.186,21.124,13.778,22.962,18.37S351.585,464.8,351.585,464.8s-14.7,9.186-20.209,17.452,18.372,20.207,34.9,25.718,36.741,16.533,36.741,16.533-57.866,35.824-67.971,41.335-24.8,18.37-24.8,18.37,13.778,10.1,22.962,11.941,131.349,35.822,131.349,35.822,9.186,10.1,14.7,10.1,50.517,16.535,50.517,16.535l-43.171,30.31s-82.667,34.9-85.421,36.741-10.1,20.207-10.1,20.207,42.251,9.186,52.356,10.1,76.235,10.1,76.235,10.1l15.615,3.674s-10.1,11.023-10.1,13.778L448.03,819.353l4.592,12.858-41.333,32.147H1484.87s-141.756-153.278-144.679-162.047,5.846-26.305,5.846-26.305-27.767-30.69-38-30.69-19-48.226-19-48.226-65.765-40.919-70.149-40.919-71.609-7.308-71.609-7.308-17.85-18.9-23.776-20.379-220.052,7.41-220.052,7.41,14.818-26.673,11.113-31.86-24.45-13.336-31.119-14.077-45.936-5.926-45.936-5.926-14.818-10.372-17.042-10.372-39.268-2.223-39.268-2.223,6.667-20.006,5.187-22.97-13.337-13.336-13.337-13.336l-26.673-13.337s21.486-17.039,31.117-20.745,53.346-7.41,57.792-8.892,25.191-9.631,25.191-9.631l-14.819-8.89s40.009.741,43.715-.741,40.01-24.45,40.01-24.45l-.741-17.042s34.083-8.89,38.527-9.631,28.155-15.56,28.155-15.56l24.45-25.191-37.046-22.97s-57.051-9.631-59.272-10.372-11.115-10.372-11.115-10.372,21.488-8.151,23.711-8.89,15.557-15.559,15.557-15.559l-33.34-17.783-53.346-13.336-44.456-19.265s-180.784.741-183.005,0-105.953-2.221-113.361-2.221S450.785,160.772,450.785,160.772Z" transform="translate(-310.242 -160.251)" fill="#412c4c"></path><g id="Group_2645" data-name="Group 2645" transform="translate(144.552 23.327)"><path id="Path_17567" data-name="Path 17567" d="M495.067,182.645c0,.614-2.03,1.111-4.534,1.111s-4.532-.5-4.532-1.111,2.03-1.113,4.532-1.113S495.067,182.029,495.067,182.645Z" transform="translate(-269.782 -161.175)" fill="#281c2e"></path><path id="Path_17568" data-name="Path 17568" d="M555.067,172.728c0,.614-2.03,1.113-4.534,1.113s-4.532-.5-4.532-1.113,2.03-1.113,4.532-1.113S555.067,172.114,555.067,172.728Z" transform="translate(-206.619 -171.615)" fill="#281c2e"></path><path id="Path_17569" data-name="Path 17569" d="M577.851,190.508c0,1.367-4.518,2.476-10.093,2.476s-10.091-1.108-10.091-2.476,4.518-2.476,10.091-2.476S577.851,189.14,577.851,190.508Z" transform="translate(-194.338 -154.333)" fill="#2a1e31"></path><path id="Path_17570" data-name="Path 17570" d="M594.421,179.472c0,.519-1.716.942-3.834.942s-3.837-.423-3.837-.942,1.718-.94,3.837-.94S594.421,178.953,594.421,179.472Z" transform="translate(-163.721 -164.333)" fill="#281c2e"></path><path id="Path_17571" data-name="Path 17571" d="M593.677,215.414c0,1.039-3.434,1.88-7.673,1.88s-7.671-.842-7.671-1.88,3.434-1.882,7.671-1.882S593.677,214.374,593.677,215.414Z" transform="translate(-172.582 -127.489)" fill="#281c2e"></path><path id="Path_17572" data-name="Path 17572" d="M636.342,215.579c0,1.039-3.434,1.882-7.671,1.882S621,216.618,621,215.579s3.434-1.88,7.671-1.88S636.342,214.541,636.342,215.579Z" transform="translate(-127.666 -127.313)" fill="#281c2e"></path><ellipse id="Ellipse_149" data-name="Ellipse 149" cx="6.625" cy="1.625" rx="6.625" ry="1.625" transform="translate(230.245 92.885)" fill="#2c3397"></ellipse><path id="Path_17573" data-name="Path 17573" d="M535.285,213.343c0,.77-2.545,1.394-5.684,1.394s-5.684-.624-5.684-1.394,2.546-1.394,5.684-1.394S535.285,212.573,535.285,213.343Z" transform="translate(-229.866 -129.155)" fill="#2c3397"></path><path id="Path_17574" data-name="Path 17574" d="M621.93,234.645c0,2.457-8.116,4.448-18.131,4.448s-18.132-1.991-18.132-4.448,8.119-4.446,18.132-4.446S621.93,232.19,621.93,234.645Z" transform="translate(-164.862 -109.943)" fill="#1d1421"></path><ellipse id="Ellipse_150" data-name="Ellipse 150" cx="18.132" cy="4.448" rx="18.132" ry="4.448" transform="translate(213.823 166.783)" fill="#2c3397"></ellipse><path id="Path_17575" data-name="Path 17575" d="M467.743,260c0,1.2-3.982,2.182-8.892,2.182s-8.892-.977-8.892-2.182,3.982-2.18,8.892-2.18S467.743,258.8,467.743,260Z" transform="translate(-307.724 -80.862)" fill="#2c3397"></path><path id="Path_17576" data-name="Path 17576" d="M531.917,274.421c0,1.542-5.093,2.792-11.376,2.792s-11.374-1.25-11.374-2.792,5.093-2.79,11.374-2.79S531.917,272.879,531.917,274.421Z" transform="translate(-245.394 -66.327)" fill="#2c3397"></path><path id="Path_17577" data-name="Path 17577" d="M423.756,268.265c0,1.416-4.684,2.566-10.461,2.566s-10.463-1.15-10.463-2.566,4.684-2.566,10.463-2.566S423.756,266.846,423.756,268.265Z" transform="translate(-357.333 -72.572)" fill="#2c3397"></path><path id="Path_17578" data-name="Path 17578" d="M518.93,292.98c0,2.455-8.117,4.446-18.132,4.446s-18.132-1.991-18.132-4.446,8.118-4.448,18.132-4.448S518.93,290.523,518.93,292.98Z" transform="translate(-273.291 -48.535)" fill="#2c3397"></path><path id="Path_17579" data-name="Path 17579" d="M463.317,306.427c0,4.13-13.653,7.48-30.491,7.48s-30.493-3.35-30.493-7.48,13.653-7.478,30.493-7.478S463.317,302.3,463.317,306.427Z" transform="translate(-357.859 -37.569)" fill="#2c3397"></path><path id="Path_17580" data-name="Path 17580" d="M442.265,328.145c0,2.457-8.118,4.448-18.134,4.448S406,330.6,406,328.145s8.118-4.446,18.132-4.446S442.265,325.69,442.265,328.145Z" transform="translate(-353.999 -11.515)" fill="#2c3397"></path><path id="Path_17581" data-name="Path 17581" d="M517.72,341.915c0,1.679-5.553,3.042-12.4,3.042s-12.4-1.363-12.4-3.042,5.553-3.042,12.4-3.042S517.72,340.236,517.72,341.915Z" transform="translate(-262.5 4.459)" fill="#2c3397"></path><path id="Path_17582" data-name="Path 17582" d="M624.222,363.991c0,4.982-16.467,9.022-36.778,9.022s-36.776-4.04-36.776-9.022,16.465-9.02,36.776-9.02S624.222,359.009,624.222,363.991Z" transform="translate(-201.706 21.406)" fill="#2c3397"></path><ellipse id="Ellipse_151" data-name="Ellipse 151" cx="33.014" cy="8.098" rx="33.014" ry="8.098" transform="translate(612.391 381.291)" fill="#2c3397"></ellipse><ellipse id="Ellipse_152" data-name="Ellipse 152" cx="28.738" cy="7.049" rx="28.738" ry="7.049" transform="translate(716.737 483.927)" fill="#2c3397"></ellipse><ellipse id="Ellipse_153" data-name="Ellipse 153" cx="58.673" cy="14.392" rx="58.673" ry="14.392" transform="translate(683.209 546.192)" fill="#2c3397"></ellipse><ellipse id="Ellipse_154" data-name="Ellipse 154" cx="45.844" cy="11.245" rx="45.844" ry="11.245" transform="translate(72.186 428.891)" fill="#2c3397"></ellipse><path id="Path_17583" data-name="Path 17583" d="M561.221,414.132c0,5.534-18.283,10.019-40.839,10.019s-40.841-4.485-40.841-10.019,18.284-10.017,40.841-10.017S561.221,408.6,561.221,414.132Z" transform="translate(-276.58 73.14)" fill="#2c3397"></path><path id="Path_17584" data-name="Path 17584" d="M616.58,433.057c0,4.385-14.494,7.94-32.373,7.94s-32.373-3.555-32.373-7.94,14.494-7.942,32.373-7.942S616.58,428.67,616.58,433.057Z" transform="translate(-200.479 95.247)" fill="#2c3397"></path><path id="Path_17585" data-name="Path 17585" d="M462.519,436.82c0,5.544-18.324,10.04-40.927,10.04s-40.925-4.5-40.925-10.04,18.323-10.038,40.925-10.038S462.519,431.275,462.519,436.82Z" transform="translate(-380.667 97.002)" fill="#2c3397"></path><path id="Path_17586" data-name="Path 17586" d="M482.305,468.4c0,2.457-8.117,4.448-18.132,4.448s-18.132-1.991-18.132-4.448,8.118-4.446,18.132-4.446S482.305,465.94,482.305,468.4Z" transform="translate(-311.846 136.128)" fill="#2c3397"></path></g></g><g id="Group_2651" data-name="Group 2651" transform="translate(4177.393 7308.176)"><g id="Group_2647" data-name="Group 2647" transform="translate(0 204.35)"><path id="Path_17587" data-name="Path 17587" d="M380.027,130.356l8.2-2.927,23.416,68.784h-9.659Z" transform="translate(-378.271 -127.429)" fill="#070019"></path><path id="Path_17588" data-name="Path 17588" d="M379.172,146.266l17.562-6.147,2.342,7.61-18.44,6.146Z" transform="translate(-379.172 -114.07)" fill="#070019"></path><path id="Path_17589" data-name="Path 17589" d="M393.716,127.857l9.659,67.906,9.074-.293-13.171-67.613Z" transform="translate(-363.861 -126.979)" fill="#070019"></path><path id="Path_17590" data-name="Path 17590" d="M392.86,140.375l16.976-4.39,1.171,6.439-17.854,4.1Z" transform="translate(-364.761 -118.423)" fill="#070019"></path><path id="Path_17591" data-name="Path 17591" d="M409.753,133.846l-2.634,56.2,10.537.585-1.463-55.319Z" transform="translate(-349.751 -120.675)" fill="#070019"></path><path id="Path_17592" data-name="Path 17592" d="M405.851,145.253l36.294,4.683-.878,8.488-36-4.976Z" transform="translate(-351.702 -108.666)" fill="#070019"></path><path id="Path_17593" data-name="Path 17593" d="M421.423,131.144,419.667,192.9H430.79l-2.342-62.052Z" transform="translate(-336.541 -123.827)" fill="#070019"></path><path id="Path_17594" data-name="Path 17594" d="M419.547,139.715l12.879-.878.293,6.147-14.049,1.463Z" transform="translate(-337.592 -115.421)" fill="#070019"></path><path id="Path_17595" data-name="Path 17595" d="M434.617,130l-4.683,64.1,11.415.293L442.52,130Z" transform="translate(-325.734 -124.727)" fill="#070019"></path><path id="Path_17596" data-name="Path 17596" d="M430.534,139.977,463.9,143.2l-.585,8.488-33.953-3.512Z" transform="translate(-326.334 -114.22)" fill="#070019"></path><path id="Path_17597" data-name="Path 17597" d="M447.885,131.85l-4.976,60.588,8.781,1.171,2.927-60.3Z" transform="translate(-312.074 -122.776)" fill="#070019"></path><path id="Path_17598" data-name="Path 17598" d="M445.048,145.636l40.978-3.805v7.025l-39.807,3.22Z" transform="translate(-309.822 -112.269)" fill="#070019"></path><path id="Path_17599" data-name="Path 17599" d="M458.872,136.983l-5.269,52.1,8.781.293,2.635-51.222Z" transform="translate(-300.816 -117.372)" fill="#070019"></path><path id="Path_17600" data-name="Path 17600" d="M463.6,140.84l-.585,45.075,10.245-.585-3.22-44.782Z" transform="translate(-290.909 -113.62)" fill="#070019"></path></g><g id="Group_2648" data-name="Group 2648" transform="translate(366.122 222.728)"><path id="Path_17601" data-name="Path 17601" d="M590.645,196.87l10.3-43.6,5.493,1.03-8.582,45.657Z" transform="translate(-522.674 -118.601)" fill="#070019"></path><path id="Path_17602" data-name="Path 17602" d="M587,153.106l33.3,14.418-2.4,4.463-32.269-11.328Z" transform="translate(-527.956 -118.777)" fill="#070019"></path><path id="Path_17603" data-name="Path 17603" d="M594.412,213.965l-4.463-77.239-5.492-.343.686,74.15Z" transform="translate(-529.188 -136.382)" fill="#070019"></path><path id="Path_17604" data-name="Path 17604" d="M574.255,153.784l27.806-.343v7.552H574.6Z" transform="translate(-539.927 -118.425)" fill="#070019"></path><path id="Path_17605" data-name="Path 17605" d="M572.918,140.9l3.433,59.045,9.955,3.433-6.179-62.135Z" transform="translate(-541.335 -131.629)" fill="#070019"></path><path id="Path_17606" data-name="Path 17606" d="M608.276,140.4l-35.359,1.03,1.717,5.836,33.3-.343Z" transform="translate(-541.335 -132.157)" fill="#070019"></path><path id="Path_17607" data-name="Path 17607" d="M564.389,147.429l1.03,39.821,7.9,1.373-2.4-41.537Z" transform="translate(-550.314 -125.115)" fill="#070019"></path><path id="Path_17608" data-name="Path 17608" d="M557.532,157.384l34.328-3.776,1.373,8.582-35.7,1.716Z" transform="translate(-557.532 -118.249)" fill="#070019"></path></g><g id="Group_2649" data-name="Group 2649" transform="translate(174.368 73.374)"><path id="Path_17609" data-name="Path 17609" d="M685.42,222.79H666.268l-6.815,46.371-66.834.328-28.945.144-77,.39-8.519-61.7-14.041.431c13.2-17.037,31.078-46.391,31.078-46.391,11.906,14.472,41.691,44.256,41.691,44.256H523.707l.842,8.929,25.1-.842-2.976-34.9-13.609-.431c22.561-37.441,43.825-90.217,43.825-90.217,9.36,35.738,40.438,91.92,40.438,91.92H601.156l.842,8.929h26.357l-.452-34.814h-6.281V142.878h6.137l-.185-13.835-11.105.123c12.768-31.078,19.152-65.543,19.152-65.543,6.384,31.057,18.741,65.112,18.741,65.112l-10.223.1v14.041h7.39v12.316h-7.39v34.814h23.832Z" transform="translate(-464.117 -63.623)" fill="#070019"></path><path id="Path_17610" data-name="Path 17610" d="M512.134,120.812l10.138-18.828,10.718,19.408Z" transform="translate(-413.569 -23.241)" fill="#ffe600"></path><path id="Path_17611" data-name="Path 17611" d="M476.573,138.228l7.821-15.642L496.85,137.36Z" transform="translate(-451.004 -1.552)" fill="#ffe600"></path><path id="Path_17612" data-name="Path 17612" d="M486.675,137.262c-8.116,0-8.4,8.112-7.531,15.354s2.9,19.7,2.9,19.7L500,171.733s-1.736-13.614-2.315-19.987S493.049,137.262,486.675,137.262Z" transform="translate(-448.651 13.897)" fill="#ffe600"></path><path id="Path_17613" data-name="Path 17613" d="M496.54,142.7l13.7-.731,1.279,12.788-13.885.731Z" transform="translate(-429.985 18.856)" fill="#ffe600"></path><path id="Path_17614" data-name="Path 17614" d="M514.892,130.817l13.721.141.463,12.844-13.9-.153Z" transform="translate(-410.665 7.113)" fill="#ffe600"></path><path id="Path_17615" data-name="Path 17615" d="M534.589,143.949l13.721.141.464,12.844-13.9-.153Z" transform="translate(-389.93 20.937)" fill="#ffe600"></path><path id="Path_17616" data-name="Path 17616" d="M545.874,144.154l13.72.141.464,12.844-13.9-.153Z" transform="translate(-378.051 21.153)" fill="#ffe600"></path><path id="Path_17617" data-name="Path 17617" d="M497.43,150.98l13.7-.731,1.279,12.788-13.885.731Z" transform="translate(-429.048 27.569)" fill="#ffe600"></path><path id="Path_17618" data-name="Path 17618" d="M542.038,181.675l-28.945.144c-.246-4.865-.76-15.662-.924-21.718-.205-8.006,6.735-12.85,14.738-13.055,8.006-.226,14.533,5.686,14.739,12.419C541.81,164.556,541.975,176.256,542.038,181.675Z" transform="translate(-413.536 24.191)" fill="#ffe600"></path></g><g id="Group_2650" data-name="Group 2650" transform="translate(442.549)"><path id="Path_17619" data-name="Path 17619" d="M594.764,296.126l31.3-48.75s23.6-75.433,26.17-80.051,21.552-29.764,21.552-29.764l32.33-13.341s35.92-26.17,37.973-27.71,30.275-7.184,36.434-7.7,29.249,5.645,29.249,5.645,29.249-8.724,31.3-8.724,20.014,4.105,20.014,4.105S894.958,69.312,896.5,68.8s18.474-4.619,18.474-4.619L895.985,72.9,862.117,96.51,841.077,92.4l-22.065,7.7,11.29,3.079,35.407,3.592,44.131-15.906-45.158,23.091-36.947-4.105-47.21-12.314-35.407,6.669-23.093,20.527,26.685,5.645,21.552,2.566L746.145,135l-27.2-5.132-40.026,17.446L663.015,170.4l-11.29,46.184,75.433-27.2,24.119.513s9.235,6.671,11.288,6.671S799,184.257,799,184.257l-36.947,20.527L748.2,196.06H727.671s-68.248,30.275-69.788,31.3S622.476,306.9,622.476,306.9Z" transform="translate(-594.764 10.337)" fill="#070019"></path><path id="Path_17620" data-name="Path 17620" d="M617.435,181.676l17.96-8.724,9.237-1.539,17.447-13.855,6.158-14.881-4.105,21.039-20.013,15.908-9.75,2.053-23.6,18.474Z" transform="translate(-577.921 92.971)" fill="#070019"></path><path id="Path_17621" data-name="Path 17621" d="M653.344,132.459l20.971,10.21,26.215,6.623-25.387-10.486L661.071,128.32Z" transform="translate(-533.096 77.858)" fill="#070019"></path><path id="Path_17622" data-name="Path 17622" d="M682.381,129.339l33.389,7.726L688.452,126.3Z" transform="translate(-502.529 75.735)" fill="#070019"></path><path id="Path_17623" data-name="Path 17623" d="M636.768,197.435c0-1.1,1.932-25.94,1.932-25.94l-5.52-33.664,18.212-28.147-13.8,28.424,3.586,22.35S674.848,122.1,676.5,121.55s18.489-3.588,18.489-3.588l19.316-10.21s26.49,4.693,26.49,5.52-25.938-1.657-25.938-1.657l-11.314,7.176,22.077,10.485-27.595-6.622-19.316,4.138-30.906,35.6-3.167,17.052-6.491,19.373Z" transform="translate(-554.323 56.206)" fill="#070019"></path><path id="Path_17624" data-name="Path 17624" d="M619.063,196.227,608.4,173.853s7.285-24.973,9.625-28.356S643,128.586,643,128.586l1.041-3.641s-29.657,15.35-32.519,18.47-13.008,27.317-13.788,29.918,11.185,35.12,11.185,35.12Z" transform="translate(-591.678 74.305)" fill="#070019"></path><path id="Path_17625" data-name="Path 17625" d="M633.476,202.25,622.1,156.459l-10.791-23.335s12.833-54.251,14-56.291S651.852,57,652.727,57.288s-22.75,20.127-22.75,20.127-11.085,53.085-10.793,54.543,7.293,18.084,7.293,18.084l6.417,17.791,9.04-36.167s32.086-45.209,34.418-47.251,70.584-39.084,71.461-39.084-66.793,44.043-66.793,44.043L648.644,136.04l-9.919,47.251Z" transform="translate(-577.347 -9.505)" fill="#070019"></path><path id="Path_17626" data-name="Path 17626" d="M616.983,77.469S645.431,59,646.429,59s-29.446,26.952-29.446,26.952Z" transform="translate(-571.374 4.888)" fill="#070019"></path><path id="Path_17627" data-name="Path 17627" d="M638.866,117.971c0-.749,9.233-48.664,9.233-48.664L669.81,38.614s18.717-10.98,19.466-10.732-16.471,12.478-17.22,12.977-17.469,29.2-17.967,29.947-6.489,34.687-6.489,34.687Z" transform="translate(-548.337 -27.878)" fill="#070019"></path><path id="Path_17628" data-name="Path 17628" d="M652.11,50.252s48.663-19.215,50.41-18.967-54.9,27.7-54.9,27.7Z" transform="translate(-539.123 -24.294)" fill="#070019"></path><path id="Path_17629" data-name="Path 17629" d="M654.39,79.85c.747-.5,24.7-1,24.7-1L715.78,65.376l36.684-20.962s-35.686,25.7-37.183,26.2S677.6,84.842,676.849,85.091s-30.446,2-30.446,2Z" transform="translate(-540.403 -10.47)" fill="#070019"></path><path id="Path_17630" data-name="Path 17630" d="M680.8,70.287l42.175,4.992s44.421-30.446,45.669-30.947,33.439,1.5,33.439,1.5L769.888,47.08s-46.418,32.94-47.167,33.19-50.909-4.491-50.909-4.491Z" transform="translate(-513.655 -10.64)" fill="#070019"></path><path id="Path_17631" data-name="Path 17631" d="M708.163,54.582s22.459,3.742,23.707,3.742,15.223-1.5,15.223-1.5l-17.719-1-18.466-4.243Z" transform="translate(-475.388 -2.919)" fill="#070019"></path><path id="Path_17632" data-name="Path 17632" d="M648.293,122.205l18.284-30.091S698.19,68.88,699.331,68.5,670.766,93.638,670,94.781s-10.284,23.235-10.284,23.235Z" transform="translate(-538.413 14.881)" fill="#070019"></path><path id="Path_17633" data-name="Path 17633" d="M665.55,86.233l48.752,20.95s18.283,3.046,19.427,3.046,17.138,9.522,17.138,9.522l44.946-3.81s-42.659-.762-44.564-1.141-17.14-9.9-19.045-10.666-18.281-3.046-18.281-3.046L677.737,82.043Z" transform="translate(-520.247 29.142)" fill="#070019"></path><path id="Path_17634" data-name="Path 17634" d="M694.125,93.548s6.094,17.9,6.856,19.425,13.712,10.284,13.712,10.284l-10.284-12.189L699.838,94.31Z" transform="translate(-490.166 41.253)" fill="#070019"></path><path id="Path_17635" data-name="Path 17635" d="M710.082,99.5l17.9,15.235,6.476,20.948,24.376,11.046s-19.425-12.951-20.568-14.092-5.713-20.186-5.713-20.186L717.32,99.114Z" transform="translate(-473.368 47.113)" fill="#070019"></path></g></g><g id="Group_2694" data-name="Group 2694" transform="translate(4080.35 7506.71)"><g id="Group_2673" data-name="Group 2673" transform="translate(0 250.895)"><path id="Path_17668" data-name="Path 17668" d="M399.46,351.915c-63.56,6.1-91.079,46.348,31.764,45.7S521,340.245,399.46,351.915Z" transform="translate(-339.931 -209.166)" fill="#2c3397"></path><g id="Group_2670" data-name="Group 2670"><path id="Path_17669" data-name="Path 17669" d="M386.031,333.4s7.536-18.649,7.063-25.971-19.39-25.866-19.39-25.866-8.057-.429-9.993,7.872c0,0,18.359,18.945,19,21.005s-3.658,23.1-3.658,23.1Z" transform="translate(-320.687 -281.562)" fill="#070019"></path><g id="Group_2665" data-name="Group 2665" transform="translate(0 44.339)"><path id="Path_17670" data-name="Path 17670" d="M475.312,393.469c-5.395,26.8-28.083,25.281-28.083,25.281-10.372,7.78-27.447,3.463-27.447,3.463s-6.7,3.668-19.874,3.241-19.02-5.407-19.02-5.407-17.074,2.812-30.039-14.482a40.891,40.891,0,0,1-7.117-17.633,72.447,72.447,0,0,1-.844-16.582,108.743,108.743,0,0,1,9.7-38.6c10.58-22.908,27.876-20.1,27.876-20.1,7.558-9.943,26.188-4.822,26.188-4.822,10.76-9.438,25.023-1.661,25.023-1.661a38.448,38.448,0,0,1,14.845-.349,26.328,26.328,0,0,1,12.382,5.536c5.2,4.3,9.568,13.172,12.7,23.984C476.841,353.342,478.7,376.731,475.312,393.469Z" transform="translate(-342.752 -303.162)" fill="#46b1fd"></path><path id="Path_17671" data-name="Path 17671" d="M475.312,392.1c-5.395,26.8-28.083,25.281-28.083,25.281-10.372,7.78-27.447,3.463-27.447,3.463s-6.7,3.668-19.874,3.241-19.02-5.407-19.02-5.407-17.074,2.812-30.039-14.482a40.891,40.891,0,0,1-7.117-17.633,72.447,72.447,0,0,1-.844-16.582c2.5,5.056,7.765,12.043,17.684,12.175,15.557.22,17.723-29.378,17.723-29.378s3.241,34.356,21.172,34.137,20.964-58.991,20.964-58.991,10.153,16.426,15.779,24.854,15.336-6.7,9.282-25.723c0,0,7.57,6.483,11.021,15.777,3.344,9,11.953-18.021-10-38.375A26.327,26.327,0,0,1,458.9,310c5.2,4.3,9.568,13.172,12.7,23.984C476.841,351.976,478.7,375.365,475.312,392.1Z" transform="translate(-342.752 -301.796)" fill="#2da1e8"></path><path id="Path_17672" data-name="Path 17672" d="M474.81,376.964c-5.395,26.8-28.083,25.281-28.083,25.281-10.372,7.78-27.447,3.463-27.447,3.463s-6.7,3.668-19.874,3.241-19.02-5.407-19.02-5.407-17.074,2.812-30.039-14.482a40.89,40.89,0,0,1-7.117-17.633c3.668,7.026,9.231,12.343,16.84,14.184,18.8,4.536,22.908-2.814,22.908-2.814a27.813,27.813,0,0,0,25.062,2.595c14.055-5.407,19.669-29.173,19.02-42.565,0,0,3.668,17.282,2.593,29.6,0,0,20.523-11.887,22.469-30.9,0,0,1.944,9.5,1.3,14.043,0,0,15.428-12.24,17.684-36.731C476.339,336.837,478.193,360.226,474.81,376.964Z" transform="translate(-342.249 -286.657)" fill="#0e78ad"></path></g><path id="Path_17673" data-name="Path 17673" d="M364.48,313.166c-9.075-1.08-28.091,38.462-11.452,40.839S373.555,314.246,364.48,313.166Z" transform="translate(-338.876 -248.315)" fill="#a4f0fc"></path><path id="Path_17674" data-name="Path 17674" d="M370,311.083c-6.257,3.067-11.885,36.951,4.539,36.951S381.026,305.68,370,311.083Z" transform="translate(-320.632 -250.986)" fill="#a4f0fc"></path><path id="Path_17675" data-name="Path 17675" d="M383.048,310.16c-2.469,2.853,5.185,23.553,11.883,22.9S389.962,302.165,383.048,310.16Z" transform="translate(-300.831 -252.872)" fill="#a4f0fc"></path><path id="Path_17676" data-name="Path 17676" d="M389.331,308.839s15.126,19.88,16.639,45.377-8.32,52.724-8.32,52.724S412.235,343.2,389.331,308.839Z" transform="translate(-293.717 -252.848)" fill="#070019"></path><path id="Path_17677" data-name="Path 17677" d="M378.173,309.471s11.237,19.447,14.693,49.265-8.644,51.644-8.644,51.644S398.7,357.872,378.173,309.471Z" transform="translate(-305.464 -252.182)" fill="#070019"></path><path id="Path_17678" data-name="Path 17678" d="M363.082,312.629s-14.045,57.478,13.18,93.563C376.263,406.191,356.6,366,363.082,312.629Z" transform="translate(-325.162 -248.858)" fill="#070019"></path><g id="Group_2666" data-name="Group 2666" transform="translate(30.851 93.625)"><path id="Path_17679" data-name="Path 17679" d="M389.376,356.369a33.454,33.454,0,0,1-5.043-1.129c-7.573-2.242-21.5-8.648-26.293-25.93-.09-.322-.181-.647-.259-.985,0,0,21.7-2.593,27.874,0C391.8,330.92,391.969,348.745,389.376,356.369Z" transform="translate(-357.781 -327.173)" fill="#ffe600"></path><path id="Path_17680" data-name="Path 17680" d="M389.376,356.369a33.454,33.454,0,0,1-5.043-1.129c1.412-6.961,2.112-23.1-2.412-24.489-3.98-1.207-17.335-1.414-23.881-1.441-.09-.322-.181-.647-.259-.985,0,0,21.7-2.593,27.874,0C391.8,330.92,391.969,348.745,389.376,356.369Z" transform="translate(-357.781 -327.173)" fill="#070019"></path></g><g id="Group_2668" data-name="Group 2668" transform="translate(104.866 84.873)"><g id="Group_2667" data-name="Group 2667"><path id="Path_17681" data-name="Path 17681" d="M418.5,322.909c.012.324,0,.649,0,.973-.378,17.177-10.36,25.657-16.038,29.105a23.117,23.117,0,0,1-3.851,1.932,30.09,30.09,0,0,1-1.646-3.758c-2.5-6.833-4.278-17.179-2.231-21.744a4.159,4.159,0,0,1,1.195-1.659C400.4,324.231,418.5,322.909,418.5,322.909Z" transform="translate(-393.839 -322.909)" fill="#ffe600"></path></g><path id="Path_17682" data-name="Path 17682" d="M418.04,322.909c.012.324,0,.649,0,.973-.378,17.177-10.36,25.657-16.038,29.105a23.112,23.112,0,0,1-3.851,1.932,30.09,30.09,0,0,1-1.646-3.758c16.413-8.209,17.5-25.154,17.5-25.154a67.741,67.741,0,0,0-19.733,3.41,4.16,4.16,0,0,1,1.195-1.659C399.939,324.231,418.04,322.909,418.04,322.909Z" transform="translate(-393.38 -322.909)" fill="#070019"></path></g><g id="Group_2669" data-name="Group 2669" transform="translate(85.781 99.066)"><path id="Path_17683" data-name="Path 17683" d="M403.342,354.059s-2.024.556-5.122,1.1a63.017,63.017,0,0,1-13.679,1.012s2.658-16.362,6.173-23.662a14.632,14.632,0,0,1,1.127-1.956C395.886,324.888,403.342,354.059,403.342,354.059Z" transform="translate(-384.541 -329.823)" fill="#ffe600"></path><path id="Path_17684" data-name="Path 17684" d="M400.176,354.059s-2.024.556-5.122,1.1c-1.193-8.192-5.433-18.15-7.507-22.65a14.625,14.625,0,0,1,1.127-1.956C392.721,324.888,400.176,354.059,400.176,354.059Z" transform="translate(-381.375 -329.823)" fill="#070019"></path></g></g><g id="Group_2672" data-name="Group 2672" transform="translate(65.396 129.095)"><g id="Group_2671" data-name="Group 2671"><path id="Path_17685" data-name="Path 17685" d="M431.655,344.452s-.6,6.487-10.325,12.4a47.07,47.07,0,0,1-16.668,6.24,35.262,35.262,0,0,1-8.006.472c-15.067-.821-21.882-11.762-22.046-12.275.185.082,24.838,2.237,47.869-3.9A82.319,82.319,0,0,0,431.655,344.452Z" transform="translate(-374.61 -344.452)" fill="#ffe600"></path></g><path id="Path_17686" data-name="Path 17686" d="M420.349,344.452s-.6,6.487-10.325,12.4a47.071,47.071,0,0,1-16.668,6.24,35.261,35.261,0,0,1-8.006.472c15.518-2.648,23.011-11.721,25.823-16.175A82.317,82.317,0,0,0,420.349,344.452Z" transform="translate(-363.304 -344.452)" fill="#070019"></path></g></g><g id="Group_2676" data-name="Group 2676" transform="translate(379.068 122.65)"><path id="Path_17687" data-name="Path 17687" d="M556.523,255.192c-32.622,3.132-46.744,23.789,16.3,23.456S618.9,249.2,556.523,255.192Z" transform="translate(-525.971 -181.931)" fill="#070019"></path><g id="Group_2675" data-name="Group 2675"><path id="Path_17688" data-name="Path 17688" d="M549.631,245.693s3.867-9.572,3.625-13.33-9.952-13.275-9.952-13.275a5.076,5.076,0,0,0-5.128,4.04s9.422,9.722,9.752,10.781-1.876,11.854-1.876,11.854Z" transform="translate(-516.094 -219.086)" fill="#070019"></path><g id="Group_2674" data-name="Group 2674" transform="translate(0 22.755)"><path id="Path_17689" data-name="Path 17689" d="M595.452,276.519c-2.767,13.755-14.412,12.975-14.412,12.975-5.323,3.992-14.086,1.778-14.086,1.778s-3.44,1.882-10.2,1.663-9.763-2.775-9.763-2.775-8.763,1.445-15.416-7.431a21.015,21.015,0,0,1-3.654-9.05,37.252,37.252,0,0,1-.433-8.511,55.852,55.852,0,0,1,4.978-19.809c5.43-11.756,14.305-10.313,14.305-10.313,3.88-5.1,13.441-2.476,13.441-2.476,5.524-4.844,12.842-.852,12.842-.852a19.734,19.734,0,0,1,7.62-.179,13.479,13.479,0,0,1,6.353,2.841c2.668,2.209,4.912,6.76,6.522,12.31C596.238,255.926,597.188,267.93,595.452,276.519Z" transform="translate(-527.419 -230.172)" fill="#ff8a15"></path><path id="Path_17690" data-name="Path 17690" d="M595.452,275.817c-2.767,13.755-14.412,12.975-14.412,12.975-5.323,3.992-14.086,1.778-14.086,1.778s-3.44,1.882-10.2,1.663-9.763-2.775-9.763-2.775-8.763,1.445-15.416-7.431a21.014,21.014,0,0,1-3.654-9.05,37.252,37.252,0,0,1-.433-8.51c1.285,2.6,3.986,6.183,9.077,6.248,7.985.113,9.1-15.077,9.1-15.077s1.663,17.633,10.865,17.52,10.76-30.275,10.76-30.275,5.21,8.43,8.1,12.756,7.872-3.44,4.764-13.2a22.158,22.158,0,0,1,5.655,8.1c1.716,4.617,6.136-9.25-5.13-19.7a13.479,13.479,0,0,1,6.353,2.841c2.668,2.209,4.912,6.76,6.522,12.31C596.238,255.224,597.188,267.228,595.452,275.817Z" transform="translate(-527.419 -229.47)" fill="#ec6c0f"></path><path id="Path_17691" data-name="Path 17691" d="M595.194,268.047c-2.767,13.755-14.412,12.975-14.412,12.975-5.323,3.992-14.086,1.778-14.086,1.778s-3.44,1.882-10.2,1.663-9.763-2.775-9.763-2.775-8.763,1.445-15.416-7.431a21.014,21.014,0,0,1-3.654-9.05c1.884,3.607,4.738,6.335,8.644,7.279,9.648,2.33,11.758-1.443,11.758-1.443a14.271,14.271,0,0,0,12.862,1.33c7.211-2.773,10.093-14.97,9.761-21.845,0,0,1.882,8.87,1.33,15.192,0,0,10.533-6.1,11.532-15.857,0,0,1,4.877.665,7.207,0,0,7.917-6.281,9.075-18.85C595.98,247.454,596.931,259.458,595.194,268.047Z" transform="translate(-527.161 -221.7)" fill="#dd4907"></path></g><path id="Path_17692" data-name="Path 17692" d="M538.57,235.306c-4.658-.554-14.416,19.741-5.877,20.96S543.228,235.86,538.57,235.306Z" transform="translate(-525.429 -202.023)" fill="#ffb314"></path><path id="Path_17693" data-name="Path 17693" d="M541.407,234.237c-3.213,1.574-6.1,18.963,2.328,18.963S547.062,231.464,541.407,234.237Z" transform="translate(-516.067 -203.393)" fill="#ffb314"></path><path id="Path_17694" data-name="Path 17694" d="M548.1,233.763c-1.267,1.466,2.662,12.088,6.1,11.756S551.649,229.659,548.1,233.763Z" transform="translate(-505.904 -204.362)" fill="#ffb314"></path><path id="Path_17695" data-name="Path 17695" d="M551.325,233.085s7.763,10.2,8.539,23.29-4.269,27.059-4.269,27.059S563.081,250.718,551.325,233.085Z" transform="translate(-502.253 -204.349)" fill="#070019"></path><path id="Path_17696" data-name="Path 17696" d="M545.6,233.409s5.768,9.982,7.542,25.285a47.818,47.818,0,0,1-4.436,26.5S556.135,258.251,545.6,233.409Z" transform="translate(-508.282 -204.008)" fill="#070019"></path><path id="Path_17697" data-name="Path 17697" d="M537.853,235.03s-7.207,29.5,6.766,48.019C544.619,283.049,534.528,262.421,537.853,235.03Z" transform="translate(-518.391 -202.302)" fill="#070019"></path></g></g><g id="Group_2686" data-name="Group 2686" transform="translate(198.719)"><g id="Group_2679" data-name="Group 2679"><path id="Path_17698" data-name="Path 17698" d="M451.215,173.795c-13.063,1.254-18.719,9.527,6.528,9.393S476.194,171.4,451.215,173.795Z" transform="translate(-438.98 -144.456)" fill="#070019"></path><g id="Group_2678" data-name="Group 2678"><path id="Path_17699" data-name="Path 17699" d="M448.454,169.99s1.55-3.832,1.451-5.337-3.984-5.316-3.984-5.316a2.034,2.034,0,0,0-2.053,1.62s3.773,3.892,3.9,4.317a38.776,38.776,0,0,1-.751,4.746Z" transform="translate(-435.024 -159.336)" fill="#070019"></path><g id="Group_2677" data-name="Group 2677" transform="translate(0 9.113)"><path id="Path_17700" data-name="Path 17700" d="M466.8,182.335c-1.109,5.507-5.772,5.2-5.772,5.2-2.131,1.6-5.641.712-5.641.712a8.553,8.553,0,0,1-4.085.665A6.629,6.629,0,0,1,447.4,187.8a6.777,6.777,0,0,1-6.175-2.976,8.432,8.432,0,0,1-1.462-3.623,14.984,14.984,0,0,1-.174-3.41,22.4,22.4,0,0,1,1.993-7.932c2.176-4.709,5.729-4.13,5.729-4.13,1.554-2.045,5.382-.991,5.382-.991,2.213-1.94,5.142-.341,5.142-.341a7.91,7.91,0,0,1,3.052-.072,5.413,5.413,0,0,1,2.543,1.137,10.388,10.388,0,0,1,2.613,4.931A27.578,27.578,0,0,1,466.8,182.335Z" transform="translate(-439.56 -163.775)" fill="#ff8a15"></path><path id="Path_17701" data-name="Path 17701" d="M466.8,182.055c-1.109,5.507-5.772,5.2-5.772,5.2-2.131,1.6-5.641.712-5.641.712a8.553,8.553,0,0,1-4.085.665,6.629,6.629,0,0,1-3.908-1.111,6.777,6.777,0,0,1-6.175-2.976,8.432,8.432,0,0,1-1.462-3.623,14.984,14.984,0,0,1-.174-3.41,4.1,4.1,0,0,0,3.635,2.5c3.2.045,3.642-6.037,3.642-6.037s.667,7.061,4.352,7.016,4.309-12.125,4.309-12.125,2.086,3.377,3.243,5.109,3.151-1.377,1.907-5.286a8.89,8.89,0,0,1,2.266,3.241c.686,1.849,2.455-3.7-2.055-7.887a5.413,5.413,0,0,1,2.543,1.137,10.388,10.388,0,0,1,2.613,4.931A27.578,27.578,0,0,1,466.8,182.055Z" transform="translate(-439.56 -163.494)" fill="#ec6c0f"></path><path id="Path_17702" data-name="Path 17702" d="M466.7,178.943c-1.108,5.507-5.772,5.2-5.772,5.2-2.131,1.6-5.641.712-5.641.712a8.553,8.553,0,0,1-4.085.665,6.629,6.629,0,0,1-3.908-1.111,6.777,6.777,0,0,1-6.175-2.976,8.431,8.431,0,0,1-1.462-3.623,5.36,5.36,0,0,0,3.461,2.915c3.863.932,4.709-.579,4.709-.579a5.715,5.715,0,0,0,5.15.534c2.888-1.113,4.042-6,3.908-8.749a25.671,25.671,0,0,1,.534,6.082s4.216-2.443,4.616-6.349a12.131,12.131,0,0,1,.267,2.886A11.337,11.337,0,0,0,465.939,167,27.578,27.578,0,0,1,466.7,178.943Z" transform="translate(-439.456 -160.382)" fill="#dd4907"></path></g><path id="Path_17703" data-name="Path 17703" d="M444.024,165.831c-1.864-.222-5.772,7.9-2.352,8.394S445.89,166.053,444.024,165.831Z" transform="translate(-438.763 -152.502)" fill="#ffb314"></path><path id="Path_17704" data-name="Path 17704" d="M445.161,165.4c-1.285.63-2.443,7.593.932,7.593S447.425,164.293,445.161,165.4Z" transform="translate(-435.014 -153.051)" fill="#ffb314"></path><path id="Path_17705" data-name="Path 17705" d="M447.841,165.214c-.507.587,1.068,4.84,2.443,4.707S449.263,163.57,447.841,165.214Z" transform="translate(-430.944 -153.439)" fill="#ffb314"></path><path id="Path_17706" data-name="Path 17706" d="M449.133,164.942a19,19,0,0,1,3.42,9.325,31.6,31.6,0,0,1-1.71,10.836S453.84,172,449.133,164.942Z" transform="translate(-429.482 -153.434)" fill="#070019"></path><path id="Path_17707" data-name="Path 17707" d="M446.84,165.072a28.579,28.579,0,0,1,3.02,10.124,19.146,19.146,0,0,1-1.778,10.615S451.058,175.019,446.84,165.072Z" transform="translate(-431.896 -153.297)" fill="#070019"></path><path id="Path_17708" data-name="Path 17708" d="M443.738,165.721s-2.886,11.813,2.71,19.228A37.351,37.351,0,0,1,443.738,165.721Z" transform="translate(-435.945 -152.614)" fill="#070019"></path></g></g><g id="Group_2682" data-name="Group 2682" transform="translate(29.508 5.902)"><path id="Path_17709" data-name="Path 17709" d="M463.581,174.179c-10.812,1.039-15.494,7.887,5.4,7.776S484.258,172.194,463.581,174.179Z" transform="translate(-453.455 -149.895)" fill="#070019"></path><g id="Group_2681" data-name="Group 2681"><path id="Path_17710" data-name="Path 17710" d="M461.3,171.03s1.283-3.171,1.2-4.417-3.3-4.4-3.3-4.4a1.683,1.683,0,0,0-1.7,1.34s3.122,3.223,3.231,3.574a32,32,0,0,1-.622,3.929Z" transform="translate(-450.181 -162.211)" fill="#070019"></path><g id="Group_2680" data-name="Group 2680" transform="translate(0 7.544)"><path id="Path_17711" data-name="Path 17711" d="M476.486,181.248c-.918,4.559-4.779,4.3-4.779,4.3-1.763,1.324-4.668.589-4.668.589a7.087,7.087,0,0,1-3.381.552,5.5,5.5,0,0,1-3.237-.92,5.608,5.608,0,0,1-5.109-2.465,6.959,6.959,0,0,1-1.211-3,12.342,12.342,0,0,1-.144-2.82,18.475,18.475,0,0,1,1.65-6.567c1.8-3.9,4.742-3.418,4.742-3.418,1.285-1.691,4.454-.821,4.454-.821,1.831-1.605,4.257-.281,4.257-.281a6.526,6.526,0,0,1,2.525-.062,4.5,4.5,0,0,1,2.106.942,8.6,8.6,0,0,1,2.162,4.081A22.81,22.81,0,0,1,476.486,181.248Z" transform="translate(-453.935 -165.886)" fill="#ff8a15"></path><path id="Path_17712" data-name="Path 17712" d="M476.486,181.017c-.918,4.559-4.779,4.3-4.779,4.3-1.763,1.324-4.668.589-4.668.589a7.087,7.087,0,0,1-3.381.552,5.5,5.5,0,0,1-3.237-.92,5.608,5.608,0,0,1-5.109-2.465,6.959,6.959,0,0,1-1.211-3,12.342,12.342,0,0,1-.144-2.82,3.4,3.4,0,0,0,3.009,2.071c2.646.037,3.013-5,3.013-5s.552,5.844,3.6,5.807,3.566-10.036,3.566-10.036,1.728,2.8,2.685,4.229,2.609-1.139,1.578-4.376a7.338,7.338,0,0,1,1.876,2.685c.569,1.531,2.032-3.067-1.7-6.53a4.5,4.5,0,0,1,2.106.942,8.6,8.6,0,0,1,2.162,4.081A22.81,22.81,0,0,1,476.486,181.017Z" transform="translate(-453.935 -165.654)" fill="#ec6c0f"></path><path id="Path_17713" data-name="Path 17713" d="M476.4,178.441c-.918,4.559-4.779,4.3-4.779,4.3-1.763,1.324-4.668.589-4.668.589a7.088,7.088,0,0,1-3.381.552,5.5,5.5,0,0,1-3.237-.92,5.608,5.608,0,0,1-5.109-2.465,6.96,6.96,0,0,1-1.211-3,4.43,4.43,0,0,0,2.866,2.412c3.2.774,3.9-.478,3.9-.478a4.732,4.732,0,0,0,4.263.441c2.392-.92,3.346-4.961,3.235-7.24a21.215,21.215,0,0,1,.441,5.035s3.492-2.024,3.822-5.257a10.128,10.128,0,0,1,.222,2.389,9.387,9.387,0,0,0,3.007-6.248A22.811,22.811,0,0,1,476.4,178.441Z" transform="translate(-453.849 -163.078)" fill="#dd4907"></path></g><path id="Path_17714" data-name="Path 17714" d="M457.631,167.588c-1.544-.185-4.779,6.542-1.948,6.946S459.175,167.771,457.631,167.588Z" transform="translate(-453.275 -156.554)" fill="#ffb314"></path><path id="Path_17715" data-name="Path 17715" d="M458.57,167.234c-1.063.521-2.02,6.285.774,6.285S460.446,166.314,458.57,167.234Z" transform="translate(-450.172 -157.008)" fill="#ffb314"></path><path id="Path_17716" data-name="Path 17716" d="M460.789,167.076c-.419.484.883,4.007,2.024,3.9S461.967,165.716,460.789,167.076Z" transform="translate(-446.804 -157.33)" fill="#ffb314"></path><path id="Path_17717" data-name="Path 17717" d="M461.859,166.851a15.741,15.741,0,0,1,2.831,7.72,26.155,26.155,0,0,1-1.416,8.97S465.755,172.7,461.859,166.851Z" transform="translate(-445.593 -157.326)" fill="#070019"></path><path id="Path_17718" data-name="Path 17718" d="M459.961,166.959a23.659,23.659,0,0,1,2.5,8.381,15.845,15.845,0,0,1-1.47,8.786S463.453,175.192,459.961,166.959Z" transform="translate(-447.591 -157.212)" fill="#070019"></path><path id="Path_17719" data-name="Path 17719" d="M457.393,167.5s-2.389,9.779,2.244,15.917A30.926,30.926,0,0,1,457.393,167.5Z" transform="translate(-450.943 -156.647)" fill="#070019"></path></g></g><g id="Group_2685" data-name="Group 2685" transform="translate(18.475 12.83)"><path id="Path_17720" data-name="Path 17720" d="M457.434,176.6c-9.947.955-14.254,7.252,4.972,7.152S476.457,174.77,457.434,176.6Z" transform="translate(-448.119 -154.255)" fill="#070019"></path><g id="Group_2684" data-name="Group 2684"><path id="Path_17721" data-name="Path 17721" d="M455.334,173.7a15.39,15.39,0,0,0,1.1-4.064c-.074-1.147-3.034-4.05-3.034-4.05a1.551,1.551,0,0,0-1.564,1.234s2.874,2.964,2.974,3.286a29.717,29.717,0,0,1-.573,3.615Z" transform="translate(-445.107 -165.586)" fill="#070019"></path><g id="Group_2683" data-name="Group 2683" transform="translate(0 6.94)"><path id="Path_17722" data-name="Path 17722" d="M469.3,183.1c-.844,4.194-4.395,3.956-4.395,3.956-1.622,1.217-4.294.542-4.294.542a6.5,6.5,0,0,1-3.112.507,5.041,5.041,0,0,1-2.976-.846,5.159,5.159,0,0,1-4.7-2.266,6.4,6.4,0,0,1-1.115-2.759,11.47,11.47,0,0,1-.131-2.6A17,17,0,0,1,450.1,173.6c1.656-3.586,4.364-3.145,4.364-3.145,1.182-1.556,4.1-.755,4.1-.755,1.683-1.478,3.915-.261,3.915-.261a6.021,6.021,0,0,1,2.324-.053,4.114,4.114,0,0,1,1.938.866A7.905,7.905,0,0,1,468.726,174,21.013,21.013,0,0,1,469.3,183.1Z" transform="translate(-448.56 -168.966)" fill="#ff8a15"></path><path id="Path_17723" data-name="Path 17723" d="M469.3,182.886c-.844,4.194-4.395,3.956-4.395,3.956-1.622,1.217-4.294.542-4.294.542a6.5,6.5,0,0,1-3.112.507,5.041,5.041,0,0,1-2.976-.846,5.159,5.159,0,0,1-4.7-2.266,6.4,6.4,0,0,1-1.115-2.759,11.47,11.47,0,0,1-.131-2.6,3.12,3.12,0,0,0,2.767,1.907c2.437.033,2.775-4.6,2.775-4.6s.507,5.376,3.313,5.341,3.28-9.231,3.28-9.231,1.589,2.57,2.469,3.89,2.4-1.049,1.453-4.025a6.754,6.754,0,0,1,1.724,2.469c.523,1.408,1.872-2.82-1.564-6.006a4.114,4.114,0,0,1,1.938.866,7.9,7.9,0,0,1,1.989,3.752A21.013,21.013,0,0,1,469.3,182.886Z" transform="translate(-448.56 -168.752)" fill="#ec6c0f"></path><path id="Path_17724" data-name="Path 17724" d="M469.227,180.518c-.844,4.194-4.395,3.956-4.395,3.956-1.622,1.217-4.294.542-4.294.542a6.5,6.5,0,0,1-3.112.507,5.041,5.041,0,0,1-2.976-.846,5.159,5.159,0,0,1-4.7-2.266,6.4,6.4,0,0,1-1.115-2.759,4.081,4.081,0,0,0,2.636,2.219c2.944.71,3.586-.439,3.586-.439a4.356,4.356,0,0,0,3.923.4c2.2-.846,3.077-4.565,2.977-6.661a19.5,19.5,0,0,1,.406,4.633s3.21-1.862,3.516-4.836a9.225,9.225,0,0,1,.2,2.2,8.633,8.633,0,0,0,2.769-5.75A21.013,21.013,0,0,1,469.227,180.518Z" transform="translate(-448.482 -166.383)" fill="#dd4907"></path></g><path id="Path_17725" data-name="Path 17725" d="M451.96,170.532c-1.42-.168-4.4,6.021-1.792,6.392S453.381,170.7,451.96,170.532Z" transform="translate(-447.953 -160.383)" fill="#ffb314"></path><path id="Path_17726" data-name="Path 17726" d="M452.825,170.206c-.979.48-1.86,5.783.71,5.783S454.549,169.36,452.825,170.206Z" transform="translate(-445.098 -160.8)" fill="#ffb314"></path><path id="Path_17727" data-name="Path 17727" d="M454.866,170.062c-.386.447.813,3.687,1.86,3.584S455.948,168.81,454.866,170.062Z" transform="translate(-441.999 -161.095)" fill="#ffb314"></path><path id="Path_17728" data-name="Path 17728" d="M455.85,169.855a14.467,14.467,0,0,1,2.6,7.1,24,24,0,0,1-1.3,8.25S459.434,175.233,455.85,169.855Z" transform="translate(-440.886 -161.091)" fill="#070019"></path><path id="Path_17729" data-name="Path 17729" d="M454.1,169.954a21.773,21.773,0,0,1,2.3,7.71,14.6,14.6,0,0,1-1.353,8.084S457.315,177.529,454.1,169.954Z" transform="translate(-442.725 -160.987)" fill="#070019"></path><path id="Path_17730" data-name="Path 17730" d="M451.742,170.448s-2.2,8.995,2.063,14.644A28.464,28.464,0,0,1,451.742,170.448Z" transform="translate(-445.807 -160.467)" fill="#070019"></path></g></g></g><g id="Group_2693" data-name="Group 2693" transform="translate(502.178 22.003)"><g id="Group_2689" data-name="Group 2689" transform="translate(11.413)"><path id="Path_17731" data-name="Path 17731" d="M602.933,182.436c-11.185,1.074-16.03,8.155,5.59,8.043S624.322,180.381,602.933,182.436Z" transform="translate(-592.457 -157.314)" fill="#070019"></path><g id="Group_2688" data-name="Group 2688"><path id="Path_17732" data-name="Path 17732" d="M600.569,179.178s1.326-3.282,1.244-4.569-3.412-4.553-3.412-4.553a1.743,1.743,0,0,0-1.759,1.386s3.231,3.334,3.344,3.7a33.48,33.48,0,0,1-.643,4.064Z" transform="translate(-589.07 -170.055)" fill="#070019"></path><g id="Group_2687" data-name="Group 2687" transform="translate(0 7.803)"><path id="Path_17733" data-name="Path 17733" d="M616.282,189.748c-.95,4.717-4.943,4.448-4.943,4.448-1.825,1.369-4.83.61-4.83.61a7.3,7.3,0,0,1-3.5.571,5.682,5.682,0,0,1-3.346-.95,5.807,5.807,0,0,1-5.288-2.549,7.213,7.213,0,0,1-1.252-3.1,12.708,12.708,0,0,1-.148-2.917,19.16,19.16,0,0,1,1.706-6.792c1.862-4.032,4.906-3.537,4.906-3.537,1.33-1.749,4.609-.848,4.609-.848,1.894-1.661,4.4-.294,4.4-.294a6.788,6.788,0,0,1,2.613-.062,4.666,4.666,0,0,1,2.18.975,8.9,8.9,0,0,1,2.235,4.22A23.622,23.622,0,0,1,616.282,189.748Z" transform="translate(-592.953 -173.856)" fill="#ff8a15"></path><path id="Path_17734" data-name="Path 17734" d="M616.282,189.508c-.95,4.717-4.943,4.448-4.943,4.448-1.825,1.369-4.83.61-4.83.61a7.3,7.3,0,0,1-3.5.571,5.682,5.682,0,0,1-3.346-.95,5.807,5.807,0,0,1-5.288-2.549,7.213,7.213,0,0,1-1.252-3.1,12.708,12.708,0,0,1-.148-2.917,3.511,3.511,0,0,0,3.112,2.143c2.738.037,3.118-5.171,3.118-5.171s.571,6.045,3.728,6.008,3.689-10.383,3.689-10.383,1.786,2.892,2.775,4.374,2.7-1.18,1.634-4.526a7.591,7.591,0,0,1,1.94,2.775c.589,1.585,2.1-3.171-1.759-6.753a4.666,4.666,0,0,1,2.18.975,8.9,8.9,0,0,1,2.235,4.22A23.622,23.622,0,0,1,616.282,189.508Z" transform="translate(-592.953 -173.616)" fill="#ec6c0f"></path><path id="Path_17735" data-name="Path 17735" d="M616.194,186.844c-.95,4.717-4.943,4.448-4.943,4.448-1.825,1.369-4.83.61-4.83.61a7.3,7.3,0,0,1-3.5.571,5.683,5.683,0,0,1-3.346-.95,5.807,5.807,0,0,1-5.288-2.549,7.212,7.212,0,0,1-1.252-3.1,4.582,4.582,0,0,0,2.964,2.5c3.309.8,4.032-.495,4.032-.495a4.894,4.894,0,0,0,4.409.458c2.473-.952,3.463-5.134,3.348-7.49a21.846,21.846,0,0,1,.456,5.208s3.613-2.092,3.956-5.438a10.468,10.468,0,0,1,.228,2.471,9.714,9.714,0,0,0,3.112-6.464A23.618,23.618,0,0,1,616.194,186.844Z" transform="translate(-592.865 -170.952)" fill="#dd4907"></path></g><path id="Path_17736" data-name="Path 17736" d="M596.777,175.617c-1.6-.191-4.943,6.768-2.016,7.187S598.374,175.806,596.777,175.617Z" transform="translate(-592.271 -164.203)" fill="#ffb314"></path><path id="Path_17737" data-name="Path 17737" d="M597.749,175.25c-1.1.54-2.092,6.5.8,6.5S599.689,174.3,597.749,175.25Z" transform="translate(-589.061 -164.674)" fill="#ffb314"></path><path id="Path_17738" data-name="Path 17738" d="M600.045,175.087c-.435.5.911,4.144,2.092,4.031S601.262,173.681,600.045,175.087Z" transform="translate(-585.576 -165.006)" fill="#ffb314"></path><path id="Path_17739" data-name="Path 17739" d="M601.15,174.855a16.263,16.263,0,0,1,2.929,7.985,27.055,27.055,0,0,1-1.466,9.278S605.181,180.9,601.15,174.855Z" transform="translate(-584.324 -165.001)" fill="#070019"></path><path id="Path_17740" data-name="Path 17740" d="M599.187,174.966a24.467,24.467,0,0,1,2.584,8.671,16.38,16.38,0,0,1-1.521,9.087S602.8,183.485,599.187,174.966Z" transform="translate(-586.391 -164.885)" fill="#070019"></path><path id="Path_17741" data-name="Path 17741" d="M596.531,175.522s-2.471,10.116,2.32,16.465A31.982,31.982,0,0,1,596.531,175.522Z" transform="translate(-589.858 -164.299)" fill="#070019"></path></g></g><g id="Group_2692" data-name="Group 2692" transform="translate(0 9.291)"><path id="Path_17742" data-name="Path 17742" d="M596.574,185.97c-10.29.987-14.745,7.5,5.142,7.4S616.251,184.082,596.574,185.97Z" transform="translate(-586.937 -162.86)" fill="#070019"></path><g id="Group_2691" data-name="Group 2691"><path id="Path_17743" data-name="Path 17743" d="M594.4,182.973s1.219-3.017,1.143-4.2-3.139-4.188-3.139-4.188a1.6,1.6,0,0,0-1.618,1.275s2.972,3.067,3.075,3.4a30.646,30.646,0,0,1-.591,3.738Z" transform="translate(-583.82 -174.581)" fill="#070019"></path><g id="Group_2690" data-name="Group 2690" transform="translate(0 7.178)"><path id="Path_17744" data-name="Path 17744" d="M608.854,192.7c-.873,4.339-4.547,4.093-4.547,4.093-1.679,1.258-4.444.56-4.444.56a6.729,6.729,0,0,1-3.217.523,5.212,5.212,0,0,1-3.079-.874,5.338,5.338,0,0,1-4.863-2.344,6.6,6.6,0,0,1-1.154-2.855,11.748,11.748,0,0,1-.135-2.683,17.547,17.547,0,0,1,1.57-6.248c1.712-3.709,4.512-3.254,4.512-3.254,1.223-1.611,4.241-.782,4.241-.782,1.741-1.527,4.05-.269,4.05-.269a6.215,6.215,0,0,1,2.4-.055,4.258,4.258,0,0,1,2,.895,8.2,8.2,0,0,1,2.059,3.884A21.725,21.725,0,0,1,608.854,192.7Z" transform="translate(-587.393 -178.078)" fill="#ff8a15"></path><path id="Path_17745" data-name="Path 17745" d="M608.854,192.476c-.873,4.339-4.547,4.093-4.547,4.093-1.679,1.258-4.444.56-4.444.56a6.729,6.729,0,0,1-3.217.523,5.212,5.212,0,0,1-3.079-.874,5.338,5.338,0,0,1-4.863-2.344,6.6,6.6,0,0,1-1.154-2.855,11.749,11.749,0,0,1-.135-2.683,3.23,3.23,0,0,0,2.864,1.971c2.519.035,2.867-4.756,2.867-4.756s.526,5.561,3.428,5.526,3.4-9.551,3.4-9.551,1.642,2.66,2.553,4.025,2.484-1.086,1.5-4.165a6.988,6.988,0,0,1,1.784,2.554c.542,1.457,1.936-2.917-1.618-6.211a4.257,4.257,0,0,1,2,.895,8.2,8.2,0,0,1,2.059,3.884A21.725,21.725,0,0,1,608.854,192.476Z" transform="translate(-587.393 -177.856)" fill="#ec6c0f"></path><path id="Path_17746" data-name="Path 17746" d="M608.773,190.026c-.872,4.339-4.547,4.093-4.547,4.093-1.679,1.258-4.444.56-4.444.56a6.731,6.731,0,0,1-3.217.523,5.211,5.211,0,0,1-3.079-.874,5.338,5.338,0,0,1-4.863-2.344,6.6,6.6,0,0,1-1.154-2.855,4.222,4.222,0,0,0,2.728,2.3c3.042.735,3.707-.456,3.707-.456a4.507,4.507,0,0,0,4.058.421c2.274-.876,3.184-4.723,3.079-6.891a20.243,20.243,0,0,1,.421,4.791s3.321-1.925,3.635-5a9.574,9.574,0,0,1,.212,2.274,8.931,8.931,0,0,0,2.864-5.947A21.723,21.723,0,0,1,608.773,190.026Z" transform="translate(-587.312 -175.405)" fill="#dd4907"></path></g><path id="Path_17747" data-name="Path 17747" d="M590.91,179.7c-1.467-.174-4.547,6.228-1.854,6.612S592.38,179.873,590.91,179.7Z" transform="translate(-586.766 -169.199)" fill="#ffb314"></path><path id="Path_17748" data-name="Path 17748" d="M591.8,179.36c-1.012.5-1.923,5.984.735,5.984S593.589,178.485,591.8,179.36Z" transform="translate(-583.812 -169.631)" fill="#ffb314"></path><path id="Path_17749" data-name="Path 17749" d="M593.918,179.211c-.4.462.839,3.814,1.924,3.707S595.036,177.915,593.918,179.211Z" transform="translate(-580.606 -169.936)" fill="#ffb314"></path><path id="Path_17750" data-name="Path 17750" d="M594.934,179a14.959,14.959,0,0,1,2.693,7.347,24.841,24.841,0,0,1-1.346,8.535S598.643,184.558,594.934,179Z" transform="translate(-579.455 -169.932)" fill="#070019"></path><path id="Path_17751" data-name="Path 17751" d="M593.128,179.1a22.534,22.534,0,0,1,2.379,7.977,15.1,15.1,0,0,1-1.4,8.361S596.451,186.934,593.128,179.1Z" transform="translate(-581.356 -169.824)" fill="#070019"></path><path id="Path_17752" data-name="Path 17752" d="M590.685,179.61s-2.274,9.3,2.133,15.147A29.439,29.439,0,0,1,590.685,179.61Z" transform="translate(-584.546 -169.286)" fill="#070019"></path></g></g></g></g><rect id="Rectangle_140" data-name="Rectangle 140" width="1538" height="1074" transform="translate(3377 7132)" fill="none"></rect></g><rect id="Rectangle_196" data-name="Rectangle 196" width="1920" height="482" transform="translate(0 6342)" fill="url(#linear-gradient)"></rect></g></g></svg>