<svg xmlns="http://www.w3.org/2000/svg" width="131.933" height="77.069" viewBox="0 0 131.933 77.069"><g id="Group_2738" data-name="Group 2738" transform="translate(-375.723 -30.009)"><path id="Monster_Mash" data-name="Monster Mash" d="M11.273-17.437a2.545,2.545,0,0,1,1.383.4,2.4,2.4,0,0,1,.715-.117,4.76,4.76,0,0,1,.844.094,1.008,1.008,0,0,1,.727.469,1.107,1.107,0,0,1,.2.633,1.861,1.861,0,0,1-.164.68,1.717,1.717,0,0,1-.211,1.383,7.16,7.16,0,0,1-.023,4.055q-.141.656-.281,1.266a10.579,10.579,0,0,0-.328,2.016q0,.375.059,1.1T14.3-3.984q.047.75.047,1.383a1.594,1.594,0,0,1-.129.809,1.266,1.266,0,0,0-.187.539,7.258,7.258,0,0,1-.152.715,2,2,0,0,1-.258.6.4.4,0,0,1-.41.211.527.527,0,0,1-.3-.105A.846.846,0,0,1,12.8,0a.427.427,0,0,0-.281-.3.429.429,0,0,1-.34-.434.834.834,0,0,1,.094-.492.565.565,0,0,0,.105-.328,1.032,1.032,0,0,0-.07-.363.662.662,0,0,0-.422-.434.705.705,0,0,1-.422-.281,2.4,2.4,0,0,1-.281-.5,1.848,1.848,0,0,1-.2-1.031,1.856,1.856,0,0,0-.035-.844A3.749,3.749,0,0,1,10.9-7.289a.786.786,0,0,0,.023-.562,1.815,1.815,0,0,1-.07-.844,6.664,6.664,0,0,0,.141-1.3q0-.6-.3-.6-.281,0-.375,1.5a5.83,5.83,0,0,1-.293,1.969q-.2.3-.34.5a2.8,2.8,0,0,0-.258.457,2.715,2.715,0,0,0-.234,1.137,4.1,4.1,0,0,1-.035.738,2.1,2.1,0,0,0-.059.258A3.9,3.9,0,0,0,8.977-3a2.371,2.371,0,0,1-.352,1.359.969.969,0,0,0-.094.293,2.768,2.768,0,0,1-.141.457q-.234.563-.609.551a.765.765,0,0,1-.574-.234A1.693,1.693,0,0,1,6.891-1.1,4.542,4.542,0,0,1,6.7-1.711,2.091,2.091,0,0,0,6.469-2.3a2.469,2.469,0,0,1,.117-1.641A2.416,2.416,0,0,0,6.7-4.746a.628.628,0,0,0-.328-.5q-.141-.094-.293-1.02T5.824-7.816q-.105-.621-.2-1.137-.258-1.2-.41-1.219t-.187.105a.827.827,0,0,0-.012.316q.023.188.059.375a3.122,3.122,0,0,1,.047.352A2,2,0,0,1,4.98-8.4a2.017,2.017,0,0,0-.035,1.043,4.95,4.95,0,0,1,.117.891,3.536,3.536,0,0,1-.07.668,2.069,2.069,0,0,0-.035.645q.035.281.059.516.047.586-.258.773a.638.638,0,0,0-.293.609,1,1,0,0,0,.27.691.519.519,0,0,1,.188.5,1.414,1.414,0,0,1-.164.375.308.308,0,0,0-.07.234.586.586,0,0,1,0,.234Q4.641-.656,3.8-.187A1.775,1.775,0,0,1,2.672.105a1.13,1.13,0,0,1-.656-.316.611.611,0,0,1-.164-.527,1.8,1.8,0,0,0,.012-.539q-.035-.246-.047-.5T1.781-2.3a2.754,2.754,0,0,0-.141-.949,1.476,1.476,0,0,1-.141-.5,3.368,3.368,0,0,1-.012-.48q.012-.223.035-.41a.814.814,0,0,0-.059-.4.948.948,0,0,1-.012-.539,1.739,1.739,0,0,0,.023-.633,1.432,1.432,0,0,1,.012-.551q.059-.246.105-.5.07-.609-.258-.82a1.571,1.571,0,0,1-.5-.645,2.238,2.238,0,0,1-.105-.879,8.14,8.14,0,0,0,0-.879,2.267,2.267,0,0,1,.129-.82,3.276,3.276,0,0,0,.152-1q0-.516-.035-.891t-.082-.7q-.047-.328-.094-.68A3.326,3.326,0,0,1,.867-15.8a2.517,2.517,0,0,1,.48-.785,1.18,1.18,0,0,1,.949-.293,3.678,3.678,0,0,0,1.523-.117,1.246,1.246,0,0,1,1.219-.023,1.124,1.124,0,0,1,.328.188q1.312.328,1.477,1.055a14.463,14.463,0,0,1,.469,2.613,4.321,4.321,0,0,0,.035.762.809.809,0,0,0,.07.176.246.246,0,0,1,.035.129,3.69,3.69,0,0,1-.047.375.628.628,0,0,0,.07.469.332.332,0,0,0,.27.164.394.394,0,0,0,.293-.164,1.411,1.411,0,0,0,.223-.738q.059-.551.059-.668a.9.9,0,0,1,.082-.387,1.229,1.229,0,0,0,.105-.387q.023-.211.07-.445a1.427,1.427,0,0,1,.3-.844,3.426,3.426,0,0,1,.492-.41.782.782,0,0,0,.328-.5q.07-.328.152-.609a2.092,2.092,0,0,1,.246-.539A1.288,1.288,0,0,1,11.273-17.437Zm7.289,1.266a2.985,2.985,0,0,0,.445-.5,2.3,2.3,0,0,1,.492-.5,1.637,1.637,0,0,1,1.641-.4,7.85,7.85,0,0,0,1.852.469,2.292,2.292,0,0,1,1.23.422,4.336,4.336,0,0,1,.668.7,4.046,4.046,0,0,1,.82,1.945,1.122,1.122,0,0,0,.141.563,2.175,2.175,0,0,1,.2,1.383,6.351,6.351,0,0,0-.07,1.207,1.539,1.539,0,0,0,.117.5q.082.164.152.328a2.279,2.279,0,0,1,.188.891,2.016,2.016,0,0,1-.375,1.125,1.269,1.269,0,0,0-.117.82q.047.609.07,1.219a5.3,5.3,0,0,1-.164,1.887,1.834,1.834,0,0,1-.27.434,1.611,1.611,0,0,1-.152.117q-.352.164-.621.973a3.745,3.745,0,0,1-.715,1.313,4.688,4.688,0,0,1-.926.82l-.75.492a1.436,1.436,0,0,0-.387.34L21.8.7a.954.954,0,0,1-.773.375A1.6,1.6,0,0,1,19.852.7,3.329,3.329,0,0,1,19.5.094a2.975,2.975,0,0,0-.937-1.031,1.885,1.885,0,0,1-.8-1.336,1.782,1.782,0,0,1-.035-.609,3.037,3.037,0,0,0-.035-.773,3.348,3.348,0,0,0-.187-.844,2.526,2.526,0,0,1-.164-.7q-.117-.984-.656-1.055-.4-.047-.469-1.2a6.466,6.466,0,0,1,.047-1.113,5.5,5.5,0,0,1,.188-.9,4.615,4.615,0,0,0,.117-1.582,9.147,9.147,0,0,1,0-1.605,5.507,5.507,0,0,1,.563-2.133,2.952,2.952,0,0,1,.621-.7Q18.164-15.844,18.563-16.172Zm1.488,6.7a1.061,1.061,0,0,0,.234.527,1.316,1.316,0,0,1,.258.621,3.9,3.9,0,0,1,.059.926q-.023.5-.023.961a6.46,6.46,0,0,0,.047.82,4.023,4.023,0,0,0,.141.668q.258.727.727.727.727,0,1.008-2.812a17.033,17.033,0,0,0,.094-1.98,5.292,5.292,0,0,0-.375-2.086q-.375-.879-.914-.879-.516,0-.937,1.148A3.452,3.452,0,0,0,20.051-9.469Zm9.809-7.641q1.172-.469,1.266-.094a.712.712,0,0,1,.867.352q.094.164.363.68t.586,1.1q.316.586.6,1.1t.375.691a.338.338,0,0,0,.234.2.383.383,0,0,0,.281-.07.607.607,0,0,0,.176-.7,2.554,2.554,0,0,1-.117-.738,3.3,3.3,0,0,1,.059-.5,2.491,2.491,0,0,0,.047-1.055,3.281,3.281,0,0,1-.094-.75q0-.7,1.148-.7.234,0,.539.012a7.459,7.459,0,0,0,.914-.047,1.382,1.382,0,0,1,1.066.328,1.4,1.4,0,0,1,.293,1.371,10.776,10.776,0,0,0-.187,1.793q.023.457.023.855a8.022,8.022,0,0,1-.141,1.242,6.493,6.493,0,0,0-.141,2.063,5.176,5.176,0,0,1,.094.8v.375a2.058,2.058,0,0,0,.047.3,1.008,1.008,0,0,1-.023.48,1.188,1.188,0,0,0-.023.527,1.128,1.128,0,0,1-.117.645,1.793,1.793,0,0,0-.152.8,3.529,3.529,0,0,1-.059.785,1.707,1.707,0,0,0,.07.82A5.192,5.192,0,0,1,37.5-1.9a.877.877,0,0,1-.293.574q-.2.129-.293.2a.5.5,0,0,0-.141.3q-.117.469-.492.422-.492-.07-.8-.984a4.118,4.118,0,0,0-.68-1.477,1.267,1.267,0,0,1-.387-.586,8.048,8.048,0,0,1-.223-.773,2.489,2.489,0,0,0-.375-1.137,1.142,1.142,0,0,1-.3-.6,2.473,2.473,0,0,0-.234-.633,3.528,3.528,0,0,1-.223-.422q-.105-.234-.223-.469-.3-.586-.586-.516-.164.047-.223.41t-.105.879a6.553,6.553,0,0,1-.469,2.156,9.2,9.2,0,0,1,.316,1.113,2.871,2.871,0,0,1-.047,1.2q-.152.691-.246,1.113a7.511,7.511,0,0,1-.2.738,1.442,1.442,0,0,1-.246.48.358.358,0,0,1-.352.129A.431.431,0,0,1,30.4.094l-.141-.187A.97.97,0,0,0,29.7-.539a1.2,1.2,0,0,1-.562-.352,1.075,1.075,0,0,1-.211-.492,4.745,4.745,0,0,1-.059-.609,2.178,2.178,0,0,0-.164-.715,1.837,1.837,0,0,1-.152-.645,2.006,2.006,0,0,1,.047-.457l.094-.4a1.266,1.266,0,0,0-.094-.621,1.456,1.456,0,0,1,.164-1.43,1.177,1.177,0,0,0,.281-.8,1.21,1.21,0,0,0-.539-.891.334.334,0,0,1-.187-.281,1.046,1.046,0,0,0-.105-.527.537.537,0,0,1-.012-.457.535.535,0,0,0-.023-.469q0-.023-.059-.48T28-11.332q-.059-.715-.129-1.547t-.094-1.605a7.737,7.737,0,0,1,.035-2.086.86.86,0,0,1,.4-.445,1.836,1.836,0,0,1,.574-.187A2.317,2.317,0,0,1,29.859-17.109ZM48.5-13.664a.569.569,0,0,1,.035.3,1.6,1.6,0,0,1-.328.563,1.762,1.762,0,0,0-.363.855,3.758,3.758,0,0,0-.035.75,2.7,2.7,0,0,1,0,.5.742.742,0,0,1-.562.7.693.693,0,0,1-.727-.023,1.592,1.592,0,0,1-.422-.551,5.1,5.1,0,0,1-.246-.586q-.082-.246-.27-.27a.584.584,0,0,0-.5.07,3.4,3.4,0,0,0-.27.234,1.048,1.048,0,0,1-.387.258,1.782,1.782,0,0,0-.316.141.525.525,0,0,0-.187.539,5,5,0,0,0,1.617,2.2q.281.281.668.609a7.619,7.619,0,0,1,.762.75,3.918,3.918,0,0,1,.938,2.273,4.339,4.339,0,0,1-.375,2.25,1.989,1.989,0,0,1-.891,1.008,1.113,1.113,0,0,0-.539.551q-.141.34-.211.492A.572.572,0,0,1,45.6.223a.97.97,0,0,1-.5.082A2.254,2.254,0,0,1,44.566.2a2.935,2.935,0,0,1-.445-.187,1.211,1.211,0,0,0-.328-.129.282.282,0,0,0-.246.082q-.117.105-.234.223-.352.352-.633.27a4.038,4.038,0,0,1-.656-.27A4.1,4.1,0,0,1,41.3-.281Q40.031-1.266,40.43-2.3A2.446,2.446,0,0,1,41-3.258a.893.893,0,0,1,.5-.281.409.409,0,0,1,.41.223q.105.223.176.375a.845.845,0,0,0,.164.246,1.054,1.054,0,0,0,.293.188,1.318,1.318,0,0,0,.434.117.884.884,0,0,0,.891-.469,1.758,1.758,0,0,0,.234-1.125q-.164-1.1-.469-.937a.664.664,0,0,1-.633.012q-.375-.152-.4-.4a2.489,2.489,0,0,0-.094-.48,3.745,3.745,0,0,0-.164-.445q-.211-.539-.375-.586a2.16,2.16,0,0,0-.5-.047,1.017,1.017,0,0,1-.691-.41,2.411,2.411,0,0,1-.539-1.031q-.164-.621-.281-1.078T39.75-10.1a5.431,5.431,0,0,1-.164-.539,5.841,5.841,0,0,1-.023-2.3,4.1,4.1,0,0,1,.516-1.441,13.266,13.266,0,0,1,.844-1.23,6.6,6.6,0,0,1,1.641-1.664q.75-.469,1.148-.094a.925.925,0,0,0,.762.246,4.626,4.626,0,0,0,.645-.129l.422-.094a1.58,1.58,0,0,1,.809.023,1.356,1.356,0,0,1,.738.8,4.349,4.349,0,0,0,.34.609q.176.258.34.492a2.7,2.7,0,0,1,.41.926,1.444,1.444,0,0,0,.164.527A1.981,1.981,0,0,1,48.5-13.664ZM50.051-17.2a8.1,8.1,0,0,0,.938.035q.41-.012,1.23.012a4.491,4.491,0,0,0,1.922-.187,1.828,1.828,0,0,1,1.852-.141,1.851,1.851,0,0,0,.633.234,1.478,1.478,0,0,0,.867-.281,1.412,1.412,0,0,1,1.008-.117,1.389,1.389,0,0,1,.586.352,1.353,1.353,0,0,1,.246.738,5.834,5.834,0,0,1,.023,1.043q-.035.516-.105.961a9.587,9.587,0,0,0-.105,1.57q.035.375.094.773a3.715,3.715,0,0,1,.035.773q-.047.914-.75,1.031a.736.736,0,0,1-.75-.246,3.057,3.057,0,0,1-.387-.7q-.152-.387-.3-.691a.344.344,0,0,0-.434-.223q-.281.082-.352.609a7.639,7.639,0,0,0-.047,1.242q.023.715.094,1.477t.094,1.289q.023.527.059,1.066t.035,1.008A2.434,2.434,0,0,1,56.25-4.2a.721.721,0,0,0-.141.445,2.643,2.643,0,0,0,.059.539q.059.281.129.563a2.839,2.839,0,0,1,.07.68,1.327,1.327,0,0,1-.844,1.313,1.557,1.557,0,0,0-.562.469,3.1,3.1,0,0,1-.387.434.35.35,0,0,1-.3.07.376.376,0,0,1-.258-.164,3,3,0,0,1-.152-.27.816.816,0,0,0-.4-.492q-.3-.07-.363-.516t-.07-.785q-.012-.34-.059-.832a1.407,1.407,0,0,0-.3-.8,1.579,1.579,0,0,0-.422-.387.491.491,0,0,1-.211-.4,1.987,1.987,0,0,1,.012-.645Q52.1-5.3,52.2-5.7a10.077,10.077,0,0,0,.3-2.156,20.542,20.542,0,0,0,0-2.484q-.094-1.219-.656-1.219a.46.46,0,0,0-.4.246q-.117.223-.258.527-.328.773-1.2.422a.665.665,0,0,1-.387-.445,3.112,3.112,0,0,1-.094-.715q-.012-.41-.023-.867a2.669,2.669,0,0,0-.164-.867q-.152-.41-.293-.785a1.8,1.8,0,0,1-.117-.75,2.152,2.152,0,0,1,.176-.727,1.229,1.229,0,0,0,.094-.7,1.007,1.007,0,0,1,.141-.691A.692.692,0,0,1,50.051-17.2Zm10.723,12.8L60.75-5.6q0-.328.023-.609a3.309,3.309,0,0,0-.047-.75A6.971,6.971,0,0,1,60.621-8.1q.012-.363,0-.586a2.16,2.16,0,0,0-.059-.41,6.322,6.322,0,0,0-.34-.891,3.208,3.208,0,0,1-.27-1.312,1.882,1.882,0,0,1,.3-1.125,1.189,1.189,0,0,0,.211-.867q-.07-.445-.105-.949a9.042,9.042,0,0,1-.012-1.031,2.9,2.9,0,0,1,.234-1.02,1.949,1.949,0,0,1,2.063-1.148,8.294,8.294,0,0,1,1.664.188,3.881,3.881,0,0,0,1.031.141,5.031,5.031,0,0,0,1.008-.234,1.609,1.609,0,0,1,1.57.047,1.44,1.44,0,0,0,.316.176.767.767,0,0,1,.27.176A2.725,2.725,0,0,1,68.742-15l-.094.891a5.137,5.137,0,0,0,0,1.57,4.8,4.8,0,0,1,.129.9,3.818,3.818,0,0,1-.035.691q-.141.68-.539.68a.653.653,0,0,1-.5-.223,1.759,1.759,0,0,1-.246-.445,3.986,3.986,0,0,0-.2-.445.469.469,0,0,0-.457-.2,2.806,2.806,0,0,1-1.371-.223,1.515,1.515,0,0,0-.6-.258.956.956,0,0,0-.492.059.928.928,0,0,0-.574.773q-.082.563-.105.984a6.374,6.374,0,0,0,0,.773q.047.82.316.926a.59.59,0,0,0,.457.023,2.906,2.906,0,0,0,.375-.2,1.992,1.992,0,0,1,1.16-.363,1,1,0,0,1,.891.48,1.407,1.407,0,0,1,.246.9q-.047.434-.082.855a7.879,7.879,0,0,1-.105.8q-.328,1.453-1.359.563-1.336-.094-1.664.328a1.751,1.751,0,0,0-.141.492,2.694,2.694,0,0,0-.023.8q.117,1.1,1.055,1.172a2.373,2.373,0,0,0,1.113-.164,1.422,1.422,0,0,0,.668-.469.509.509,0,0,1,.352-.316q.211-.035.375-.07a1.562,1.562,0,0,1,.328-.035,1.189,1.189,0,0,1,.328.047.748.748,0,0,1,.5.656,1.632,1.632,0,0,1-.105.938,3.282,3.282,0,0,0-.246.762q-.059.34-.105.5a1.162,1.162,0,0,1-.27.41q-.223.246-.352.41t-.41-.07q-.516-.4-1.242.469a1.272,1.272,0,0,1-.4.375,1.265,1.265,0,0,1-.656.094,1.181,1.181,0,0,1-.7-.234Q63.7.4,63.492.188a1.241,1.241,0,0,0-1.219-.328.825.825,0,0,1-.844-.445.5.5,0,0,1-.105-.258q-.035-.187-.082-.422a2.792,2.792,0,0,0-.293-.785.814.814,0,0,1-.141-.457,5.712,5.712,0,0,0-.059-.6q-.047-.316-.07-.469a.879.879,0,0,1,.035-.363A1.75,1.75,0,0,0,60.773-4.406ZM76.125-16.852l.75-.047a1.92,1.92,0,0,1,1.137.258,3.18,3.18,0,0,1,.516.469,4.084,4.084,0,0,1,.316.434,2.456,2.456,0,0,0,.387.457.737.737,0,0,1,.246.551.707.707,0,0,0,.176.5.874.874,0,0,1,.176.609q0,.422-.012.809a2.653,2.653,0,0,1-.082.633,1.784,1.784,0,0,0-.07.492.937.937,0,0,0,.105.445,2.133,2.133,0,0,1,.023.961,13.4,13.4,0,0,1-.258,1.535,5.932,5.932,0,0,1-.457,1.336A3.9,3.9,0,0,1,77.25-5.742q.117.281.27.621t.293.691a4.385,4.385,0,0,1,.3,1.254,3.186,3.186,0,0,0,.035.563,1.115,1.115,0,0,0,.082.27.323.323,0,0,0,.129.141,2.315,2.315,0,0,1,.246.176.855.855,0,0,1,.258.434,2.14,2.14,0,0,1,.094.633,1.5,1.5,0,0,1-.176.926A.887.887,0,0,1,78.41.2,2.383,2.383,0,0,1,78,.281q-.539.07-.68-.141a.6.6,0,0,1-.2-.387A.969.969,0,0,0,77.039-.6a.313.313,0,0,0-.211-.187q-.141-.035-.2-.293a.6.6,0,0,0-.164-.34.628.628,0,0,0-.434-.035q-.586.117-.867-.7a4.024,4.024,0,0,1-.141-.492q-.07-.3-.164-.586-.187-.68-.434-.738a.368.368,0,0,0-.363.059.728.728,0,0,0-.176.316,1.576,1.576,0,0,0-.059.445,2.593,2.593,0,0,0,.059.527,1.068,1.068,0,0,1,.012.469.918.918,0,0,1-.129.3,1.573,1.573,0,0,1-.176.211.585.585,0,0,0-.223.469,3.765,3.765,0,0,1-.105.609,1.338,1.338,0,0,1-.375.8,1.106,1.106,0,0,1-.469.2,1.351,1.351,0,0,1-.469-.012.955.955,0,0,1-.727-.41,1.783,1.783,0,0,1-.164-.445,1.244,1.244,0,0,1-.012-.293q.012-.141.035-.3a2.021,2.021,0,0,0,.012-.387,3.336,3.336,0,0,0-.105-.6,4.569,4.569,0,0,1-.117-.891l-.023-.609a.7.7,0,0,1,.164-.316.625.625,0,0,0,.105-.516.46.46,0,0,0-.27-.375q-.211-.082-.211-.2t.047-.586a5.6,5.6,0,0,0-.035-1.172q-.082-.7-.105-1.242-.094-1.172-.41-1.324a.584.584,0,0,1-.363-.375,1.361,1.361,0,0,1,0-.5q.047-.281.105-.7t.129-.855q.07-.434.129-.809t.082-.516a1.055,1.055,0,0,0,.012-.27q-.012-.129-.012-.246a2.3,2.3,0,0,1,0-.656,2.316,2.316,0,0,0,.047-.762,1.565,1.565,0,0,1,.082-.68,4.09,4.09,0,0,1,.223-.645.6.6,0,0,1,.352-.281,2.105,2.105,0,0,0,.5-.27q.246-.176.457-.352t.375-.328a1,1,0,0,1,.4-.223,2.088,2.088,0,0,1,1-.035,1.455,1.455,0,0,1,.457.223,2.557,2.557,0,0,0,.34.234,1.663,1.663,0,0,0,.422.176,1.621,1.621,0,0,0,.41.059,1.482,1.482,0,0,1,.6.129A.389.389,0,0,0,76.125-16.852ZM74.18-10.312,74.32-8.18a3.509,3.509,0,0,1-.023.41q-.023.2-.047.363-.023.352.258.422a.356.356,0,0,0,.375-.129,1.816,1.816,0,0,0,.258-.48q.281-.586.188-.75a.388.388,0,0,1-.105-.41q.082-.176.352-.691a6.658,6.658,0,0,0,.4-.891,1.644,1.644,0,0,0,.059-.809,4.48,4.48,0,0,1-.07-.6V-12a.445.445,0,0,0-.176-.34.7.7,0,0,0-.246-.164.737.737,0,0,0-.117-.012.629.629,0,0,1-.4-.035.744.744,0,0,0-.352-.07.648.648,0,0,0-.375.223.729.729,0,0,0-.234.434,2.705,2.705,0,0,0,0,.5A10.173,10.173,0,0,1,74.18-10.312Zm23.039-7.125a2.545,2.545,0,0,1,1.383.4,2.4,2.4,0,0,1,.715-.117,4.76,4.76,0,0,1,.844.094,1.008,1.008,0,0,1,.727.469,1.107,1.107,0,0,1,.2.633,1.861,1.861,0,0,1-.164.68,1.717,1.717,0,0,1-.211,1.383,7.16,7.16,0,0,1-.023,4.055q-.141.656-.281,1.266a10.58,10.58,0,0,0-.328,2.016q0,.375.059,1.1t.105,1.477q.047.75.047,1.383a1.594,1.594,0,0,1-.129.809,1.266,1.266,0,0,0-.187.539,7.258,7.258,0,0,1-.152.715,2,2,0,0,1-.258.6.4.4,0,0,1-.41.211.527.527,0,0,1-.3-.105A.846.846,0,0,1,98.742,0a.427.427,0,0,0-.281-.3.429.429,0,0,1-.34-.434.834.834,0,0,1,.094-.492.565.565,0,0,0,.105-.328,1.032,1.032,0,0,0-.07-.363.662.662,0,0,0-.422-.434.705.705,0,0,1-.422-.281,2.4,2.4,0,0,1-.281-.5,1.848,1.848,0,0,1-.2-1.031,1.856,1.856,0,0,0-.035-.844,3.749,3.749,0,0,1-.047-2.273.786.786,0,0,0,.023-.562A1.815,1.815,0,0,1,96.8-8.7a6.664,6.664,0,0,0,.141-1.3q0-.6-.3-.6-.281,0-.375,1.5a5.83,5.83,0,0,1-.293,1.969q-.2.3-.34.5a2.8,2.8,0,0,0-.258.457,2.715,2.715,0,0,0-.234,1.137,4.1,4.1,0,0,1-.035.738,2.1,2.1,0,0,0-.059.258A3.9,3.9,0,0,0,94.922-3a2.371,2.371,0,0,1-.352,1.359.969.969,0,0,0-.094.293,2.768,2.768,0,0,1-.141.457q-.234.563-.609.551a.765.765,0,0,1-.574-.234,1.693,1.693,0,0,1-.316-.527,4.542,4.542,0,0,1-.187-.609,2.091,2.091,0,0,0-.234-.586,2.469,2.469,0,0,1,.117-1.641,2.416,2.416,0,0,0,.117-.809.628.628,0,0,0-.328-.5q-.141-.094-.293-1.02T91.77-7.816q-.105-.621-.2-1.137-.258-1.2-.41-1.219t-.187.105a.827.827,0,0,0-.012.316q.023.188.059.375a3.122,3.122,0,0,1,.047.352,2,2,0,0,1-.141.621,2.017,2.017,0,0,0-.035,1.043,4.95,4.95,0,0,1,.117.891,3.535,3.535,0,0,1-.07.668,2.069,2.069,0,0,0-.035.645q.035.281.059.516.047.586-.258.773a.638.638,0,0,0-.293.609,1,1,0,0,0,.27.691.519.519,0,0,1,.188.5,1.414,1.414,0,0,1-.164.375.308.308,0,0,0-.07.234.586.586,0,0,1,0,.234q-.047.563-.891,1.031a1.775,1.775,0,0,1-1.125.293,1.13,1.13,0,0,1-.656-.316A.611.611,0,0,1,87.8-.738a1.8,1.8,0,0,0,.012-.539q-.035-.246-.047-.5T87.727-2.3a2.754,2.754,0,0,0-.141-.949,1.476,1.476,0,0,1-.141-.5,3.368,3.368,0,0,1-.012-.48q.012-.223.035-.41a.814.814,0,0,0-.059-.4.948.948,0,0,1-.012-.539,1.739,1.739,0,0,0,.023-.633,1.432,1.432,0,0,1,.012-.551q.059-.246.105-.5.07-.609-.258-.82a1.571,1.571,0,0,1-.5-.645,2.238,2.238,0,0,1-.105-.879,8.14,8.14,0,0,0,0-.879,2.267,2.267,0,0,1,.129-.82,3.276,3.276,0,0,0,.152-1q0-.516-.035-.891t-.082-.7q-.047-.328-.094-.68a3.326,3.326,0,0,1,.07-1.219,2.517,2.517,0,0,1,.48-.785,1.18,1.18,0,0,1,.949-.293,3.678,3.678,0,0,0,1.523-.117,1.246,1.246,0,0,1,1.219-.023,1.124,1.124,0,0,1,.328.188q1.313.328,1.477,1.055a14.463,14.463,0,0,1,.469,2.613,4.321,4.321,0,0,0,.035.762.809.809,0,0,0,.07.176.246.246,0,0,1,.035.129,3.69,3.69,0,0,1-.047.375.628.628,0,0,0,.07.469.332.332,0,0,0,.27.164.394.394,0,0,0,.293-.164,1.411,1.411,0,0,0,.223-.738q.059-.551.059-.668a.9.9,0,0,1,.082-.387,1.229,1.229,0,0,0,.105-.387q.023-.211.07-.445a1.427,1.427,0,0,1,.3-.844,3.426,3.426,0,0,1,.492-.41.782.782,0,0,0,.328-.5q.07-.328.152-.609a2.092,2.092,0,0,1,.246-.539A1.288,1.288,0,0,1,97.219-17.437ZM103.969.281a.832.832,0,0,1-.527-.035.668.668,0,0,1-.41-.4,2.419,2.419,0,0,1-.152-.68,5.828,5.828,0,0,1-.012-.832q.023-.445.023-.867,0-.937-.3-1.2-.633-.469-.516-2.391a17.712,17.712,0,0,1,.258-1.758,8.237,8.237,0,0,0,.223-1.828,8.1,8.1,0,0,1,.047-1.172,5.047,5.047,0,0,1,.141-.7q.082-.281.2-.586a4.906,4.906,0,0,0,.211-1.008,10.84,10.84,0,0,1,.422-2.18,11.858,11.858,0,0,1,.621-1.207,3.762,3.762,0,0,1,.6-.832,1.67,1.67,0,0,1,1.547-.07,2.961,2.961,0,0,0,1.395.164,5.971,5.971,0,0,1,.984-.082,1.662,1.662,0,0,1,.762.258,2.007,2.007,0,0,1,.656.586,2.162,2.162,0,0,1,.328.738,4.781,4.781,0,0,1,.023,1.723,9.373,9.373,0,0,0-.105,1.688,3.561,3.561,0,0,0,.281,1.219,6.152,6.152,0,0,1,.328.914q.082.34.141.68t.094.727a7.482,7.482,0,0,0,.141.879,4.9,4.9,0,0,1,.117.785,3.031,3.031,0,0,1-.012.48,3.388,3.388,0,0,1-.059.34,1.259,1.259,0,0,0,.023.469,2.051,2.051,0,0,1,0,.691q-.059.375-.129.727a5.27,5.27,0,0,0-.211,1.523,3.332,3.332,0,0,1,0,1.137q-.094.34-.176.551t-.187.586A1.467,1.467,0,0,1,110.3,0a.577.577,0,0,1-.621.188.606.606,0,0,1-.375-.34,4.426,4.426,0,0,1-.141-.457,2.668,2.668,0,0,0-.141-.422.339.339,0,0,0-.293-.211.416.416,0,0,1-.4-.434,3.828,3.828,0,0,1,.012-.68,1.726,1.726,0,0,0-.035-.6,2.091,2.091,0,0,0-.234-.586,1.4,1.4,0,0,0-.984-.8,1.025,1.025,0,0,0-1.172.82,3.263,3.263,0,0,0-.105.621,1.921,1.921,0,0,1-.187.691,2.665,2.665,0,0,1-.328.516q-.176.211-.328.387a.891.891,0,0,0-.2.434Q104.578.141,103.969.281Zm2.086-9.82a2.636,2.636,0,0,0-.117,2.016.75.75,0,0,0,.609.445q.68.07.809-.105t.3-.375a.763.763,0,0,0,.129-.609q-.047-.41-.07-.727a1.957,1.957,0,0,0-.223-.715,2.879,2.879,0,0,1-.27-.855q-.07-.457-.094-.879-.094-.937-.422-.937a.28.28,0,0,0-.293.246,3.858,3.858,0,0,0-.082.645A5.411,5.411,0,0,1,106.055-9.539Zm15.27-4.125a.569.569,0,0,1,.035.3,1.6,1.6,0,0,1-.328.563,1.762,1.762,0,0,0-.363.855,3.758,3.758,0,0,0-.035.75,2.7,2.7,0,0,1,0,.5.742.742,0,0,1-.562.7.693.693,0,0,1-.727-.023,1.592,1.592,0,0,1-.422-.551,5.1,5.1,0,0,1-.246-.586q-.082-.246-.27-.27a.584.584,0,0,0-.5.07,3.4,3.4,0,0,0-.27.234,1.048,1.048,0,0,1-.387.258,1.782,1.782,0,0,0-.316.141.525.525,0,0,0-.187.539,5,5,0,0,0,1.617,2.2q.281.281.668.609a7.619,7.619,0,0,1,.762.75,3.918,3.918,0,0,1,.938,2.273,4.339,4.339,0,0,1-.375,2.25,1.989,1.989,0,0,1-.891,1.008,1.113,1.113,0,0,0-.539.551q-.141.34-.211.492a.572.572,0,0,1-.293.258.97.97,0,0,1-.5.082A2.254,2.254,0,0,1,117.387.2a2.935,2.935,0,0,1-.445-.187,1.211,1.211,0,0,0-.328-.129.282.282,0,0,0-.246.082q-.117.105-.234.223-.352.352-.633.27a4.038,4.038,0,0,1-.656-.27,4.1,4.1,0,0,1-.727-.469q-1.266-.984-.867-2.016a2.446,2.446,0,0,1,.574-.961.893.893,0,0,1,.5-.281.409.409,0,0,1,.41.223q.105.223.176.375a.845.845,0,0,0,.164.246,1.054,1.054,0,0,0,.293.188,1.318,1.318,0,0,0,.434.117.884.884,0,0,0,.891-.469,1.758,1.758,0,0,0,.234-1.125q-.164-1.1-.469-.937a.664.664,0,0,1-.633.012q-.375-.152-.4-.4a2.489,2.489,0,0,0-.094-.48,3.745,3.745,0,0,0-.164-.445q-.211-.539-.375-.586a2.16,2.16,0,0,0-.5-.047,1.017,1.017,0,0,1-.691-.41,2.411,2.411,0,0,1-.539-1.031q-.164-.621-.281-1.078t-.211-.715a5.431,5.431,0,0,1-.164-.539,5.841,5.841,0,0,1-.023-2.3,4.1,4.1,0,0,1,.516-1.441,13.266,13.266,0,0,1,.844-1.23,6.6,6.6,0,0,1,1.641-1.664q.75-.469,1.148-.094a.925.925,0,0,0,.762.246,4.626,4.626,0,0,0,.645-.129l.422-.094a1.58,1.58,0,0,1,.809.023,1.356,1.356,0,0,1,.738.8,4.349,4.349,0,0,0,.34.609q.176.258.34.492a2.7,2.7,0,0,1,.41.926,1.444,1.444,0,0,0,.164.527A1.981,1.981,0,0,1,121.324-13.664Zm7.066,10.711.023-1.781V-5.32a1.75,1.75,0,0,0-.141-.891.7.7,0,0,0-.656-.316.792.792,0,0,0-.645.27,1.193,1.193,0,0,0-.234.633q-.035.375-.047.82t-.012.961a11.424,11.424,0,0,0,.012,1.594,2.018,2.018,0,0,1,0,.715.769.769,0,0,1-.246.3,1.128,1.128,0,0,0-.3.4q-.117.246-.211.5-.281.609-.586.633a1.646,1.646,0,0,1-1.57-.984,2.165,2.165,0,0,0-.375-.492,1.83,1.83,0,0,1-.187-1.734,5.674,5.674,0,0,0,.117-1.16,5.4,5.4,0,0,0-.047-.855,1.766,1.766,0,0,1,0-.574.957.957,0,0,0-.07-.562,1.248,1.248,0,0,1-.082-.645,1.942,1.942,0,0,0-.047-.691,1.131,1.131,0,0,1-.035-.527.454.454,0,0,0-.059-.375.552.552,0,0,1-.07-.41q.035-.27.059-.574a2.093,2.093,0,0,0-.211-1.289,4.847,4.847,0,0,1-.48-1.031,2.255,2.255,0,0,1,.059-1.406,6.566,6.566,0,0,0,.234-2.742,1.7,1.7,0,0,1,.164-.867q.3-.773,1.992-.867a4.48,4.48,0,0,0,.973-.141,1.717,1.717,0,0,1,.867-.012.622.622,0,0,1,.5.551,3.95,3.95,0,0,0,.129.609,1.681,1.681,0,0,1,.082.328,3.047,3.047,0,0,1-.094.973,7.493,7.493,0,0,0-.164,1.125q-.023.457-.023.879a4.974,4.974,0,0,1-.082,1.465,1.45,1.45,0,0,0-.082.656.705.705,0,0,0,.188.363q.469.422,1.289-.094a.626.626,0,0,0,.211-.234,10.923,10.923,0,0,1-.141-1.617q-.023-1.43-.094-2.238a5.353,5.353,0,0,1,.023-1.348,2.1,2.1,0,0,1,.492-1.008q.4-.469.738-.41a1.017,1.017,0,0,1,.563.281.52.52,0,0,0,.41.2,1.394,1.394,0,0,0,.516-.234q.867-.516,1.617.633a.968.968,0,0,0-.129.855,2.378,2.378,0,0,1,.035.891,3.869,3.869,0,0,0-.094.75q-.023.48-.035.926a9.247,9.247,0,0,1-.129,1.172,8.75,8.75,0,0,0-.023,2.32,12.219,12.219,0,0,1,.047,2.367,11.68,11.68,0,0,0-.047,1.758,2.843,2.843,0,0,1-.035.938q-.082.234-.176.469a3.5,3.5,0,0,0-.4,1.383q-.047.586-.07,1.16a6.216,6.216,0,0,1-.117,1.02q-.211,1.008-.961,1.008-.844,0-.961-1.289a1.824,1.824,0,0,1-.879-.562A1.958,1.958,0,0,1,128.391-2.953Z" transform="translate(375 106)" fill="#fff"></path><g id="Group_2737" data-name="Group 2737" transform="translate(-83 -105.001)"><path id="Path_18329" data-name="Path 18329" d="M82.589,189.928s5.419-5.93,6.652-10.2a1.946,1.946,0,0,0-.166-1.457l-2.32-4.326a1.981,1.981,0,0,1,.446-2.432l4.029-3.5a1.981,1.981,0,0,0,.244-2.737l-.972-1.207a.717.717,0,0,1,.813-1.12l5.088,1.932a1.981,1.981,0,0,1,1.233,2.274l-.874,4.01a1.981,1.981,0,0,0,.783,2.033l6.986,5a1.979,1.979,0,0,1,.735,1.012l3.886,12.233a30.728,30.728,0,0,0,8.891,2.085c4.056.116,5.214,1.275,1.738,5.677s-13.672,14.136-30.821,10.2-20.971-16.916-19.813-19,3.939-.7,7.879-.579S82.589,189.928,82.589,189.928Z" transform="translate(429.042 -27.892)" fill="#fff"></path><path id="Path_18338" data-name="Path 18338" d="M100.411,219.05s14.57,5.4,26.563,1.506l-1.535-4.832s-11.913,1.441-21.254-1.435Z" transform="translate(411.22 -57.014)" fill="#fff"></path><path id="Path_18339" data-name="Path 18339" d="M129.684,217.633a1.708,1.708,0,0,0-1.9-1.561,25.888,25.888,0,0,1-4.177-.033,1.727,1.727,0,0,0-1.872,1.3l-.868,4.172a1.631,1.631,0,0,0,1.446,1.9,19.486,19.486,0,0,0,6.063-.073,1.649,1.649,0,0,0,1.429-1.63Zm-2.547,4.277a11.6,11.6,0,0,1-3.6.044.97.97,0,0,1-.86-1.127l.516-2.481a1.026,1.026,0,0,1,1.113-.774,15.427,15.427,0,0,0,2.484.02,1.015,1.015,0,0,1,1.131.928l.072,2.421a.981.981,0,0,1-.856.968Z" transform="translate(399.647 -58.001)" fill="#fff"></path><path id="Path_18345" data-name="Path 18345" d="M150.43,174.3a2.234,2.234,0,0,0-1.976,1.976.223.223,0,0,1-.432,0,2.234,2.234,0,0,0-1.976-1.976.223.223,0,0,1,0-.432,2.233,2.233,0,0,0,1.976-1.976.223.223,0,0,1,.432,0,2.234,2.234,0,0,0,1.976,1.976.223.223,0,0,1,0,.432Z" transform="translate(385.457 -32.897)" fill="#fff"></path><path id="Path_18346" data-name="Path 18346" d="M160.648,179.478a1.548,1.548,0,0,0-1.369,1.369.155.155,0,0,1-.3,0,1.547,1.547,0,0,0-1.369-1.369.155.155,0,0,1,0-.3,1.547,1.547,0,0,0,1.369-1.369.155.155,0,0,1,.3,0,1.548,1.548,0,0,0,1.369,1.369.155.155,0,0,1,0,.3Z" transform="translate(378.875 -36.279)" fill="#fff"></path><path id="Path_18347" data-name="Path 18347" d="M87.854,208.7a1.548,1.548,0,0,0-1.369,1.369.154.154,0,0,1-.3,0,1.548,1.548,0,0,0-1.369-1.369.155.155,0,0,1,0-.3,1.548,1.548,0,0,0,1.369-1.369.155.155,0,0,1,.3,0,1.548,1.548,0,0,0,1.369,1.369.155.155,0,0,1,0,.3Z" transform="translate(420.121 -52.835)" fill="#fff"></path><path id="Path_18348" data-name="Path 18348" d="M96.644,203.372a1.965,1.965,0,0,0-1.738,1.738.2.2,0,0,1-.38,0,1.965,1.965,0,0,0-1.738-1.738.2.2,0,0,1,0-.38,1.965,1.965,0,0,0,1.738-1.738.2.2,0,0,1,.38,0,1.965,1.965,0,0,0,1.738,1.738.2.2,0,0,1,0,.38Z" transform="translate(415.623 -49.545)" fill="#fff"></path><path id="Path_18349" data-name="Path 18349" d="M168.727,205.225a1.964,1.964,0,0,0-1.738,1.738.2.2,0,0,1-.38,0,1.964,1.964,0,0,0-1.738-1.738.2.2,0,0,1,0-.38,1.964,1.964,0,0,0,1.738-1.738.2.2,0,0,1,.38,0,1.964,1.964,0,0,0,1.738,1.738.2.2,0,0,1,0,.38Z" transform="translate(374.78 -50.595)" fill="#fff"></path><path id="Path_18350" data-name="Path 18350" d="M104.338,168.717a1.966,1.966,0,0,0-1.738,1.739.2.2,0,0,1-.38,0,1.966,1.966,0,0,0-1.738-1.739.2.2,0,0,1,0-.38,1.966,1.966,0,0,0,1.738-1.738.2.2,0,0,1,.38,0,1.966,1.966,0,0,0,1.738,1.738.2.2,0,0,1,0,.38Z" transform="translate(411.263 -29.909)" fill="#fff"></path></g></g></svg>