<svg xmlns="http://www.w3.org/2000/svg" width="588.231" height="310.039" viewBox="0 0 588.231 310.039"><g id="Group_4468" data-name="Group 4468" transform="translate(-6.439 -163.676)"><path id="Path_23430" data-name="Path 23430" d="M411.532,424.4c-55.833,0-104.895,4.183-132.959,10.5-27.529-3.519-65.752-5.7-108.013-5.7C86.691,429.2,18.7,437.786,18.7,448.38s67.989,19.182,151.857,19.182c10.868,0,21.466-.145,31.688-.419,15.257,7.219,57.388,12.408,106.981,12.408,42.88,0,80.185-3.879,99.36-9.6.979,0,1.959,0,2.943,0,87.179,0,157.851-10.2,157.851-22.779S498.711,424.4,411.532,424.4Z" transform="translate(7.916 -5.836)" fill="#1d1421" fill-rule="evenodd"></path><path id="Path_23431" data-name="Path 23431" d="M315.154,171.861h-.008l-3.053.01c-1.99.006-4.907.009-8.618.063-3.707.032-8.2.111-13.359.214l-.754.014a1.166,1.166,0,0,0-.148-.127c-1.472-1.012-2.949-2.185-4.358-3.362s-2.785-2.421-4.115-3.7-2.607-2.594-3.838-3.954-2.421-2.747-3.561-4.175-2.236-2.882-3.265-4.382c-.532-.738-1.028-1.5-1.515-2.265s-.986-1.523-1.434-2.312c-.943-1.548-1.782-3.153-2.612-4.759l-1.163-2.448c-.372-.822-.7-1.664-1.055-2.494s-.648-1.684-.957-2.532-.619-1.694-.858-2.565-.533-1.724-.76-2.6l-.63-2.634c-.222-.874-.335-1.776-.507-2.661l-.238-1.334c-.069-.446-.11-.9-.166-1.347-.1-.9-.224-1.8-.3-2.7l-.149-2.718c-.073-.9-.04-1.816-.044-2.725.02-.91-.036-1.817.046-2.73.121-1.822.205-3.644.492-5.463.136-.908.2-1.821.393-2.724l.529-2.713c.151-.907.407-1.8.639-2.7l.671-2.573c2.464-2.508,4.662-4.757,6.545-6.709,2.591-2.656,4.6-4.767,5.967-6.2l2.1-2.2a.486.486,0,0,0,.01-.7.547.547,0,0,0-.746.033l-2.195,2.114c-1.432,1.379-3.538,3.4-6.185,6-1.942,1.889-4.177,4.092-6.668,6.56-2.186.488-4.441.882-6.674,1.235-2.3.364-4.609.657-6.916.913s-4.615.466-6.921.6c-1.153.079-2.3.133-3.455.173s-2.3.083-3.448.1-2.3.036-3.439.022-2.289-.009-3.429-.054c-2.284-.044-4.548-.217-6.808-.386l-3.376-.317-3.344-.44c-1.115-.137-2.21-.358-3.315-.533s-2.2-.383-3.285-.617c-2.187-.414-4.324-.969-6.466-1.494-2.109-.606-4.241-1.148-6.3-1.867-2.085-.644-4.088-1.457-6.13-2.184-1.973-.855-3.99-1.629-5.885-2.61-1.947-.892-3.78-1.957-5.634-2.987-.925-.516-1.794-1.111-2.693-1.662s-1.788-1.116-2.623-1.748l-2.551-1.832-2.419-1.978-1.207-.99-1.133-1.064-2.265-2.126-.024-.023c-.01-.009-.024-.013-.034-.021-.394-2-.779-3.914-1.157-5.723-.907-4.455-1.707-8.328-2.4-11.5-.667-3.174-1.228-5.653-1.605-7.342s-.578-2.588-.578-2.588a.452.452,0,0,0-.578-.316.555.555,0,0,0-.422.6l.449,2.624c.293,1.713.717,4.231,1.3,7.427.568,3.208,1.3,7.1,2.15,11.571.337,1.815.706,3.727,1.1,5.722-.64,1.238-1.347,2.5-2.07,3.739q-1.1,1.887-2.279,3.739-2.357,3.706-5,7.259c-.878,1.185-1.794,2.343-2.718,3.5-.945,1.138-1.893,2.274-2.887,3.372-.483.562-1,1.095-1.506,1.635s-1.015,1.08-1.549,1.6c-1.038,1.062-2.138,2.056-3.232,3.059-1.134.955-2.26,1.92-3.454,2.795-.581.461-1.188.882-1.8,1.292s-1.21.848-1.85,1.21-1.252.777-1.9,1.118l-1.949,1.007a35.728,35.728,0,0,1-4.035,1.6c-.342.109-.68.245-1.025.333l-1.038.252a15.777,15.777,0,0,1-2.082.429c-.7.084-1.394.243-2.089.268l-2.085.094a26.172,26.172,0,0,1-4.083-.389,25.782,25.782,0,0,1-3.714-.911l-6.457-5.568L88.924,95.885c-5.576-4.657-8.794-7.267-8.794-7.267a.526.526,0,0,0-.69.073.488.488,0,0,0-.038.7s2.991,2.851,8.313,7.781l9.707,8.88,6.813,6.115c.439,2.611.729,5.3.925,7.989.111,1.56.2,3.126.235,4.7s.062,3.153.021,4.737-.121,3.176-.227,4.766l-.206,2.389-.283,2.389c-.225,1.592-.447,3.187-.778,4.772-.287,1.59-.687,3.167-1.093,4.741l-.682,2.347-.8,2.319c-.245.78-.6,1.527-.891,2.291-.156.379-.3.763-.466,1.139l-.533,1.114a43.4,43.4,0,0,1-2.358,4.349l-1.375,2.067c-.5.663-1.021,1.306-1.528,1.961-.486.674-1.1,1.236-1.648,1.861-.285.3-.554.618-.849.91l-.92.837A36.343,36.343,0,0,1,86.9,172.95l-2.11,1.305a8.081,8.081,0,0,1-1.084.6l-1.108.55-1.108.551c-.37.182-.763.3-1.143.459l-2.289.885-2.841.1-12.664.567c-7.009.358-11.015.62-11.015.62a.6.6,0,0,0-.539.506.444.444,0,0,0,.439.522h.007s3.977.059,10.957.061l12.628-.077,2.67-.042c1.223.976,2.444,2.029,3.622,3.1,1.245,1.138,2.473,2.3,3.662,3.5s2.365,2.423,3.5,3.68,2.258,2.538,3.329,3.858q.82.978,1.594,2c.522.674,1.049,1.345,1.544,2.04,1.026,1.366,1.983,2.785,2.937,4.208l1.366,2.182c.452.731.86,1.49,1.292,2.234s.821,1.516,1.217,2.284.793,1.536,1.136,2.334c.75,1.564,1.37,3.193,2,4.82.546,1.663,1.115,3.321,1.509,5.043l.325,1.283.241,1.309c.146.876.363,1.738.429,2.633.1.889.216,1.776.292,2.669l.1,2.707c.035.9-.064,1.818-.089,2.728a21.36,21.36,0,0,1-.266,2.737,43.278,43.278,0,0,1-1.071,5.462l-.859,2.69-.215.673-.276.657-.552,1.314a25.705,25.705,0,0,1-1.478,3.129l-6.4,6.534L86.9,267.426c-5.353,5.624-8.376,8.884-8.376,8.884a.555.555,0,0,0-.044.734.518.518,0,0,0,.746,0s3.243-3.033,8.841-8.406L98.1,258.9l5.882-5.806c1.752-.552,3.538-1.017,5.321-1.434,2.29-.519,4.591-.981,6.9-1.314,2.309-.361,4.623-.6,6.935-.8,2.313-.176,4.627-.29,6.933-.3s4.608.06,6.9.214c1.14.1,2.288.172,3.423.3l3.4.436,3.367.588c1.12.207,2.22.488,3.331.728,1.117.224,2.2.566,3.292.862l1.638.458,1.609.537c1.065.378,2.16.687,3.2,1.121l3.146,1.26c1.036.448,2.047.948,3.072,1.42,1.035.456,2.026.993,3.013,1.538s2,1.04,2.955,1.647l2.873,1.787c.971.578,1.855,1.284,2.794,1.913.917.659,1.876,1.265,2.741,1.995l2.658,2.113c.9.685,1.7,1.5,2.56,2.239.832.772,1.714,1.492,2.508,2.306l2.4,2.435,1.2,1.223,1.128,1.291,2.26,2.586c1.454,1.744,2.809,3.579,4.22,5.369,1.192,5.255,1.9,8.2,1.9,8.2a.508.508,0,0,0,.617.374.6.6,0,0,0,.457-.665s-.468-3.013-1.363-8.353c.295-1.515.719-3.087,1.171-4.613.457-1.55,1-3.079,1.569-4.6.594-1.509,1.211-3.011,1.915-4.476.342-.737.7-1.467,1.081-2.183.365-.726.758-1.437,1.168-2.139.39-.713.815-1.4,1.254-2.089.42-.7.874-1.369,1.344-2.032l.694-1,.743-.965c.489-.649.987-1.289,1.529-1.894a43.221,43.221,0,0,1,3.335-3.536c.6-.54,1.179-1.112,1.8-1.625l1.89-1.518,1.985-1.382c.657-.468,1.375-.834,2.059-1.258a21.2,21.2,0,0,1,2.13-1.122,22.153,22.153,0,0,1,2.186-.994c.744-.288,1.482-.6,2.233-.869l2.284-.7c.755-.264,1.542-.375,2.313-.566a22.852,22.852,0,0,1,2.332-.456l2.35-.332c.784-.1,1.573-.115,2.36-.177a46.15,46.15,0,0,1,4.721-.075c.789-.016,1.57.07,2.352.131l2.348.19c1.245.165,2.484.37,3.725.566l1.059.948c5.247,4.672,10.077,8.964,14.426,12.719,4.345,3.784,8.151,7.083,11.317,9.779l7.383,6.272,2.63,2.217a.562.562,0,0,0,.771-.066.553.553,0,0,0-.011-.785l-2.533-2.324-7.159-6.521c-3.076-2.8-6.833-6.149-11.139-9.976-4.277-3.834-9.149-8.077-14.451-12.685l-.388-.336c0-.019.007-.036,0-.056-.219-1.681-.372-3.419-.481-5.142s-.189-3.454-.2-5.186c-.031-3.46.091-6.924.383-10.374.061-.861.155-1.722.252-2.581s.19-1.718.319-2.573c.221-1.713.525-3.416.844-5.112l.531-2.534.62-2.513c.45-1.663.894-3.33,1.472-4.955.522-1.641,1.181-3.237,1.837-4.826l1.076-2.347,1.188-2.289c.374-.775.858-1.489,1.294-2.23l.668-1.1.739-1.056a49.108,49.108,0,0,1,3.157-4.073,45.192,45.192,0,0,1,3.662-3.628l.961-.861,1.029-.78c.7-.5,1.352-1.069,2.085-1.522l2.19-1.373c.731-.457,1.525-.8,2.285-1.21l1.151-.591c.39-.183.8-.331,1.193-.5l2.4-.98.055-.023a1.427,1.427,0,0,0,.487-.346l.722-.024c5.158-.159,9.661-.309,13.373-.465,3.715-.135,6.637-.281,8.63-.377l3.058-.145a.58.58,0,0,0,.551-.531A.5.5,0,0,0,315.154,171.861Zm-59.582-57.334c-.008.939-.062,1.882.012,2.814l.141,2.806c.077.932.2,1.857.3,2.786.055.463.1.93.164,1.392l.238,1.377c.173.915.287,1.846.511,2.749l.635,2.72c.229.9.514,1.787.769,2.682s.559,1.773.871,2.649.6,1.762.973,2.612.694,1.726,1.073,2.573l1.184,2.525c.845,1.656,1.7,3.309,2.66,4.9.457.812.954,1.6,1.461,2.38s1,1.573,1.544,2.332c1.049,1.544,2.168,3.041,3.326,4.509s2.368,2.9,3.628,4.295,2.565,2.75,3.9,4.081,2.722,2.621,4.161,3.862c.661.569,1.323,1.126,2,1.674-3.817.092-7.917.217-12.271.354-1.719.057-3.48.121-5.274.186a1.141,1.141,0,0,0-.457-.566c-1.182-.759-2.388-1.654-3.536-2.548s-2.272-1.848-3.366-2.819c-1.077-.987-2.139-1.99-3.146-3.042s-2-2.113-2.94-3.218c-.481-.544-.936-1.107-1.387-1.674s-.9-1.132-1.328-1.716c-.876-1.149-1.687-2.345-2.471-3.554s-1.5-2.457-2.2-3.712c-.659-1.277-1.324-2.551-1.885-3.875a47.584,47.584,0,0,1-4.052-16.689c-.073-.719-.077-1.446-.078-2.173s-.037-1.451,0-2.18c.092-1.457.128-2.914.353-4.37.1-.727.153-1.458.3-2.182l.418-2.173c.17-.937.42-1.863.67-2.79.965-.95,1.918-1.89,2.849-2.812,4.539-4.508,8.691-8.641,12.315-12.348l.262-.266c-.224.806-.455,1.611-.6,2.428l-.585,2.781c-.213.926-.293,1.865-.446,2.8-.322,1.868-.439,3.745-.591,5.622C255.565,112.652,255.606,113.588,255.572,114.527Zm-132.448,104.1c-.015-.745-.09-1.481-.133-2.221s-.161-1.465-.262-2.193-.2-1.455-.372-2.161-.28-1.432-.475-2.127l-.576-2.088c-.448-1.362-.888-2.731-1.438-4.044-.253-.667-.527-1.323-.828-1.963s-.564-1.3-.895-1.925l-.956-1.886-1.023-1.842c-.708-1.208-1.426-2.41-2.2-3.569s-1.566-2.3-2.394-3.414q-2.477-3.341-5.26-6.405c-.919-1.026-1.874-2.018-2.844-3-.325-.326-.654-.642-.983-.96,2.794-.159,5.661-.313,8.6-.394,1.457-.041,2.935-.077,4.425-.112a1.011,1.011,0,0,0,.082.086c.78.655,1.575,1.39,2.334,2.125s1.512,1.5,2.236,2.283a63.773,63.773,0,0,1,4.135,4.9c.648.852,1.28,1.72,1.879,2.609.617.879,1.186,1.79,1.746,2.708s1.077,1.865,1.573,2.823c.477.969.96,1.937,1.361,2.945.437.992.784,2.025,1.134,3.056l.465,1.572.375,1.6c.14.531.2,1.082.3,1.625a14.78,14.78,0,0,1,.212,1.645,30.817,30.817,0,0,1,.171,3.34,28.564,28.564,0,0,1-.289,3.38,13.147,13.147,0,0,1-.3,1.689c-.136.559-.236,1.127-.4,1.681l-.53,1.661c-.167.558-.435,1.087-.647,1.633a17.491,17.491,0,0,1-1,2.113c-1.953,1.981-3.89,3.937-5.791,5.835-1.536,1.536-3.07,3.02-4.59,4.474a38.95,38.95,0,0,0,1.642-4.248,37.008,37.008,0,0,0,1.036-4.477,34.941,34.941,0,0,0,.476-4.512Zm115.514-91.242c-.013.758-.023,1.516.038,2.267l.138,2.26.282,2.238c.075.752.238,1.483.374,2.22s.262,1.48.465,2.2l.555,2.176.676,2.136c.207.72.51,1.4.762,2.1s.533,1.394.845,2.07c.574,1.379,1.255,2.7,1.93,4.032.719,1.305,1.452,2.6,2.258,3.856s1.634,2.5,2.531,3.687q.654.909,1.36,1.779c.461.588.928,1.171,1.42,1.735q1.444,1.718,3.011,3.334c1.032,1.089,2.119,2.128,3.222,3.152s2.234,2.026,3.411,2.98c.557.451,1.112.891,1.679,1.325-3.58.127-7.283.248-11.094.328-1.707.038-3.437.085-5.185.12a1.126,1.126,0,0,0-.272-.262c-.88-.579-1.8-1.286-2.656-1.987s-1.713-1.448-2.518-2.226a49.522,49.522,0,0,1-4.5-4.962c-.687-.876-1.348-1.771-1.971-2.692s-1.222-1.855-1.765-2.823c-.566-.953-1.065-1.946-1.547-2.943l-.689-1.512-.621-1.543c-.37-1.044-.758-2.084-1.038-3.161-.33-1.06-.541-2.156-.789-3.239-.17-1.1-.391-2.2-.475-3.315-.143-1.108-.164-2.234-.215-3.356,0-1.125-.021-2.252.064-3.382l.126-1.7c.048-.565.147-1.129.217-1.694.123-1.132.38-2.254.6-3.378s.567-2.234.845-3.352l.012-.05c0-.014,0-.029,0-.044l.485-.489c3.219-3.259,6.366-6.367,9.383-9.337-.009.044-.021.087-.03.131l-.474,2.245c-.162.748-.232,1.505-.352,2.259-.259,1.508-.329,3.023-.451,4.538C238.63,125.871,238.656,126.626,238.638,127.384Zm-103.605,80.6a15.7,15.7,0,0,0-.181-1.747c-.086-.576-.138-1.162-.27-1.724l-.354-1.7-.448-1.663c-.338-1.09-.677-2.184-1.106-3.231-.394-1.065-.87-2.086-1.342-3.107-.491-1.01-1.006-2-1.559-2.975s-1.123-1.926-1.737-2.851c-.6-.937-1.245-1.834-1.9-2.724a65.808,65.808,0,0,0-4.195-5.1c-.734-.817-1.5-1.6-2.274-2.383-.183-.182-.369-.357-.553-.535,4.513-.088,9.158-.151,13.907-.211l6.139-.077c.407.377.826.787,1.225,1.2.457.476.91.959,1.345,1.457q1.316,1.489,2.5,3.094a35.965,35.965,0,0,1,4.039,6.86c.272.609.5,1.235.729,1.864.2.637.414,1.273.558,1.929a18.948,18.948,0,0,1,.381,1.981l.117,1.007.051,1.017c.029.34,0,.681-.009,1.023a7.576,7.576,0,0,1-.072,1.027,16.846,16.846,0,0,1-.343,2.052,17.759,17.759,0,0,1-.653,2.013c-.032.094-.071.186-.107.279l-7.765,7.979q-4.271,4.388-8.409,8.61a9.453,9.453,0,0,0,.405-.965l.62-1.731c.2-.58.324-1.175.489-1.762a14.471,14.471,0,0,0,.382-1.777,30.282,30.282,0,0,0,.437-3.578A32.8,32.8,0,0,0,135.033,207.988Zm91.094-68.422c.034,1.18.056,2.363.194,3.531.081,1.179.3,2.329.473,3.491.25,1.142.466,2.3.8,3.413.288,1.134.684,2.23,1.065,3.33l.639,1.624c.224.536.474,1.06.71,1.592.5,1.049,1.012,2.093,1.6,3.094.562,1.016,1.184,2,1.824,2.964s1.327,1.9,2.036,2.824a51.707,51.707,0,0,0,4.65,5.2c.833.819,1.684,1.622,2.577,2.387.159.136.318.27.477.4-.577,0-1.151,0-1.731,0-3.761-.047-7.6-.162-11.5-.188-3.129-.008-6.3.06-9.509.185a1.077,1.077,0,0,0-.294-.271c-.507-.311-1.067-.7-1.585-1.09s-1.031-.811-1.518-1.252c-.505-.42-.955-.9-1.429-1.351s-.885-.963-1.331-1.441-.811-1.021-1.222-1.528-.73-1.077-1.1-1.61a15.211,15.211,0,0,1-.973-1.687l-.459-.858c-.141-.292-.25-.6-.377-.9a17.53,17.53,0,0,1-.694-1.82l-.53-1.88c-.138-.637-.209-1.292-.318-1.937-.044-.324-.116-.644-.136-.973l-.034-.991c-.006-.661-.085-1.319-.035-1.985l.191-2a10.4,10.4,0,0,1,.31-1.85q2.958-2.931,5.766-5.891c2.755-2.937,5.4-5.881,8.034-8.718,1.62-1.742,3.257-3.415,4.882-5.057-.054.21-.109.419-.157.63-.256,1.167-.548,2.331-.706,3.511-.088.589-.2,1.177-.268,1.767l-.174,1.774C226.162,137.2,226.151,138.383,226.127,139.566ZM151.718,197.1l-.069-1.109a20.848,20.848,0,0,0-.324-2.172c-.129-.719-.327-1.411-.516-2.107-.214-.685-.434-1.368-.7-2.029a33.929,33.929,0,0,0-3.994-7.394q-1.2-1.706-2.538-3.291c-.31-.369-.635-.726-.958-1.084l2.031-.025c3.631-.032,7.311-.113,11.031-.329.212.18.435.376.644.574.275.259.547.522.81.8.528.545,1.032,1.114,1.505,1.706a19.647,19.647,0,0,1,2.45,3.8,11.667,11.667,0,0,1,.781,2.114,9.235,9.235,0,0,1,.229,1.105,9.577,9.577,0,0,1,.12,1.127,8.556,8.556,0,0,1-.032,1.145,9.258,9.258,0,0,1-.178,1.15,10.862,10.862,0,0,1-.349,1.136c-.015.048-.038.093-.056.14q-1.341,1.245-2.7,2.462c-2.725,2.548-5.34,5.17-7.9,7.8a17.861,17.861,0,0,0,.482-2.144,8.906,8.906,0,0,0,.144-1.127c.028-.375.084-.754.075-1.126Zm54.617-43.025,0,1.086c.014.361.088.711.131,1.067.108.707.18,1.425.323,2.123l.552,2.061a19.342,19.342,0,0,0,.728,1.991c.134.327.251.663.4.982l.483.936a16.689,16.689,0,0,0,1.03,1.837c.391.58.726,1.2,1.167,1.747s.83,1.13,1.292,1.655.908,1.067,1.407,1.559.976,1.006,1.511,1.463c.375.348.767.68,1.162,1.008-3.51.172-7.046.334-10.605.426-.657.022-1.319.041-1.978.062-.226-.144-.466-.307-.692-.473-.309-.227-.6-.473-.887-.73s-.559-.525-.837-.789-.518-.564-.78-.843-.475-.6-.715-.894-.427-.629-.644-.941a8.782,8.782,0,0,1-.57-.985,6.82,6.82,0,0,1-.489-1.025,10.009,10.009,0,0,1-.406-1.061l-.311-1.1c-.081-.372-.121-.754-.186-1.13a6.158,6.158,0,0,1-.111-1.145c-.006-.387-.058-.77-.032-1.161l.1-1.175a6.4,6.4,0,0,1,.183-1.177l.1-.489c2.774-2.768,5.572-5.475,8.344-8.138.191-.185.379-.37.569-.555l-.209,1.638C206.294,152.634,206.349,153.355,206.335,154.078Zm-43.418,29.466a18.491,18.491,0,0,0-2.426-4.363c-.477-.645-.986-1.264-1.518-1.859,3.155-.238,6.323-.378,9.5-.458a1.047,1.047,0,0,0,.411.8c.086.064.212.174.319.269l.335.3c.22.208.432.425.629.652a7.665,7.665,0,0,1,1.036,1.441,4.643,4.643,0,0,1,.355.781,5.379,5.379,0,0,1,.209.819c.014.126.013.253.02.383-2.715,2.8-5.455,5.572-8.261,8.251.047-.183.093-.367.122-.554a10.213,10.213,0,0,0,.171-1.347A12.212,12.212,0,0,0,162.917,183.544Zm10.411-2.979a5.756,5.756,0,0,0-.276-1.149,8.1,8.1,0,0,0-1.028-2c-.107-.156-.229-.3-.344-.448.022-.019.048-.032.069-.053.044-.039.086-.081.13-.121,1.748-.025,3.5-.037,5.249-.045q-1.891,1.974-3.784,3.946C173.338,180.653,173.331,180.61,173.328,180.565Zm6.138-6.236q-.471-2.527-.911-5.062c.058.034.113.071.172.1a3.562,3.562,0,0,0,.635.308,4.784,4.784,0,0,0,.67.234c.233.051.463.109.7.146a6.774,6.774,0,0,0,.717.044c.478.008.954-.019,1.42-.055.266-.009.526-.015.789-.024Q181.553,172.166,179.466,174.329Zm-2.663-4.94q.522,2.378,1.026,4.761-1.75-1.489-3.478-2.99l.218-.077.485-.246a4.4,4.4,0,0,0,.447-.285,3.815,3.815,0,0,0,.411-.312A9.014,9.014,0,0,0,176.8,169.389Zm-3.48,4.826a6.676,6.676,0,0,0,.081-1.785q1.481,1.321,2.955,2.659-1.678.076-3.352.141A4.492,4.492,0,0,0,173.322,174.216Zm5.253,3.619q.6,3.086,1.108,6.191c-.045-.03-.087-.062-.134-.09l-.626-.336a5.761,5.761,0,0,0-.655-.283,4.012,4.012,0,0,0-.679-.229,8.947,8.947,0,0,0-1.413-.283,11.6,11.6,0,0,0-1.449-.029,8.492,8.492,0,0,0-1.442.19l-.01,0Q175.915,180.394,178.575,177.835ZM182.064,184a5.835,5.835,0,0,0-.45.537q-.7-2.893-1.293-5.827l1.663,1.527c.844.776,1.7,1.544,2.547,2.316a6.654,6.654,0,0,0-.654.2,4.61,4.61,0,0,0-.5.241,3.594,3.594,0,0,0-.473.289,3.117,3.117,0,0,0-.442.335A4.174,4.174,0,0,0,182.064,184Zm4-6.263a4.438,4.438,0,0,0-.249.606,3.3,3.3,0,0,0-.171.605,4.107,4.107,0,0,0-.106.6l-.045.583c0,.177.011.353.021.526-.732-.622-1.46-1.249-2.195-1.867l-2.438-2.054h.264q2.8-.009,5.608-.049l-.355.457C186.273,177.337,186.173,177.538,186.063,177.739Zm-4.42-2.894q1.96-1.915,3.9-3.836c0,.055-.012.111-.01.166a5.891,5.891,0,0,0,.094,1.23,6.844,6.844,0,0,0,.859,2.23l0,.006Q184.066,174.735,181.643,174.845Zm3.541-6.38a7.85,7.85,0,0,1-.851.073,4.726,4.726,0,0,1-.607-.012,3.754,3.754,0,0,1-.592-.087,6.58,6.58,0,0,1-1.11-.379c-.351-.158-.693-.293-1.028-.435-.178-.05-.328-.149-.5-.209s-.34-.121-.494-.209-.321-.153-.487-.223l-.455-.273a7.031,7.031,0,0,1-.845-.645l-.183-.135c-.019-.014-.045-.021-.066-.034q-.07-.4-.14-.806c-.517-2.991-1.067-5.963-1.627-8.925l.982.721,1.346.761a8.444,8.444,0,0,0,1.409.654,13.913,13.913,0,0,0,1.466.535c.507.133,1.012.272,1.522.39.516.1,1.042.157,1.564.222.518.083,1.051.086,1.575.121a15.562,15.562,0,0,0,1.577.042c.525.005,1.047.03,1.571.015s1.046.007,1.57-.017,1.049-.027,1.574-.075l1.576-.142c.075-.007.149-.019.224-.027Q189.7,163.891,185.184,168.466Zm-9.216-2.856.267,1.207c-.051.1-.1.2-.155.288-.126.223-.261.44-.4.654s-.288.416-.442.613a5.061,5.061,0,0,1-.491.537,2.182,2.182,0,0,1-.261.23,2.454,2.454,0,0,1-.268.2l-.272.166-.274.11a2.222,2.222,0,0,1-.272.058.754.754,0,0,1-.269.014,2.1,2.1,0,0,1-.542-.086l-.028,0c-2.542-2.242-5.026-4.52-7.421-6.859.021,0,.043-.006.064-.011a8.3,8.3,0,0,0,1.115-.235l1.075-.389,1-.527a9.163,9.163,0,0,0,.934-.615,7.629,7.629,0,0,0,.871-.683c.277-.239.566-.472.814-.733s.522-.506.763-.773c.485-.531.947-1.078,1.377-1.643.275-.362.526-.738.783-1.111C174.593,159.21,175.26,162.411,175.968,165.61Zm-13.512,7.024a10.174,10.174,0,0,0,.815-2.33,16.646,16.646,0,0,0,.385-4.575c-.027-.55-.066-1.1-.118-1.637,2.658,2.1,5.263,4.29,7.836,6.545,0,.012,0,.025,0,.036a5.776,5.776,0,0,1,.083.786,5.8,5.8,0,0,1-.46,2.334,1.914,1.914,0,0,1-.151.318,1.362,1.362,0,0,1-.153.288c-.064.081-.1.188-.16.258s-.116.149-.169.229a1.99,1.99,0,0,0-.191.194c-.051.079-.148.109-.217.172a1.138,1.138,0,0,1-.147.09c-3.159.1-6.3.139-9.423.088q.325-.3.627-.62A10,10,0,0,0,162.456,172.633Zm9.385,11.736a.537.537,0,0,0,.27.023,10.469,10.469,0,0,1,2.478-.147,9.805,9.805,0,0,1,1.2.16,9.066,9.066,0,0,1,1.134.323,4.058,4.058,0,0,1,.539.218,4.178,4.178,0,0,1,.52.251,8,8,0,0,1,.965.626,9.766,9.766,0,0,1,.882.745,1.9,1.9,0,0,1,.28.288c.1.689.195,1.376.28,2.066.426,2.771.941,5.505,1.494,8.212l-.488-.462a9.758,9.758,0,0,0-1.232-1c-.434-.3-.835-.654-1.3-.92l-1.4-.77a12.463,12.463,0,0,0-1.467-.649,10.061,10.061,0,0,0-1.516-.541c-.522-.138-1.026-.327-1.561-.422s-1.064-.207-1.6-.291l-1.629-.14c-.546-.025-1.1-.015-1.641-.023-.548.012-1.1.061-1.645.09-.548.067-1.1.134-1.641.231-.271.048-.539.107-.808.166C166.514,189.677,169.156,187.008,171.841,184.369Zm13.061,12c-.151.261-.316.518-.463.781-.552-2.944-1.153-5.9-1.861-8.831-.131-.477-.25-.959-.375-1.438.017-.073.038-.154.059-.229.038-.123.075-.246.124-.367a4.748,4.748,0,0,1,.329-.706,4.3,4.3,0,0,1,.437-.629,2.513,2.513,0,0,1,.257-.274,1.832,1.832,0,0,1,.281-.243,1.307,1.307,0,0,1,.307-.2,2.981,2.981,0,0,1,.328-.164,2.7,2.7,0,0,1,.712-.191,4,4,0,0,1,.75-.04.718.718,0,0,1,.162.014q3.985,3.6,8,7.157l-.355.012a5.336,5.336,0,0,0-1.136.14,11.206,11.206,0,0,0-1.134.239l-1.114.389a9.873,9.873,0,0,0-1.065.526,6.882,6.882,0,0,0-1.01.633,6.415,6.415,0,0,0-.94.735,8.515,8.515,0,0,0-.855.828,11.247,11.247,0,0,0-.764.9C185.352,195.724,185.1,196.03,184.9,196.365Zm10.526-9.135c.02.707.071,1.407.144,2.1q-4-3.483-8.023-6.944c.008-.1.015-.206.031-.306a8.48,8.48,0,0,1,.185-.925,15.1,15.1,0,0,1,.549-1.675,3.276,3.276,0,0,1,.153-.363,2.345,2.345,0,0,1,.156-.338,5.533,5.533,0,0,1,.329-.592c.055-.094.128-.162.188-.251a1.017,1.017,0,0,1,.216-.229.962.962,0,0,1,.253-.207c.1-.055.194-.115.293-.18l.4-.259a1.249,1.249,0,0,0,.409-.439v0q4.244-.075,8.473-.166c-.281.262-.544.542-.8.828a11.887,11.887,0,0,0-2.464,4.9A17.641,17.641,0,0,0,195.428,187.23Zm-5.958-12.7c-.169-.155-.336-.312-.489-.481a6.057,6.057,0,0,1-.531-.7,4.543,4.543,0,0,1-.405-.762c-.048-.134-.122-.261-.159-.4l-.127-.409a6.185,6.185,0,0,1-.134-.851,5.229,5.229,0,0,1-.018-.887,8.551,8.551,0,0,1,.107-.922l.028-.288v0q3.829-3.807,7.614-7.579l-.085.611c-.051.447-.024.893-.038,1.342a6.621,6.621,0,0,0,.065,1.335c.064.439.107.884.192,1.317l.332,1.277a12.049,12.049,0,0,0,.441,1.233,8.332,8.332,0,0,0,.535,1.186,10.319,10.319,0,0,0,.625,1.135c.237.358.442.743.709,1.078s.5.7.785,1.019.552.657.854.96c.148.148.292.3.44.446Q194.859,174.355,189.47,174.534Zm14.681-25.466c-2.657,2.789-5.358,5.605-8.124,8.4-.22.051-.442.1-.661.146-.494.1-.991.193-1.491.266-.5.095-1,.116-1.5.172s-1,.058-1.5.091-1,.009-1.494,0a16.038,16.038,0,0,1-2.912-.382,13.36,13.36,0,0,1-1.4-.338l-1.37-.4c-.44-.164-.887-.309-1.331-.458a11.942,11.942,0,0,1-1.3-.506,11.39,11.39,0,0,1-1.264-.561l-1.229-.624-1.141-.753-.57-.38-.515-.446-.828-.719c-.677-3.528-1.36-7.036-2.016-10.514-.066-.33-.121-.658-.185-.988.252.186.507.37.76.556l2.022,1.449,2.2,1.206a14.666,14.666,0,0,0,2.3,1.034l1.177.465c.2.075.391.159.591.228l.617.164,2.465.653c.835.173,1.691.275,2.532.416.839.157,1.7.193,2.557.272l1.281.107,1.29.044c.861.014,1.712.1,2.576.07s1.72.035,2.584-.014,1.727-.05,2.592-.134,1.731-.129,2.6-.24c.867-.087,1.733-.206,2.6-.342l.107-.019Q205.155,148.019,204.151,149.067Zm-33.384-8.639c.156.757.32,1.505.471,2.267.708,3.447,1.4,6.934,2.112,10.436-.222.435-.472.885-.727,1.318q-.5.828-1.056,1.622c-.373.528-.771,1.033-1.186,1.523-.206.246-.433.468-.648.7a8.14,8.14,0,0,1-.685.657,6,6,0,0,1-.721.6,7.215,7.215,0,0,1-.756.531l-.788.447-.822.313a6.357,6.357,0,0,1-.835.176,2.755,2.755,0,0,1-.834.045,2.617,2.617,0,0,1-.824-.08l-.166-.039c-2.933-2.767-5.941-5.4-8.942-7.955a9.74,9.74,0,0,0,1.4-.109,6.063,6.063,0,0,0,.883-.162,8.783,8.783,0,0,0,.874-.222,14.532,14.532,0,0,0,1.7-.624,18.106,18.106,0,0,0,3.1-1.826c.485-.349.944-.724,1.4-1.1a30.047,30.047,0,0,0,2.527-2.46c.792-.86,1.527-1.761,2.224-2.682s1.353-1.868,1.972-2.835C170.549,140.79,170.655,140.607,170.767,140.428ZM151,166.3a30.624,30.624,0,0,0,1.141-7.554c.061-1.245.061-2.483.008-3.712-.011-.264-.036-.526-.053-.789l.375.338c2.935,2.668,5.945,5.336,9.087,7.919.016.112.032.223.045.333.04.335.073.673.1,1.012a17.368,17.368,0,0,1,0,2.048,15.858,15.858,0,0,1-.729,3.987,10.006,10.006,0,0,1-1.824,3.361,8.452,8.452,0,0,1-.655.657,6.178,6.178,0,0,1-.735.572,6.73,6.73,0,0,1-.821.467,9.531,9.531,0,0,1-.882.377l-.014.005c-3.736-.032-7.45.075-11.122.228a9.212,9.212,0,0,0,.725-.576,15.094,15.094,0,0,0,1.53-1.486,18.069,18.069,0,0,0,1.295-1.666,16.9,16.9,0,0,0,1.056-1.785,18.62,18.62,0,0,0,.843-1.85C150.594,167.564,150.822,166.938,151,166.3ZM160.41,196.3q1.07-1.215,2.167-2.412a19.957,19.957,0,0,1,2.249-.37,27.159,27.159,0,0,1,3.085-.122c.508.032,1.018.047,1.522.093l1.5.2L172.4,194c.491.1.949.285,1.425.422a8.825,8.825,0,0,1,1.378.529,11.019,11.019,0,0,1,1.328.626l1.266.735c.422.244.795.562,1.2.839a8.666,8.666,0,0,1,1.144.908l1.073,1a10.4,10.4,0,0,1,.982,1.091l.429.492q1.182,5.6,2.337,11.079c.125.593.246,1.175.37,1.764a18.4,18.4,0,0,0-1.277-1.348l-.952-.93-1.012-.868c-.657-.6-1.4-1.093-2.108-1.635-.753-.478-1.472-1.007-2.267-1.422a26.634,26.634,0,0,0-2.4-1.2c-.825-.352-1.656-.7-2.516-.974-.851-.3-1.725-.53-2.6-.754-.885-.195-1.77-.39-2.674-.513a27.262,27.262,0,0,0-2.72-.293,36.61,36.61,0,0,0-5.507.077,37.918,37.918,0,0,0-5.487.884c-.659.153-1.314.33-1.967.519C154.724,202.2,157.612,199.314,160.41,196.3Zm26.6,14.859-2.056-11.215c.005-.019.011-.038.017-.057.108-.32.216-.641.351-.954.119-.32.272-.624.419-.933s.329-.6.491-.9.379-.566.564-.853a9.616,9.616,0,0,1,.638-.795,7,7,0,0,1,.71-.725,5.035,5.035,0,0,1,.779-.642,4.147,4.147,0,0,1,.845-.543,8.447,8.447,0,0,1,.9-.438l.943-.323a9.7,9.7,0,0,1,.975-.2,4.305,4.305,0,0,1,.986-.114l1-.028a6.114,6.114,0,0,1,.989.1l.155.021q3.089,2.74,6.158,5.477c1.08.952,2.141,1.915,3.205,2.875-.066,0-.132-.008-.2-.008a19.683,19.683,0,0,0-3.7.256,17.951,17.951,0,0,0-1.842.412l-.91.279-.894.345a15,15,0,0,0-1.733.835c-.567.306-1.1.667-1.639,1.025-.518.385-1.032.776-1.512,1.209a19.674,19.674,0,0,0-2.6,2.836c-.389.508-.75,1.035-1.086,1.574a25.479,25.479,0,0,0-1.648,3.1C187.209,212.238,187.11,211.7,187.009,211.156Zm20.769-25.244a31.279,31.279,0,0,0-.956,8.225q0,2.036.184,4.042.057.593.12,1.181c-1.207-1.033-2.415-2.065-3.614-3.118q-3.016-2.612-6.039-5.253c-.027-.511-.041-1.032-.018-1.549.027-.771.084-1.54.179-2.3a22.575,22.575,0,0,1,.392-2.257c.154-.741.356-1.464.573-2.169.109-.353.245-.695.37-1.036s.273-.671.438-.987a9.545,9.545,0,0,1,.5-.934,8.707,8.707,0,0,1,.582-.867,6.875,6.875,0,0,1,.683-.776,6.632,6.632,0,0,1,1.643-1.258,9.473,9.473,0,0,1,.956-.452l.087-.041c.643-.012,1.29-.027,1.931-.038,2.594-.065,5.169-.088,7.734-.1-.089.078-.186.147-.272.229a8.79,8.79,0,0,0-.819.8c-.253.283-.538.544-.764.846l-.706.888-.632.93a20.149,20.149,0,0,0-1.066,1.946c-.333.658-.594,1.334-.858,2.007S207.958,185.226,207.778,185.912Zm13.752-53.619c-2.831,2.649-5.77,5.314-8.7,8.084q-2.3,2.191-4.574,4.481c-.756.2-1.564.383-2.356.537-.834.16-1.67.3-2.509.418-.838.143-1.679.205-2.52.287s-1.679.1-2.519.149-1.674.02-2.509.019-1.659-.088-2.483-.156a19.365,19.365,0,0,1-2.44-.337,23.088,23.088,0,0,1-2.391-.48l-2.339-.6-2.27-.742c-.769-.219-1.467-.579-2.2-.859a17.5,17.5,0,0,1-2.139-.967l-2.073-1.077-1.923-1.292c-.318-.218-.645-.427-.958-.652l-.864-.761-1.136-1q-.589-3.263-1.137-6.491c-.639-3.688-1.347-7.3-2.156-10.816-.424-1.805-.865-3.586-1.3-5.348l1.249,1.076,1.653,1.256c.543.43,1.112.826,1.7,1.2s1.151.782,1.743,1.151c1.208.7,2.4,1.438,3.666,2.051,1.233.674,2.547,1.205,3.84,1.776,1.325.506,2.633,1.056,4.008,1.452,1.353.451,2.743.807,4.127,1.175,1.406.309,2.808.628,4.236.854,1.418.263,2.858.444,4.294.631,1.444.155,2.887.305,4.337.426s2.907.2,4.368.246c1.458.075,2.924.1,4.39.1,2.938,0,5.887-.142,8.841-.37,1.478-.122,2.957-.271,4.437-.466.7-.092,1.4-.19,2.1-.3C225.235,128.722,223.424,130.517,221.53,132.294ZM165.116,113.7c.155-.266.3-.531.455-.8.379,2.582.752,5.209,1.177,7.86.59,3.576,1.3,7.187,2.11,10.827q.645,2.878,1.279,5.8c-.2.4-.423.82-.65,1.226q-.395.707-.82,1.4-.85,1.391-1.808,2.719a30.589,30.589,0,0,1-4.314,4.878c-.407.353-.818.7-1.247,1.02a15.024,15.024,0,0,1-1.317.9,15.356,15.356,0,0,1-1.381.756,12.572,12.572,0,0,1-1.44.557,5.7,5.7,0,0,1-.734.2,4.667,4.667,0,0,1-.741.137,10.27,10.27,0,0,1-1.482.1,9.961,9.961,0,0,1-1.455-.162,4.9,4.9,0,0,1-.77-.175l-7.254-6.217q-5.251-4.5-10.236-8.815c.7.1,1.412.138,2.122.19a19.786,19.786,0,0,0,2.885-.192l.722-.1.716-.163a12.94,12.94,0,0,0,1.423-.37c.466-.157.942-.288,1.4-.47l1.368-.567a28.574,28.574,0,0,0,2.614-1.39c.431-.242.844-.512,1.249-.791s.824-.541,1.21-.846c.8-.578,1.553-1.2,2.3-1.833.73-.65,1.464-1.3,2.15-1.986.706-.673,1.365-1.386,2.023-2.1s1.283-1.449,1.9-2.19,1.209-1.5,1.784-2.268q1.732-2.3,3.268-4.713Q164.4,114.931,165.116,113.7Zm-30.959,35.461c-.019-1.036-.047-2.07-.113-3.1-.12-2.051-.311-4.085-.6-6.093q-.21-1.485-.488-2.951,5.048,4.5,10.323,9.271l6.935,6.262c.034.314.064.633.087.949q.056.879.066,1.766c.016,1.182-.019,2.369-.113,3.555a29.109,29.109,0,0,1-1.466,6.994c-.19.565-.425,1.112-.655,1.66-.259.533-.508,1.07-.8,1.582a14.08,14.08,0,0,1-.936,1.491,15.249,15.249,0,0,1-1.074,1.379,15.536,15.536,0,0,1-1.242,1.216,12.694,12.694,0,0,1-1.374,1.059,13.13,13.13,0,0,1-1.516.852,16.5,16.5,0,0,1-1.609.676l-.072.031-6.346.243q-5.938.228-11.638.423l1.338-.82a23.848,23.848,0,0,0,2.74-2.187l.647-.594c.208-.206.4-.429.6-.643a16.208,16.208,0,0,0,1.144-1.325c.344-.468.7-.927,1.03-1.4l.911-1.466a28.691,28.691,0,0,0,1.5-3.05,15.949,15.949,0,0,0,.61-1.561c.181-.525.387-1.045.525-1.575s.3-1.058.427-1.588l.347-1.591c.188-1.06.375-2.12.485-3.177.141-1.056.2-2.109.262-3.158S134.158,150.2,134.157,149.161Zm8.4,64.972,7.563-7.422a36.391,36.391,0,0,1,3.839-.937,43.577,43.577,0,0,1,5.3-.671,34.916,34.916,0,0,1,5.263.073c.865.086,1.733.166,2.581.324.856.128,1.693.327,2.529.522.826.225,1.651.455,2.45.75.81.268,1.588.61,2.362.953.767.36,1.523.736,2.249,1.168.754.386,1.434.886,2.15,1.332.669.513,1.379.974,2,1.54l.965.819.91.882c.628.567,1.158,1.232,1.742,1.845.565.632,1.076,1.313,1.62,1.968l.025.031c.006.007.015.01.021.018,1.142,5.467,2.236,10.8,3.233,15.955.581,2.988,1.068,5.928,1.535,8.8-.3-.385-.6-.772-.908-1.147-.975-1.075-1.87-2.222-2.911-3.235-1.014-1.036-2.021-2.076-3.124-3.02-1.054-.994-2.194-1.888-3.332-2.783-.555-.465-1.162-.863-1.753-1.281s-1.173-.848-1.8-1.219c-1.242-.748-2.47-1.516-3.775-2.16-1.268-.7-2.618-1.259-3.94-1.861-1.36-.522-2.708-1.067-4.112-1.484-.691-.233-1.39-.444-2.1-.618s-1.407-.4-2.13-.533l-2.155-.446-2.178-.35c-1.463-.186-2.929-.346-4.409-.427s-2.962-.116-4.45-.086-2.978.118-4.468.25q-2.235.223-4.461.62c-1.483.251-2.959.587-4.427.959-.548.142-1.091.3-1.634.46Q137.574,219.012,142.553,214.132Zm50.111,25.793c-.534-2.321-1.065-4.693-1.551-7.126-1.088-5.421-2.154-11.083-3.229-16.9.069-.235.14-.472.215-.7.177-.552.388-1.1.606-1.641a23.115,23.115,0,0,1,1.584-3.141c.3-.5.627-.995.977-1.466a17.992,17.992,0,0,1,2.334-2.626c.428-.4.887-.759,1.35-1.116a14.982,14.982,0,0,1,6.353-2.6,18.277,18.277,0,0,1,3.413-.22c.57-.005,1.134.084,1.7.124l.521.081q2.376,2.165,4.717,4.331c3.224,2.962,6.475,5.83,9.762,8.568q1.867,1.542,3.731,3.04c-.809-.058-1.614-.144-2.432-.14a30.589,30.589,0,0,0-3.1.064,27.967,27.967,0,0,0-3.113.348c-.52.056-1.033.2-1.548.305-.514.124-1.034.205-1.539.378l-1.523.464c-.5.181-1,.383-1.494.575a15.6,15.6,0,0,0-1.466.656,15.1,15.1,0,0,0-1.43.738,32.013,32.013,0,0,0-2.741,1.709c-.864.647-1.721,1.3-2.519,2.033a29.224,29.224,0,0,0-2.291,2.284c-.371.392-.72.8-1.056,1.223s-.683.833-1,1.269c-.65.857-1.251,1.748-1.812,2.658s-1.1,1.837-1.584,2.786-.939,1.912-1.366,2.885C192.974,239.149,192.818,239.537,192.664,239.925Zm33.816-33.114c.008,1.109.055,2.214.123,3.315s.158,2.2.277,3.294c.145,1.288.3,2.566.489,3.843-1.338-1.283-2.685-2.571-4.057-3.855-3.13-2.908-6.388-5.766-9.739-8.589q-2.275-1.907-4.561-3.844c-.09-1-.149-2.017-.143-3.031,0-1.3.053-2.6.168-3.9a38.5,38.5,0,0,1,.529-3.854c.124-.633.243-1.268.4-1.891s.318-1.244.5-1.857.4-1.212.618-1.809c.233-.589.461-1.181.75-1.742a16.759,16.759,0,0,1,.908-1.65l.506-.789.557-.748c.176-.259.4-.471.6-.711a6.473,6.473,0,0,1,.645-.669,15.062,15.062,0,0,1,1.41-1.215,16.925,16.925,0,0,1,1.445-.9h.021c4.007-.014,7.975-.11,11.886-.32,3.857-.222,7.656-.526,11.378-.763-.045.026-.093.046-.137.073l-1.535.943c-.509.319-.974.706-1.462,1.06a13.594,13.594,0,0,0-1.392,1.154,27.3,27.3,0,0,0-2.539,2.569l-1.116,1.411c-.362.477-.667.988-1,1.481s-.618,1.013-.908,1.528-.58,1.032-.819,1.566a33.443,33.443,0,0,0-1.369,3.222c-.358,1.1-.719,2.2-.988,3.308-.157.554-.276,1.11-.392,1.667s-.244,1.113-.328,1.672c-.207,1.115-.349,2.234-.468,3.351-.094,1.117-.183,2.234-.22,3.347S226.458,205.7,226.48,206.811Zm14.277-93.781c-3.509,3.595-7.215,7.4-11.147,11.317l-.478.478-.016,0c-1.393.312-2.86.562-4.3.782s-2.9.4-4.351.548-2.9.277-4.355.342-2.9.116-4.344.12-2.887-.008-4.321-.076-2.859-.191-4.277-.33l-2.12-.243-2.1-.333c-1.386-.258-2.774-.5-4.131-.839-1.369-.3-2.7-.691-4.041-1.056-1.324-.4-2.653-.789-3.938-1.268-1.3-.439-2.562-.968-3.834-1.462-1.24-.555-2.49-1.09-3.688-1.713-1.229-.572-2.375-1.271-3.549-1.924-.576-.343-1.129-.717-1.7-1.073s-1.124-.722-1.653-1.126L170.811,114l-1.53-1.269a18.431,18.431,0,0,1-1.483-1.316l-.759-.719c-.075-.308-.157-.623-.231-.93-.8-3.348-1.43-6.662-2.074-9.873-.07-.344-.136-.684-.2-1.026l.6.507,1.952,1.653,2.064,1.531c.678.527,1.395,1,2.123,1.463s1.435.956,2.182,1.392c1.507.855,3,1.733,4.589,2.468,1.544.811,3.19,1.438,4.8,2.123,1.665.585,3.3,1.246,5.019,1.707,1.691.535,3.435.929,5.164,1.362,1.755.358,3.512.711,5.3.962.887.146,1.778.274,2.677.369s1.789.235,2.693.3l2.707.231,2.718.17c1.816.088,3.635.16,5.462.16q1.368.026,2.741.01,1.371,0,2.747-.049,2.751-.071,5.51-.285c1.839-.131,3.68-.3,5.521-.5s3.684-.448,5.524-.746c1.392-.225,2.768-.463,4.162-.752C240.774,112.971,240.765,113,240.757,113.03ZM161.473,98.585c.331-.564.651-1.128.965-1.7l.29.281c.205,1.03.409,2.067.611,3.12.6,3.115,1.254,6.31,1.778,9.618a1.23,1.23,0,0,0-.541.539c-.389.782-.834,1.6-1.285,2.394s-.923,1.588-1.409,2.372q-1.461,2.35-3.1,4.6c-.546.75-1.117,1.482-1.693,2.21s-1.181,1.434-1.8,2.127-1.245,1.381-1.909,2.029c-.648.667-1.334,1.29-2.023,1.911-.7.6-1.416,1.193-2.16,1.739-.361.289-.748.535-1.127.8s-.759.517-1.157.741a26.507,26.507,0,0,1-2.4,1.294l-1.244.524c-.416.168-.845.285-1.267.431a11.1,11.1,0,0,1-1.282.34l-.644.152-.648.091a18,18,0,0,1-2.588.19,17.2,17.2,0,0,1-2.535-.272,18.924,18.924,0,0,1-2.447-.618l-.057-.014a.844.844,0,0,0-.13-.014q-2.284-1.994-4.493-3.945-2.088-1.846-4.066-3.684a24.562,24.562,0,0,0,3.314.358,24.222,24.222,0,0,0,3.531-.242l.885-.123.877-.2a15.893,15.893,0,0,0,1.744-.455c.572-.194,1.154-.355,1.717-.578l1.679-.7a35.251,35.251,0,0,0,3.212-1.71c.53-.3,1.037-.629,1.536-.973s1.013-.667,1.488-1.041.973-.72,1.442-1.1l1.392-1.157c.9-.8,1.8-1.6,2.649-2.447.87-.829,1.681-1.707,2.493-2.584s1.581-1.786,2.342-2.7,1.49-1.848,2.2-2.8q2.136-2.834,4.029-5.806Q160.587,100.1,161.473,98.585Zm-39.051,40.4c-.038-2.56-.174-5.1-.428-7.612q-.187-1.884-.461-3.745c-.033-.22-.068-.439-.1-.658,1.5,1.25,3.009,2.529,4.524,3.857,1.58,1.383,3.186,2.8,4.806,4.239a51.714,51.714,0,0,1,.912,5.318c.238,1.97.409,3.957.459,5.96.026,1,.014,2.007-.005,3.013-.038,1.007-.086,2.014-.176,3.021s-.189,2.014-.357,3.014c-.138,1-.35,2-.559,2.993l-.374,1.48c-.133.491-.3.975-.445,1.462s-.326.964-.5,1.444a13.958,13.958,0,0,1-.568,1.418,25.993,25.993,0,0,1-1.372,2.732l-.818,1.294c-.292.417-.612.815-.915,1.225s-.663.773-.989,1.164c-.172.188-.333.387-.511.568l-.559.521a21.076,21.076,0,0,1-2.367,1.935l-1.3.813c-.426.285-.9.47-1.354.713a26.8,26.8,0,0,1-2.822,1.185l-.1.041a1.353,1.353,0,0,0-.353.229c-1.511.042-3.009.081-4.485.115-2.074.048-4.106.057-6.1.052.192-.1.381-.2.565-.322l1.833-1.117a30.674,30.674,0,0,0,3.387-2.673l.8-.725c.259-.249.494-.523.742-.784a20.788,20.788,0,0,0,1.429-1.612c.434-.568.88-1.13,1.3-1.706l1.159-1.786a36.18,36.18,0,0,0,1.955-3.721c.3-.629.58-1.264.813-1.91s.526-1.279.711-1.932l.6-1.951.5-1.96c.289-1.308.572-2.617.759-3.925.225-1.307.358-2.614.488-3.916s.194-2.6.241-3.892S122.451,140.265,122.422,138.985Zm3.3,91.834c1.785-1.8,3.623-3.639,5.483-5.489,1.125-.357,2.28-.661,3.43-.928,1.442-.325,2.889-.615,4.343-.822,1.453-.225,2.909-.374,4.363-.5s2.91-.186,4.359-.193,2.9.036,4.332.135,2.863.27,4.281.468l2.111.366,2.087.459c.7.138,1.372.364,2.059.542s1.364.39,2.031.626c1.355.42,2.654.967,3.965,1.488,1.272.6,2.573,1.152,3.791,1.852,1.256.637,2.435,1.4,3.628,2.138.6.37,1.154.8,1.737,1.19s1.164.787,1.7,1.238c1.107.866,2.217,1.73,3.244,2.694,1.073.912,2.056,1.924,3.046,2.929,1.016.982,1.892,2.1,2.846,3.146.909,1.088,1.769,2.221,2.658,3.33l.016.021a.789.789,0,0,0,.249.2c.411,2.495.83,4.921,1.308,7.254q.651,3.14,1.263,6.1c-.547-.713-1.1-1.421-1.676-2.109l-1.807-2.061-.9-1.03-.96-.974-1.924-1.941c-.64-.648-1.349-1.224-2.019-1.839-1.327-1.245-2.778-2.346-4.209-3.467-.7-.581-1.478-1.058-2.218-1.585-.758-.5-1.475-1.063-2.275-1.5l-2.347-1.389c-.782-.463-1.614-.843-2.417-1.268l-1.214-.621-1.249-.555c-.838-.357-1.66-.749-2.511-1.077l-2.567-.95c-.856-.315-1.744-.551-2.614-.83s-1.758-.507-2.649-.723-1.773-.457-2.681-.613c-1.8-.384-3.62-.646-5.446-.891l-2.758-.268-2.773-.155c-1.852-.061-3.712-.062-5.574.01s-3.725.227-5.587.428c-1.861.233-3.719.513-5.568.882-1.851.35-3.691.8-5.521,1.293-.8.222-1.589.465-2.379.72C121.993,234.657,123.821,232.738,125.724,230.819ZM196.054,255.8c-.217-1.163-.437-2.34-.662-3.543-.569-3-1.28-6.089-2.021-9.275.083-.272.163-.546.251-.814.311-.963.679-1.912,1.06-2.855.4-.937.809-1.87,1.275-2.778s.949-1.809,1.483-2.679,1.092-1.729,1.7-2.548c.293-.419.608-.821.934-1.215s.642-.8.989-1.169a27.5,27.5,0,0,1,2.145-2.18c.746-.7,1.549-1.321,2.356-1.939a27.68,27.68,0,0,1,2.568-1.627,14.007,14.007,0,0,1,1.347-.691,14.407,14.407,0,0,1,1.38-.613l1.408-.539,1.439-.434c.476-.163.971-.237,1.457-.353.489-.1.972-.235,1.468-.286a26.643,26.643,0,0,1,2.962-.322,29.242,29.242,0,0,1,2.97-.053c.99,0,1.97.129,2.953.205.643.085,1.283.188,1.923.292,1.282,1.032,2.558,2.06,3.815,3.087,2.309,1.891,4.523,3.819,6.7,5.726-.241-.03-.481-.065-.722-.091-1.278-.07-2.54-.246-3.828-.242a37.766,37.766,0,0,0-3.86.074c-.645.053-1.29.06-1.935.153l-1.933.274c-.646.069-1.282.246-1.923.378-.637.152-1.284.253-1.91.466l-1.891.574c-.622.223-1.236.476-1.854.712a19.71,19.71,0,0,0-1.818.812,18.819,18.819,0,0,0-1.774.915c-.575.338-1.173.636-1.728,1.01l-1.671,1.11-1.595,1.221c-.529.411-1.017.872-1.527,1.307a36.037,36.037,0,0,0-2.838,2.842c-.46.488-.892,1-1.308,1.522s-.845,1.037-1.233,1.58-.8,1.073-1.159,1.633-.747,1.105-1.086,1.678-.7,1.134-1.015,1.718q-.5.864-.946,1.753c-.617,1.177-1.165,2.384-1.692,3.6Q196.369,254.987,196.054,255.8Zm45.471-54.6-.487,2.082-.4,2.093c-.233,1.4-.453,2.8-.608,4.2-.174,1.4-.294,2.8-.387,4.2-.189,2.8-.241,5.6-.171,8.4.049,2.216.145,4.415.354,6.624-2.439-2.149-4.923-4.339-7.371-6.652-1.027-.972-2.057-1.959-3.09-2.951-.157-.923-.29-1.877-.4-2.824-.121-1.068-.222-2.141-.27-3.219s-.094-2.154-.1-3.233,0-2.156.05-3.234.114-2.153.212-3.226.236-2.141.382-3.206c.181-1.062.344-2.122.568-3.172.094-.528.229-1.048.356-1.569s.25-1.042.411-1.553c.281-1.034.647-2.04,1-3.047.415-.986.785-1.984,1.273-2.933a14.993,14.993,0,0,1,.741-1.414,15.473,15.473,0,0,1,.816-1.37c.3-.438.57-.9.893-1.318l.967-1.265a24.163,24.163,0,0,1,2.193-2.3,11.27,11.27,0,0,1,1.206-1.041c.426-.317.825-.674,1.271-.965l1.344-.866c.446-.292.939-.506,1.407-.765a29.99,29.99,0,0,1,2.933-1.3l.107-.048a1.412,1.412,0,0,0,.562-.457h0c1.733-.053,3.448-.095,5.14-.142q4.122-.123,8.066-.186c-.2.1-.391.208-.58.324L258.01,176c-.633.394-1.216.867-1.826,1.3-.3.224-.61.433-.9.672l-.848.733a37.926,37.926,0,0,0-3.221,3.111,39.339,39.339,0,0,0-2.744,3.5,21.918,21.918,0,0,0-1.215,1.849c-.381.629-.789,1.247-1.116,1.9s-.7,1.288-1.019,1.943l-.894,1.991c-.54,1.344-1.08,2.69-1.507,4.06C242.25,198.431,241.889,199.815,241.525,201.2ZM161.391,77.357l1.224,1.031,2.457,2.061,2.594,1.913c.85.657,1.756,1.246,2.669,1.826s1.8,1.2,2.744,1.739c1.9,1.064,3.783,2.157,5.778,3.077,1.945,1.008,4.01,1.805,6.032,2.683,2.082.763,4.147,1.573,6.3,2.175,2.123.688,4.312,1.21,6.486,1.767,2.211.458,4.413.945,6.658,1.288,1.115.2,2.236.377,3.367.515s2.251.327,3.39.429l3.409.351,3.426.272q3.436.225,6.894.318c1.151.048,2.307.061,3.463.064s2.314.015,3.474-.012,2.32-.036,3.483-.09,2.326-.089,3.49-.165c2.329-.114,4.661-.3,6.994-.52s4.67-.494,7-.834c1.46-.211,2.911-.438,4.368-.7l-.7.691c-3.693,3.641-7.8,7.806-12.29,12.359q-.746.76-1.506,1.537a.865.865,0,0,0-.762-.16c-1.75.435-3.574.792-5.375,1.112s-3.621.589-5.435.825-3.631.438-5.446.564q-2.722.217-5.439.3-1.359.057-2.712.058c-.9.01-1.806.023-2.7-.008-1.8-.033-3.587-.136-5.371-.255l-2.663-.233L204.065,113c-1.746-.262-3.5-.513-5.207-.882-1.727-.314-3.408-.763-5.1-1.153-1.668-.466-3.35-.892-4.972-1.454-1.646-.506-3.238-1.121-4.844-1.706-1.557-.675-3.146-1.29-4.65-2.051-1.545-.693-2.992-1.536-4.466-2.337-.73-.411-1.419-.878-2.13-1.314s-1.414-.884-2.075-1.383L168.6,99.27,166.683,97.7l-.955-.786-.9-.847-1.043-.983C162.9,90.441,162.1,86,161.316,81.85q-.55-2.887-1.071-5.593ZM108.66,112.532a27.811,27.811,0,0,0,4.363.431l2.234-.092c.746-.026,1.493-.188,2.24-.278a17.033,17.033,0,0,0,2.228-.451l1.111-.267c.369-.094.728-.235,1.093-.35a37.838,37.838,0,0,0,4.288-1.681l2.058-1.054c.683-.358,1.331-.78,2-1.167s1.3-.829,1.938-1.259,1.276-.864,1.881-1.34c1.245-.908,2.414-1.9,3.591-2.888,1.138-1.025,2.282-2.045,3.357-3.128.554-.527,1.083-1.076,1.606-1.629s1.06-1.1,1.56-1.667c1.028-1.119,2.009-2.274,2.985-3.433.953-1.173,1.9-2.351,2.806-3.554q2.727-3.6,5.158-7.368,1.216-1.88,2.357-3.8c.3-.5.59-1.008.879-1.513q.607,3.023,1.271,6.273c.767,3.728,1.609,7.671,2.453,11.8a1.231,1.231,0,0,0-.848.646c-.49.976-1.043,1.987-1.605,2.968s-1.15,1.967-1.756,2.935q-1.818,2.909-3.866,5.692c-.68.928-1.392,1.835-2.109,2.736s-1.471,1.778-2.243,2.637-1.552,1.711-2.38,2.516c-.808.826-1.663,1.6-2.522,2.371l-1.325,1.11c-.446.364-.913.7-1.368,1.052s-.934.667-1.406.991-.948.644-1.444.924a33.273,33.273,0,0,1-3,1.614l-1.555.654c-.521.21-1.057.357-1.584.541a14.189,14.189,0,0,1-1.6.426l-.806.19-.81.114a22.468,22.468,0,0,1-3.237.239,21.609,21.609,0,0,1-3.166-.337,22.647,22.647,0,0,1-3-.755c-2.913-2.728-5.7-5.364-8.462-7.754l-3.658-3.153C108.46,112.494,108.558,112.519,108.66,112.532Zm-24.02,64.434a9.377,9.377,0,0,0,1.175-.636l2.3-1.4a39.158,39.158,0,0,0,4.238-3.346l1.006-.9c.322-.315.619-.654.93-.98l.921-.988.46-.5.414-.53c.546-.709,1.11-1.409,1.64-2.128l1.467-2.228a46.081,46.081,0,0,0,2.489-4.648l.558-1.185c.172-.4.324-.8.487-1.2.3-.807.676-1.6.919-2.417l.787-2.441.66-2.455c.387-1.639.766-3.279,1.026-4.923.307-1.64.5-3.28.691-4.915l.231-2.449.152-2.441c.07-1.623.123-3.242.115-4.852s-.017-3.215-.089-4.811-.164-3.184-.3-4.764-.3-3.15-.5-4.711c-.05-.378-.1-.753-.156-1.13l3.969,3.563c2.833,2.531,5.939,5.065,9.156,7.725.392,2.1.655,4.282.843,6.455.1,1.236.188,2.476.235,3.722s.082,2.5.062,3.752-.069,2.514-.139,3.772-.2,2.52-.348,3.78-.327,2.519-.577,3.771c-.214,1.256-.519,2.5-.826,3.742l-.522,1.852-.616,1.827c-.188.615-.458,1.2-.683,1.8a18.932,18.932,0,0,1-.77,1.773,33.063,33.063,0,0,1-1.823,3.417l-1.066,1.622-1.189,1.536c-.379.526-.859.967-1.282,1.457-.221.236-.429.487-.66.712l-.717.655a27.734,27.734,0,0,1-3.023,2.432l-1.648,1.023c-.54.36-1.146.593-1.715.9a32.864,32.864,0,0,1-3.526,1.476c-2.645-.014-5.218-.012-7.706.071l-7.268.256Zm20.906,71.122.6-1.345.3-.672.238-.691.95-2.768a44.951,44.951,0,0,0,1.24-5.65,22.782,22.782,0,0,0,.342-2.842c.048-.945.171-1.9.157-2.838l-.036-2.819c-.057-.932-.159-1.854-.238-2.782-.057-.934-.264-1.828-.4-2.74l-.23-1.362-.316-1.332c-.383-1.791-.941-3.511-1.48-5.237-.62-1.687-1.235-3.376-1.979-5-.34-.826-.731-1.624-1.128-2.416s-.772-1.6-1.211-2.363-.837-1.555-1.288-2.31L99.7,200.67c-.951-1.471-1.907-2.937-2.931-4.347-.494-.72-1.029-1.4-1.555-2.1s-1.057-1.379-1.608-2.048c-1.082-1.355-2.208-2.668-3.359-3.956s-2.324-2.551-3.536-3.775-2.441-2.424-3.7-3.594c-.5-.461-1-.909-1.509-1.357l9.981-.155c2.422-.044,4.937-.167,7.524-.311.913.793,1.831,1.646,2.712,2.512.955.945,1.9,1.9,2.807,2.9,1.829,1.98,3.571,4.049,5.206,6.206.821,1.077,1.615,2.178,2.373,3.3.776,1.115,1.5,2.269,2.211,3.43l1.029,1.768.964,1.811c.334.6.6,1.231.9,1.846s.581,1.243.839,1.883c.557,1.258,1.005,2.567,1.464,3.872l.593,2c.2.665.327,1.355.5,2.032s.288,1.368.4,2.063.248,1.383.291,2.091c.061.7.156,1.405.19,2.114l.049,2.138a33.133,33.133,0,0,1-.329,4.309,35.258,35.258,0,0,1-.867,4.3,36.349,36.349,0,0,1-1.5,4.2,20.785,20.785,0,0,1-1.164,2.478c-2.954,2.8-5.813,5.493-8.439,8.164l-3.784,3.866C105.48,248.237,105.517,248.163,105.547,248.087Zm89.078,28.324-1.141-1.316-1.21-1.249-2.427-2.486c-.8-.832-1.7-1.571-2.542-2.36-.869-.76-1.678-1.588-2.6-2.291l-2.7-2.165c-.878-.746-1.853-1.369-2.785-2.046-.951-.649-1.855-1.366-2.853-1.944l-2.948-1.8c-.974-.61-2.022-1.1-3.029-1.656s-2.028-1.086-3.088-1.543c-1.049-.473-2.085-.974-3.146-1.422l-3.22-1.259c-1.066-.433-2.185-.741-3.274-1.117l-1.646-.533-1.674-.453c-1.118-.293-2.221-.632-3.361-.852-1.134-.236-2.257-.513-3.4-.715l-3.434-.571-3.464-.416c-1.156-.125-2.324-.186-3.484-.283-2.329-.139-4.668-.2-7.013-.164s-4.692.164-7.04.361c-2.347.226-4.692.522-7.03.924-2.338.378-4.666.884-6.983,1.45-1.186.3-2.364.635-3.539.993l5.362-5.293c2.534-2.512,5.088-5.237,7.736-8.053,1.344-.449,2.717-.835,4.086-1.184,1.8-.451,3.618-.852,5.44-1.156,1.822-.327,3.649-.552,5.475-.757,1.828-.18,3.656-.312,5.481-.368s3.645-.035,5.458.042l2.711.177,2.693.288c1.782.257,3.561.531,5.309.923.885.162,1.745.4,2.61.626s1.733.442,2.575.73,1.709.518,2.539.834l2.492.951c.826.328,1.622.719,2.436,1.075l1.21.552,1.177.617c.778.423,1.585.8,2.341,1.259L175,244.139c.772.437,1.467.99,2.21,1.473.722.513,1.484.973,2.166,1.54,1.4,1.092,2.816,2.161,4.115,3.376.656.6,1.349,1.159,1.976,1.791l1.885,1.9.941.95.886,1.007,1.774,2.015c1.15,1.375,2.231,2.813,3.353,4.219l.016.02a.8.8,0,0,0,.491.285c.5,2.412.978,4.723,1.431,6.907.977,4.5,1.842,8.474,2.576,11.849-.628-.816-1.261-1.627-1.915-2.419Zm58.147-33.034-2.406-.192c-.8-.061-1.6-.146-2.413-.129a47.75,47.75,0,0,0-4.858.086c-.811.065-1.623.079-2.433.188l-2.428.347a24.08,24.08,0,0,0-2.415.476c-.8.2-1.613.317-2.4.591l-2.371.733c-.78.279-1.547.605-2.321.907a23.43,23.43,0,0,0-2.273,1.038,23.174,23.174,0,0,0-2.215,1.17c-.715.435-1.464.815-2.152,1.3l-2.075,1.426-1.976,1.567c-.652.531-1.255,1.12-1.885,1.678a45.056,45.056,0,0,0-3.484,3.648c-.565.625-1.086,1.284-1.6,1.952l-.774,1-.724,1.03c-.49.683-.963,1.375-1.4,2.09-.457.7-.9,1.416-1.307,2.146-.427.721-.834,1.452-1.213,2.2-.4.736-.768,1.485-1.123,2.241-.73,1.5-1.371,3.043-1.989,4.591-.589,1.557-1.156,3.124-1.635,4.717-.086.288-.17.576-.253.864-.605-3.422-1.321-7.462-2.129-12.033-.574-3.066-1.191-6.369-1.847-9.875q.125-.4.253-.795c.39-1.212.852-2.4,1.331-3.589.5-1.178,1.015-2.35,1.6-3.491q.423-.862.9-1.7c.3-.567.628-1.117.963-1.664s.676-1.09,1.032-1.624.721-1.06,1.1-1.577.763-1.03,1.171-1.525.8-1,1.242-1.467a34.508,34.508,0,0,1,2.692-2.736c.483-.417.945-.863,1.447-1.257l1.51-1.177,1.583-1.069c.526-.361,1.094-.646,1.639-.974a17.282,17.282,0,0,1,1.691-.868,18.182,18.182,0,0,1,1.732-.771c.59-.223,1.175-.464,1.768-.676l1.807-.543c.6-.205,1.218-.3,1.827-.443.613-.125,1.221-.294,1.842-.358l1.855-.259c.619-.088,1.242-.092,1.863-.142a36.386,36.386,0,0,1,3.726-.064c1.243,0,2.471.168,3.708.25,1.055.138,2.1.315,3.153.479l.378.332c4.8,4.186,9.329,8.276,13.623,12.135C253.664,243.493,253.219,243.429,252.772,243.378ZM280.5,175.3l-2.375,1.443c-.793.479-1.509,1.077-2.267,1.611l-1.119.829-1.049.914a47.254,47.254,0,0,0-3.994,3.867,52.218,52.218,0,0,0-3.386,4.37l-.788,1.132-.711,1.174c-.463.788-.977,1.553-1.373,2.371-.414.81-.856,1.61-1.244,2.431l-1.089,2.489c-.66,1.679-1.319,3.363-1.832,5.078-.57,1.705-1,3.439-1.435,5.169l-.569,2.61-.46,2.621c-.27,1.752-.522,3.5-.691,5.261-.1.878-.178,1.756-.238,2.634s-.136,1.758-.17,2.637c-.183,3.519-.19,7.034-.044,10.536.058,1.755.164,3.506.3,5.255.092,1.134.209,2.261.344,3.39-4.645-4.006-9.607-8.246-14.712-12.774a.755.755,0,0,0,.012-.121c-.139-1.331-.227-2.713-.279-4.08s-.089-2.742-.059-4.118c.046-2.747.212-5.495.51-8.229.146-1.365.322-2.729.549-4.084.207-1.357.478-2.7.76-4.047l.465-2,.524-1.987c.379-1.316.754-2.634,1.234-3.918.435-1.3.976-2.556,1.512-3.813l.878-1.852c.3-.613.637-1.207.952-1.811s.683-1.18,1.038-1.763a19.331,19.331,0,0,1,1.123-1.707c.407-.546.768-1.128,1.211-1.645l1.3-1.577a34.563,34.563,0,0,1,2.892-2.88l.761-.682c.258-.222.541-.414.809-.623.551-.4,1.073-.842,1.646-1.212l1.731-1.089c.573-.371,1.2-.639,1.8-.965l.91-.47c.306-.15.629-.264.943-.4l1.9-.78.062-.025c.024-.01.045-.029.068-.04,2.021-.029,4-.057,5.933-.091q5.262-.1,10.017-.212C282.03,174.507,281.24,174.853,280.5,175.3Z" transform="translate(103.846 130.464)" fill="#624490"></path><path id="Path_23433" data-name="Path 23433" d="M218.526,420.787c-7.108-6-16.866-18.73-27.255-16.376-4.72,1.071-9.942,4.2-14.282,8.189-10.662,6.529-19.73,17.3-11.174,28.018,12.94,16.2,40.483,1.7,52.619-7.772A7.716,7.716,0,0,0,218.526,420.787Z" transform="translate(36.908 -9.926)"></path><path id="Path_23435" data-name="Path 23435" d="M370.325,362.72c-4.735-22.638-14.989-43.876-35.056-56.58C316.4,294.193,293,290.86,271.289,295.289a4.453,4.453,0,0,0-3.4,2.646c-16.426-8.7-36.148-6.954-52.452,2.093-18.725,10.391-31.271,28.9-40.4,47.753-9.876,20.405-17.283,44.036-11.2,66.693,5.647,21.045,22.323,37.579,40.027,49.285,36.822,24.343,89.472,32.326,129.14,10.128,17.423-9.748,31.54-25.679,38.389-44.494C379.058,408.338,374.793,384.084,370.325,362.72Z" transform="translate(36.749 -32.495)" fill="#ff8a15"></path><g id="Group_4205" data-name="Group 4205" transform="translate(206.817 288.847)"><path id="Path_23436" data-name="Path 23436" d="M189.64,335.845l-5.426,6.594c-1.249,1.517-1.47,3.576.208,4.94,1.657,1.348,3.652.743,4.88-.8l5.313-6.685C196.878,337.044,191.972,333.01,189.64,335.845Z" transform="translate(-165.714 -312.741)" fill="#ffb314"></path><path id="Path_23437" data-name="Path 23437" d="M226.535,337.794a3.442,3.442,0,0,0-1.371-1.879,3.107,3.107,0,0,0-2.369-.372,3.076,3.076,0,0,0-1.88,1.371l-.548,1.029a2.3,2.3,0,0,0-.4,1.137,3.169,3.169,0,0,0,1.394,3.111,3.122,3.122,0,0,0,2.37.373,3.079,3.079,0,0,0,1.879-1.371l.547-1.029a2.284,2.284,0,0,0,.4-1.138A2.326,2.326,0,0,0,226.535,337.794Z" transform="translate(-158.314 -312.628)" fill="#ffb314"></path><path id="Path_23438" data-name="Path 23438" d="M241.378,316.869a3.019,3.019,0,0,0-4.1.964q-.836,1.532-1.674,3.067a3.013,3.013,0,0,0,5.123,3.173l1.612-3.106A3.039,3.039,0,0,0,241.378,316.869Z" transform="translate(-155.229 -316.458)" fill="#ffb314"></path><path id="Path_23439" data-name="Path 23439" d="M244.786,359.1q-.9,3.1-1.791,6.193c-1.027,3.55,4.541,5.225,5.485,1.663l1.651-6.234C251.049,357.254,245.788,355.638,244.786,359.1Z" transform="translate(-153.681 -308.244)" fill="#ffb314"></path><path id="Path_23440" data-name="Path 23440" d="M281.377,331.428q-1.224-2.387-2.447-4.776a3.04,3.04,0,0,0-4.092-1.185,3.075,3.075,0,0,0-1.186,4.092l2.447,4.776a3.042,3.042,0,0,0,4.093,1.186A3.076,3.076,0,0,0,281.377,331.428Z" transform="translate(-147.543 -314.716)" fill="#ffb314"></path><path id="Path_23441" data-name="Path 23441" d="M290.475,346.343l-1.015-1.068a3.445,3.445,0,0,0-2.337-1.038,3.714,3.714,0,0,0-2.388.918,3.364,3.364,0,0,0-1.039,2.337,3.488,3.488,0,0,0,.918,2.389l1.015,1.068a3.45,3.45,0,0,0,2.339,1.038,3.722,3.722,0,0,0,2.388-.918,3.363,3.363,0,0,0,1.039-2.337A3.489,3.489,0,0,0,290.475,346.343Z" transform="translate(-145.446 -310.855)" fill="#ffb314"></path><path id="Path_23442" data-name="Path 23442" d="M313.417,330.374l-1-1.59a3.428,3.428,0,0,0-1.893-1.533,3.3,3.3,0,0,0-2.5.262,3.232,3.232,0,0,0-1.273,4.391l1,1.59a3.429,3.429,0,0,0,1.893,1.535,3.3,3.3,0,0,0,2.5-.262,3.234,3.234,0,0,0,1.271-4.392Z" transform="translate(-140.874 -314.307)" fill="#ffb314"></path><path id="Path_23443" data-name="Path 23443" d="M328.495,371.188q-.716-2.625-1.43-5.249a3.307,3.307,0,1,0-6.42,1.595q.716,2.625,1.43,5.249a3.307,3.307,0,1,0,6.42-1.595Z" transform="translate(-138.014 -306.986)" fill="#ffb314"></path><path id="Path_23444" data-name="Path 23444" d="M290.358,430.738a3.278,3.278,0,0,0-4.451,1.047q-1.1,2.059-2.191,4.116a3.233,3.233,0,0,0,5.5,3.4l2.19-4.116A3.3,3.3,0,0,0,290.358,430.738Z" transform="translate(-145.529 -293.494)" fill="#ffb314"></path><path id="Path_23445" data-name="Path 23445" d="M251.591,439.1a3.041,3.041,0,0,0-1.322-1.812,3,3,0,0,0-2.285-.358,2.96,2.96,0,0,0-1.812,1.322l-.548,1.029a2.206,2.206,0,0,0-.381,1.1,2.251,2.251,0,0,0,.023,1.187,2.976,2.976,0,0,0,3.605,2.172,2.966,2.966,0,0,0,1.813-1.322q.274-.514.547-1.029a2.212,2.212,0,0,0,.382-1.1A2.264,2.264,0,0,0,251.591,439.1Z" transform="translate(-153.216 -292.175)" fill="#ffb314"></path><path id="Path_23446" data-name="Path 23446" d="M209.2,426.676c-.044-.155-.083-.312-.114-.471-.022-.127-.032-.186-.038-.214.014-.228.053-.477.06-.562a3.437,3.437,0,0,0-3.329-3.5,3.5,3.5,0,0,0-3.5,3.328,8.439,8.439,0,0,0,.327,3.185,6.308,6.308,0,0,0,.935,1.933,4.63,4.63,0,0,0,2.157,1.615c1.9.819,3.906-1.064,3.98-2.875A7.388,7.388,0,0,0,209.2,426.676Z" transform="translate(-161.876 -295.182)" fill="#ffb314"></path><path id="Path_23447" data-name="Path 23447" d="M192.8,396.362a2.5,2.5,0,0,0-2.524,2.4,26.238,26.238,0,0,0,.062,3.765,2.389,2.389,0,0,0,4.6.118,26.3,26.3,0,0,0,.255-3.757A2.487,2.487,0,0,0,192.8,396.362Z" transform="translate(-164.297 -300.339)" fill="#ffb314"></path><path id="Path_23448" data-name="Path 23448" d="M172.7,388.019a2.894,2.894,0,0,0-2.268.542,3.211,3.211,0,0,0-1.262,2.364q-.144.908-.287,1.817a7.44,7.44,0,0,0-.215,1.819,3.051,3.051,0,0,0,2.085,2.888,2.962,2.962,0,0,0,3.352-1.265,8.934,8.934,0,0,0,.683-2.346l.35-1.95C175.454,390.094,174.665,388.335,172.7,388.019Z" transform="translate(-168.652 -302.03)" fill="#ffb314"></path><path id="Path_23449" data-name="Path 23449" d="M176,356.213a2.343,2.343,0,0,0-2.888,1.543,8.777,8.777,0,0,1-.772,2.023c-.179.323-.386.63-.553.96a4.328,4.328,0,0,0-.363,1.817,1.813,1.813,0,0,0,2.234,1.793,3.959,3.959,0,0,0,1.634-.759,5.711,5.711,0,0,0,1.049-1.5,14.162,14.162,0,0,0,1.2-2.992A2.362,2.362,0,0,0,176,356.213Z" transform="translate(-168.093 -308.457)" fill="#ffb314"></path><path id="Path_23450" data-name="Path 23450" d="M260.327,343.078c-.9-2.477-4.853-1.622-4.065,1.009a28.044,28.044,0,0,1,.764,6.761c.127,2.238,3.594,3.175,4.17.673A15.173,15.173,0,0,0,260.327,343.078Z" transform="translate(-151 -311.385)" fill="#ffb314"></path><path id="Path_23451" data-name="Path 23451" d="M301.2,409.826a18.77,18.77,0,0,1-1.082,5.033c-1.094,3.082,3.764,4.538,4.853,1.472a24.014,24.014,0,0,0,1.3-6.376C306.5,406.7,301.429,406.575,301.2,409.826Z" transform="translate(-142.164 -298.102)" fill="#ffb314"></path><path id="Path_23452" data-name="Path 23452" d="M323.495,345.469q-.5-2.349-.994-4.7a2.167,2.167,0,1,0-4.207,1.044l.851,4.734a2.241,2.241,0,1,0,4.35-1.08Z" transform="translate(-138.474 -311.884)" fill="#ffb314"></path></g><g id="Group_4206" data-name="Group 4206" transform="translate(220.813 282.166)"><path id="Path_23453" data-name="Path 23453" d="M235.876,311.569c-5.986,16.609-20,28.7-31.664,41.319C198.244,359.346,192.539,366.2,188.4,374a70.224,70.224,0,0,0-7.929,27.979,71.7,71.7,0,0,0,.723,16.2c.848,5.357,2.138,11.147,4.782,15.929.713,1.289,2.907.514,2.459-.964-1.42-4.683-3.128-9.174-4.022-14.012a68.243,68.243,0,0,1,5.957-42.479c7.928-15.677,21.805-27.08,33.009-40.272,6.146-7.238,11.357-15.183,14.416-24.222C238.208,310.923,236.311,310.362,235.876,311.569Z" transform="translate(-180.299 -310.898)" fill="#c95f00"></path><path id="Path_23454" data-name="Path 23454" d="M253.4,324.192a239.876,239.876,0,0,0-20.727,55.633,230.487,230.487,0,0,0-4.866,29.02,162.21,162.21,0,0,0-.691,28.762c.8,10.259,2.955,20.793,7.97,29.88a.965.965,0,0,0,1.69-.931,74.484,74.484,0,0,1-7.214-26.6,154.2,154.2,0,0,1,.51-27.556,248.53,248.53,0,0,1,12.089-56.706,233.378,233.378,0,0,1,12.724-30.582C255.39,324.115,253.916,323.191,253.4,324.192Z" transform="translate(-170.928 -308.303)" fill="#c95f00"></path><path id="Path_23455" data-name="Path 23455" d="M272.166,355.018c-1.763-9.943-3.954-19.8-6.253-29.63a.8.8,0,0,0-1.551.384c7.067,34.118,13.209,69.255,7.866,104.089a184.515,184.515,0,0,1-7.106,28.268c-.453,1.418,1.6,1.959,2.163.656a113.877,113.877,0,0,0,7-25.265,175.006,175.006,0,0,0,2.491-25.439C277.248,390.279,275.269,372.525,272.166,355.018Z" transform="translate(-163.345 -308.094)" fill="#c95f00"></path><path id="Path_23456" data-name="Path 23456" d="M318.694,401.538a127.975,127.975,0,0,0-12.634-50.12A129.5,129.5,0,0,0,290.347,326.7c-.7-.866-1.942.328-1.251,1.19a123.641,123.641,0,0,1,22.585,45.18,127.036,127.036,0,0,1,3.3,50.125c-1.326,9.669-3.576,19.606-9.5,27.575-.808,1.086.948,2.532,1.852,1.5,6-6.809,8.267-15.922,9.735-24.663A124.823,124.823,0,0,0,318.694,401.538Z" transform="translate(-158.393 -307.771)" fill="#c95f00"></path></g><path id="Path_23457" data-name="Path 23457" d="M128.873,399.445c-4.157,5.535-12.149,7.047-18.427,4.651a16.545,16.545,0,0,1-2.566-1.25,29.449,29.449,0,0,0,4.669-7.882c2.477-6.563.561-16.351-7.391-17.931a9.715,9.715,0,0,0-8.811,2.415c-2.8,2.887-2.533,7.155-1.685,10.79a25.939,25.939,0,0,0,7.28,12.8c-.725.695-1.452,1.341-2.16,1.926-2.943,2.434-6.46,4.05-10.262,2.787-3.463-1.15-6.4-3.568-10.056-4.206-4.249-.741-8.246,1.1-11.623,3.544a23.513,23.513,0,0,0-5.334,5.182c-.359.053-.716.111-1.066.181-4.013.815-9.066,2.793-10.968,6.7-1.014,2.084-.828,4.452-1.7,6.561a7.234,7.234,0,0,1-2.842,3.265c-2.781,1.759-5.992,1.651-9.042.7A1.7,1.7,0,0,0,35.25,432.5c4.914,4.815,13.629,1.7,16.866-3.636a14.049,14.049,0,0,0,1.628-5.14c.353-2.084.9-3.591,2.762-4.735a19.323,19.323,0,0,1,3.586-1.7,10.133,10.133,0,0,0,1.608,8.59c1.875,2.522,4.96,4.5,8.213,4.2a7.275,7.275,0,0,0,6.523-6.17,10.507,10.507,0,0,0-2.715-8.591,9.938,9.938,0,0,0-5.026-2.848,22.642,22.642,0,0,1,5-3.539,7.879,7.879,0,0,1,5.417-.779,24.4,24.4,0,0,1,5.088,2.194c3.628,1.836,7.34,3.087,11.412,1.973,3.856-1.054,7.1-3.7,9.778-6.593a20.767,20.767,0,0,0,2.806,1.5,19.778,19.778,0,0,0,19.883-2.527,16.98,16.98,0,0,0,3.418-3.718C132.628,399.344,130.023,397.914,128.873,399.445Zm-56.7,23.637c-.493,2.852-3.455,2.969-5.423,1.469-3.132-2.388-2.913-5.393-1.3-8.171a9.953,9.953,0,0,1,2.515.372A5.791,5.791,0,0,1,72.175,423.082Zm25.93-35.4c-.485-3.261.362-6.362,4-6.874a6.37,6.37,0,0,1,6.84,4.485c1.914,5.265-.78,10.689-4.41,14.984A22.356,22.356,0,0,1,98.1,387.683Z" transform="translate(11.158 -15.433)" fill="#bf82e0"></path><path id="Path_23458" data-name="Path 23458" d="M234.513,382.053c.388-15.213-8.18-27.766-19.14-28.046s-20.152,11.82-20.54,27.034,8.18,27.762,19.134,28.042S234.125,397.263,234.513,382.053Z" transform="translate(43.443 -20.037)"></path><path id="Path_23459" data-name="Path 23459" d="M199.868,383.288c.388-15.213,9.585-27.313,20.54-27.033a14.239,14.239,0,0,1,3.12.454,15.283,15.283,0,0,0-8.155-2.7c-10.954-.279-20.152,11.82-20.54,27.034-.351,13.727,6.606,25.26,16.019,27.588C204.112,404.116,199.584,394.422,199.868,383.288Z" transform="translate(43.443 -20.037)" fill="#913106"></path><path id="Path_23460" data-name="Path 23460" d="M252.249,373.889c-1.529-.192-8.732,14.294-7.907,15.158s14.152,1.642,14.738.221C259.9,387.3,254.081,374.119,252.249,373.889Z" transform="translate(53.42 -16.026)" fill="#221000"></path><path id="Path_23461" data-name="Path 23461" d="M284.324,428.7c8.708-.8,12.989-21.556.362-28.708-8.914-5.05-29.726-5.633-29.726-5.633s1.114,15.142.059,15.948-10.11,1.237-10.58.365-3.205-15.207-3.205-15.207-18.877,4.623-20.9,15.266c-1.781,9.377,7.225,14.838,13.14,15.962s17.7-3.926,34.571-.249c0,0-.9-11.319-.382-11.467s10.973.506,11.587,1.9-3.465,10.438-3.465,10.438S282.022,428.909,284.324,428.7Z" transform="translate(48.544 -11.896)"></path><path id="Path_23462" data-name="Path 23462" d="M274.65,383.078c.388-15.214,9.587-27.313,20.546-27.033s19.523,12.832,19.135,28.046-9.587,27.309-20.54,27.029S274.262,398.288,274.65,383.078Z" transform="translate(59.545 -19.626)"></path><path id="Path_23463" data-name="Path 23463" d="M307.126,386.078c.388-15.213-8.179-27.766-19.134-28.046a14.3,14.3,0,0,0-3.139.294,15.272,15.272,0,0,1,8.282-2.282c10.954.279,19.523,12.832,19.135,28.046-.351,13.727-7.888,24.89-17.406,26.735C301.827,406.663,306.842,397.212,307.126,386.078Z" transform="translate(61.605 -19.626)" fill="#913106"></path><path id="Path_23466" data-name="Path 23466" d="M267.2,305.4a47.048,47.048,0,0,1-16.983-1.8,30.583,30.583,0,0,1-8.245-3.737,12.949,12.949,0,0,0,8.719-7.517c2.754-6.766-1.28-16.572-9.733-15.163-4.005.667-7.082,4.052-8.523,7.683a12.776,12.776,0,0,0,1.394,11.825l.023.031c-7.935-.839-15.388-6.37-22.585-9.169-9.178-3.568-19.931-5-29.374-1.579-9.115,3.3-15.622,10.711-19.237,19.541a42.907,42.907,0,0,0-3.124,13.652c-.017.281-.014.567-.023.851a19.269,19.269,0,0,0-4.8,7.924c-1.551,4.91-.963,10.137-1.3,15.193a17.5,17.5,0,0,1-1.739,6.993c-1.233,2.366,2.348,4.468,3.584,2.1,4.254-8.167.379-18.34,4.792-26.26a14.986,14.986,0,0,0,3.537,7.03c2.969,3.181,7.826,5,12.038,3.362a10.017,10.017,0,0,0,6.047-9.27c.3-9.288-10.264-13.392-17.819-10.07a36.141,36.141,0,0,1,9.33-20.511c6.738-7.046,16.42-9.24,25.866-7.9A50.511,50.511,0,0,1,213.2,292.9c4.859,2.263,9.5,5.032,14.642,6.644a26.606,26.606,0,0,0,9.488,1.145c5.736,5,14.245,6.957,21.5,7.486a49.909,49.909,0,0,0,8.369-.109C268.875,307.9,268.916,305.278,267.2,305.4Zm-94.919,14.607c3.612.977,6.1,4.158,5.477,7.965a5.566,5.566,0,0,1-7.748,4.45c-4.422-1.618-6.194-6.225-6.357-10.61v-.043A10.054,10.054,0,0,1,172.277,320.012Zm63.637-34.137c1.358-3.085,4.8-6.262,8.392-4.748,3.026,1.275,3.951,5.166,3.353,8.115-.816,4.02-4.261,6.354-8.09,7.2-.447.1-.89.155-1.334.215C235.582,293.643,234.216,289.734,235.914,285.874Z" transform="translate(34.686 -35.56)" fill="#bf82e0"></path><path id="Path_23471" data-name="Path 23471" d="M207.493,329.926c-.463-.483-1.036-.792-1.5-1.233a6.859,6.859,0,0,1-1.166-1.44,6.776,6.776,0,0,1-1-3.527.77.77,0,0,0-1.538-.04,8.361,8.361,0,0,0,1.139,4.338,8.48,8.48,0,0,0,1.386,1.789,4.22,4.22,0,0,0,1.964,1.273.735.735,0,0,0,.805-.3A.72.72,0,0,0,207.493,329.926Z" transform="translate(44.95 -26.299)" fill="#fff"></path><path id="Path_23472" data-name="Path 23472" d="M215.534,328.763a2.747,2.747,0,0,0-1.11-.613c-.388-.179-.768-.376-1.138-.588a14.979,14.979,0,0,1-2.007-1.365,14.62,14.62,0,0,1-3.237-3.7c-.465-.759-1.674-.107-1.219.671a16,16,0,0,0,3.463,4.142,16.583,16.583,0,0,0,2.234,1.606c.367.217.743.421,1.127.606a2.559,2.559,0,0,0,1.541.431A.725.725,0,0,0,215.534,328.763Z" transform="translate(45.844 -26.461)" fill="#fff"></path><path id="Path_23473" data-name="Path 23473" d="M219.9,321.063c-.686-.062-1.378.058-2.072-.013a8,8,0,0,1-5.189-2.732c-.612-.71-1.648.287-1.05,1a9.4,9.4,0,0,0,3.812,2.694,9.6,9.6,0,0,0,2.27.561,5.233,5.233,0,0,0,2.384-.09A.724.724,0,0,0,219.9,321.063Z" transform="translate(46.79 -27.285)" fill="#fff"></path><path id="Path_23474" data-name="Path 23474" d="M296.2,311.27a8.51,8.51,0,0,1-2.459,2.222,5.9,5.9,0,0,1-3.229.758c-.739-.043-.761,1.086-.03,1.144a7.67,7.67,0,0,0,3.9-.734,5.871,5.871,0,0,0,2.889-2.726A.632.632,0,0,0,296.2,311.27Z" transform="translate(62.632 -28.714)" fill="#fff"></path><path id="Path_23475" data-name="Path 23475" d="M300.576,313.445a.505.505,0,0,0-.907-.143,11.958,11.958,0,0,0-.943,1.973,8.1,8.1,0,0,1-1.213,1.763,7.875,7.875,0,0,1-3.592,2.268c-.8.232-.5,1.487.315,1.263a9.257,9.257,0,0,0,4.255-2.57,9.407,9.407,0,0,0,1.465-2.016A3.762,3.762,0,0,0,300.576,313.445Z" transform="translate(63.34 -28.292)" fill="#fff"></path><path id="Path_23476" data-name="Path 23476" d="M302.636,317.2a11.479,11.479,0,0,1-1.244,2.852,7.81,7.81,0,0,1-2.115,2.181.624.624,0,0,0-.239.824.611.611,0,0,0,.824.238,8.463,8.463,0,0,0,3.884-5.916C303.808,316.73,302.826,316.607,302.636,317.2Z" transform="translate(64.452 -27.538)" fill="#fff"></path><path id="Path_23495" data-name="Path 23495" d="M246.038,313.808s5.018.127,13.64,3.361a86.372,86.372,0,0,0,1.384-41.14s-15.715-.737-18.46,1.872S251.372,301.557,246.038,313.808Z" transform="translate(52.996 -35.786)" fill="#913106"></path><path id="Path_23499" data-name="Path 23499" d="M274.009,318.291c-.237-1.605-2.119-2.83-3.293-3.8a39.254,39.254,0,0,0-4.253-3.075,42.631,42.631,0,0,0-9.317-4.332,40.94,40.94,0,0,0-20.524-1.261c-1.88.363-1.149,3.177.713,2.871a39.515,39.515,0,0,1,18.832,1.617,38.966,38.966,0,0,1,8.482,4.034,39.8,39.8,0,0,1,3.724,2.664c1.143.924,2.4,2.68,3.9,2.93A1.4,1.4,0,0,0,274.009,318.291Z" transform="translate(51.654 -29.908)" fill="#c95f00"></path><path id="Path_23500" data-name="Path 23500" d="M333.005,460c17.423-9.75,31.54-25.678,38.389-44.494,4.534-12.457,4.892-26.034,3.5-39.471-7.766,8.388-13.36,18.976-22.245,26.272-4.492,3.687-10,5.217-15.19,7.618-6.573,3.042-10.667,8.639-16.586,12.457-11.609,7.488-23.17.09-35.28-1.447-8.041-1.022-16.276.732-24.3,1.28a233.077,233.077,0,0,1-25.689.27c-10.624-.446-23.021-1.472-31.319-8.949-4.962-4.472-6.271-11.082-8.782-17a29.958,29.958,0,0,0-12.816-14.806c-5.732-3.308-10.509-5.369-13.98-11.284a43.341,43.341,0,0,1-4.008-9.369c-3.383,12.953-4.387,26.395-.868,39.51,5.647,21.045,22.323,37.579,40.027,49.285C240.688,474.218,293.338,482.2,333.005,460Z" transform="translate(36.749 -18.61)" fill="#dd9d72" opacity="0.57" style="mix-blend-mode: multiply;isolation: isolate"></path><g id="Group_4215" data-name="Group 4215" transform="translate(424.869 384.058)"><g id="Group_4211" data-name="Group 4211" transform="translate(0 0.559)"><g id="Group_4210" data-name="Group 4210"><g id="Group_4209" data-name="Group 4209"><path id="Path_23501" data-name="Path 23501" d="M364.807,409.879c5,3.6,8.764,7.119,9.979,9.746,4.573,9.86-23.9,34.467-33.379,29.893-2.453-1.179-5.278-5-8.022-10.126,0,0,18.008-5.753,30.734-28.567Z" transform="translate(-321.474 -393.383)" fill="#f79e00"></path><path id="Path_23502" data-name="Path 23502" d="M365.978,411.519l-.687.946c-12.726,22.815-30.734,28.567-30.734,28.567a115.809,115.809,0,0,1-6.975-16.417s16.809-7.647,22.022-22.866A118.591,118.591,0,0,1,365.978,411.519Z" transform="translate(-322.645 -395.023)" fill="#dd4907"></path><path id="Path_23503" data-name="Path 23503" d="M350.432,402.878c-5.213,15.22-22.022,22.866-22.022,22.866-4.228-12.348-6.548-24.931-3.644-28.062C328.146,394.04,339.286,397.348,350.432,402.878Z" transform="translate(-323.473 -396.152)" fill="#ffe5d9"></path></g></g></g><g id="Group_4214" data-name="Group 4214" transform="translate(38.396)"><g id="Group_4213" data-name="Group 4213"><g id="Group_4212" data-name="Group 4212"><path id="Path_23504" data-name="Path 23504" d="M401.476,433.938c-.446,6.144-1.462,11.2-3.061,13.608-5.994,9.067-41.881-2.26-42.962-12.73-.284-2.708,1.49-7.12,4.412-12.141,0,0,14.345,12.31,40.445,11.174Z" transform="translate(-355.424 -390.242)" fill="#ffb314"></path><path id="Path_23505" data-name="Path 23505" d="M400.731,436.38l-1.166-.089c-26.1,1.137-40.445-11.174-40.445-11.174a115.586,115.586,0,0,1,10.316-14.553s15.329,10.3,31.02,6.75A118.491,118.491,0,0,1,400.731,436.38Z" transform="translate(-354.679 -392.685)" fill="#ef6115"></path><path id="Path_23506" data-name="Path 23506" d="M398.724,420.316c-15.691,3.547-31.02-6.75-31.02-6.75,8.293-10.078,17.788-18.656,21.977-17.824C394.554,396.707,397.584,407.927,398.724,420.316Z" transform="translate(-352.947 -395.687)" fill="#fff"></path></g></g></g><path id="Path_23507" data-name="Path 23507" d="M381.192,408.08a138.333,138.333,0,0,0-10.57,12.471c-3.087,4.127-7.02,8.779-7.349,14.071-.258,4.156,4.7,5.616,7.536,3.349,3.65-2.919,5.4-8.5,7.729-12.518a129.771,129.771,0,0,1,8.421-12.684C389.5,409.363,384.108,405.013,381.192,408.08Z" transform="translate(-315.447 -393.397)" fill="#ffb314" style="mix-blend-mode: screen;isolation: isolate"></path><path id="Path_23508" data-name="Path 23508" d="M358.526,412.973a41.617,41.617,0,0,0-16.211-9.653c-3.934-1.346-5.469,4.476-1.835,6.048,4.887,2.113,8.715,5.22,12.572,8.806a3.881,3.881,0,0,0,4.559.707,3.75,3.75,0,0,0,1.388-1.32A3.841,3.841,0,0,0,358.526,412.973Z" transform="translate(-320.458 -394.187)" fill="#ffb314" style="mix-blend-mode: screen;isolation: isolate"></path></g><g id="Group_4216" data-name="Group 4216" transform="translate(69.982 258.31)"><path id="Path_23510" data-name="Path 23510" d="M136.367,291.047s-22.6,26.923-16.227,43.381,30.666,8.419,30.834-2.862S140.19,304.7,136.367,291.047Z" transform="translate(-87.906 -291.047)" fill="#ffb314"></path><path id="Path_23511" data-name="Path 23511" d="M132.848,307.49s-13.3,25.236-2.274,27.92C143.791,338.625,135.369,309.312,132.848,307.49Z" transform="translate(-86.455 -287.73)" fill="#dd9d72" opacity="0.57" style="mix-blend-mode: multiply;isolation: isolate"></path><path id="Path_23512" data-name="Path 23512" d="M132.773,327.094s-.06,1.495-.2,3.734c-.1,1.112-.138,2.415-.243,3.8s-.2,2.855-.216,4.321c-.054,1.462-.091,2.925-.065,4.273a32.181,32.181,0,0,0,.19,3.656,15.793,15.793,0,0,0,.435,2.483c.171.57.248.923.248.923l.034.157a.806.806,0,0,1-1.444.639s-.236-.332-.614-.96a11.037,11.037,0,0,1-1.125-2.733,21.068,21.068,0,0,1-.737-4,30.813,30.813,0,0,1-.09-4.569,47.858,47.858,0,0,1,1.17-8.359,33.371,33.371,0,0,1,1.073-3.687.82.82,0,0,1,1.587.322Z" transform="translate(-85.91 -283.948)"></path><path id="Path_23513" data-name="Path 23513" d="M187.441,454.884c-2.724-6.874-9.552-5.07-15.1-4.606-10.87.911-8.036-18.833-8.038-25.23q-.011-28.636-2.182-57.223c-.6-7.9-1.952-14.934-10.027-18.224-8.416-3.429-18.86-2.248-27.3.393a4.9,4.9,0,0,0-3.4,3.431,2.73,2.73,0,0,0-1.315,2.355c-1.128,23.024-1.091,46.081-2.407,69.1-.154,2.693-.094,5.525-.5,8.19-.6,3.92-.912,5.089-4.48,6.593-3.048,1.285-4.427,3.007-6.406,5.578-4.611,5.989-15,6.2-12.87,16.392.526,2.52,3.116,3.641,5.44,3.275a39.376,39.376,0,0,1,15.115.368c4.031.94,7.829,2.682,11.945,3.269a29.35,29.35,0,0,0,10.176-.747,80.147,80.147,0,0,1,15.33-1.154c8.9-.107,18.054.309,26.915-.488C183.973,465.649,189.96,461.243,187.441,454.884Z" transform="translate(-93.127 -279.662)" fill="#efddf2"></path><path id="Path_23514" data-name="Path 23514" d="M166.134,366.85c.132-6.486.976-13.552-1.386-19.749-4.043-10.608-13.8-11.081-23.065-7.579-2.056.778-4.324,1.926-6.564,1.966-2.955.052-5.491-1.764-8.15-2.775-4.591-1.744-9.44-1.812-13.618,1.036a11.531,11.531,0,0,0-4.772,13.444,11.31,11.31,0,0,0,.673,6.632c3.665,9.42,14.8,8.209,19.363.594.053-.086.149-.24.261-.419l.135.27c.192,2.049,2.25,5.065,3.65,6.5a8.671,8.671,0,0,0,11.666,1.065c.383-.3,3.4-4.67,3.485-4.667.059,0,1.962,5.27,2.063,5.767,1.085,5.377-.463,10.971.475,16.4.725,4.2,2.693,9.507,7.406,10.453,5.106,1.023,7.578-3.417,7.951-7.8C166.3,381.017,165.994,373.842,166.134,366.85Z" transform="translate(-90.13 -281.678)" fill="#fff"></path></g><g id="Group_4218" data-name="Group 4218" transform="translate(25.953 406.528)"><path id="Path_23515" data-name="Path 23515" d="M77.364,438.639a5.153,5.153,0,0,0-2.349-6.134,4.765,4.765,0,0,0-1.426-1.072L66.1,427.7c-6.577-3.275-12.642,6-6.111,9.869.117.07.236.135.353.2-.272.167-.538.341-.811.507-5.7,3.461-2.671,10.932,3.159,11.109-.019.046-.041.091-.06.138-1.995,4.878,4.406,9.7,8.7,7.049a11.37,11.37,0,0,0,2.378-1.835,6.055,6.055,0,0,0,1.563-4.365,38.357,38.357,0,0,1,2.634-5.055A5.248,5.248,0,0,0,77.364,438.639Z" transform="translate(-56.488 -411.836)" fill="#aa3000"></path><path id="Path_23516" data-name="Path 23516" d="M123.938,434.163c2.687-3.389,1.452-9.7-3.888-9.263-.066.006-.126,0-.191.008.6-1.416,1.172-2.843,1.715-4.293,2.135-5.7-5.908-8.417-9.129-4.127a44.126,44.126,0,0,0-5.49,9.89,4.2,4.2,0,0,0-.179.619,5.41,5.41,0,0,0-.486,3.287,5.192,5.192,0,0,0,.851,6.615c3.763,3.253,7.7,6.237,12.732,6.891C125.49,444.521,126.806,437.648,123.938,434.163Z" transform="translate(-46.603 -414.384)" fill="#aa3000"></path><path id="Path_23517" data-name="Path 23517" d="M122.844,429.1c-1.95-6.074-9.514-8.63-15.076-10.018a37.707,37.707,0,0,0-22.047.811c-11.659,4.236-25.755,19.371-11.859,29.975,10.447,7.972,26.473,6.013,37.2-.316,4.178-2.466,9.031-6.051,10.308-10.932A10.678,10.678,0,0,0,122.844,429.1Z" transform="translate(-54.147 -413.69)" fill="#dd4907"></path><g id="Group_4217" data-name="Group 4217" transform="translate(21.721 4.153)"><path id="Path_23518" data-name="Path 23518" d="M100.347,418.531a47.951,47.951,0,0,1-.165,20.414A105.661,105.661,0,0,1,95.5,453.56a40.739,40.739,0,0,0,9.208-3.7c2.894-9.664,3.818-20.075,1.821-29.669-1.475-.507-2.941-.914-4.289-1.251C101.612,418.783,100.979,418.66,100.347,418.531Z" transform="translate(-70.339 -417.701)" fill="#ea9528"></path><path id="Path_23519" data-name="Path 23519" d="M94.022,417.84a36.323,36.323,0,0,0-5.278.487,57.631,57.631,0,0,1-.984,23.279,93.391,93.391,0,0,1-4.6,13.166,35.023,35.023,0,0,0,7.51.2A88.959,88.959,0,0,0,94.5,439.96,57.386,57.386,0,0,0,94.022,417.84Z" transform="translate(-72.829 -417.84)" fill="#ea9528"></path><path id="Path_23520" data-name="Path 23520" d="M74.563,450.815a25.038,25.038,0,0,0,5.545,2.47c3.729-10.528,4.416-22.3,3.173-33.368a31.168,31.168,0,0,0-4.636,2.438C78.9,432.163,77.178,441.477,74.563,450.815Z" transform="translate(-74.563 -417.421)" fill="#ea9528"></path></g></g><path id="Path_23521" data-name="Path 23521" d="M136.2,201.216S132.67,171,153.368,165.986c0,0,1.416-16.8,16.143-16.331,0,0-12.039-21.778-32.938-15.705,0,0,11.681,17.623-8.222,34.512,0,0-5.1-6.167-6.093-6.245a5.017,5.017,0,0,0-1.8-5.731l-3.96,9.851-10.164-1.95a5.022,5.022,0,0,0,3.942,4.537c-.455.882,2.133,8.46,2.133,8.46C87.594,185.5,78.692,166.32,78.692,166.32c-16.112,14.633-3.859,36.289-3.859,36.289C82.139,189.814,97.2,197.4,97.2,197.4,116.458,183.606,136.2,201.216,136.2,201.216Z" transform="translate(-63.935 30.795)" fill-rule="evenodd"></path><path id="Path_23523" data-name="Path 23523" d="M410.168,205.814s12.011-11.32,20.893-3.933c0,0,7.772-4.824,12.336,1.74,0,0,5.582-12.291-3.827-19.423,0,0-3.889,10.79-17.685,7.594,0,0,1.034-4.217.746-4.673a2.721,2.721,0,0,0,1.911-2.64l-5.57,1.465-2.441-5.056a2.725,2.725,0,0,0-.7,3.185c-.531.088-2.992,3.668-2.992,3.668-11.567-8.173-6.1-18.257-6.1-18.257-11.586-2.276-17.045,10.068-17.045,10.068,7.935-.963,9.508,8.05,9.508,8.05C411.442,191.517,410.168,205.814,410.168,205.814Z" transform="translate(64.654 36.477)" fill-rule="evenodd"></path><path id="Path_23526" data-name="Path 23526" d="M428.163,363.874a15.05,15.05,0,0,0,.615-5.038c-.361-6.924-5.682-12.4-12.117-14.369a17.607,17.607,0,0,0-17.523,4.418c-4.213,4.028-6.774,9.435-9.4,14.543-2.34,4.555-4.9,9.786-9.39,12.533-5.657,3.461-13.124,1.4-17.056-3.759a17.166,17.166,0,0,1-3-6.66c6.006.827,12.715-.422,15.925-6.038,2.721-4.759,2.407-12.053-2.966-14.846-6.838-3.555-13.733,2.67-16.239,8.708a21.874,21.874,0,0,0-1.554,6.565l-.026-.008c-6.73-2.506-13.006-7.37-16.208-13.894-4.133-8.419-.246-17.252,1.126-25.824,1.077-6.718.386-14.821-4.884-19.484a15.48,15.48,0,0,0-2.569-5.1c-4.833-6.216-13.511-7.76-20.92-8.16-6.625-.358-13.892.568-19.569,4.238a17.527,17.527,0,0,0-6.195,6.847c-.678,1.351,1.3,2.536,2.043,1.193,3.15-5.673,9.437-8.165,15.621-8.836,6.667-.725,14.526-.263,20.649,2.657a15.131,15.131,0,0,1,5.482,4.248,9.942,9.942,0,0,0-7.772,1.231c-2.89,1.84-5.116,5.116-4.835,8.651.544,6.857,8.731,8.765,13.951,5.757a9.059,9.059,0,0,0,4.254-5.4c1.663,3.886,1.261,8.432.491,12.474-.823,4.326-2.1,8.554-2.671,12.931a25.532,25.532,0,0,0,6.1,20.534,35.681,35.681,0,0,0,15.977,10.43,21.672,21.672,0,0,0,3.673,10.189c4.154,5.9,11.563,9.289,18.732,7.687,5.438-1.215,9.489-5.247,12.449-9.758,2.918-4.45,4.967-9.4,7.655-13.981,2.484-4.237,5.822-8.584,10.865-9.745a13.12,13.12,0,0,1,13.779,5.808,9.6,9.6,0,0,1,1.2,5.813c-6.3-3.414-17.061-3.153-20.111,4.533-1.471,3.706.477,7.586,3.846,9.42a12.586,12.586,0,0,0,10.336.608,17.049,17.049,0,0,0,7.815-6.168,10.04,10.04,0,0,1,.681,1.24,12.4,12.4,0,0,1,.3,9.269c-1.07,3.033,3.769,4.356,4.816,1.328A17.224,17.224,0,0,0,428.163,363.874Zm-97.2-54.967a6.651,6.651,0,0,1-6.438,1.9,3.789,3.789,0,0,1-2.775-5.261,6.411,6.411,0,0,1,7.049-3.841,8.316,8.316,0,0,1,3.579,1.853A6.989,6.989,0,0,1,330.962,308.907Zm32.545,42.077c2.018-2.21,5.48-4.312,8.311-2.186,2,1.5,2.131,4.414,1.509,6.629-1.685,6.016-8,6.709-13.492,5.7A15.234,15.234,0,0,1,363.507,350.984Zm54.922,18.27a8.489,8.489,0,0,1-7.793,1.048,3.738,3.738,0,0,1-2.265-2.159c-.4-1.449.847-2.721,1.958-3.451,3.63-2.389,8.365-1.74,11.9.6A12.006,12.006,0,0,1,418.429,369.254Z" transform="translate(61.852 -33.474)" fill="#bf82e0"></path><path id="Path_23527" data-name="Path 23527" d="M479.156,367.037c-4.487-2.489-12.25-3.653-15.883.99-1.267,1.619-.168,4.3,2.137,3.671a23.6,23.6,0,0,1,5-1.163,11.242,11.242,0,0,1,4.857.81A11.623,11.623,0,0,1,482.2,379.5c2.087,8.326-3.114,17.932-10.975,21.146a11.964,11.964,0,0,1-13.207-2.412c-1.639-1.692-4.153.852-2.575,2.576,3.651,3.986,9.31,5.463,14.556,4.647,5.509-.857,10.144-4.575,13.315-9.008C489.723,387.488,489.729,372.9,479.156,367.037Z" transform="translate(95.917 -17.847)" fill="#bf82e0"></path><g id="Group_4219" data-name="Group 4219" transform="translate(488.504 336.771)"><path id="Path_23528" data-name="Path 23528" d="M476.409,427.789c4.075-10.414,7.113-21.9,5.921-32.894a42.342,42.342,0,0,0-14.2-26.718c-17.715-15.745-43.855-14.948-63.22-2.562-19.336,12.367-33.374,36.679-26.875,59.946a44.939,44.939,0,0,0,17.2,24.663c9.771,6.869,20.309,5.474,31.273,8.139,6.074,1.477,8.064,6.492,13.1,9.448,5.359,3.142,11.176.956,14.341-4.039.171-.269.436-.679.672-1.089,1.834,1.464,5.1,1.8,7.206,1.3,3.6-.853,5.683-3.644,6.845-6.866q.782.148,1.572.255a10.545,10.545,0,0,0,5.529-.958,12.226,12.226,0,0,0,5.981-7.812C483.762,441.3,481.2,433.449,476.409,427.789Z" transform="translate(-376.426 -356.337)" fill="#d6b4ab"></path><path id="Path_23529" data-name="Path 23529" d="M433.527,408.481c-2.464,1.144-3.5,16.464.035,16.833,1.835.191,6.4,1.019,6.561-6.368,0,0,1.914,2.084,6.5.719S436.122,407.276,433.527,408.481Z" transform="translate(-365.361 -345.837)"></path><path id="Path_23530" data-name="Path 23530" d="M429.8,419.746c-2.521,9.162-9.613,15.965-16.852,13.117-5.971-2.349-8.031-10.11-5.51-19.272s9.23-14.088,15.406-12.389S432.321,410.585,429.8,419.746Z" transform="translate(-370.383 -347.353)"></path><path id="Path_23531" data-name="Path 23531" d="M443.131,413.842c7.055,3.543,14.946,2.272,17.8-4.949,2.358-5.955-.3-12.309-7.4-15.779-6.278-3.07-13.936-1.4-16.811,4.327S436.074,410.3,443.131,413.842Z" transform="translate(-364.508 -349.224)"></path><path id="Path_23532" data-name="Path 23532" d="M464.234,457.033c-1.651-2.161-2.8-4.573-4.4-6.761-3.778-5.172-9.672-7.731-16.595-8.213-6.826-.476-13.434,1.252-20.032,2.466-6.068,1.116-13.439,1.893-18.479-1.881a15.661,15.661,0,0,1-6.26-12.244c-.1-5.411,2.661-10.5,6.284-14.78a47.975,47.975,0,0,1,6.5-6.17c1.743-1.408,1.15-3.839-.722-4.871-7.288-4.011-13.791-9.72-17.186-16.7a22.144,22.144,0,0,1-1.8-14.315c-11.74,13.136-18.368,31.121-13.507,48.522a44.939,44.939,0,0,0,17.2,24.663c9.771,6.869,20.309,5.474,31.274,8.139,6.072,1.477,8.062,6.492,13.1,9.448,5.359,3.143,11.176.957,14.341-4.039.171-.269.436-.679.672-1.089,1.834,1.464,5.1,1.8,7.206,1.3a8.359,8.359,0,0,0,3.8-2.038A8.767,8.767,0,0,1,464.234,457.033Z" transform="translate(-376.426 -352.862)" fill="#bc9188"></path></g></g></svg>