<svg xmlns="http://www.w3.org/2000/svg" xmlns:xlink="http://www.w3.org/1999/xlink" width="125.381" height="151.025" viewBox="0 0 125.381 151.025"><defs><linearGradient id="linear-gradient" x1="0.468" y1="-0.203" x2="0.518" y2="0.835" gradientUnits="objectBoundingBox"><stop offset="0.041" stop-color="#f5a000"></stop><stop offset="0.948" stop-color="#f57500"></stop></linearGradient><linearGradient id="linear-gradient-2" x1="0" y1="0.5" x2="1" y2="0.5" xlink:href="#linear-gradient"></linearGradient><linearGradient id="linear-gradient-3" x1="2.188" y1="26.549" x2="0.269" y2="-3.055" xlink:href="#linear-gradient"></linearGradient><linearGradient id="linear-gradient-4" x1="0.505" y1="1.275" x2="0.499" y2="0.206" xlink:href="#linear-gradient"></linearGradient><linearGradient id="linear-gradient-5" x1="19.691" y1="48.811" x2="-2.502" y2="-7.045" xlink:href="#linear-gradient"></linearGradient><linearGradient id="linear-gradient-6" x1="1.806" y1="18.342" x2="0.437" y2="-0.353" xlink:href="#linear-gradient"></linearGradient><linearGradient id="linear-gradient-7" x1="0" y1="0.5" x2="1" y2="0.5" xlink:href="#linear-gradient"></linearGradient><linearGradient id="linear-gradient-9" x1="0.76" y1="-1.465" x2="-0.083" y2="4.623" gradientUnits="objectBoundingBox"><stop offset="0.041" stop-color="#fbdba8"></stop><stop offset="0.909" stop-color="#fbdba8" stop-opacity="0"></stop></linearGradient><linearGradient id="linear-gradient-10" x1="0.878" y1="-3.187" x2="0.095" y2="4.54" xlink:href="#linear-gradient-9"></linearGradient><linearGradient id="linear-gradient-11" x1="0.815" y1="-3.105" x2="-0.186" y2="8.3" xlink:href="#linear-gradient-9"></linearGradient><linearGradient id="linear-gradient-12" x1="0.908" y1="-1.254" x2="0.186" y2="2.062" xlink:href="#linear-gradient-9"></linearGradient><linearGradient id="linear-gradient-13" x1="0.679" y1="-0.444" x2="0.147" y2="1.835" xlink:href="#linear-gradient-9"></linearGradient><linearGradient id="linear-gradient-14" x1="0.652" y1="-1.448" x2="-0.399" y2="11.917" xlink:href="#linear-gradient-9"></linearGradient><linearGradient id="linear-gradient-15" x1="0.74" y1="-1.026" x2="-0.124" y2="4.125" xlink:href="#linear-gradient-9"></linearGradient><linearGradient id="linear-gradient-16" x1="0.845" y1="-3.258" x2="-0.296" y2="9.174" xlink:href="#linear-gradient-9"></linearGradient><linearGradient id="linear-gradient-17" x1="0.822" y1="-1.475" x2="0.197" y2="2.44" xlink:href="#linear-gradient-9"></linearGradient><linearGradient id="linear-gradient-18" x1="0.004" y1="0.503" x2="0.988" y2="0.503" xlink:href="#linear-gradient"></linearGradient><linearGradient id="linear-gradient-19" x1="0.012" y1="0.532" x2="0.981" y2="0.532" xlink:href="#linear-gradient"></linearGradient><linearGradient id="linear-gradient-20" x1="0.307" y1="1.869" x2="0.609" y2="-0.051" xlink:href="#linear-gradient"></linearGradient></defs><g id="Group_3003" data-name="Group 3003" transform="translate(-129.609 -123.682)"><g id="Group_2861" data-name="Group 2861" transform="translate(135.751 250.98)" opacity="0.36"><path id="Path_21709" data-name="Path 21709" d="M232.221,420.692c4.152-1.8,6.544-3.906,6.544-6.163,0-6.552-20.157-11.864-45.021-11.864s-45.02,5.312-45.02,11.864,20.156,11.864,45.02,11.864a139.362,139.362,0,0,0,28.551-2.69c1.342.712,4.123,1.2,7.344,1.2,4.531,0,8.205-.968,8.205-2.162C237.844,421.786,235.486,420.977,232.221,420.692Z" transform="translate(-146.144 -402.666)" fill="#412c4c" style="mix-blend-mode: multiply;isolation: isolate"></path><path id="Path_21710" data-name="Path 21710" d="M146.724,437.123c0-.252-.777-.457-1.735-.457s-1.735.2-1.735.457.777.457,1.735.457S146.724,437.376,146.724,437.123Z" transform="translate(-143.17 -421.152)" fill="#412c4c" style="mix-blend-mode: multiply;isolation: isolate"></path><ellipse id="Ellipse_341" data-name="Ellipse 341" cx="4.25" cy="1.12" rx="4.25" ry="1.12" transform="translate(2.436 18.901)" fill="#412c4c" style="mix-blend-mode: multiply;isolation: isolate"></ellipse><path id="Path_21711" data-name="Path 21711" d="M352.5,445.93c-1.341,0-2.428.287-2.428.64s1.087.641,2.428.641,2.427-.287,2.427-.641S353.838,445.93,352.5,445.93Z" transform="translate(-255.618 -426.189)" fill="#412c4c" style="mix-blend-mode: multiply;isolation: isolate"></path><path id="Path_21712" data-name="Path 21712" d="M147.925,416.9c0-.353-1.087-.64-2.427-.64s-2.427.287-2.427.64,1.087.64,2.427.64S147.925,417.257,147.925,416.9Z" transform="translate(-143.07 -410.059)" fill="#412c4c" style="mix-blend-mode: multiply;isolation: isolate"></path><path id="Path_21713" data-name="Path 21713" d="M350.777,438.33c0-.464-1.428-.84-3.188-.84s-3.189.376-3.189.84,1.428.841,3.189.841S350.777,438.794,350.777,438.33Z" transform="translate(-252.535 -421.6)" fill="#412c4c" style="mix-blend-mode: multiply;isolation: isolate"></path><path id="Path_21714" data-name="Path 21714" d="M342.258,415.5c1.761,0,3.189-.376,3.189-.841s-1.428-.84-3.189-.84-3.188.377-3.188.84S340.5,415.5,342.258,415.5Z" transform="translate(-249.637 -408.733)" fill="#412c4c" style="mix-blend-mode: multiply;isolation: isolate"></path></g><g id="Group_3002" data-name="Group 3002" transform="translate(129.609 123.681)"><g id="Group_3001" data-name="Group 3001"><g id="Group_2906" data-name="Group 2906" transform="translate(0 74.709)"><path id="Path_21715" data-name="Path 21715" d="M158.387,290.218c-.65.114-20.395,1.432-26.974,20.773s5.7,40.353,22.807,39.4a20.677,20.677,0,0,0,20.833,7.4s9.21,6.686,20.394-.715c0,0,13.6,2.866,20.834-7.641,0,0,16.269-3.066,14.911-30.324C229.588,286.884,185.579,285.442,158.387,290.218Z" transform="translate(-129.609 -287.832)" fill="url(#linear-gradient)"></path><g id="Group_2863" data-name="Group 2863" transform="translate(13.873)"><ellipse id="Ellipse_342" data-name="Ellipse 342" cx="35.839" cy="11.447" rx="35.839" ry="11.447" fill="#fbdba8" opacity="0.5" style="mix-blend-mode: screen;isolation: isolate"></ellipse><ellipse id="Ellipse_343" data-name="Ellipse 343" cx="31.429" cy="10.038" rx="31.429" ry="10.038" transform="translate(4.411 1.409)" fill="url(#linear-gradient-2)" style="mix-blend-mode: multiply;isolation: isolate"></ellipse><path id="Path_21716" data-name="Path 21716" d="M173.549,310.925c4.291,3.914,15.947,6.72,29.663,6.72,14.527,0,26.746-3.148,30.347-7.425-4.291-3.914-15.947-6.72-29.662-6.72C189.369,303.5,177.15,306.648,173.549,310.925Z" transform="translate(-167.372 -296.159)" fill="#6d233c" style="mix-blend-mode: multiply;isolation: isolate"></path><g id="Group_2862" data-name="Group 2862" transform="translate(4.41 4.617)" opacity="0.4"><path id="Path_21717" data-name="Path 21717" d="M175.676,311.389c-1.3-3.825-.9-8.131-.034-11.776-3.748,1.653-5.963,3.683-5.963,5.88S171.907,309.734,175.676,311.389Z" transform="translate(-169.678 -298.663)" fill="#6d233c" style="mix-blend-mode: multiply;isolation: isolate"></path><path id="Path_21718" data-name="Path 21718" d="M278.17,312.571c8.074-1.816,13.353-4.815,13.353-8.21,0-2.639-3.192-5.038-8.4-6.83C283.265,303.432,281.641,308.624,278.17,312.571Z" transform="translate(-228.666 -297.531)" fill="#6d233c" style="mix-blend-mode: multiply;isolation: isolate"></path></g></g><g id="Group_2864" data-name="Group 2864" transform="translate(0.891 17.531)" opacity="0.4"><path id="Path_21719" data-name="Path 21719" d="M281.708,365.659c-.167-1.245-.317-1.994-.317-1.994S281.49,364.43,281.708,365.659Z" transform="translate(-213.026 -346.403)" fill="url(#linear-gradient-3)" style="mix-blend-mode: multiply;isolation: isolate"></path><path id="Path_21720" data-name="Path 21720" d="M217.343,369.9s16.269-3.066,14.911-30.324a27.975,27.975,0,0,0-4.122-13.746c3.779,9.577,3.9,26.518-1.283,28.975-4.3,2.036-6.579-8.3-7.465-13.726.66,6,1.109,18.752-6.376,22.091-8.143,3.633-11.745-12.339-12.763-18.083.845,6.275,2.138,25.232-13.093,25.232-16.019,0-17.862-19.679-18.073-24.5.021,3.741-.61,16.2-9.913,16.587-10.951.456-14.449-25.856-14.449-25.856s-1.825,20.837-8.974,18.4c-1.935-.658-3.267-2.521-4.18-4.9,2.84,12.09,12.182,21.441,23.719,20.8a20.677,20.677,0,0,0,20.833,7.4s9.21,6.686,20.394-.715C196.509,377.543,210.106,380.408,217.343,369.9Z" transform="translate(-131.563 -325.832)" fill="url(#linear-gradient-4)" style="mix-blend-mode: multiply;isolation: isolate"></path><path id="Path_21721" data-name="Path 21721" d="M213.75,368.39c0-.662-.027-1.056-.027-1.056S213.721,367.718,213.75,368.39Z" transform="translate(-176.234 -348.397)" fill="url(#linear-gradient-5)" style="mix-blend-mode: multiply;isolation: isolate"></path><path id="Path_21722" data-name="Path 21722" d="M323.5,355.491c-.211-1.925-.444-3.157-.444-3.157S323.2,353.622,323.5,355.491Z" transform="translate(-235.68 -340.241)" fill="url(#linear-gradient-6)" style="mix-blend-mode: multiply;isolation: isolate"></path></g><g id="Group_2869" data-name="Group 2869" transform="translate(13.856 17.834)" opacity="0.6"><g id="Group_2865" data-name="Group 2865" transform="translate(24.105 8.215)"><path id="Path_21723" data-name="Path 21723" d="M223.49,390.585c0,.017-.1.005-.281-.032a3.772,3.772,0,0,1-.762-.244,6.735,6.735,0,0,1-2.26-1.731,22.5,22.5,0,0,1-3.957-7.6,67.888,67.888,0,0,1-2.15-8.288c-.23-1.133-.4-2.1-.522-2.769l-.193-1.055s-.016-.1-.045-.275-.062-.444-.095-.783c-.068-.677-.166-1.643-.283-2.8-.038-.581-.05-1.213-.079-1.879s-.073-1.37-.054-2.1.043-1.478.065-2.242c.019-.381.006-.767.051-1.151s.076-.771.114-1.158c.084-.771.137-1.545.247-2.3.132-.752.262-1.492.388-2.208.066-.357.12-.71.193-1.053l.258-.992.478-1.812a14.347,14.347,0,0,1,.5-1.5l.428-1.143a4.31,4.31,0,0,1,.428-.972,4.5,4.5,0,0,1-.234,1.039c-.092.323-.2.717-.332,1.167s-.311.944-.409,1.514c-.12.563-.25,1.171-.387,1.815q-.1.483-.214.989c-.059.34-.1.692-.15,1.047-.1.71-.2,1.444-.306,2.19-.084.747-.112,1.514-.172,2.276l-.079,1.143c-.034.379-.01.759-.018,1.135,0,.752,0,1.493-.006,2.209s.075,1.406.1,2.062.069,1.274.12,1.845c.139,1.138.255,2.085.337,2.748.039.331.07.592.108.767s.05.271.05.271l.631,3.8a71.274,71.274,0,0,0,1.913,8.241,23.279,23.279,0,0,0,3.573,7.563,7.154,7.154,0,0,0,2.05,1.8,6,6,0,0,0,.7.328C223.406,390.523,223.494,390.567,223.49,390.585Z" transform="translate(-212.804 -344.499)" fill="#ab372c"></path></g><g id="Group_2866" data-name="Group 2866" transform="translate(51.217 15.059)"><path id="Path_21724" data-name="Path 21724" d="M275.644,359.5a18.61,18.61,0,0,1,.87,2.931c.444,1.778,1.022,4.156,1.443,6.572.241,1.2.389,2.422.561,3.559.141,1.143.233,2.216.323,3.134.043.923.078,1.692.1,2.231a8.354,8.354,0,0,1,.017.847s-.012.307-.035.843-.029,1.3-.12,2.223a35.019,35.019,0,0,1-1.274,6.626,25.769,25.769,0,0,1-1.286,3.374,14.909,14.909,0,0,1-1.653,2.691,11.96,11.96,0,0,1-.862.927,9.469,9.469,0,0,1-.759.611,2.745,2.745,0,0,1-.75.392c-.017-.031.214-.233.625-.554.2-.166.41-.411.669-.662.244-.268.492-.6.76-.952a15.841,15.841,0,0,0,1.451-2.686,27.1,27.1,0,0,0,1.112-3.335,36.063,36.063,0,0,0,1.032-6.5c.062-.894.038-1.65.057-2.173s.014-.825.014-.825a8.071,8.071,0,0,0,0-.83c-.01-.527-.024-1.283-.041-2.189-.064-.9-.123-1.963-.226-3.094-.135-1.129-.238-2.339-.434-3.539-.325-2.409-.794-4.8-1.118-6.6A20.234,20.234,0,0,1,275.644,359.5Z" transform="translate(-272.221 -359.5)" fill="#ab372c"></path></g><g id="Group_2867" data-name="Group 2867" transform="translate(67.641)"><path id="Path_21725" data-name="Path 21725" d="M313.01,371.215a4.074,4.074,0,0,1,.225-.994c.173-.62.437-1.5.757-2.554.253-1.072.586-2.312.889-3.65.127-.675.257-1.372.39-2.08.066-.354.132-.711.2-1.069.044-.362.088-.726.131-1.088.089-.726.177-1.45.263-2.164.039-.717.077-1.424.114-2.108.114-1.364.032-2.643.03-3.737.015-1.094-.12-2-.155-2.637-.052-.636-.081-1-.081-1s-.005-.091-.016-.26-.016-.421-.063-.734c-.078-.628-.189-1.526-.324-2.6a15.613,15.613,0,0,0-.3-1.725c-.132-.612-.268-1.26-.424-1.924-.308-1.331-.668-2.741-1.1-4.128a34.332,34.332,0,0,0-1.491-3.991,29.465,29.465,0,0,0-1.738-3.285c-1.163-1.846-2.161-2.927-2.094-2.986a3.934,3.934,0,0,1,.743.69,21.057,21.057,0,0,1,1.681,2.078,26.423,26.423,0,0,1,1.922,3.261,32.734,32.734,0,0,1,1.661,4.009c.482,1.4.888,2.815,1.235,4.151.175.668.329,1.315.477,1.931a16.2,16.2,0,0,1,.355,1.758c.161,1.1.3,2.015.39,2.657.055.32.064.574.08.747s.021.265.021.265.023.371.063,1.02c.023.65.138,1.574.1,2.691-.024,1.114.026,2.416-.126,3.8-.057.693-.115,1.409-.176,2.138l-.332,2.19q-.084.55-.168,1.1-.119.541-.238,1.076c-.16.711-.318,1.41-.47,2.088-.359,1.34-.752,2.574-1.065,3.636-.38,1.042-.706,1.905-.942,2.506A4.039,4.039,0,0,1,313.01,371.215Z" transform="translate(-308.216 -326.497)" fill="#ab372c"></path></g><g id="Group_2868" data-name="Group 2868" transform="translate(0 0.199)"><path id="Path_21726" data-name="Path 21726" d="M171.306,371.8a4.344,4.344,0,0,1-.855-.62,18.934,18.934,0,0,1-1.993-1.945c-.394-.421-.772-.92-1.19-1.435-.384-.537-.813-1.091-1.191-1.706a31.453,31.453,0,0,1-2.19-3.957,41.781,41.781,0,0,1-2.773-8c-.146-.559-.245-1.08-.341-1.54s-.176-.862-.228-1.2l-.178-1.045s-.044-.381-.121-1.048c-.04-.333-.086-.738-.116-1.2s-.089-.991-.1-1.567a40.415,40.415,0,0,1,.442-8.408c.107-.759.284-1.507.437-2.246.191-.73.362-1.453.593-2.135.2-.691.464-1.335.694-1.952.264-.6.5-1.18.77-1.688a18.026,18.026,0,0,1,1.426-2.376,4.227,4.227,0,0,1,.671-.808c.077.053-.827,1.285-1.738,3.353-.236.511-.443,1.09-.675,1.691-.2.615-.431,1.256-.6,1.94-.2.676-.343,1.391-.506,2.112-.125.729-.276,1.465-.357,2.213a41.063,41.063,0,0,0-.217,8.247c.027.562.094,1.076.135,1.531s.093.851.139,1.176c.089.652.139,1.023.139,1.023l.154,1.027c.044.327.109.723.2,1.174s.171.964.3,1.516a42.517,42.517,0,0,0,2.515,7.907,32.409,32.409,0,0,0,2.016,3.951c.349.619.746,1.176,1.1,1.722.386.522.735,1.03,1.1,1.465C170.184,370.755,171.367,371.732,171.306,371.8Z" transform="translate(-159.975 -326.932)" fill="#ab372c"></path></g></g><g id="Group_2870" data-name="Group 2870" transform="translate(7.495 39.213)"><path id="Path_21727" data-name="Path 21727" d="M216.119,405.222a11.243,11.243,0,0,0-.4-1.222S215.85,404.465,216.119,405.222Z" transform="translate(-183.925 -390.015)" fill="url(#linear-gradient-7)" style="mix-blend-mode: multiply;isolation: isolate"></path><path id="Path_21728" data-name="Path 21728" d="M183.984,404.094s9.21,6.686,20.394-.715c0,0,13.6,2.866,20.834-7.641,0,0,11.365-2.146,14.3-18.77-2.213,5.461-4.729,11.138-7.155,11.281-3.878.228-4.107-6.16-4.107-6.16s-4.107,14.373-11.179,14.829-7.737-11.447-7.737-11.447-2.3,16.239-14.849,16.695c-10.375.377-14.976-10-16.259-13.608.754,2.8,1.625,9.513-7.012,10.414-10.951,1.141-18.667-25.621-18.667-25.621s1.556,11.019-2.55,15.126a3.237,3.237,0,0,1-3.964.554c4.384,5,10.374,8.039,17.116,7.663A20.677,20.677,0,0,0,183.984,404.094Z" transform="translate(-146.035 -373.35)" fill="url(#linear-gradient-2)" style="mix-blend-mode: multiply;isolation: isolate"></path></g><g id="Group_2881" data-name="Group 2881" transform="translate(2.581 15.123)" opacity="0.2" style="mix-blend-mode: screen;isolation: isolate"><g id="Group_2880" data-name="Group 2880"><g id="Group_2871" data-name="Group 2871" transform="translate(0.013 5.598)"><path id="Path_21729" data-name="Path 21729" d="M137.818,334.2c-1.6,3.253-3.31,7.479-2.135,11.125,1.018,3.154,4.868,2.769,6.02,0a19.957,19.957,0,0,0,.879-4.738c.25-1.644.4-3.294.55-4.948.258-2.81-4.09-3.924-5.314-1.439Z" transform="translate(-135.294 -332.825)" fill="url(#linear-gradient-9)"></path></g><g id="Group_2872" data-name="Group 2872" transform="translate(0 21.106)"><path id="Path_21730" data-name="Path 21730" d="M135.515,369.552c-.6,2.47-.187,6.1,1.882,7.867a3.735,3.735,0,0,0,6.31-2.614,8.36,8.36,0,0,0-.587-2.815,8.346,8.346,0,0,1-.216-.934q-.042-.309-.093-.616.092.767.057.109a3.743,3.743,0,0,0-7.352-1Z" transform="translate(-135.266 -366.811)" fill="url(#linear-gradient-10)"></path></g><g id="Group_2873" data-name="Group 2873" transform="translate(56.352 12.547)"><path id="Path_21731" data-name="Path 21731" d="M258.871,351.488a8.3,8.3,0,0,0,1.667,3.629,2.847,2.847,0,0,0,4.719-1.246,4.221,4.221,0,0,0-.519-3.243c-.271-.43-.613-.82-.916-1.228a2.794,2.794,0,0,0-3.06-1.245,2.731,2.731,0,0,0-1.892,3.333Z" transform="translate(-258.764 -348.055)" fill="url(#linear-gradient-11)"></path></g><g id="Group_2874" data-name="Group 2874" transform="translate(56.887 22.3)"><path id="Path_21732" data-name="Path 21732" d="M261.049,372.883c-.472,3.771.077,7.45.123,11.225a17.144,17.144,0,0,1-.6,4.964c-.6,2.133-1.035,4.261-.071,6.336a2.089,2.089,0,0,0,1.847,1.06c5.054-.2,6.3-6.386,6.668-10.376.407-4.361-.642-8.848-.8-13.208-.175-4.74-6.6-4.471-7.165,0Z" transform="translate(-259.939 -369.429)" fill="url(#linear-gradient-12)"></path></g><g id="Group_2875" data-name="Group 2875" transform="translate(72.34 7.015)"><path id="Path_21733" data-name="Path 21733" d="M294.08,341.177a40.469,40.469,0,0,1,3.268,14.89,30.577,30.577,0,0,1-.961,7.65c-.668,2.749-2.713,5.9-1.558,8.7.715,1.733,2.563,3.459,4.644,2.637A5.546,5.546,0,0,0,303,372.033a32.869,32.869,0,0,0,1.81-5.127,41.255,41.255,0,0,0,1.405-10.038c.163-6.624-1.748-12.957-4.509-18.9-1.979-4.264-9.412-1.159-7.623,3.214Z" transform="translate(-293.804 -335.93)" fill="url(#linear-gradient-13)"></path></g><g id="Group_2876" data-name="Group 2876" transform="translate(86.708)"><path id="Path_21734" data-name="Path 21734" d="M325.659,324.635a3.983,3.983,0,0,1,.246.481l-.286-.678a3.926,3.926,0,0,1,.131.4,3,3,0,0,0,.505,1,2.874,2.874,0,0,0,5.252-2.214,3.756,3.756,0,0,0-1.021-1.832,6.42,6.42,0,0,0-1.119-.867,2.71,2.71,0,0,0-3.707,3.706Z" transform="translate(-325.293 -320.556)" fill="url(#linear-gradient-14)"></path></g><g id="Group_2877" data-name="Group 2877" transform="translate(89.645 8.471)"><path id="Path_21735" data-name="Path 21735" d="M331.88,342.515a41.591,41.591,0,0,1,1.533,5.093c.419,1.826,0,3.459-.249,5.261-.4,2.9,3.615,5.324,5.176,2.182,2.3-4.624.374-10.192-1.561-14.6-1.219-2.777-5.947-.774-4.9,2.065Z" transform="translate(-331.73 -339.12)" fill="url(#linear-gradient-15)"></path></g><g id="Group_2878" data-name="Group 2878" transform="translate(13.991 8.473)"><path id="Path_21736" data-name="Path 21736" d="M167.126,340.333c-.208.409-.43.805-.671,1.2a3.478,3.478,0,0,0-.1,3.519,2.613,2.613,0,0,0,1.561,1.2,2.816,2.816,0,0,0,2.013-.264,2.225,2.225,0,0,0,.8-.655c.182-.22.358-.445.527-.676a3.466,3.466,0,0,0,.4-1.578c.048-.495.048-1,.061-1.5.066-2.4-3.478-3.451-4.6-1.245Z" transform="translate(-165.927 -339.126)" fill="url(#linear-gradient-16)"></path></g><g id="Group_2879" data-name="Group 2879" transform="translate(14.421 19.064)"><path id="Path_21737" data-name="Path 21737" d="M167.24,364.224c-.8,3.91-.193,7.619.845,11.433a34.65,34.65,0,0,0,2.1,5.131c.88,1.926,1.754,3.776,3.934,4.363a2.573,2.573,0,0,0,3.1-1.763c1.032-2.841-1.652-6.133-2.693-8.7a27.453,27.453,0,0,1-2.137-9.762c-.091-2.864-4.54-3.7-5.153-.7Z" transform="translate(-166.871 -362.337)" fill="url(#linear-gradient-17)"></path></g></g></g><path id="Path_21738" data-name="Path 21738" d="M216.284,360.767s16.269-3.066,14.911-30.324c-.483-9.709-4.818-16.619-11.38-21.412,2.713,17.393-6.855,46.971-42.392,48.809-31.6,1.634-43.522-16.318-47.748-26.636-.978,16.358,10.051,31.327,24.548,30.518a20.677,20.677,0,0,0,20.833,7.4s9.21,6.686,20.394-.715C195.45,368.408,209.047,371.273,216.284,360.767Z" transform="translate(-129.612 -299.166)" fill="#6d233c" opacity="0.2" style="mix-blend-mode: multiply;isolation: isolate"></path><path id="Path_21739" data-name="Path 21739" d="M154.333,362.184c-.044.032-.236-.152-.54-.5-.152-.176-.332-.393-.535-.647l-.32-.405-.322-.472a31.444,31.444,0,0,1-2.838-5.121,40.556,40.556,0,0,1-1.928-5.549c-.223-.772-.339-1.431-.453-1.886s-.16-.719-.16-.719-.034-.266-.094-.732-.17-1.126-.219-1.928a43.822,43.822,0,0,1-.117-5.873,36.3,36.3,0,0,1,.781-5.8,16.472,16.472,0,0,1,.508-1.857c.146-.442.251-.687.305-.674s.052.282.009.742-.157,1.1-.209,1.889a50.566,50.566,0,0,0-.266,5.721,48.818,48.818,0,0,0,.45,5.684c.086.772.235,1.4.3,1.851s.122.7.122.7l.123.7c.089.442.171,1.086.347,1.839a44.6,44.6,0,0,0,1.546,5.474,41.212,41.212,0,0,0,2.32,5.215l.255.5c.089.155.173.3.253.439.159.276.294.519.4.723C154.272,361.9,154.377,362.151,154.333,362.184Zm11.541,10.9a24.42,24.42,0,0,1-2.169-1.46,22.294,22.294,0,0,1-1.95-1.707c-.258-.24-.454-.464-.6-.609l-.226-.234-.878-.8c-.525-.487-1.2-1.169-1.887-1.858-1.355-1.39-2.747-2.784-2.919-2.637s.907,1.77,2.058,3.367c.583.795,1.193,1.575,1.683,2.142s.832.934.832.934l.264.225c.172.139.4.352.7.579a18.276,18.276,0,0,0,2.3,1.544,13.111,13.111,0,0,0,2.537,1.084c.724.2,1.222.263,1.256.164S166.494,373.452,165.874,373.086Zm10.809-4.149c-.191-.467-.506-1.108-.8-1.916a47.585,47.585,0,0,1-1.949-5.962l-.407-1.651c-.12-.547-.22-1.091-.328-1.613-.232-1.042-.342-2.035-.485-2.874s-.18-1.552-.243-2.045l-.087-.776-.081-.776c-.043-.495-.147-1.2-.2-2.05-.024-.426-.049-.887-.077-1.374s-.043-1-.04-1.535-.012-1.084,0-1.643c.031-.558.062-1.125.093-1.692.011-.57.113-1.128.17-1.685a15.79,15.79,0,0,1,.235-1.623l.288-1.511c.12-.472.253-.914.362-1.328a20.5,20.5,0,0,1,.635-1.97c.159-.479.23-.765.182-.791s-.216.212-.473.654a11.3,11.3,0,0,0-.932,1.9c-.158.409-.34.852-.508,1.328l-.428,1.525a15.259,15.259,0,0,0-.366,1.654c-.1.568-.24,1.143-.29,1.727-.067.583-.134,1.165-.2,1.739-.048.575-.064,1.142-.1,1.691s-.054,1.081-.04,1.584.008.98.011,1.419c.012.88.087,1.609.11,2.121l.052.8.122.8c.086.5.17,1.232.344,2.091s.35,1.866.645,2.923c.139.53.272,1.079.426,1.632l.517,1.663a36.51,36.51,0,0,0,2.47,5.908,15.313,15.313,0,0,0,1.084,1.809c.287.421.471.647.518.619S176.876,369.4,176.683,368.938Zm3.807,5.226c-.313-.543-.641-1.042-.641-1.042l-.08-.066-.2-.186c-.164-.154-.389-.357-.629-.559-.432-.423-.91-.87-1.112-.772s-.059.753.175,1.4c.137.306.29.61.409.836l.146.274.064.1a13.113,13.113,0,0,0,1.07.818c.587.342,1.191.622,1.331.451S180.836,374.673,180.49,374.163Zm16.359-4.322c-.412.772-.828,1.487-.828,1.487s-.26.778-.6,1.54c-.351.746-.854,1.457-.707,1.635.13.164.961-.292,1.633-.987a9.555,9.555,0,0,0,1.126-1.524,13.15,13.15,0,0,0,.447-1.79c.143-.9.2-1.794-.011-1.858S197.256,369.069,196.85,369.842Zm2.331-28.97c.043,1.307.193,3.039.353,4.764s.326,3.441.422,4.726c.058.642.078,1.176.1,1.55s.037.587.037.587.088.851.19,2.128a40.971,40.971,0,0,1,.077,4.68,26.823,26.823,0,0,1-.639,4.63c-.032.157-.063.308-.093.452l-.114.4c-.071.251-.129.473-.174.658-.087.37-.117.594-.067.616s.178-.158.365-.495c.094-.168.2-.376.322-.617l.188-.386c.052-.141.109-.289.167-.443a20.9,20.9,0,0,0,1.169-4.709,36.1,36.1,0,0,0,.269-4.843c-.023-1.319-.068-2.2-.068-2.2s-.026-.217-.071-.6-.1-.926-.2-1.572c-.178-1.3-.462-3.013-.767-4.72s-.62-3.4-.854-4.679a6.878,6.878,0,0,0-.52-2.12A6.143,6.143,0,0,0,199.18,340.872Zm18.165-10.018-.514-1.537s-.413-.7-.866-1.413-.973-1.4-1.174-1.311-.053.925.133,1.748.455,1.64.455,1.64a13.813,13.813,0,0,0,.983,1.429c.553.684,1.226,1.248,1.395,1.116S217.611,331.618,217.345,330.854Zm1.287,28.5a30.454,30.454,0,0,0,1.129-4.478,34.907,34.907,0,0,0,.494-4.616c.008-.635.014-1.163.019-1.533s0-.581,0-.581-.071-.834-.214-2.1a35.113,35.113,0,0,0-.862-4.557c-.392-1.618-.8-3.211-1-4.426-.131-.605-.184-1.114-.253-1.472s-.129-.565-.184-.565-.1.208-.137.575a9.541,9.541,0,0,0-.043,1.527,37.183,37.183,0,0,0,.51,4.578,40.761,40.761,0,0,1,.5,4.466l.084,2.044s.019.2.034.559.044.863.074,1.472a40.377,40.377,0,0,1-.142,4.477c-.121,1.631-.409,3.247-.611,4.469a6.23,6.23,0,0,0-.273,2.07A5.819,5.819,0,0,0,218.632,359.358Zm9.9-35.546c-.205-.632-.455-1.233-.455-1.233s-.382-.509-.82-1c-.4-.5-.858-1-1.062-.916s-.1.762.059,1.436c.193.649.439,1.281.439,1.281s.411.522.867,1.011.952.944,1.143.835S228.743,324.453,228.536,323.813Zm3.086,19.718a32.5,32.5,0,0,0,.6-3.448c.1-.956.167-1.592.167-1.592s-.035-.641-.086-1.6a28.776,28.776,0,0,0-.453-3.486c-.542-2.511-1.588-4.831-1.77-4.757-.228.086.416,2.487.653,4.926.042,1.228.17,2.439.1,3.356-.023.913-.038,1.52-.038,1.52s-.016.609-.038,1.521c.021.919-.151,2.131-.24,3.359-.312,2.439-.886,4.863-.662,4.938C230.042,348.334,231.009,346,231.622,343.53Zm-94.9-16.045c.556-1.282,1.168-2.5,1.167-2.5a23.91,23.91,0,0,1,1.021-2.523,18.045,18.045,0,0,1,.9-1.647c.266-.445.46-.75.381-.837s-.412.078-.846.423a8.273,8.273,0,0,0-1.4,1.466,16.043,16.043,0,0,0-1.531,2.494s-.124.343-.279.863-.34,1.216-.492,1.917c-.3,1.4-.458,2.819-.247,2.875S136.158,328.762,136.718,327.485Zm1.355,27.632a13.649,13.649,0,0,1-1.93-3.776,20.767,20.767,0,0,1-.9-4.161c-.068-.579-.111-1.064-.131-1.405s-.035-.535-.035-.535-.093-.776-.165-1.954-.108-2.759-.073-4.349c.061-3.179.327-6.383.1-6.411-.207-.027-.87,3.118-1.224,6.339a43.976,43.976,0,0,0-.271,4.459c-.008,1.226.044,2.047.044,2.047l.07.561c.043.355.12.864.233,1.472a19.988,19.988,0,0,0,1.3,4.348,12.175,12.175,0,0,0,2.513,3.772c.885.872,1.616,1.262,1.672,1.185C139.353,356.611,138.766,356.061,138.073,355.117Z" transform="translate(-131.694 -305.107)" fill="#fbdba8" opacity="0.5" style="mix-blend-mode: screen;isolation: isolate"></path><g id="Group_2889" data-name="Group 2889" transform="translate(9.739 49.954)" style="mix-blend-mode: multiply;isolation: isolate"><g id="Group_2882" data-name="Group 2882" transform="translate(44.916 12.332)" opacity="0.5" style="mix-blend-mode: screen;isolation: isolate"><path id="Path_21740" data-name="Path 21740" d="M250.455,426.046a1.064,1.064,0,1,0-1.064-1.064,1.074,1.074,0,0,0,1.064,1.064Z" transform="translate(-249.391 -423.918)" fill="#6d233c"></path></g><g id="Group_2883" data-name="Group 2883" transform="translate(50.33 11.045)" opacity="0.5" style="mix-blend-mode: screen;isolation: isolate"><path id="Path_21741" data-name="Path 21741" d="M262.724,421.1l-.161.013a1.308,1.308,0,0,0,0,2.615l.161.014a1.321,1.321,0,0,0,0-2.642Z" transform="translate(-261.256 -421.098)" fill="#6d233c"></path></g><g id="Group_2884" data-name="Group 2884" transform="translate(48.959 15.204)" opacity="0.5" style="mix-blend-mode: screen;isolation: isolate"><path id="Path_21742" data-name="Path 21742" d="M259.151,432.072a.931.931,0,0,0,0-1.861.931.931,0,0,0,0,1.861Z" transform="translate(-258.251 -430.211)" fill="#6d233c"></path></g><g id="Group_2885" data-name="Group 2885" transform="translate(0 1.044)" opacity="0.5" style="mix-blend-mode: screen;isolation: isolate"><path id="Path_21743" data-name="Path 21743" d="M151.647,400.613a.717.717,0,0,0,0-1.433.717.717,0,0,0,0,1.433Z" transform="translate(-150.954 -399.18)" fill="#6d233c"></path></g><g id="Group_2886" data-name="Group 2886" transform="translate(2.8 4.635)" opacity="0.5" style="mix-blend-mode: screen;isolation: isolate"><path id="Path_21744" data-name="Path 21744" d="M157.128,408.281c-.009.071-.018.143-.026.214-.21,1.68,2.819,1.68,2.609,0-.009-.071-.018-.143-.026-.214a1.279,1.279,0,0,0-2.556,0Z" transform="translate(-157.091 -407.049)" fill="#6d233c"></path></g><g id="Group_2887" data-name="Group 2887" transform="translate(84.393)" opacity="0.5" style="mix-blend-mode: screen;isolation: isolate"><path id="Path_21745" data-name="Path 21745" d="M336.508,398.131a.62.62,0,0,0,0-1.24.62.62,0,0,0,0,1.24Z" transform="translate(-335.909 -396.891)" fill="#6d233c"></path></g><g id="Group_2888" data-name="Group 2888" transform="translate(81.886 2.745)" opacity="0.5" style="mix-blend-mode: screen;isolation: isolate"><path id="Path_21746" data-name="Path 21746" d="M330.823,403.274a1.418,1.418,0,0,0-.36,1.384,1.279,1.279,0,0,0,2.465,0,1.4,1.4,0,0,0-.008-.829,1.3,1.3,0,0,0-.877-.877,1.262,1.262,0,0,0-1.22.323Z" transform="translate(-330.414 -402.908)" fill="#6d233c"></path></g></g><g id="Group_2891" data-name="Group 2891" transform="translate(9.771 15.589)" opacity="0.5" style="mix-blend-mode: screen;isolation: isolate"><g id="Group_2890" data-name="Group 2890"><path id="Path_21747" data-name="Path 21747" d="M151.8,323.18a.8.8,0,0,0,0-1.6.8.8,0,0,0,0,1.6Z" transform="translate(-151.023 -321.576)" fill="#fbdba8"></path></g></g><g id="Group_2893" data-name="Group 2893" transform="translate(12.597 19.761)" opacity="0.5" style="mix-blend-mode: screen;isolation: isolate"><g id="Group_2892" data-name="Group 2892"><path id="Path_21748" data-name="Path 21748" d="M158.664,333.713a1.5,1.5,0,0,0,0-2.994,1.5,1.5,0,0,0,0,2.994Z" transform="translate(-157.216 -330.719)" fill="#fbdba8"></path></g></g><g id="Group_2895" data-name="Group 2895" transform="translate(7.356 19.693)" opacity="0.5" style="mix-blend-mode: screen;isolation: isolate"><g id="Group_2894" data-name="Group 2894"><path id="Path_21749" data-name="Path 21749" d="M147.1,333.4a1.413,1.413,0,0,0,0-2.824,1.413,1.413,0,0,0,0,2.824Z" transform="translate(-145.731 -330.572)" fill="#fbdba8"></path></g></g><g id="Group_2897" data-name="Group 2897" transform="translate(85.839 18.325)" opacity="0.5" style="mix-blend-mode: screen;isolation: isolate"><g id="Group_2896" data-name="Group 2896"><path id="Path_21750" data-name="Path 21750" d="M319.1,330.4a1.413,1.413,0,0,0,0-2.824,1.413,1.413,0,0,0,0,2.824Z" transform="translate(-317.732 -327.572)" fill="#fbdba8"></path></g></g><g id="Group_2899" data-name="Group 2899" transform="translate(79.326 26.445)" opacity="0.5" style="mix-blend-mode: screen;isolation: isolate"><g id="Group_2898" data-name="Group 2898"><path id="Path_21751" data-name="Path 21751" d="M304.362,347.238a.935.935,0,0,0,0-1.869.935.935,0,0,0,0,1.869Z" transform="translate(-303.459 -345.369)" fill="#fbdba8"></path></g></g><g id="Group_2901" data-name="Group 2901" transform="translate(78.322 29.504)" opacity="0.5" style="mix-blend-mode: screen;isolation: isolate"><g id="Group_2900" data-name="Group 2900"><path id="Path_21752" data-name="Path 21752" d="M302.6,354.834a1.382,1.382,0,0,0,0-2.762,1.382,1.382,0,0,0,0,2.762Z" transform="translate(-301.259 -352.072)" fill="#fbdba8"></path></g></g><g id="Group_2903" data-name="Group 2903" transform="translate(63.447 45.648)" opacity="0.5" style="mix-blend-mode: screen;isolation: isolate"><g id="Group_2902" data-name="Group 2902"><path id="Path_21753" data-name="Path 21753" d="M270.666,391.6c2.676,0,2.676-4.15,0-4.15s-2.676,4.15,0,4.15Z" transform="translate(-268.659 -387.453)" fill="#fbdba8"></path></g></g><g id="Group_2905" data-name="Group 2905" transform="translate(63.118 41.389)" opacity="0.5" style="mix-blend-mode: screen;isolation: isolate"><g id="Group_2904" data-name="Group 2904"><path id="Path_21754" data-name="Path 21754" d="M269.209,380.747a1.315,1.315,0,0,0,0-2.628,1.315,1.315,0,0,0,0,2.628Z" transform="translate(-267.938 -378.119)" fill="#fbdba8"></path></g></g></g><g id="Group_3000" data-name="Group 3000" transform="translate(0.812)"><path id="Path_21755" data-name="Path 21755" d="M251.743,294.94c-.019.092-.033.188-.054.277-.052.215-.114.424-.18.631-.018.054-.034.109-.052.164a9.8,9.8,0,0,1-2.2,3.726c-.094.1-.189.191-.284.28a7.541,7.541,0,0,1-3.466,1.811,10.576,10.576,0,0,1-5.152-.19s-.282-.23-.706-.556c.03-.125.059-.252.083-.381.005-.027.009-.054.015-.082.038-.212.068-.428.092-.646,0-.031.008-.062.01-.093.022-.23.035-.464.041-.7,0-.043,0-.088,0-.133,0-.24,0-.482-.012-.727a.178.178,0,0,1,0-.022c-.014-.244-.035-.49-.063-.736,0-.037-.008-.075-.012-.113-.03-.247-.067-.5-.11-.746-.006-.038-.014-.077-.021-.115-.094-.516-.213-1.039-.357-1.563-.011-.038-.021-.077-.031-.116q-.109-.389-.235-.782c-.007-.023-.016-.047-.023-.071q-.128-.393-.271-.788c0-.01-.007-.021-.012-.032-.1-.267-.2-.535-.307-.8l-.04-.1c-.319-.787-.675-1.569-1.055-2.339-11.9-2.451-25.448-2.158-36.979-.638-1.714,3.763-3.123,8.054-2.9,11.7,0,.026,0,.053.005.079.01.146.022.292.037.436,0,.043.01.085.016.127.015.127.031.254.051.379.008.051.017.1.026.152.02.115.041.229.064.343.012.056.024.111.037.168.024.106.05.211.078.315.016.06.032.118.049.177.029.1.059.2.091.3v0a3.226,3.226,0,0,0-1.176,1.675,13.228,13.228,0,0,0,.678,7.291c.016.035.032.07.049.1.04.082.083.161.127.241.028.052.056.1.085.153.042.074.087.148.133.22.035.056.072.11.109.165s.09.135.139.2.108.14.163.209.137.165.209.245.128.141.2.209c.047.047.1.093.147.139.066.062.133.121.2.18.052.043.1.085.157.127.078.061.159.12.241.177.05.035.1.07.151.1.129.083.262.163.4.237l.068.035q.2.1.417.2c.053.023.11.044.166.065.113.044.229.086.349.125q.094.031.192.059c.125.036.253.068.385.1.06.014.12.029.181.041.195.039.394.074.6.1a9.526,9.526,0,0,0,1.762.077,2.41,2.41,0,0,0,.331.12,1.474,1.474,0,0,0,1.131-.129,2.445,2.445,0,0,0,.948-1.117,6.879,6.879,0,0,0,.494-1.471,15.312,15.312,0,0,0,.347-2.83.952.952,0,0,1,.311-.05c.034,0,.064-.005.1-.007a34.206,34.206,0,0,0,5.407.891l.235.019q.728.059,1.466.092l.245.011c1.144.044,2.3.044,3.466-.007l.048,0c.537-.024,1.073-.061,1.609-.1l.4-.036q.646-.059,1.288-.138l.449-.057q.667-.09,1.326-.2c.111-.019.222-.035.333-.054.558-.1,1.112-.208,1.66-.329h0c.778-.174,1.54-.374,2.289-.6a1.155,1.155,0,0,0,1,.521.957.957,0,0,1,.311.05,15.338,15.338,0,0,0,.347,2.83,6.93,6.93,0,0,0,.494,1.471,2.449,2.449,0,0,0,.948,1.117,1.475,1.475,0,0,0,1.131.129,2.458,2.458,0,0,0,.331-.12,9.531,9.531,0,0,0,1.762-.077c.209-.027.408-.062.6-.1.063-.012.121-.027.182-.041.132-.031.261-.063.385-.1.065-.019.129-.038.193-.059.119-.039.235-.08.347-.125.056-.021.113-.042.167-.065.142-.06.281-.125.413-.193l.076-.038c.137-.074.269-.153.4-.235.053-.034.1-.07.153-.106.081-.056.162-.114.238-.174.054-.042.108-.085.159-.129.07-.058.135-.118.2-.178.05-.046.1-.093.149-.141.067-.067.13-.136.193-.205s.148-.168.217-.255c.054-.067.108-.133.159-.2s.094-.134.14-.2.073-.108.108-.163c.047-.073.091-.147.134-.222.028-.05.056-.1.084-.151.043-.081.087-.161.128-.244.016-.033.031-.066.046-.1a13.233,13.233,0,0,0,.68-7.3,2.978,2.978,0,0,0-.165-.435c4.59,2.973,12.333,2.2,17.715-.488h0l0,0q.472-.235.916-.49l.005,0h0a14.414,14.414,0,0,0,2.586-1.869A32.089,32.089,0,0,0,251.743,294.94Zm-44.967,17.2a2.169,2.169,0,0,1,.235-1.357C206.952,311.188,206.876,311.652,206.776,312.138Zm22.99,0c-.1-.486-.177-.95-.236-1.357A2.165,2.165,0,0,1,229.766,312.138Z" transform="translate(-166.795 -213.126)" fill="#6d233c" opacity="0.2" style="mix-blend-mode: multiply;isolation: isolate"></path><g id="Group_2999" data-name="Group 2999"><g id="Group_2909" data-name="Group 2909" transform="translate(67.546 52.24)"><path id="Path_21756" data-name="Path 21756" d="M284.237,272.58s8.213,2.738,11.1-5.627-7-23.879,14.754-28.291,32.4,22.206,22.815,24.488-15.059-12.929-20.229-8.366-3.194,7.909-5.779,15.058-20.382,11.407-25.7,3.65S284.237,272.58,284.237,272.58Z" transform="translate(-279.423 -238.17)" fill="#001233"></path><path id="Path_21757" data-name="Path 21757" d="M282.336,274.747c-5.323-7.757,3.042-.913,3.042-.913s8.213,2.738,11.1-5.627-7-23.88,14.754-28.291a21.541,21.541,0,0,1,20.289,6.166,21.642,21.642,0,0,0-21.43-7.421c-21.75,4.411-11.864,19.925-14.754,28.291s-11.1,5.627-11.1,5.627-8.365-6.844-3.042.913a7.856,7.856,0,0,0,1.279,1.435C282.429,274.866,282.378,274.811,282.336,274.747Z" transform="translate(-279.423 -238.17)" fill="#001233" style="mix-blend-mode: screen;isolation: isolate"></path><path id="Path_21758" data-name="Path 21758" d="M306.9,280.319c2.585-7.148.608-10.495,5.779-15.058s10.647,10.647,20.229,8.366c5.153-1.227,4.452-9.495-.679-16.187,2.081,9.478-4.084,6.3-12.4,3.107-9.126-3.5-12.624,3.042-13.689,9.126s-3.5,10.8-10.038,15.21c-4.082,2.753-5.912.47-6.712-1.636a10.578,10.578,0,0,1-5.152-.19s-8.365-6.844-3.042.913S304.314,287.469,306.9,280.319Z" transform="translate(-279.423 -248.647)" fill="#001233" opacity="0.4" style="mix-blend-mode: multiply;isolation: isolate"></path><g id="Group_2907" data-name="Group 2907" transform="translate(13.407 0.002)"><path id="Path_21759" data-name="Path 21759" d="M315.559,289.574c.006.188.01.374.012.559a17.823,17.823,0,0,0,3.936,1.678,12.176,12.176,0,0,0,1.407.395l.542.112.549.1a12.318,12.318,0,0,0,1.457.174l.975.086,1.093.006c.379-.007.771.021,1.167-.016l1.2-.1h0c.029-.163.056-.325.083-.485l-.126.006-1.179.051c-.388.023-.771-.018-1.141-.022l-1.065-.039-.948-.113a11.726,11.726,0,0,1-1.41-.208l-.53-.109-.529-.1a11.742,11.742,0,0,1-1.373-.345,18.011,18.011,0,0,1-4-1.566C315.641,289.622,315.6,289.6,315.559,289.574Z" transform="translate(-312.477 -266.121)" fill="#001233" style="mix-blend-mode: screen;isolation: isolate"></path><path id="Path_21760" data-name="Path 21760" d="M314.8,300.366l.692.251.335.118.384.093c.266.06.549.135.834.186a6.779,6.779,0,0,0,2.3.088,18.949,18.949,0,0,0-2.2-.557c-.267-.078-.528-.176-.776-.255l-.355-.12-.3-.138-.627-.281s-.063-.026-.168-.081l-.322-.161c-.052.215-.114.426-.181.634l.206.124C314.734,300.333,314.8,300.366,314.8,300.366Z" transform="translate(-311.857 -271.522)" fill="#001233" style="mix-blend-mode: screen;isolation: isolate"></path><path id="Path_21761" data-name="Path 21761" d="M329.37,299.84c-.633.016-1.055.014-1.055.014l-.289,0c-.183,0-.446.017-.759,0a17.069,17.069,0,0,1-2.3-.2,13.792,13.792,0,0,1-2.236-.576,4.7,4.7,0,0,0-1.013-.339,3.015,3.015,0,0,0,.91.584,10.982,10.982,0,0,0,2.243.8,15.671,15.671,0,0,0,2.362.357c.324.034.6.028.786.039l.3.011s.438-.017,1.088-.07c.364-.033.8-.084,1.252-.153.051-.192.1-.382.143-.569C330.278,299.791,329.778,299.824,329.37,299.84Z" transform="translate(-315.828 -271.1)" fill="#001233" style="mix-blend-mode: screen;isolation: isolate"></path><path id="Path_21762" data-name="Path 21762" d="M317.557,313.415l-.87-.155a10.763,10.763,0,0,1-1.281-.312l-.482-.133-.47-.164-.538-.189-.332-.117-.353-.165a14.381,14.381,0,0,1-3.379-2.094l-.738-.67c-.1.105-.2.209-.31.306l.731.726a14.483,14.483,0,0,0,3.435,2.3l.364.183.343.132.557.215.487.183.508.126a10.855,10.855,0,0,0,1.347.286l.634.093q.478-.238.926-.5C317.939,313.457,317.743,313.44,317.557,313.415Z" transform="translate(-308.805 -276.909)" fill="#001233" style="mix-blend-mode: screen;isolation: isolate"></path><path id="Path_21763" data-name="Path 21763" d="M383.182,256.541a20.281,20.281,0,0,1-.585,2.587c-.094.36-.224.674-.323.957a7.025,7.025,0,0,1-.292.719c-.087.2-.156.351-.2.456a1.081,1.081,0,0,1-.079.156l-.309.6a12.547,12.547,0,0,1-.955,1.49,18.7,18.7,0,0,1-3.9,3.753c-.947.716-1.924,1.394-2.813,2.024l.282.244c.89-.578,1.863-1.206,2.815-1.88a18.777,18.777,0,0,0,4.113-3.762,9.837,9.837,0,0,0,.61-.855c.165-.266.326-.487.427-.689.214-.4.339-.622.339-.622a1.179,1.179,0,0,0,.08-.167c.046-.112.116-.276.2-.483a7.286,7.286,0,0,0,.29-.76c.1-.3.225-.629.314-1a19.676,19.676,0,0,0,.459-2.15C383.5,256.948,383.345,256.743,383.182,256.541Z" transform="translate(-344.103 -248.161)" fill="#001233" style="mix-blend-mode: screen;isolation: isolate"></path><path id="Path_21764" data-name="Path 21764" d="M365.506,255.146a29.434,29.434,0,0,0,1.989-4.426c.238-.619.363-1.161.484-1.529s.174-.583.174-.583.045-.216.121-.594.212-.913.291-1.57a21.961,21.961,0,0,0,.227-2.245c.01-.412.068-.837.042-1.272s-.025-.873-.038-1.314c-.006-.1-.019-.2-.028-.3-.16-.064-.321-.126-.482-.187.014.171.027.341.031.512,0,.43,0,.86-.007,1.284.013.423-.057.838-.079,1.24a21.854,21.854,0,0,1-.283,2.183c-.093.638-.25,1.155-.322,1.524s-.131.576-.131.576l-.157.573c-.11.362-.218.894-.435,1.505a30.4,30.4,0,0,1-1.819,4.4c-.373.7-.767,1.39-1.161,2.033q.152.116.308.239C364.664,256.55,365.1,255.856,365.506,255.146Z" transform="translate(-338.773 -239.778)" fill="#001233" style="mix-blend-mode: screen;isolation: isolate"></path><path id="Path_21765" data-name="Path 21765" d="M348.106,248.089l-.081-.578c-.084-.364-.151-.892-.331-1.506-.081-.308-.166-.644-.292-.986s-.237-.707-.391-1.078a8.13,8.13,0,0,0-.5-1.127,9.712,9.712,0,0,0-.635-1.1,21.894,21.894,0,0,0-1.551-2.069c-.135.03-.267.062-.4.093a24.369,24.369,0,0,1,1.542,2.229,9.507,9.507,0,0,1,.573,1.078,7.67,7.67,0,0,1,.44,1.095c.136.356.244.714.348,1.054s.184.663.255.961c.157.595.209,1.108.282,1.459.041.357.065.56.065.56a17.95,17.95,0,0,1,.178,2.058,28.013,28.013,0,0,1-.23,4.559c-.055.443-.12.884-.191,1.317.169-.164.346-.329.534-.5.047-.25.092-.5.133-.752a27.188,27.188,0,0,0,.381-4.644A17.69,17.69,0,0,0,348.106,248.089Z" transform="translate(-327.902 -238.974)" fill="#001233" style="mix-blend-mode: screen;isolation: isolate"></path><path id="Path_21766" data-name="Path 21766" d="M386.424,253.052s-.091.392-.257.974-.417,1.354-.7,2.113c-.559,1.528-1.316,2.975-1.245,3.02a10.936,10.936,0,0,0,1.688-2.833c.35-.75.654-1.521.858-2.11s.318-.99.317-.99.1-.4.209-1.017c.009-.049.017-.108.025-.161-.171-.175-.345-.347-.523-.518-.037.2-.077.387-.116.554C386.538,252.669,386.424,253.052,386.424,253.052Z" transform="translate(-349.805 -245.437)" fill="#001233" style="mix-blend-mode: screen;isolation: isolate"></path><path id="Path_21767" data-name="Path 21767" d="M372.266,272.747a10.9,10.9,0,0,0-1.367,1.325c-.663.67-1.383,1.258-1.383,1.258l-.422.391c-.106.091-.229.2-.359.3l.437.4c.113-.076.22-.151.315-.217l.482-.372a14.515,14.515,0,0,0,1.29-1.447A5.241,5.241,0,0,0,372.266,272.747Z" transform="translate(-341.39 -256.97)" fill="#001233" style="mix-blend-mode: screen;isolation: isolate"></path><path id="Path_21768" data-name="Path 21768" d="M356.515,239.206c.084.5.126.833.126.833s.062.333.132.838.132,1.185.172,1.87c.073,1.369.016,2.753.112,2.763a9.963,9.963,0,0,0,.369-2.766,19.254,19.254,0,0,0-.03-1.93c-.036-.527-.083-.878-.083-.878s-.064-.347-.186-.86c-.065-.265-.152-.574-.258-.9-.192,0-.385,0-.579.005C356.386,238.554,356.463,238.91,356.515,239.206Z" transform="translate(-334.624 -238.175)" fill="#001233" style="mix-blend-mode: screen;isolation: isolate"></path></g><g id="Group_2908" data-name="Group 2908" transform="translate(23.973 3.222)" style="mix-blend-mode: screen;isolation: isolate"><path id="Path_21769" data-name="Path 21769" d="M335.6,253c.3.613-.248,1.5-1.229,1.985s-2.021.378-2.322-.236.247-1.5,1.229-1.985S335.294,252.389,335.6,253Z" transform="translate(-331.961 -249.164)" fill="#001233"></path><path id="Path_21770" data-name="Path 21770" d="M348.224,246.464c.284,1.04-.833,2.252-2.5,2.708s-3.245-.021-3.528-1.06.834-2.252,2.5-2.707S347.94,245.423,348.224,246.464Z" transform="translate(-337.503 -245.231)" fill="#001233"></path></g></g><g id="Group_2926" data-name="Group 2926" transform="translate(28.513 63.874)"><g id="Group_2913" data-name="Group 2913" transform="translate(0.93)"><g id="Group_2912" data-name="Group 2912"><path id="Path_21771" data-name="Path 21771" d="M204.194,264.731s-13.233,18.708-6.236,26.312,30.516,7.249,38.633-2.129c6.844-7.909-8.213-25.248-8.213-25.248Z" transform="translate(-195.916 -263.666)" fill="#001233"></path><path id="Path_21772" data-name="Path 21772" d="M199.25,292.108c-7-7.6,6.236-26.312,6.236-26.312l23.784-1.047c-.553-.69-.893-1.083-.893-1.083l-24.183,1.065s-13.233,18.708-6.236,26.312a10.753,10.753,0,0,0,1.717,1.481C199.531,292.386,199.382,292.252,199.25,292.108Z" transform="translate(-195.916 -263.666)" fill="#001233" style="mix-blend-mode: screen;isolation: isolate"></path><path id="Path_21773" data-name="Path 21773" d="M209.8,264.731s-1.537,2.173-3.286,5.338a9.03,9.03,0,0,0,.776,6.6c2.955,5.191,8.095,12.364,8.3,19.38a41.775,41.775,0,0,0,14.14-.636,27.264,27.264,0,0,1,3.267-17.528c2.866-4.88,3.284-8.909,3.007-11.691-1.185-1.57-2.018-2.53-2.018-2.53Z" transform="translate(-201.519 -263.666)" fill="#22708d"></path><g id="Group_2911" data-name="Group 2911" transform="translate(11.794 6.653)"><g id="Group_2910" data-name="Group 2910"><path id="Path_21774" data-name="Path 21774" d="M229.616,290.454c0,.016-.112.066-.336.109a2.474,2.474,0,0,1-.966-.03,2.721,2.721,0,0,1-1.279-.676,2.55,2.55,0,0,1-.53-.691,1.436,1.436,0,0,1-.1-.209c-.038-.1-.035-.077-.047-.119a.794.794,0,0,1-.041-.161l-.005-.023-.019.025-.036.049-.066.092-.026.047-.045.078a2.14,2.14,0,0,0-.141.249l-.15.313-.214.48-.105.241-.053.121-.026.06-.013.031c0,.007-.01-.015-.016-.02l-.259-.448c-.145-.255-.288-.509-.429-.758l-.27-.519c-.169-.345-.322-.681-.451-1a10.138,10.138,0,0,1-.517-1.631c-.051-.206-.078-.373-.1-.487l-.029-.177s-.021-.182-.042-.5a6.3,6.3,0,0,1,.073-1.339l.036-.21.017-.1.01-.033c.012-.038.031-.107.042-.132a.429.429,0,0,0,.028-.067l-.057.022c-.012,0-.023.012-.036.018a1.072,1.072,0,0,0-.094.062c-.138.087-.265.2-.4.3-.075.061-.113.086-.218.177l-.331.287-.163.142-.082.071-.041.036c-.015.016-.015-.026-.023-.036l-.148-.416a3.336,3.336,0,0,1-.16-1.272,5.933,5.933,0,0,1,.166-1.04,7.481,7.481,0,0,1,.655-1.718,3.556,3.556,0,0,1,1.1-1.4,12.1,12.1,0,0,0-.857,1.513,7.868,7.868,0,0,0-.522,1.684,5.755,5.755,0,0,0-.1.974,2.983,2.983,0,0,0,.089.785l.03.063c.013,0,.035-.032.05-.045l.047-.052.181-.157c.136-.115.266-.236.411-.337.048-.039.2-.137.315-.217s.243-.167.371-.239l.754-.445c.012-.005.038-.027.04-.019l-.012.046-.024.091-.049.182-.1.36c-.071.251-.141.5-.208.733l-.052.179c-.013.052-.011.071-.018.107-.009.065-.017.127-.026.19a5.734,5.734,0,0,0-.027,1.206c.027.292.051.459.051.459l.022.162c.013.106.033.26.075.453a9.772,9.772,0,0,0,.438,1.549c.112.31.247.637.4.975l.242.512.107.214.028.063.034.073c.011,0,.021-.034.033-.052l.163-.3a2.6,2.6,0,0,1,.167-.266l.12-.167.141-.193c.1-.122.2-.236.3-.351l.149-.17.073-.084.051-.025c.028.268.065.535.112.8a.952.952,0,0,0,.041.184l.042.128a1.1,1.1,0,0,0,.074.183,2.284,2.284,0,0,0,.426.627,2.576,2.576,0,0,0,1.108.689A4.705,4.705,0,0,0,229.616,290.454Z" transform="translate(-221.763 -278.246)" fill="#22708d" style="mix-blend-mode: screen;isolation: isolate"></path></g></g></g><path id="Path_21775" data-name="Path 21775" d="M236.538,276.337c-1.141,3.888-2.838,8.09-5.5,6.95-3.233-1.386-.511-9.072,1.6-13.925-.8-1.209-1.579-2.281-2.246-3.163v0c-.1-.127-.185-.243-.277-.363l-.083-.109c-.119-.155-.231-.3-.341-.439-.022-.03-.046-.061-.069-.089-.117-.148-.225-.286-.329-.415l-.031-.039c-.549-.686-.887-1.076-.887-1.076l-24.183,1.065s-.868,1.227-2.042,3.181c1.736.853,5.948,2.335,13.639,1.838a61.479,61.479,0,0,0,12.138-2.07,40.311,40.311,0,0,1-2.365,10.587c-2.129,4.868-6.769,12.548-14.222,8.745-5.931-3.027-10.267-11.9-9.558-18.483-.8,1.356-1.695,2.995-2.546,4.78,1.1,5.42,6.587,12.814,2.522,14.387-2.771,1.073-4.647-1.872-5.709-4.607-.391,3.067.027,5.911,1.907,7.953,7,7.605,30.516,7.249,38.633-2.129C239.384,285.686,238.529,280.886,236.538,276.337Z" transform="translate(-195.917 -263.666)" fill="#001233" opacity="0.4" style="mix-blend-mode: multiply;isolation: isolate"></path></g><g id="Group_2919" data-name="Group 2919" transform="translate(0 23.562)"><g id="Group_2917" data-name="Group 2917"><path id="Path_21776" data-name="Path 21776" d="M194.112,318.093c-.113.394-1.749,9.81,5.551,10.723s2.89-5.4,5.324-5.4,1.521-5.856-2.205-7.376S194.872,315.431,194.112,318.093Z" transform="translate(-193.878 -315.304)" fill="#22708d"></path><path id="Path_21777" data-name="Path 21777" d="M203.546,316.328a9.962,9.962,0,0,0-1.584-.494c3.763,2.1,3.137,8.84,1.679,10.152-1.711,1.54-4.411-3.063-4.411-3.063s1.046,2.835-.323,3.633-2.354-3.468-2.354-3.468-.155,2.042-.726,2.27c-.154.062-.345-.083-.542-.323a5.928,5.928,0,0,0,5.143,4.069c7.3.913,2.89-5.4,5.324-5.4S207.272,317.848,203.546,316.328Z" transform="translate(-194.643 -315.592)" fill="#001233" opacity="0.2" style="mix-blend-mode: multiply;isolation: isolate"></path><g id="Group_2916" data-name="Group 2916" transform="translate(1.799 6.059)"><g id="Group_2914" data-name="Group 2914" transform="translate(2.675)" style="mix-blend-mode: screen;isolation: isolate"><path id="Path_21778" data-name="Path 21778" d="M209.937,329.419a11.668,11.668,0,0,1-.277,4.1,6.88,6.88,0,0,1-.494,1.471,2.448,2.448,0,0,1-.948,1.117,1.475,1.475,0,0,1-1.131.128,2.107,2.107,0,0,1-.387-.146l-.334-.2a3.987,3.987,0,0,1-.731-.685,7.482,7.482,0,0,1-1.269-2.586,18.6,18.6,0,0,1-.571-2.756,4.933,4.933,0,0,1-.095-1.272,5.338,5.338,0,0,1,.355,1.223,25.58,25.58,0,0,0,.767,2.652,7.223,7.223,0,0,0,1.287,2.329,3.408,3.408,0,0,0,.628.543l.266.149a1.692,1.692,0,0,0,.262.113.83.83,0,0,0,.658-.04,1.9,1.9,0,0,0,.741-.822,6.687,6.687,0,0,0,.529-1.335C209.756,331.466,209.847,329.411,209.937,329.419Z" transform="translate(-203.683 -328.582)" fill="#22708d"></path></g><g id="Group_2915" data-name="Group 2915" transform="translate(0 0.761)" style="mix-blend-mode: screen;isolation: isolate"><path id="Path_21779" data-name="Path 21779" d="M202.948,336.409c.031.016-.184.3-.678.345a3.119,3.119,0,0,1-1.6-.463,8.222,8.222,0,0,1-1.347-.94c-.172-.147-.306-.27-.407-.371a1.1,1.1,0,0,1-.147-.162l-.12-.182a3.153,3.153,0,0,1-.28-.486,5.3,5.3,0,0,1-.5-1.585,4.448,4.448,0,0,1,.065-1.64c.115-.433.267-.691.3-.676.053.019-.01.3-.04.717a5.136,5.136,0,0,0,.145,1.506,5.189,5.189,0,0,0,.578,1.376,2.711,2.711,0,0,0,.269.4l.108.142a.759.759,0,0,0,.109.141c.073.084.194.216.342.362a8.827,8.827,0,0,0,1.174.991,3.256,3.256,0,0,0,1.354.608C202.669,336.536,202.914,336.361,202.948,336.409Z" transform="translate(-197.821 -330.249)" fill="#22708d"></path></g></g></g><g id="Group_2918" data-name="Group 2918" transform="translate(0.953 1.456)" style="mix-blend-mode: screen;isolation: isolate"><path id="Path_21780" data-name="Path 21780" d="M196.724,322.865c.185.105.2.431.031.727s-.455.45-.641.345-.2-.431-.03-.727S196.539,322.76,196.724,322.865Z" transform="translate(-195.966 -320.853)" fill="#22708d"></path><path id="Path_21781" data-name="Path 21781" d="M198.946,318.595c.255.218.179.726-.171,1.136s-.84.562-1.1.343-.179-.726.171-1.135S198.69,318.376,198.946,318.595Z" transform="translate(-196.815 -318.495)" fill="#22708d"></path></g></g><g id="Group_2925" data-name="Group 2925" transform="translate(31.067 23.562)"><g id="Group_2923" data-name="Group 2923"><path id="Path_21782" data-name="Path 21782" d="M274.193,318.093c.112.394,1.749,9.81-5.552,10.723s-2.89-5.4-5.323-5.4-1.521-5.856,2.206-7.376S273.432,315.431,274.193,318.093Z" transform="translate(-261.964 -315.304)" fill="#22708d"></path><path id="Path_21783" data-name="Path 21783" d="M265.524,316.328a9.913,9.913,0,0,1,1.583-.494c-3.764,2.1-3.137,8.84-1.679,10.152,1.711,1.54,4.41-3.063,4.41-3.063s-1.045,2.835.324,3.633,2.354-3.468,2.354-3.468.155,2.042.726,2.27c.153.062.345-.083.542-.323a5.928,5.928,0,0,1-5.143,4.069c-7.3.913-2.89-5.4-5.323-5.4S261.8,317.848,265.524,316.328Z" transform="translate(-261.964 -315.592)" fill="#001233" opacity="0.2" style="mix-blend-mode: multiply;isolation: isolate"></path><g id="Group_2922" data-name="Group 2922" transform="translate(1.659 6.059)"><g id="Group_2920" data-name="Group 2920" style="mix-blend-mode: screen;isolation: isolate"><path id="Path_21784" data-name="Path 21784" d="M265.675,329.419a11.663,11.663,0,0,0,.277,4.1,6.929,6.929,0,0,0,.494,1.471,2.446,2.446,0,0,0,.948,1.117,1.474,1.474,0,0,0,1.13.128,2.1,2.1,0,0,0,.387-.146l.334-.2a3.958,3.958,0,0,0,.731-.685,7.491,7.491,0,0,0,1.269-2.586,18.587,18.587,0,0,0,.57-2.756,4.946,4.946,0,0,0,.1-1.272,5.348,5.348,0,0,0-.355,1.223,25.339,25.339,0,0,1-.767,2.652,7.214,7.214,0,0,1-1.287,2.329,3.394,3.394,0,0,1-.627.543l-.267.149a1.691,1.691,0,0,1-.262.113.83.83,0,0,1-.658-.04,1.89,1.89,0,0,1-.741-.822,6.656,6.656,0,0,1-.529-1.335C265.856,331.466,265.765,329.411,265.675,329.419Z" transform="translate(-265.599 -328.582)" fill="#22708d"></path></g><g id="Group_2921" data-name="Group 2921" transform="translate(3.875 0.761)" style="mix-blend-mode: screen;isolation: isolate"><path id="Path_21785" data-name="Path 21785" d="M274.094,336.409c-.031.016.184.3.678.345a3.122,3.122,0,0,0,1.6-.463,8.234,8.234,0,0,0,1.346-.94c.172-.147.307-.27.406-.371a1.092,1.092,0,0,0,.147-.162l.119-.182a3.158,3.158,0,0,0,.28-.486,5.292,5.292,0,0,0,.5-1.585,4.45,4.45,0,0,0-.065-1.64c-.116-.433-.267-.691-.3-.676-.054.019.01.3.04.717a5,5,0,0,1-.723,2.882,2.718,2.718,0,0,1-.269.4l-.108.142a.762.762,0,0,1-.11.141c-.072.084-.194.216-.341.362a8.86,8.86,0,0,1-1.174.991,3.261,3.261,0,0,1-1.354.608C274.373,336.536,274.128,336.361,274.094,336.409Z" transform="translate(-274.091 -330.249)" fill="#22708d"></path></g></g></g><g id="Group_2924" data-name="Group 2924" transform="translate(9.229 1.456)" style="mix-blend-mode: screen;isolation: isolate"><path id="Path_21786" data-name="Path 21786" d="M285.35,322.865c-.185.105-.2.431-.03.727s.454.45.64.345.2-.431.031-.727S285.535,322.76,285.35,322.865Z" transform="translate(-283.828 -320.853)" fill="#22708d"></path><path id="Path_21787" data-name="Path 21787" d="M282.34,318.595c-.255.218-.178.726.171,1.136s.84.562,1.1.343.179-.726-.171-1.135S282.6,318.376,282.34,318.595Z" transform="translate(-282.19 -318.495)" fill="#22708d"></path></g></g></g><g id="Group_2998" data-name="Group 2998"><g id="Group_2936" data-name="Group 2936" transform="translate(5.4 3.606)"><g id="Group_2927" data-name="Group 2927" transform="translate(7.985)"><path id="Path_21788" data-name="Path 21788" d="M160.723,168.277s1.711-34.678,7.3-36.5,16.312,10.038,17.567,14.944S160.723,168.277,160.723,168.277Z" transform="translate(-160.723 -131.584)" fill="#001233"></path><path id="Path_21789" data-name="Path 21789" d="M168.708,133.371c4.952-1.617,13.926,7.506,16.784,13.02-1.616-5.082-12-16.4-17.468-14.617-5.59,1.825-7.3,36.5-7.3,36.5s.292-.186.808-.522C162.008,160.2,163.957,134.922,168.708,133.371Z" transform="translate(-160.723 -131.584)" fill="#001233" style="mix-blend-mode: screen;isolation: isolate"></path><path id="Path_21790" data-name="Path 21790" d="M163.723,176.921s1.4-28.326,5.963-29.817,13.325,8.2,14.35,12.207S163.723,176.921,163.723,176.921Z" transform="translate(-162.354 -139.939)" fill="#22708d"></path><path id="Path_21791" data-name="Path 21791" d="M178.639,174.3c6.148-4.334,14.144-10.528,13.507-13.018-.694-2.71-4.926-8.018-9-10.71C180.552,154.258,179.208,167.043,178.639,174.3Z" transform="translate(-170.464 -141.906)" fill="#22708d" style="mix-blend-mode: multiply;isolation: isolate"></path><path id="Path_21792" data-name="Path 21792" d="M185.591,152.928c-.623-2.434-3.578-6.582-7.08-9.92,1.4,3.764,1.242,8.054-3.757,11.4-5.778,3.872-9.827,3.409-12.4,1.938-1.181,9.094-1.628,18.138-1.628,18.138S186.846,157.833,185.591,152.928Z" transform="translate(-160.723 -137.796)" fill="#001233" opacity="0.4" style="mix-blend-mode: multiply;isolation: isolate"></path></g><g id="Group_2934" data-name="Group 2934" transform="translate(0 14.102)"><g id="Group_2929" data-name="Group 2929" transform="translate(13.001)" style="mix-blend-mode: screen;isolation: isolate"><g id="Group_2928" data-name="Group 2928"><path id="Path_21793" data-name="Path 21793" d="M171.719,162.494a19.555,19.555,0,0,1,2.059,1.518l2.072,1.49s.995.8,1.941,1.67a8.557,8.557,0,0,1,1.685,1.938,22.771,22.771,0,0,1-2-1.572c-1.008-.761-2.043-1.5-2.043-1.5s-1-.8-1.962-1.657A9.256,9.256,0,0,1,171.719,162.494Z" transform="translate(-171.716 -162.49)" fill="#22708d"></path></g></g><g id="Group_2931" data-name="Group 2931" transform="translate(0 0.575)" style="mix-blend-mode: screen;isolation: isolate"><g id="Group_2930" data-name="Group 2930"><path id="Path_21794" data-name="Path 21794" d="M143.223,164.092a7.57,7.57,0,0,1,1.68-.287,16.334,16.334,0,0,1,3.76.124,17.6,17.6,0,0,1,3.644,1c.488.173.867.378,1.146.494s.429.2.429.2l.41.231c.258.151.639.347,1.065.631a32.239,32.239,0,0,1,3.038,2.177c1.057.849,2.067,1.748,2.808,2.438a8.652,8.652,0,0,1,1.185,1.206,9.254,9.254,0,0,1-1.357-1.005c-.793-.626-1.846-1.466-2.928-2.257a35.1,35.1,0,0,0-3.069-2.022c-.425-.264-.8-.442-1.056-.58l-.4-.213s-.147-.078-.41-.205-.628-.332-1.093-.514a18,18,0,0,0-3.489-1.107,18.508,18.508,0,0,0-3.663-.332A11.2,11.2,0,0,1,143.223,164.092Z" transform="translate(-143.223 -163.75)" fill="#22708d"></path></g></g><g id="Group_2933" data-name="Group 2933" transform="translate(9.809 8.738)" style="mix-blend-mode: screen;isolation: isolate"><g id="Group_2932" data-name="Group 2932"><path id="Path_21795" data-name="Path 21795" d="M164.721,183.4a5.88,5.88,0,0,1,1.792-1.045,11.3,11.3,0,0,1,1.355-.49c.381-.109.642-.162.642-.162s.264-.033.661-.057a6.317,6.317,0,0,1,1.459.1,4.279,4.279,0,0,1,1.356.531c.333.215.516.405.491.437s-.262-.069-.608-.2a5.276,5.276,0,0,0-1.309-.292,6.693,6.693,0,0,0-1.334.046c-.362.056-.6.1-.6.1s-.244.031-.61.1-.852.191-1.336.332A13.2,13.2,0,0,1,164.721,183.4Z" transform="translate(-164.72 -181.639)" fill="#22708d"></path></g></g></g><g id="Group_2935" data-name="Group 2935" transform="translate(17.146 3.577)" style="mix-blend-mode: screen;isolation: isolate"><path id="Path_21796" data-name="Path 21796" d="M182.972,140.586c-.134.37-.723.5-1.315.282s-.964-.689-.83-1.059.723-.5,1.315-.282S183.107,140.216,182.972,140.586Z" transform="translate(-180.8 -139.423)" fill="#001233"></path><path id="Path_21797" data-name="Path 21797" d="M190.328,143.45c-.319.533-1.268.553-2.122.044s-1.288-1.356-.969-1.889,1.268-.553,2.122-.044S190.647,142.917,190.328,143.45Z" transform="translate(-184.243 -140.385)" fill="#001233"></path></g></g><g id="Group_2953" data-name="Group 2953" transform="translate(28.089)"><g id="Group_2946" data-name="Group 2946" transform="translate(28.389)"><g id="Group_2945" data-name="Group 2945"><g id="Group_2938" data-name="Group 2938"><path id="Path_21798" data-name="Path 21798" d="M288.792,136.411a6.711,6.711,0,0,0-1.086-2.957,8.628,8.628,0,0,0-2.606-2.532,9.277,9.277,0,0,0-3.437-1.316,6.632,6.632,0,0,0-1.771-.067l-.043.005c-.029-.064-.055-.132-.085-.2-.167-.357-.349-.7-.541-1.028a12.066,12.066,0,0,0-1.275-1.8,5.867,5.867,0,0,0-1.527-1.3c-.038-.022-.077-.039-.115-.06-.216-.241-1.217-.647-4.155-1.331-6.541-1.521-16.731,9.43-16.731,9.43-3.194,4.107,24.792,17.8,19.317,9.582-4.019-6.029-1.647-12.545-.1-15.586a4.084,4.084,0,0,1,3.87,2.6c-.083.032-.167.062-.248.1l-.362.178c-.116.063-.224.143-.33.214a3.632,3.632,0,0,0-.565.473,3.915,3.915,0,0,0-.7.98,4.482,4.482,0,0,0-.285.706,1.534,1.534,0,0,0-.068.253l-.072.455a3.146,3.146,0,0,0,.167,1.49,2.745,2.745,0,0,0,1.727,1.654,2.372,2.372,0,0,0,1.562-.068,2.77,2.77,0,0,0,1.215-1l-.093.11a3.569,3.569,0,0,0,.281-.384c.06-.127.115-.26.165-.393.031-.122.057-.245.081-.369s.021-.23.031-.346a5.493,5.493,0,0,0-.115-1.246,11.665,11.665,0,0,0-.381-1.38,5.221,5.221,0,0,1,.932,0,7.985,7.985,0,0,1,2.926.885,7.722,7.722,0,0,1,2.407,1.952,6.294,6.294,0,0,1,1.229,2.426,8.642,8.642,0,0,1,.212,1.986c-.026.492-.018.79.052.807s.193-.249.355-.749A6.363,6.363,0,0,0,288.792,136.411Zm-9.463-2.623c-.01.056-.014.119-.027.167a1.291,1.291,0,0,0-.038.125.171.171,0,0,0-.037.067c-.009.006-.031-.012,0,.022l-.106.1c-.324.372-.559.381-.773.3a.856.856,0,0,1-.453-.532,1.2,1.2,0,0,1-.014-.56c.039-.179.06-.276.06-.276a2.558,2.558,0,0,1,.161-.535,2.029,2.029,0,0,1,.959-1.013,10.487,10.487,0,0,1,.25,1.265A3.891,3.891,0,0,1,279.329,133.788Z" transform="translate(-255.164 -123.681)" fill="#3bba91"></path><g id="Group_2937" data-name="Group 2937" transform="translate(0 2.719)" opacity="0.5"><path id="Path_21799" data-name="Path 21799" d="M274.736,146.078c-4.019-6.029-1.647-12.545-.1-15.586a4.084,4.084,0,0,1,3.87,2.6c-.083.032-.167.062-.248.1l-.362.178a11.461,11.461,0,0,1,1.94-.616c-.025-.056-.048-.113-.073-.168-.12-.258-.255-.5-.39-.742-1.115-.516-2.044-1.671-3.167-2.078a4.876,4.876,0,0,0-3.491.635c-.96.546-1.864,1.185-2.79,1.785-1.885,1.221-4.035,2.594-6.368,2.558s-2.823-1.576-2.68-3.185a51.741,51.741,0,0,0-5.458,4.934C252.225,140.6,280.211,154.291,274.736,146.078Z" transform="translate(-255.164 -129.639)" fill="#3bba91" style="mix-blend-mode: multiply;isolation: isolate"></path><path id="Path_21800" data-name="Path 21800" d="M307.876,143.941c.031-.122.057-.245.081-.369s.021-.229.031-.346a5.493,5.493,0,0,0-.115-1.246,10.958,10.958,0,0,0-.312-1.158,5.337,5.337,0,0,0-1.482.348,10.313,10.313,0,0,1,.206,1.071,3.892,3.892,0,0,1,.021.867c-.011.056-.014.119-.027.167a1.293,1.293,0,0,0-.038.125.17.17,0,0,0-.037.067c-.009.006-.031-.012,0,.022l-.106.1c-.324.372-.559.381-.773.3a.856.856,0,0,1-.453-.532,1.2,1.2,0,0,1-.014-.56c.039-.179.06-.276.06-.276a2.554,2.554,0,0,1,.162-.535,1.632,1.632,0,0,1,.106-.214c-.75.953-.3,2.591.17,3.994a2.312,2.312,0,0,0,.956-.16,2.77,2.77,0,0,0,1.215-1l-.094.11a3.556,3.556,0,0,0,.282-.384C307.771,144.207,307.826,144.074,307.876,143.941Z" transform="translate(-282.142 -135.719)" fill="#3bba91" style="mix-blend-mode: multiply;isolation: isolate"></path></g></g><g id="Group_2944" data-name="Group 2944" transform="translate(3.778 0.617)" style="mix-blend-mode: screen;isolation: isolate"><g id="Group_2939" data-name="Group 2939" transform="translate(0 2.345)"><path id="Path_21801" data-name="Path 21801" d="M270.416,130.207c.046.139-.914.611-1.809,1.161-.439.3-.888.562-1.2.8l-.529.381-.545.348c-.339.2-.745.515-1.176.812-.83.631-1.585,1.373-1.7,1.284s.469-1.01,1.219-1.819a13.874,13.874,0,0,1,1.1-1.032l.533-.438.605-.335a14.864,14.864,0,0,1,1.366-.651A4.866,4.866,0,0,1,270.416,130.207Z" transform="translate(-263.444 -130.173)" fill="#3bba91"></path></g><g id="Group_2940" data-name="Group 2940" transform="translate(8.321 0.464)"><path id="Path_21802" data-name="Path 21802" d="M283.525,126.483c-.028.138-.269.258-.459.336-.193.127-.357.212-.357.212a3.988,3.988,0,0,1-.434.007c-.232.022-.5.021-.575-.1s.079-.348.268-.553a3.709,3.709,0,0,1,.461-.335,3.267,3.267,0,0,1,.593.049C283.313,126.2,283.553,126.346,283.525,126.483Z" transform="translate(-281.681 -126.051)" fill="#3bba91"></path></g><g id="Group_2941" data-name="Group 2941" transform="translate(11.761)"><path id="Path_21803" data-name="Path 21803" d="M292.187,126.158c-.09.116-.465-.01-.819-.065a5.358,5.358,0,0,0-.691-.056,6.858,6.858,0,0,0-.67-.193c-.355-.075-.752-.117-.786-.257s.332-.349.756-.464a3.543,3.543,0,0,1,.88-.09,3.231,3.231,0,0,1,.8.4C292.023,125.7,292.27,126.055,292.187,126.158Z" transform="translate(-289.219 -125.033)" fill="#3bba91"></path></g><g id="Group_2942" data-name="Group 2942" transform="translate(18.717 5.564)"><path id="Path_21804" data-name="Path 21804" d="M311.2,138.606c-.043.064-.256-.008-.565-.089a7.8,7.8,0,0,0-1.133-.226,9.141,9.141,0,0,0-1.661-.045,9.4,9.4,0,0,0-2.8.193c-.314.064-.532.118-.569.052s.125-.23.415-.418a4.861,4.861,0,0,1,1.149-.521,7.845,7.845,0,0,1,1.814-.326,7.393,7.393,0,0,1,1.82.363,4.358,4.358,0,0,1,1.141.57C311.09,138.364,311.235,138.554,311.2,138.606Z" transform="translate(-304.463 -137.227)" fill="#3bba91"></path></g><g id="Group_2943" data-name="Group 2943" transform="translate(26.259 7.072)"><path id="Path_21805" data-name="Path 21805" d="M321.669,141.315a.8.8,0,0,1-.41.024,1.538,1.538,0,0,1-.233-.049,1.743,1.743,0,0,1-.029-.25.534.534,0,0,1,.1-.41.51.51,0,0,1,.415-.093,1.231,1.231,0,0,1,.275.076,1.3,1.3,0,0,1,.051.3A.41.41,0,0,1,321.669,141.315Z" transform="translate(-320.994 -140.531)" fill="#3bba91"></path></g></g></g></g><g id="Group_2952" data-name="Group 2952" transform="translate(0 7.066)"><g id="Group_2947" data-name="Group 2947" transform="translate(0.363 6.465)"><path id="Path_21806" data-name="Path 21806" d="M196.583,155.911s-4.444.941-2.215,5.059c0,0,11.349-4.371,27.88-1.737s26.238,22.194,26.238,22.194,2.634.224,2.431-4.021-11.815-21.958-24.94-23.514S198.006,154.368,196.583,155.911Z" transform="translate(-193.743 -153.334)" fill="url(#linear-gradient-18)"></path></g><g id="Group_2948" data-name="Group 2948"><path id="Path_21807" data-name="Path 21807" d="M196.583,155.911s-4.444.941-2.215,5.059c0,0,11.349-4.371,27.88-1.737s26.238,22.194,26.238,22.194,2.634.224,2.431-4.021-11.815-21.958-24.94-23.514S198.006,154.368,196.583,155.911Z" transform="translate(-193.38 -146.87)" fill="#fbdba8" opacity="0.5" style="mix-blend-mode: screen;isolation: isolate"></path><path id="Path_21808" data-name="Path 21808" d="M249.388,161.528a29.453,29.453,0,0,0-2.633-6.759,17.383,17.383,0,0,0-4.322-6.079c-.17-.15-.391-.359-.645-.588-1.305-1.392-2.815-2.39-3.841-.781-.988-1.124-5.077-6.059-6.72-2.922-.753-2.414-3.531-3.055-5.961-2.885-.264.019-2.743.579-2.755.567-5.093-5.734-15.149-1.753-20.869,1.292a35.482,35.482,0,0,0-6.5,4.433c-.525.453-1.529,1.9-2.2,2.112.01,0,14.464-4.624,29.194-.645,12.123,3.275,21.283,10.264,26.674,20.842a8.811,8.811,0,0,0,1.4,2.374c-.084-1.817.068-3.633.1-5.449a28.8,28.8,0,0,0-.879-5.23C249.422,161.716,249.406,161.622,249.388,161.528Z" transform="translate(-192.948 -139.166)" fill="url(#linear-gradient-19)"></path></g><g id="Group_2951" data-name="Group 2951" transform="translate(19.972 1.967)" opacity="0.6"><g id="Group_2949" data-name="Group 2949"><path id="Path_21809" data-name="Path 21809" d="M255.125,155.883c-.077-.019.124-.935.262-2.321a14.636,14.636,0,0,0-.262-5,6.236,6.236,0,0,0-1.111-2.311,4.388,4.388,0,0,0-1.722-1.3,5.623,5.623,0,0,0-1.505-.387c-.383-.042-.607-.047-.606-.047l-.609-.042a13.293,13.293,0,0,0-1.614.08,18.522,18.522,0,0,0-4.806,1.324,29.114,29.114,0,0,0-4.478,2.355,20.786,20.786,0,0,1-1.954,1.26,7.909,7.909,0,0,1,1.726-1.585,24.791,24.791,0,0,1,4.414-2.69,18.569,18.569,0,0,1,4.972-1.6,13.8,13.8,0,0,1,1.749-.148l.67.024s.244.013.673.074a6.518,6.518,0,0,1,1.75.519,5.24,5.24,0,0,1,2.007,1.638,6.9,6.9,0,0,1,1.143,2.659,13.807,13.807,0,0,1-.047,5.228A7.606,7.606,0,0,1,255.125,155.883Z" transform="translate(-236.719 -143.476)" fill="#ab372c"></path></g><g id="Group_2950" data-name="Group 2950" transform="translate(24.023 5.407)"><path id="Path_21810" data-name="Path 21810" d="M293.179,169.475a3.053,3.053,0,0,1-.211-1.158c-.016-.172-.033-.358-.051-.554s-.065-.4-.1-.616c-.072-.427-.123-.882-.209-1.334-.2-.9-.359-1.8-.561-2.459l-.294-1.106-.287-1.1c-.146-.671-.451-1.527-.726-2.4-.149-.431-.335-.846-.487-1.248-.078-.2-.153-.394-.224-.579l-.241-.5c-.294-.62-.472-1.055-.413-1.094s.349.323.759.9l.326.468.306.554c.205.388.445.8.641,1.223a25.31,25.31,0,0,1,.957,2.4l.375,1.115s.09.464.225,1.161c.157.691.25,1.634.358,2.569.041.469.044.944.062,1.384.006.22.011.433.016.635-.013.2-.026.394-.037.571C293.312,169.014,293.25,169.477,293.179,169.475Z" transform="translate(-289.366 -155.327)" fill="#ab372c"></path></g></g><path id="Path_21811" data-name="Path 21811" d="M248.816,171.589a8.811,8.811,0,0,0,1.4,2.374c-.084-1.817.068-3.633.1-5.449a28.8,28.8,0,0,0-.879-5.23c-.017-.094-.033-.188-.051-.282a13.638,13.638,0,0,0-.546-2.007,2.728,2.728,0,0,1-2.915,1.472c-3.328-.685-4.577-8.357-5.044-13.743-1.056-.854-2.141-1.175-2.936.072-.13-.148-.315-.364-.541-.617.6,3.054,1.133,7.193-.149,7.9-2.074,1.144-3.65-5.475-3.954-8.67a6.2,6.2,0,0,1,.256-2.393,1.685,1.685,0,0,0-2.333.857,3.59,3.59,0,0,0-.344-.77c-1.042,2.866-3.194,5.916-7.466,3.371-2.667-1.589-2.5-3.5-1.235-5.261a8.138,8.138,0,0,0-1.732-1.335c-1.766,1.976-6.281,4.231-13,4.619-3.857.223-4.456-1.111-4.059-2.535-.616.3-1.2.6-1.744.886a35.481,35.481,0,0,0-6.5,4.433c-.525.453-1.529,1.9-2.2,2.112.01,0,14.464-4.624,29.194-.645C234.264,154.022,243.425,161.011,248.816,171.589Z" transform="translate(-192.948 -140.64)" opacity="0.4" fill="url(#linear-gradient-20)" style="mix-blend-mode: multiply;isolation: isolate"></path><path id="Path_21812" data-name="Path 21812" d="M218.633,140.827c.012.1-.43.233-1.075.465s-1.5.532-2.341.877-1.665.719-2.279,1.006l-1.012.5-1.03.439c-.609.279-1.429.65-2.2,1.093a15.2,15.2,0,0,0-2.051,1.336c-.13.1-.261.192-.364.281s-.191.169-.269.231c-.158.125-.267.188-.305.161s0-.143.089-.329c.047-.094.109-.2.183-.331s.183-.245.292-.387a10.215,10.215,0,0,1,1.9-1.765A21.032,21.032,0,0,1,210.331,143c.613-.341,1.029-.557,1.029-.557l1.1-.421c.664-.233,1.551-.534,2.46-.762a16.6,16.6,0,0,1,2.53-.481C218.146,140.7,218.624,140.744,218.633,140.827Zm4.964-1.082a5.553,5.553,0,0,0-1.094-.182,5.971,5.971,0,0,0-1.036.359c-.5.239-.926.58-.857.752s.583.17,1.065.187l.945.057s.447-.115.92-.213.972-.151,1.024-.334S224.138,139.9,223.6,139.746Zm5.8,3.784c-.628.176-1.256.365-1.727.51l-.569.177c-.137.042-.214.071-.214.071s-1.15.621-2.266,1.279c-1.082.726-2.127,1.487-2.031,1.648s1.3-.3,2.465-.79c1.2-.425,2.368-.888,2.368-.888s.071-.036.2-.093l.518-.242c.428-.2,1-.476,1.571-.762,1.168-.477,2.353-.993,2.312-1.179S230.69,143.27,229.394,143.53Z" transform="translate(-199.875 -139.382)" fill="#fbdba8" opacity="0.5" style="mix-blend-mode: screen;isolation: isolate"></path></g></g><g id="Group_2963" data-name="Group 2963" transform="translate(55.934 3.423)"><g id="Group_2954" data-name="Group 2954"><path id="Path_21813" data-name="Path 21813" d="M254.086,146s11.263-17.255,18.249-14.522,9.635,33.551,8.779,34.72S251.982,149.689,254.086,146Z" transform="translate(-253.974 -131.184)" fill="#001233"></path><path id="Path_21814" data-name="Path 21814" d="M254.429,147.482s11.263-17.255,18.249-14.522c2.664,1.042,4.7,6.17,6.146,12.18-1.464-6.631-3.607-12.536-6.488-13.663C265.349,128.745,254.087,146,254.087,146c-.223.391-.1.941.29,1.608A.814.814,0,0,1,254.429,147.482Z" transform="translate(-253.975 -131.184)" fill="#001233" style="mix-blend-mode: screen;isolation: isolate"></path><path id="Path_21815" data-name="Path 21815" d="M282.514,163.5a36.3,36.3,0,0,1,3.754,4.621c.18-4.112-1.874-24.559-6.641-26.522-5.2-2.142-13.588,11.384-13.588,11.384s-.011.028-.017.043C271.894,155.374,278.045,158.9,282.514,163.5Z" transform="translate(-260.524 -136.722)" fill="#22708d"></path><path id="Path_21816" data-name="Path 21816" d="M273.659,146.5c-3.975,3.393-7.621,9.271-7.621,9.271s-.011.028-.017.043a53.521,53.521,0,0,1,12.582,7.021C277.74,156.432,276.12,148.948,273.659,146.5Z" transform="translate(-260.524 -139.514)" fill="#22708d" style="mix-blend-mode: multiply;isolation: isolate"></path><path id="Path_21817" data-name="Path 21817" d="M281.114,172.354c.423-.577-.01-8.377-1.395-16.458-1.262,1.435-3.3,2.239-6.467,1.893-11.132-1.216-11.246-11.634-11.343-15.282a67.85,67.85,0,0,0-7.823,9.648C251.982,155.846,280.257,173.524,281.114,172.354Z" transform="translate(-253.974 -137.341)" fill="#001233" opacity="0.4" style="mix-blend-mode: multiply;isolation: isolate"></path></g><g id="Group_2961" data-name="Group 2961" transform="translate(13.282 13.143)"><g id="Group_2956" data-name="Group 2956" style="mix-blend-mode: screen;isolation: isolate"><g id="Group_2955" data-name="Group 2955"><path id="Path_21818" data-name="Path 21818" d="M290.219,159.993c.056.081-1.2,1.031-2.318,2.11-.568.533-1.1,1.1-1.48,1.535s-.616.741-.616.741l-.167.2c-.1.131-.27.306-.434.539a12.167,12.167,0,0,0-1.129,1.764,8.732,8.732,0,0,0-.714,1.968,4.292,4.292,0,0,1-.214.951,2.4,2.4,0,0,1-.047-.992,7.41,7.41,0,0,1,.538-2.128,11.477,11.477,0,0,1,1.057-1.929c.16-.255.322-.445.422-.588l.165-.22s.266-.3.68-.734a20.069,20.069,0,0,1,1.622-1.47A11.53,11.53,0,0,1,290.219,159.993Z" transform="translate(-283.083 -159.989)" fill="#22708d"></path></g></g><g id="Group_2958" data-name="Group 2958" transform="translate(0.061 0.427)" style="mix-blend-mode: screen;isolation: isolate"><g id="Group_2957" data-name="Group 2957"><path id="Path_21819" data-name="Path 21819" d="M301.7,160.958a1.362,1.362,0,0,1-.469.1c-.3.052-.726.074-1.231.182a24.458,24.458,0,0,0-3.642.92,28.25,28.25,0,0,0-3.458,1.452c-.464.214-.825.444-1.09.579l-.411.225s-.592.329-1.462.855a26.514,26.514,0,0,0-3.013,2.195,21,21,0,0,0-2.625,2.654c-.344.381-.572.741-.762.974s-.3.369-.317.356.055-.167.2-.43a9.026,9.026,0,0,1,.667-1.06,18.231,18.231,0,0,1,2.515-2.852,25.138,25.138,0,0,1,2.992-2.361c.871-.569,1.471-.923,1.471-.922l.427-.219c.277-.131.652-.354,1.136-.558a26.592,26.592,0,0,1,3.585-1.346,20.689,20.689,0,0,1,3.752-.724,10.071,10.071,0,0,1,1.257-.056A1.35,1.35,0,0,1,301.7,160.958Z" transform="translate(-283.216 -160.924)" fill="#22708d"></path></g></g><g id="Group_2960" data-name="Group 2960" transform="translate(0.29 7.732)" style="mix-blend-mode: screen;isolation: isolate"><g id="Group_2959" data-name="Group 2959"><path id="Path_21820" data-name="Path 21820" d="M295.356,176.964c.01.1-1.564.365-3.087.8-.752.251-1.512.467-2.057.705-.55.217-.917.36-.917.36l-.906.372c-.556.2-1.242.58-1.954.917-1.382.752-2.643,1.713-2.714,1.634a10.972,10.972,0,0,1,2.469-2.048,22.114,22.114,0,0,1,1.939-1.073l.913-.433s.385-.13.962-.32c.571-.211,1.364-.385,2.148-.581A12.252,12.252,0,0,1,295.356,176.964Z" transform="translate(-283.719 -176.935)" fill="#22708d"></path></g></g></g><g id="Group_2962" data-name="Group 2962" transform="translate(10.194 2.769)" style="mix-blend-mode: screen;isolation: isolate"><path id="Path_21821" data-name="Path 21821" d="M278.11,143.683c.27.286.116.869-.343,1.3s-1.051.548-1.32.261-.115-.87.343-1.3S277.841,143.4,278.11,143.683Z" transform="translate(-276.314 -140.664)" fill="#001233"></path><path id="Path_21822" data-name="Path 21822" d="M284.085,137.645c.332.525-.081,1.381-.921,1.912s-1.792.535-2.123.009.081-1.381.921-1.912S283.754,137.119,284.085,137.645Z" transform="translate(-278.822 -137.253)" fill="#001233"></path></g></g><g id="Group_2969" data-name="Group 2969" transform="translate(12.776 17.484)"><path id="Path_21823" data-name="Path 21823" d="M230.876,189.47c0,15.173-15.853,23.025-35.593,23.025s-35.893-7.852-35.893-23.025S175.393,162,195.133,162,230.876,174.3,230.876,189.47Z" transform="translate(-159.39 -161.999)" fill="#001233"></path><path id="Path_21824" data-name="Path 21824" d="M160.455,190.991c0-15.172,16-27.471,35.743-27.471,13.237,0,24.785,5.535,30.963,13.754C221.314,168.223,209.172,162,195.133,162c-19.741,0-35.743,12.3-35.743,27.471a18.245,18.245,0,0,0,3.826,11.4A18.318,18.318,0,0,1,160.455,190.991Z" transform="translate(-159.39 -161.999)" fill="#001233" style="mix-blend-mode: screen;isolation: isolate"></path><path id="Path_21825" data-name="Path 21825" d="M226.137,175.614c6.137,4.933,9.914,11.614,9.914,18.978,0,15.173-15.854,23.025-35.594,23.025-10.039,0-19.144-2.036-25.675-6.027,6.552,5.5,17.067,8.309,28.869,8.309,19.74,0,35.593-7.852,35.593-23.025C239.245,188.3,234.137,180.652,226.137,175.614Z" transform="translate(-167.759 -169.402)" fill="#001233" opacity="0.4" style="mix-blend-mode: multiply;isolation: isolate"></path><g id="Group_2964" data-name="Group 2964" transform="translate(20.697 3.886)" style="mix-blend-mode: screen;isolation: isolate"><path id="Path_21826" data-name="Path 21826" d="M206.844,174.993c.174.353-.143.865-.708,1.144s-1.164.218-1.338-.136.143-.865.709-1.143S206.67,174.64,206.844,174.993Z" transform="translate(-204.75 -172.782)" fill="#001233"></path><path id="Path_21827" data-name="Path 21827" d="M214.12,171.226c.164.6-.48,1.3-1.44,1.56s-1.869-.011-2.033-.61.48-1.3,1.44-1.56S213.956,170.627,214.12,171.226Z" transform="translate(-207.943 -170.516)" fill="#001233"></path></g><g id="Group_2968" data-name="Group 2968" transform="translate(26.91 8.962)" style="mix-blend-mode: screen;isolation: isolate"><g id="Group_2965" data-name="Group 2965"><path id="Path_21828" data-name="Path 21828" d="M218.437,186.395c-.093-.013-.081-.638-.046-1.263.061-.625.151-1.251.151-1.251s.051-.15.133-.373l.312-.809c.3-.564.621-1.1.7-1.055s-.077.642-.25,1.214l-.161.815-.077.367s-.16.585-.339,1.174C218.71,185.811,218.53,186.408,218.437,186.395Z" transform="translate(-218.365 -181.641)" fill="#001233"></path></g><g id="Group_2966" data-name="Group 2966" transform="translate(1.337 0.571)"><path id="Path_21829" data-name="Path 21829" d="M221.718,193.3a8.049,8.049,0,0,1-.422-2.641c.012-.669.005-1.346.069-1.844l.08-.835s.254-1.309.609-2.582a13.09,13.09,0,0,1,.833-2.51,13.436,13.436,0,0,1-.364,2.615c-.232,1.294-.406,2.581-.406,2.581l-.13.8c-.1.483-.137,1.131-.21,1.78C221.692,191.974,221.823,193.284,221.718,193.3Z" transform="translate(-221.296 -182.891)" fill="#001233"></path></g><g id="Group_2967" data-name="Group 2967" transform="translate(4.193 1.083)"><path id="Path_21830" data-name="Path 21830" d="M227.9,187.9c-.093.013-.211-.477-.305-.985-.038-.508-.045-1.028-.045-1.028s.125-.5.277-.986c.2-.47.426-.919.514-.887s.03.527-.047,1c-.026.484-.069.951-.069.951s-.064.467-.149.946C228.05,187.39,228,187.887,227.9,187.9Z" transform="translate(-227.554 -184.013)" fill="#001233"></path></g></g></g><g id="Group_2971" data-name="Group 2971" transform="translate(13.241 29.008)"><path id="Path_21831" data-name="Path 21831" d="M181.648,199.592c-.955,5.822-6.192,8.254-11.781,7.337s-10.29-5.015-9.335-10.837,7.138-9.619,12.727-8.7A10.474,10.474,0,0,1,181.648,199.592Z" transform="translate(-160.408 -187.254)" fill="#001233" style="mix-blend-mode: screen;isolation: isolate"></path><path id="Path_21832" data-name="Path 21832" d="M183.689,202.039c-.889,5.417-5.666,7.7-10.753,6.861s-9.355-4.631-8.466-10.048,6.532-8.967,11.619-8.133S184.578,196.622,183.689,202.039Z" transform="translate(-162.552 -189.072)" fill="#3bba91"></path><ellipse id="Ellipse_344" data-name="Ellipse 344" cx="3.308" cy="6.502" rx="3.308" ry="6.502" transform="translate(10.562 4.675)" fill="#001233"></ellipse><circle id="Ellipse_345" data-name="Ellipse 345" cx="2.167" cy="2.167" r="2.167" transform="translate(15.43 8.858)" fill="#3bba91" style="mix-blend-mode: screen;isolation: isolate"></circle><circle id="Ellipse_346" data-name="Ellipse 346" cx="0.799" cy="0.799" r="0.799" transform="translate(10.182 13.801)" fill="#3bba91" style="mix-blend-mode: screen;isolation: isolate"></circle><path id="Path_21833" data-name="Path 21833" d="M183.958,200.2a8.7,8.7,0,0,0-7.083-8.278c-4.669-.766-9.849,2.493-10.664,7.465a7.306,7.306,0,0,0,.313,3.718,18.2,18.2,0,0,0,6.261,1.089A16.744,16.744,0,0,0,183.958,200.2Z" transform="translate(-163.504 -189.732)" fill="#3bba91" opacity="0.4" style="mix-blend-mode: screen;isolation: isolate"></path><g id="Group_2970" data-name="Group 2970" transform="translate(4.83 2.923)"><path id="Path_21834" data-name="Path 21834" d="M172.94,199.226c.229.321,0,.877-.515,1.242s-1.114.4-1.343.082,0-.877.515-1.242S172.711,198.9,172.94,199.226Z" transform="translate(-170.994 -196.567)" fill="#3bba91"></path><path id="Path_21835" data-name="Path 21835" d="M179.581,194.179c.258.565-.266,1.358-1.169,1.771s-1.847.29-2.1-.276.266-1.358,1.17-1.771S179.323,193.614,179.581,194.179Z" transform="translate(-173.846 -193.66)" fill="#3bba91"></path></g></g><g id="Group_2973" data-name="Group 2973" transform="translate(50.957 29.557)"><path id="Path_21836" data-name="Path 21836" d="M243.96,204.354c2.527,6.125,9.176,7.617,15.414,5.387s10.674-7.729,8.146-13.853-10.6-8.893-16.84-6.662A11.323,11.323,0,0,0,243.96,204.354Z" transform="translate(-243.065 -188.458)" fill="#001233" style="mix-blend-mode: screen;isolation: isolate"></path><path id="Path_21837" data-name="Path 21837" d="M243.962,206.675c2.339,5.707,8.489,7.1,14.26,5.022s9.871-7.2,7.532-12.9-9.81-8.288-15.579-6.211A10.565,10.565,0,0,0,243.962,206.675Z" transform="translate(-243.102 -190.314)" fill="#3bba91"></path><ellipse id="Ellipse_347" data-name="Ellipse 347" cx="3.308" cy="6.502" rx="3.308" ry="6.502" transform="translate(9.654 5.266)" fill="#001233"></ellipse><circle id="Ellipse_348" data-name="Ellipse 348" cx="2.167" cy="2.167" r="2.167" transform="translate(14.522 9.449)" fill="#3bba91" style="mix-blend-mode: screen;isolation: isolate"></circle><circle id="Ellipse_349" data-name="Ellipse 349" cx="0.799" cy="0.799" r="0.799" transform="translate(9.274 14.392)" fill="#3bba91" style="mix-blend-mode: screen;isolation: isolate"></circle><path id="Path_21838" data-name="Path 21838" d="M264.051,197c0-.015,0-.029,0-.044a11.933,11.933,0,0,0-12.386-2.944,9.527,9.527,0,0,0-6.321,9.967,12.37,12.37,0,0,0,7.523,2.451C259.043,206.434,264.051,202.212,264.051,197Z" transform="translate(-244.277 -191.13)" fill="#3bba91" opacity="0.4" style="mix-blend-mode: screen;isolation: isolate"></path><g id="Group_2972" data-name="Group 2972" transform="translate(4.112 3.39)"><path id="Path_21839" data-name="Path 21839" d="M254.023,201.454c.229.321,0,.877-.515,1.243s-1.114.4-1.342.082,0-.877.515-1.243S253.795,201.134,254.023,201.454Z" transform="translate(-252.077 -198.796)" fill="#3bba91"></path><path id="Path_21840" data-name="Path 21840" d="M260.664,196.408c.259.565-.266,1.358-1.17,1.771s-1.847.289-2.1-.276.266-1.358,1.17-1.771S260.407,195.842,260.664,196.408Z" transform="translate(-254.93 -195.888)" fill="#3bba91"></path></g></g><g id="Group_2982" data-name="Group 2982" transform="translate(0 46.274)"><g id="Group_2977" data-name="Group 2977"><g id="Group_2974" data-name="Group 2974" transform="translate(6.54)"><path id="Path_21841" data-name="Path 21841" d="M145.723,225.507a9.965,9.965,0,0,1,2.966-.413c.749.016,1.506.015,2.064.084l.934.089s1.468.269,2.9.632a17.451,17.451,0,0,1,2.845.826,15.861,15.861,0,0,1-2.941-.355c-1.456-.241-2.906-.43-2.906-.43l-.906-.138c-.543-.1-1.273-.148-2-.225C147.213,225.48,145.74,225.615,145.723,225.507Z" transform="translate(-145.723 -225.094)" fill="#22708d"></path></g><g id="Group_2975" data-name="Group 2975" transform="translate(0 3.584)"><path id="Path_21842" data-name="Path 21842" d="M131.39,236.471a9.414,9.414,0,0,1,1.691-.843,35.269,35.269,0,0,1,3.918-1.4,36.931,36.931,0,0,1,4.069-.919c1.126-.177,1.883-.259,1.883-.259l.519-.031c.331-.011.8-.065,1.37-.059a31.351,31.351,0,0,1,4.15.195,26.309,26.309,0,0,1,4.06.836c.547.143.982.332,1.291.44a1.561,1.561,0,0,1,.472.216,14.661,14.661,0,0,1-1.829-.4,31.67,31.67,0,0,0-4.042-.614,33.313,33.313,0,0,0-4.079-.047c-.556.011-1.017.077-1.341.1l-.508.043s-.743.063-1.853.2a40.424,40.424,0,0,0-4.037.763c-1.45.37-2.886.8-3.947,1.185A13.68,13.68,0,0,1,131.39,236.471Z" transform="translate(-131.389 -232.95)" fill="#22708d"></path></g><g id="Group_2976" data-name="Group 2976" transform="translate(10.037 6.887)"><path id="Path_21843" data-name="Path 21843" d="M153.388,242.839a7.082,7.082,0,0,1,2.083-1.41,14.337,14.337,0,0,1,1.607-.669l.544-.187c.131-.047.208-.067.208-.068l.779-.14a13.454,13.454,0,0,1,1.727-.177,6.163,6.163,0,0,1,2.482.369c-.024.1-1.242-.035-2.448.11a16.1,16.1,0,0,0-1.637.311l-.733.185s-.074.015-.2.052l-.533.142c-.449.1-1.019.314-1.6.512C154.517,242.3,153.446,242.92,153.388,242.839Z" transform="translate(-153.386 -240.187)" fill="#22708d"></path></g></g><g id="Group_2981" data-name="Group 2981" transform="translate(64.471 2.093)"><g id="Group_2978" data-name="Group 2978" transform="translate(5.171)"><path id="Path_21844" data-name="Path 21844" d="M295.728,230.092a9.977,9.977,0,0,0-2.966-.413c-.75.016-1.506.014-2.064.084l-.935.088s-1.468.269-2.9.632a17.413,17.413,0,0,0-2.845.826,15.816,15.816,0,0,0,2.942-.355c1.455-.24,2.905-.43,2.905-.43l.906-.139c.544-.1,1.273-.148,2-.225C294.237,230.065,295.71,230.2,295.728,230.092Z" transform="translate(-284.016 -229.68)" fill="#22708d"></path></g><g id="Group_2979" data-name="Group 2979" transform="translate(0 3.584)"><path id="Path_21845" data-name="Path 21845" d="M296.106,241.056a9.418,9.418,0,0,0-1.691-.843,35.272,35.272,0,0,0-3.918-1.4,37.089,37.089,0,0,0-4.068-.918c-1.126-.177-1.883-.26-1.883-.26l-.52-.031c-.331-.011-.8-.065-1.369-.059a31.357,31.357,0,0,0-4.15.195,26.242,26.242,0,0,0-4.06.836c-.546.142-.981.332-1.291.439a1.573,1.573,0,0,0-.471.216,14.455,14.455,0,0,0,1.828-.4,31.794,31.794,0,0,1,4.043-.614,33.22,33.22,0,0,1,4.08-.047c.556.011,1.017.077,1.341.1l.508.043s.742.063,1.853.2a40.408,40.408,0,0,1,4.037.763c1.45.37,2.886.8,3.947,1.184A13.611,13.611,0,0,0,296.106,241.056Z" transform="translate(-272.683 -237.535)" fill="#22708d"></path></g><g id="Group_2980" data-name="Group 2980" transform="translate(3.954 6.887)"><path id="Path_21846" data-name="Path 21846" d="M290.779,247.424a7.1,7.1,0,0,0-2.083-1.41,14.3,14.3,0,0,0-1.607-.668l-.545-.188c-.131-.047-.209-.067-.209-.068l-.779-.14a13.355,13.355,0,0,0-1.727-.177,6.172,6.172,0,0,0-2.481.369c.024.1,1.242-.035,2.448.111a15.95,15.95,0,0,1,1.636.311l.733.185s.074.015.2.051l.532.143c.449.1,1.02.313,1.6.511C289.65,246.887,290.72,247.506,290.779,247.424Z" transform="translate(-281.349 -244.773)" fill="#22708d"></path></g></g></g><path id="Path_21847" data-name="Path 21847" d="M206.842,242.092c-.015.25.4,2.194.81,1.718a1.965,1.965,0,0,0,.308-1.317Z" transform="translate(-172.413 -188.062)" fill="#3bba91"></path><g id="Group_2993" data-name="Group 2993" transform="translate(31.771 47.773)"><g id="Group_2990" data-name="Group 2990"><g id="Group_2987" data-name="Group 2987" transform="translate(4.123)"><path id="Path_21848" data-name="Path 21848" d="M212.641,232.96s-3.536-2.281-2.338-3.707,4.848-.97,5.59.4S212.927,233.53,212.641,232.96Z" transform="translate(-210.055 -228.38)" fill="#22708d"></path><path id="Path_21849" data-name="Path 21849" d="M212.857,232.51a4.1,4.1,0,0,1-2.772-.886c.186,1.341,2.573,2.882,2.573,2.882.283.567,3.944-1.907,3.262-3.282C215.57,231.963,214.333,232.51,212.857,232.51Z" transform="translate(-210.071 -229.926)" fill="#22708d" opacity="0.5" style="mix-blend-mode: multiply;isolation: isolate"></path><g id="Group_2986" data-name="Group 2986" transform="translate(1.484 1.005)" style="mix-blend-mode: screen;isolation: isolate"><g id="Group_2985" data-name="Group 2985"><g id="Group_2983" data-name="Group 2983" transform="translate(0 0.267)"><path id="Path_21850" data-name="Path 21850" d="M214.3,231.528c0,.2-.221.362-.494.362s-.494-.162-.494-.362.221-.361.494-.361S214.3,231.329,214.3,231.528Z" transform="translate(-213.307 -231.167)" fill="#22708d"></path></g><g id="Group_2984" data-name="Group 2984" transform="translate(1.293)"><ellipse id="Ellipse_350" data-name="Ellipse 350" cx="0.989" cy="0.627" rx="0.989" ry="0.627" fill="#22708d"></ellipse></g></g></g></g><g id="Group_2989" data-name="Group 2989" transform="translate(0 2.718)"><path id="Path_21851" data-name="Path 21851" d="M215.475,235.215a1.871,1.871,0,0,0-.435-.572,1.915,1.915,0,0,0-.266-.2,2.371,2.371,0,0,0-.325-.081,1.739,1.739,0,0,0-.733.037,1.147,1.147,0,0,0-.595.4c-.106.162-.12.292-.068.333s.173.013.306-.015a1.235,1.235,0,0,1,.442-.006,1.364,1.364,0,0,1,.294.105.779.779,0,0,1-.037.166,1.711,1.711,0,0,1-.146.441l-.115.235a2.021,2.021,0,0,1-.165.225,2.574,2.574,0,0,1-.419.432,4.505,4.505,0,0,1-1.169.657,9.093,9.093,0,0,1-2.512.567,8.749,8.749,0,0,1-1.169.044s-.131.007-.358.005a1.934,1.934,0,0,1-.042-.306,3.956,3.956,0,0,1,.044-.564s-.025-.3-.05-.608-.076-.653-.17-.657-.205.292-.308.6a4.466,4.466,0,0,0-.153.652,2.548,2.548,0,0,0,.171.7,1.309,1.309,0,0,0,.1.173c-.121-.005-.252-.013-.4-.025a12.506,12.506,0,0,1-2.553-.457,4.14,4.14,0,0,1-1.2-.554,1.167,1.167,0,0,1-.547-.848,1.882,1.882,0,0,1,.169-.783l.016-.037a1.164,1.164,0,0,1,.329-.045c.374-.01.8.24.9.131.091-.084-.145-.571-.7-.825a1.654,1.654,0,0,0-.819-.145,1.91,1.91,0,0,0-.373.055,2.311,2.311,0,0,0-.308.177,3.181,3.181,0,0,0-.549.468c-.345.37-.605.773-.518.88s.532-.109.942-.3a4.3,4.3,0,0,1,.544-.21,2.034,2.034,0,0,1,.223-.056,1.619,1.619,0,0,0-.247.678,1.424,1.424,0,0,0,.121.688,1.919,1.919,0,0,0,.457.607,4.439,4.439,0,0,0,1.321.794,12,12,0,0,0,2.692.713,9.628,9.628,0,0,0,1.279.116,9.014,9.014,0,0,0,1.284-.131,9.188,9.188,0,0,0,2.692-.844,4.789,4.789,0,0,0,1.256-.894,2.85,2.85,0,0,0,.436-.581,2.256,2.256,0,0,0,.157-.3l.094-.3a1.788,1.788,0,0,0,.072-.537c0-.018,0-.033,0-.051.029.008.082.025.154.052a1.6,1.6,0,0,1,.375.211,1.73,1.73,0,0,1,.313.344c.078.115.138.219.211.225s.145-.1.18-.288A1.258,1.258,0,0,0,215.475,235.215Z" transform="translate(-201.019 -234.337)" fill="#22708d" style="mix-blend-mode: screen;isolation: isolate"></path><g id="Group_2988" data-name="Group 2988" transform="translate(4.959 5.738)" style="mix-blend-mode: screen;isolation: isolate"><path id="Path_21852" data-name="Path 21852" d="M214.893,250.336c.012.036-.174.163-.516.222a1.38,1.38,0,0,1-1.209-.442,2.063,2.063,0,0,1-.5-1.22,2.624,2.624,0,0,1,.021-.6l.052-.216.625.239c-.024.036-.058.086-.1.143a1.931,1.931,0,0,1-.144.136c-.052.038-.112.088-.176.129-.083.055-.223.148-.339.21s-.247.129-.372.193l-.188.091-.1.046-.048.023c-.021.014,0-.031-.008-.044.025-.324.031-.641.074-.938a3.174,3.174,0,0,1,.069-.342,1.457,1.457,0,0,1,.079-.263,3.419,3.419,0,0,1,.2-.439c.155-.236.266-.372.3-.349s0,.2-.078.44c-.036.122-.048.276-.081.433a1.358,1.358,0,0,0-.026.25,1.442,1.442,0,0,0-.007.2.291.291,0,0,0,.035.119.363.363,0,0,0,.091-.088c.015-.016,0-.009.026-.035.049-.04.083-.078.12-.11l.065-.078a.044.044,0,0,1,.005-.015s-.011-.013.063.02l.569.21-.033.166a2.211,2.211,0,0,0-.063.452,1.619,1.619,0,0,0,.244.938,1.119,1.119,0,0,0,.831.481C214.663,250.319,214.878,250.283,214.893,250.336Z" transform="translate(-211.888 -246.912)" fill="#22708d"></path></g></g></g><g id="Group_2992" data-name="Group 2992" transform="translate(9.295 6.823)"><g id="Group_2991" data-name="Group 2991"><path id="Path_21853" data-name="Path 21853" d="M221.39,243.666l1.141-.333c0,.25-.532,2.166-.913,1.666" transform="translate(-221.39 -243.333)" fill="#3bba91"></path></g></g></g><path id="Path_21854" data-name="Path 21854" d="M220.782,182.675a2.171,2.171,0,0,1-2.192-3.749,3.993,3.993,0,0,1,1.423-.56,3.654,3.654,0,0,1,2.38.328,2.194,2.194,0,0,1,.783,2.987,2.236,2.236,0,0,1-2.466,1c-.116-.022-.233-.038-.35-.061l.587.079a2.143,2.143,0,0,0-.469,0l.584-.079a2.606,2.606,0,0,0-.581.165l.52-.219q-.114.05-.222.111Zm-26.4-.423c.083,0,.166,0,.249.011l-.561-.062a2.623,2.623,0,0,1,.587.14l-.548-.217a2.165,2.165,0,0,1,.407.233l-.474-.355c.09.077.184.148.275.224a2.236,2.236,0,0,0,2.642.328,2.194,2.194,0,0,0,.774-2.99,3.655,3.655,0,0,0-1.917-1.448,3.991,3.991,0,0,0-1.516-.206,2.171,2.171,0,0,0,.082,4.342Z" transform="translate(-164.436 -153.164)" fill="none"></path><g id="Group_2997" data-name="Group 2997" transform="translate(27.734 24.742)"><g id="Group_2994" data-name="Group 2994" transform="translate(0.456 0.609)" opacity="0.4" style="mix-blend-mode: multiply;isolation: isolate"><path id="Path_21855" data-name="Path 21855" d="M198.788,182.988l.007-.012a2.38,2.38,0,0,0,.152-.381l0-.006a1.986,1.986,0,0,0-.215-1.691,3.656,3.656,0,0,0-1.917-1.448,3.991,3.991,0,0,0-1.516-.206,2.169,2.169,0,0,0-2.077,2.647c.015.064.041.122.061.183a2.2,2.2,0,0,0,.072.213,2.125,2.125,0,0,0,.134.235c.024.038.042.08.068.117a2.1,2.1,0,0,0,.222.258c.014.015.025.031.04.045a2.184,2.184,0,0,0,.311.249h0a2.344,2.344,0,0,0,1.174.385l.03.005.015,0a2.682,2.682,0,0,0,.923.5l.016,0a2.225,2.225,0,0,0,.314.069c.019,0,.038,0,.057,0a1.978,1.978,0,0,0,.28.017c.037,0,.073-.009.11-.011a1.9,1.9,0,0,0,.231-.025c.059-.011.119-.033.178-.05s.108-.026.162-.047a2.211,2.211,0,0,0,.336-.161,1.994,1.994,0,0,0,.326-.24l.01-.008a2.217,2.217,0,0,0,.27-.3l.011-.013A2.325,2.325,0,0,0,198.788,182.988Z" transform="translate(-193.17 -179.24)" fill="#001233"></path><path id="Path_21856" data-name="Path 21856" d="M254.549,183.144c.011-.031.022-.062.032-.094a2.336,2.336,0,0,0,.078-.349c0-.034,0-.069.007-.1a2.424,2.424,0,0,0,.009-.251c0-.059,0-.118-.008-.177s-.016-.111-.025-.167a2.306,2.306,0,0,0-.085-.347c-.01-.031-.021-.063-.032-.094a1.917,1.917,0,0,0-.914-1.063,3.651,3.651,0,0,0-2.38-.328,3.992,3.992,0,0,0-1.423.56,2.219,2.219,0,0,0-1.032,1.546h0a2.1,2.1,0,0,0-.029.344c0,.016,0,.031,0,.047a2.068,2.068,0,0,0,.025.3c.007.049.022.1.032.145.018.073.031.146.057.217a2.034,2.034,0,0,0,.167.367,2.179,2.179,0,0,0,.258.354c.043.047.093.084.139.127a2.168,2.168,0,0,0,.171.154,2.091,2.091,0,0,0,.229.138c.04.022.078.051.12.07a2.05,2.05,0,0,0,.315.115c.021.006.04.016.061.021a2.172,2.172,0,0,0,.388.065h.007a2.343,2.343,0,0,0,1.212-.238l.042-.015a2.7,2.7,0,0,0,1.052-.011l.021-.006a2.327,2.327,0,0,0,.3-.091c.019-.008.036-.019.055-.027a1.948,1.948,0,0,0,.249-.12c.032-.019.062-.044.093-.065a1.952,1.952,0,0,0,.187-.133c.047-.04.089-.089.134-.133s.08-.074.116-.117a2.2,2.2,0,0,0,.215-.3A2,2,0,0,0,254.549,183.144Z" transform="translate(-223.388 -179.711)" fill="#001233"></path></g><g id="Group_2996" data-name="Group 2996"><path id="Path_21857" data-name="Path 21857" d="M220.782,182.675a2.171,2.171,0,0,1-2.192-3.749,3.993,3.993,0,0,1,1.423-.56,3.654,3.654,0,0,1,2.38.328,2.194,2.194,0,0,1,.783,2.987,2.236,2.236,0,0,1-2.466,1c-.116-.022-.233-.038-.35-.061l.587.079a2.143,2.143,0,0,0-.469,0l.584-.079a2.606,2.606,0,0,0-.581.165l.52-.219q-.114.05-.222.111Zm-26.4-.423c.083,0,.166,0,.249.011l-.561-.062a2.623,2.623,0,0,1,.587.14l-.548-.217a2.165,2.165,0,0,1,.407.233l-.474-.355c.09.077.184.148.275.224a2.236,2.236,0,0,0,2.642.328,2.194,2.194,0,0,0,.774-2.99,3.655,3.655,0,0,0-1.917-1.448,3.991,3.991,0,0,0-1.516-.206,2.171,2.171,0,0,0,.082,4.342Z" transform="translate(-192.17 -177.906)" fill="#22708d"></path><g id="Group_2995" data-name="Group 2995" transform="translate(0 1.629)" opacity="0.4" style="mix-blend-mode: multiply;isolation: isolate"><path id="Path_21858" data-name="Path 21858" d="M196.731,183.255a2.227,2.227,0,0,1-2.608-.3l-.044-.008a2.254,2.254,0,0,1-1.875-1.155,2.094,2.094,0,0,0-.034.4,2.194,2.194,0,0,0,2.137,2.121l.044.008a2.182,2.182,0,0,0,3.429-2.607A2.283,2.283,0,0,1,196.731,183.255Z" transform="translate(-192.17 -181.606)" fill="#001233"></path><path id="Path_21859" data-name="Path 21859" d="M253.428,181.477a2.107,2.107,0,0,1-.263.777,2.227,2.227,0,0,1-2.424,1.009l-.042.015a2.193,2.193,0,0,1-2.9-.809c-.01-.018-.016-.037-.025-.055a2.115,2.115,0,0,0,.253,1.424,2.193,2.193,0,0,0,2.9.809l.042-.015a2.227,2.227,0,0,0,2.424-1.009A2.286,2.286,0,0,0,253.428,181.477Z" transform="translate(-222.386 -181.477)" fill="#001233"></path></g></g></g></g></g></g></g></g></g></svg>