<svg xmlns="http://www.w3.org/2000/svg" width="130.5" height="133.331" viewBox="0 0 130.5 133.331"><g id="Group_3115" data-name="Group 3115" transform="translate(-903 -4853.173)"><g id="Group_3105" data-name="Group 3105" transform="translate(768.058 4711.298)" opacity="0.36"><g id="Group_2861" data-name="Group 2861" transform="translate(135.751 250.98)"><path id="Path_21709" data-name="Path 21709" d="M259.932,420.692c5.53-1.8,8.716-3.906,8.716-6.163,0-6.552-26.847-11.864-59.963-11.864s-59.962,5.312-59.962,11.864,26.846,11.864,59.962,11.864a245.431,245.431,0,0,0,38.027-2.69c1.787.712,5.491,1.2,9.782,1.2,6.035,0,10.928-.968,10.928-2.162C267.422,421.786,264.281,420.977,259.932,420.692Z" transform="translate(-146.144 -402.666)" fill="#412c4c" stroke="rgba(0,0,0,0)" stroke-width="1" style="mix-blend-mode: multiply;isolation: isolate"></path><path id="Path_21710" data-name="Path 21710" d="M146.724,437.123c0-.252-.777-.457-1.735-.457s-1.735.2-1.735.457.777.457,1.735.457S146.724,437.376,146.724,437.123Z" transform="translate(-143.17 -421.152)" fill="#412c4c" stroke="rgba(0,0,0,0)" stroke-width="1" style="mix-blend-mode: multiply;isolation: isolate"></path><ellipse id="Ellipse_341" data-name="Ellipse 341" cx="4.25" cy="1.12" rx="4.25" ry="1.12" transform="translate(2.436 18.901)" fill="#412c4c" stroke="rgba(0,0,0,0)" stroke-width="1" style="mix-blend-mode: multiply;isolation: isolate"></ellipse><path id="Path_21711" data-name="Path 21711" d="M352.5,445.93c-1.341,0-2.428.287-2.428.64s1.087.641,2.428.641,2.427-.287,2.427-.641S353.838,445.93,352.5,445.93Z" transform="translate(-225.734 -426.189)" fill="#412c4c" stroke="rgba(0,0,0,0)" stroke-width="1" style="mix-blend-mode: multiply;isolation: isolate"></path><path id="Path_21712" data-name="Path 21712" d="M147.925,416.9c0-.353-1.087-.64-2.427-.64s-2.427.287-2.427.64,1.087.64,2.427.64S147.925,417.257,147.925,416.9Z" transform="translate(-143.07 -410.059)" fill="#412c4c" stroke="rgba(0,0,0,0)" stroke-width="1" style="mix-blend-mode: multiply;isolation: isolate"></path><path id="Path_21713" data-name="Path 21713" d="M350.777,438.33c0-.464-1.428-.84-3.188-.84s-3.189.376-3.189.84,1.428.841,3.189.841S350.777,438.794,350.777,438.33Z" transform="translate(-222.651 -421.6)" fill="#412c4c" stroke="rgba(0,0,0,0)" stroke-width="1" style="mix-blend-mode: multiply;isolation: isolate"></path><path id="Path_21714" data-name="Path 21714" d="M342.258,415.5c1.761,0,3.189-.376,3.189-.841s-1.428-.84-3.189-.84-3.188.377-3.188.84S340.5,415.5,342.258,415.5Z" transform="translate(-219.754 -408.733)" fill="#412c4c" stroke="rgba(0,0,0,0)" stroke-width="1" style="mix-blend-mode: multiply;isolation: isolate"></path></g></g><g id="Group_2860" data-name="Group 2860" transform="translate(388.094 4832.962)"><path id="Path_21643" data-name="Path 21643" d="M719.291,287.818a117.46,117.46,0,0,0-2.091-15.639c-.517-2.618-1.1-5.222-1.74-7.814q-.486-1.98-1.01-3.95a21.145,21.145,0,0,0-.681-2.283c-3.948,7.036-10.825,14.427-22.316,14.525-14.2.12-24.711-6.488-30.385-11.189a11.511,11.511,0,0,0-1.356,2.5,75.864,75.864,0,0,0-5.054,18.638,23.081,23.081,0,0,1-.859,4.823,6.006,6.006,0,0,1-3.214,3.213,28.274,28.274,0,0,0-4.035,2.331,19.026,19.026,0,0,0-3.409,3.271,15.247,15.247,0,0,1-3,3.2,9.968,9.968,0,0,1-3.681,1.141,4.172,4.172,0,0,0-2.776,1.491,2.817,2.817,0,0,0,.521,3.452,6.18,6.18,0,0,0,4.092,1.53c1.833.164,3.679.22,5.519.226a92.135,92.135,0,0,0,11.082-.681,202.042,202.042,0,0,0,22.018-4.181l2.021-.472a2.3,2.3,0,0,0,.182,1.812,3.354,3.354,0,0,0,2.234,1.59,18.1,18.1,0,0,0,3.673.36c1.35.067,2.7.111,4.052.139,5.527.116,11.06.04,16.588.029l8.307-.016a9.04,9.04,0,0,0,3.074-.287,2.721,2.721,0,0,0,1.734-2.218,34.916,34.916,0,0,0,.407-3.638q.166-2.021.225-4.048C719.5,293.058,719.449,290.435,719.291,287.818Z" transform="translate(-81.499 -163.772)" fill="#000c23"></path><path id="Path_21644" data-name="Path 21644" d="M642.6,397.386a2.614,2.614,0,0,0-1.933-.185,4.111,4.111,0,0,0-1.774.846,3.564,3.564,0,0,0-1.092,1.581,2.684,2.684,0,0,0-.035,1.921c.089.181.49.208.484-.052s-.055-.535-.048-.806a3.013,3.013,0,0,1,.131-.807,3.166,3.166,0,0,1,.874-1.412,3.474,3.474,0,0,1,1.445-.788,4.225,4.225,0,0,1,.818-.131,1.746,1.746,0,0,1,.879.092C642.506,397.73,642.8,397.517,642.6,397.386Z" transform="translate(-84.455 -259.434)" fill="#032351"></path><path id="Path_21645" data-name="Path 21645" d="M654.474,398.665a10.511,10.511,0,0,0-2.115-.067,2.621,2.621,0,0,0-1.483.936,4.355,4.355,0,0,0-.806,1.745c-.084.338-.149.68-.209,1.022a2.366,2.366,0,0,0,0,1.076c.083.291.657.2.573-.127a2.28,2.28,0,0,1,.025-.986c.055-.3.112-.6.187-.9a4.245,4.245,0,0,1,.682-1.546,2.1,2.1,0,0,1,1.243-.838,11.515,11.515,0,0,1,1.9.012C654.731,398.987,654.734,398.665,654.474,398.665Z" transform="translate(-92.855 -260.427)" fill="#032351"></path><g id="Group_2843" data-name="Group 2843" transform="translate(514.905 66.892)"><path id="Path_21646" data-name="Path 21646" d="M559.922,179.532a13.308,13.308,0,0,1,7.708-8.361,13.132,13.132,0,0,1,11.358.232,13.669,13.669,0,0,1,6.857,8.707,16.693,16.693,0,0,1-1.526,11.742,50,50,0,0,1-3.51,5.688c-.864,1.268-1.68,2.466-2.42,3.725-1.844,3.139-2.552,5.828-2.163,8.222a6.679,6.679,0,0,0,1.234,3,5.052,5.052,0,0,0,2.792,1.718c.489.135,1.027.258,1.6.389,2.979.682,7.058,1.616,8.252,5.751a5.515,5.515,0,0,1-.1,3.469,2.564,2.564,0,0,1-2.437,1.621,2.839,2.839,0,0,1-.96-.168,2.343,2.343,0,0,1-1.483-3.02,1.661,1.661,0,0,0-.732-1.616,8.717,8.717,0,0,0-3.5-1.239l-.329-.07a13.772,13.772,0,0,1-5.381-2.083,9.971,9.971,0,0,1-3.145-3.925,13.49,13.49,0,0,1-.273-9.976,35,35,0,0,1,4.681-8.461q.349-.51.694-1.02c1.769-2.619,3.528-5.431,3.908-8.481a10.009,10.009,0,0,0-2.072-7.687,7.7,7.7,0,0,0-6.253-2.814A9.306,9.306,0,0,0,566,178.547a7.153,7.153,0,0,0-1.112,6.316c.507,1.785,1.915,4.035,4.214,4.5a2.636,2.636,0,0,0,1.309-.047,2.45,2.45,0,0,1,3,1.576,2.2,2.2,0,0,1-1.393,2.792c-4.268,1.555-8.43-1.1-10.49-4.231A12.358,12.358,0,0,1,559.922,179.532Z" transform="translate(-545.606 -169.995)" fill="#000c23"></path><path id="Path_21647" data-name="Path 21647" d="M553.405,335.191a4.172,4.172,0,0,1,2.776-1.491,9.971,9.971,0,0,0,3.681-1.141,15.262,15.262,0,0,0,3-3.2,19.014,19.014,0,0,1,3.409-3.271,28.282,28.282,0,0,1,4.035-2.331,6.006,6.006,0,0,0,3.213-3.213,23.065,23.065,0,0,0,.859-4.823,78.839,78.839,0,0,1,1.919-9.434,2.243,2.243,0,0,0-.925-.006c-.415.086-.291.517.024.586a.239.239,0,0,0-.053.009c-5.172,1.914-10.715,2.4-16.055,3.654-2.728.643-5.423,1.422-8.1,2.253s-5.331,1.676-7.969,2.589a32.484,32.484,0,0,0-3.79,1.539,26.536,26.536,0,0,0-3.056,1.807c-1.919,1.293-3.718,2.754-5.641,4.042a18.322,18.322,0,0,1-6.443,2.892c-2.415.5-5.073.688-7.044,2.346a5.935,5.935,0,0,0-1.648,6.067,11.053,11.053,0,0,0,1.268,3.208,3.682,3.682,0,0,0,1.164,1.255,4.851,4.851,0,0,0,1.756.616c2.8.5,5.62-.141,8.377-.592q4.22-.692,8.483-1.073c2.807-.25,5.621-.388,8.438-.451,2.651-.06,5.305-.085,7.951-.276A2.393,2.393,0,0,1,553.405,335.191Z" transform="translate(-515.236 -263.773)" fill="#000c23"></path><path id="Path_21648" data-name="Path 21648" d="M575.832,373.1a2.143,2.143,0,0,0-1.442.887,10.181,10.181,0,0,1-4.447-.088c-1.742-.335-3.472-.735-5.215-1.067a71.363,71.363,0,0,0-10.737-1.336c-3.721-.137-7.452.037-11.172.131-1.8.046-3.594.067-5.389.139-1.415.057-2.943.308-3.8,1.562a7.174,7.174,0,0,0-.846,4.281,9.451,9.451,0,0,0,1.206,4.511,6.778,6.778,0,0,0,1.784,1.988c1.46-.15,2.916-.435,4.353-.671q4.22-.692,8.483-1.073c2.807-.25,5.621-.388,8.438-.451,2.651-.06,5.305-.085,7.951-.276a2.394,2.394,0,0,1,.375-1.557,4.172,4.172,0,0,1,2.776-1.491,9.971,9.971,0,0,0,3.681-1.141,15.266,15.266,0,0,0,3-3.2Q575.3,373.655,575.832,373.1Z" transform="translate(-527.201 -308.664)" fill="#001233"></path><path id="Path_21649" data-name="Path 21649" d="M538.817,384.6c-.567.041-1.14-.011-1.708,0s-1.16.052-1.737.116a17.076,17.076,0,0,0-1.7.265c-.4.084-.866.213-1.034.62-.1.233.278.282.408.19a3.043,3.043,0,0,1,1.276-.459c.515-.1,1.033-.18,1.555-.237s1.047-.089,1.573-.1a4.424,4.424,0,0,0,1.444-.155C539.053,384.786,538.953,384.592,538.817,384.6Z" transform="translate(-527.104 -317.718)" fill="#092042"></path><path id="Path_21650" data-name="Path 21650" d="M541.649,394.176a7.869,7.869,0,0,0-1.693-.218,8.377,8.377,0,0,0-1.675.174,6.792,6.792,0,0,0-1.459.47,2.852,2.852,0,0,0-1.21.819c-.123.2.153.319.311.248a3.953,3.953,0,0,0,.542-.356,4.835,4.835,0,0,1,.626-.343,6.2,6.2,0,0,1,1.33-.431,8.752,8.752,0,0,1,3.127-.072C541.763,394.5,541.893,394.229,541.649,394.176Z" transform="translate(-529.137 -324.159)" fill="#092042"></path><path id="Path_21651" data-name="Path 21651" d="M519.345,385.13a7.951,7.951,0,0,0-1.435.124,8.94,8.94,0,0,0-1.342.389,3.512,3.512,0,0,0-1.072.612,2.537,2.537,0,0,0-.4.434.958.958,0,0,0-.193.546c-.014.193.3.2.386.083a4.352,4.352,0,0,1,.678-.81,3.386,3.386,0,0,1,.939-.519,7.693,7.693,0,0,1,1.142-.328,11.719,11.719,0,0,1,1.294-.244C519.564,385.4,519.576,385.123,519.345,385.13Z" transform="translate(-514.905 -318.082)" fill="#032351"></path><path id="Path_21652" data-name="Path 21652" d="M521.064,398.053a7.724,7.724,0,0,0-2.147.3,16.035,16.035,0,0,0-2.077.646.216.216,0,0,0-.105.321.339.339,0,0,0,.4.084,15.709,15.709,0,0,1,1.97-.62c.664-.163,1.354-.225,2.013-.407C521.345,398.312,521.28,398.065,521.064,398.053Z" transform="translate(-516.14 -326.974)" fill="#032351"></path></g><g id="Group_2852" data-name="Group 2852" transform="translate(570.931 44.545)"><g id="Group_2845" data-name="Group 2845" transform="translate(39.361)"><g id="Group_2844" data-name="Group 2844"><path id="Path_21653" data-name="Path 21653" d="M850.87,118.719c1.582-4.607,5.906-16.336,11.6-19.032,4.532,3.551,7.784,33.272,7.784,33.272l-.634-.1A43.542,43.542,0,0,0,850.87,118.719Z" transform="translate(-841.553 -99.252)" fill="#206f8d"></path><path id="Path_21654" data-name="Path 21654" d="M863.611,104.744a2.883,2.883,0,0,0-1.535,1.081,5.322,5.322,0,0,0-.927,3.3,13.721,13.721,0,0,0,.6,3.8c.11.377.236.75.37,1.122a4.825,4.825,0,0,0-.866-.687,2.4,2.4,0,0,0-1.35-.4,2.214,2.214,0,0,0-1.259.527,2.072,2.072,0,0,0-.569,2.091,14.353,14.353,0,0,0,2.109,4.111,2.5,2.5,0,0,0-1.213.205,1.737,1.737,0,0,0-.856,1.107,3.763,3.763,0,0,0-.15,1.234,39.79,39.79,0,0,0-7.1-3.517c1.582-4.607,5.906-16.336,11.6-19.032.948.743,1.84,2.633,2.658,5.155A2.681,2.681,0,0,0,863.611,104.744Z" transform="translate(-841.553 -99.252)" fill="#208c7f" opacity="0.31" style="mix-blend-mode: multiply;isolation: isolate"></path><path id="Path_21655" data-name="Path 21655" d="M830.4,117.691a38.978,38.978,0,0,0-9.428-2.248l.515-.311s15.021-17.857,19.881-16.794a1.6,1.6,0,0,1,.635.322C836.309,101.355,831.985,113.083,830.4,117.691Z" transform="translate(-820.975 -98.292)" fill="#092042"></path></g><path id="Path_21656" data-name="Path 21656" d="M883.158,131.478a20.576,20.576,0,0,0,2.5-5.09,10.788,10.788,0,0,0,.419-5.472,4.166,4.166,0,0,0-1.448-2.5c-.026-.019.017-.051.039-.038a3.37,3.37,0,0,1,.941.839,4.417,4.417,0,0,1,.6,1.152,7.507,7.507,0,0,1,.345,2.744,14.459,14.459,0,0,1-1.481,5.607c-.327.7-.7,1.37-1.089,2.031a2.545,2.545,0,0,1,.863-.38,1.78,1.78,0,0,1,1.6.414,1.636,1.636,0,0,1,.247,1.716,5.4,5.4,0,0,1-.256.711.586.586,0,0,1,.651.5,4.108,4.108,0,0,1-.128,1.478,4.541,4.541,0,0,1-.584,1.382c-.074.115-.357.058-.276-.1a5.405,5.405,0,0,0,.663-2.184c.019-.284.09-.85-.349-.807a.427.427,0,0,0-.117.03,5.381,5.381,0,0,1-.507.812c-.1.127-.388.084-.321-.111a1.7,1.7,0,0,1,.519-.851,5.134,5.134,0,0,0,.289-.694,1.685,1.685,0,0,0-.028-1.588,1.372,1.372,0,0,0-1.333-.427,2.985,2.985,0,0,0-1.459.96C883.329,131.751,883.028,131.675,883.158,131.478Z" transform="translate(-863.756 -112.118)" fill="#092042"></path></g><path id="Path_21657" data-name="Path 21657" d="M760.389,159.675a11.411,11.411,0,0,1,3.4,12.957c-3.535,9.151-11.729,23.217-28.73,23.361-18.238.155-31.185-9.379-36.954-14.667a7.05,7.05,0,0,1-1.675-8.035c3.323-7.576,12.182-22.123,32-25.1C741.32,146.262,753.522,154.075,760.389,159.675Z" transform="translate(-695.471 -132.436)" fill="#001233"></path><path id="Path_21658" data-name="Path 21658" d="M802.66,233.562c-.3.52-.5,1.094-.779,1.623a14.241,14.241,0,0,1-.908,1.476,4.838,4.838,0,0,1-2.336,2.068c-1.146.333-2.123-.539-2.805-1.354a25.06,25.06,0,0,1-1.907-2.8,4.284,4.284,0,0,0,.677-.534l.661-.543c.427-.352.854-.7,1.246-1.1a3.322,3.322,0,0,0,.942-1.271.846.846,0,0,0-.7-1.088,2.011,2.011,0,0,0-1.549.412,5.83,5.83,0,0,0-1.126,1.074c-.032.039-.059.08-.089.12a.606.606,0,1,1-1.153,0c-.03-.04-.058-.081-.09-.12a5.819,5.819,0,0,0-1.126-1.074,2.012,2.012,0,0,0-1.55-.412.846.846,0,0,0-.7,1.088,3.322,3.322,0,0,0,.942,1.271c.392.391.819.745,1.246,1.1l.661.543a4.285,4.285,0,0,0,.677.534,25.076,25.076,0,0,1-1.907,2.8c-.682.815-1.659,1.687-2.806,1.354a4.837,4.837,0,0,1-2.335-2.068,14.219,14.219,0,0,1-.908-1.476c-.282-.529-.483-1.1-.78-1.623-.134-.235-.574-.1-.523.176a6.854,6.854,0,0,0,.77,1.848,13.116,13.116,0,0,0,1.113,1.752,4.647,4.647,0,0,0,2.7,1.991,3.381,3.381,0,0,0,3.02-1.278,14.3,14.3,0,0,0,2.178-3.378,14.31,14.31,0,0,0,2.179,3.378,3.38,3.38,0,0,0,3.02,1.278,4.646,4.646,0,0,0,2.7-1.991,13.125,13.125,0,0,0,1.113-1.752,6.852,6.852,0,0,0,.77-1.848C803.235,233.465,802.794,233.327,802.66,233.562Z" transform="translate(-755.902 -188.96)" fill="#002760"></path><path id="Path_21659" data-name="Path 21659" d="M805.448,221.79a4.534,4.534,0,0,0-1.723-1.373,8.38,8.38,0,0,0-2.087-.807,11.707,11.707,0,0,0-4.594,0,8.381,8.381,0,0,0-2.087.807,4.533,4.533,0,0,0-1.723,1.373c-.105.172.141.319.288.231.586-.354,1.077-.835,1.675-1.175a8.4,8.4,0,0,1,1.97-.811.191.191,0,0,0,.1,0,7.634,7.634,0,0,1,4.143,0,.191.191,0,0,0,.1,0,8.414,8.414,0,0,1,1.97.811c.6.341,1.09.821,1.675,1.175C805.307,222.109,805.553,221.962,805.448,221.79Z" transform="translate(-762.501 -181.641)" fill="#002760"></path><g id="Group_2848" data-name="Group 2848" transform="translate(9.368 25.412)"><g id="Group_2846" data-name="Group 2846"><path id="Path_21660" data-name="Path 21660" d="M747.515,193.769c-.091-.232-3.922-6.087-6.957-7.456a10.648,10.648,0,0,0-10.9,1.191,6.771,6.771,0,0,0-2.126,5.359,8.84,8.84,0,0,0,1.85,5.559,12.058,12.058,0,0,0,4.577,3.358,11,11,0,0,0,6.244,1.06,10.317,10.317,0,0,0,5.678-3.225C747.247,198.115,748.305,195.784,747.515,193.769Z" transform="translate(-726.662 -183.629)" fill="#208c7f"></path><path id="Path_21661" data-name="Path 21661" d="M726.162,186.317a9.788,9.788,0,0,1,2.344-1.111,19.727,19.727,0,0,1,2.948-.8,14.477,14.477,0,0,1,5.883.059,20.225,20.225,0,0,1,2.5.792,17.683,17.683,0,0,1,2.16.956,9.767,9.767,0,0,1,1.94,1.326c.129.116.248.237.364.36h.63q-.438-.888-.958-1.733c-.35-.57-.73-1.12-1.123-1.661a13.265,13.265,0,0,0-5.6-4,10.225,10.225,0,0,0-6.616-.234,8.756,8.756,0,0,0-4.771,3.66A7.631,7.631,0,0,0,724.8,187.5,8.177,8.177,0,0,1,726.162,186.317Z" transform="translate(-724.777 -179.832)" fill="#208c7f" style="mix-blend-mode: multiply;isolation: isolate"></path><path id="Path_21662" data-name="Path 21662" d="M725.607,189.064a6.771,6.771,0,0,1,2.126-5.359,10.648,10.648,0,0,1,10.9-1.191,10.134,10.134,0,0,1,2.749,2.1q.219.179.43.367a14.893,14.893,0,0,1,2.637,3.209c.123.194.241.391.356.59.469.669.761,1.132.785,1.194a3.921,3.921,0,0,1,.254,1.11.483.483,0,0,0,.064.007c0-.071,0-.141-.009-.213a7.371,7.371,0,0,0-.746-2.411,20.7,20.7,0,0,0-1.224-2.294c-.35-.57-.73-1.12-1.122-1.661a13.266,13.266,0,0,0-5.6-4,10.225,10.225,0,0,0-6.616-.234,8.755,8.755,0,0,0-4.771,3.66c-1.5,2.467-1.226,5.412-.462,8.076.087.3.574.3.732.06A9.333,9.333,0,0,1,725.607,189.064Z" transform="translate(-724.735 -179.832)" fill="#032351"></path><circle id="Ellipse_335" data-name="Ellipse 335" cx="7.172" cy="7.172" r="7.172" transform="translate(1.701 6.954) rotate(-22.837)" fill="#092042"></circle><path id="Path_21663" data-name="Path 21663" d="M749.915,217.074c-1.312,1.453-2.166,3.745-4.963,3.729-3.066-.017-4.36-2.277-5.672-3.729h-1.805a7.17,7.17,0,0,0,14.245,0Z" transform="translate(-733.504 -205.467)" fill="#002760"></path><ellipse id="Ellipse_336" data-name="Ellipse 336" cx="2.614" cy="1.025" rx="2.614" ry="1.025" transform="translate(4.678 4.882)" fill="#fff"></ellipse><circle id="Ellipse_337" data-name="Ellipse 337" cx="0.948" cy="0.948" r="0.948" transform="translate(12.255 6.978)" fill="#fff"></circle></g><g id="Group_2847" data-name="Group 2847" transform="translate(35.779)"><path id="Path_21664" data-name="Path 21664" d="M841.59,199.614a10.317,10.317,0,0,0,5.678,3.225,11,11,0,0,0,6.245-1.06,12.059,12.059,0,0,0,4.577-3.358,8.843,8.843,0,0,0,1.85-5.559,6.773,6.773,0,0,0-2.126-5.359,10.648,10.648,0,0,0-10.9-1.191c-3.035,1.369-6.866,7.224-6.957,7.456C839.169,195.784,840.227,198.115,841.59,199.614Z" transform="translate(-839.641 -183.629)" fill="#208c7f"></path><path id="Path_21665" data-name="Path 21665" d="M861.577,186.317a9.791,9.791,0,0,0-2.344-1.111,19.734,19.734,0,0,0-2.948-.8,14.478,14.478,0,0,0-5.883.059,20.223,20.223,0,0,0-2.5.792,17.688,17.688,0,0,0-2.16.956,9.761,9.761,0,0,0-1.94,1.326c-.129.116-.248.237-.364.36h-.629q.437-.888.958-1.733c.35-.57.73-1.12,1.123-1.661a13.262,13.262,0,0,1,5.6-4,10.225,10.225,0,0,1,6.616-.234,8.756,8.756,0,0,1,4.771,3.66,7.627,7.627,0,0,1,1.061,3.564A8.177,8.177,0,0,0,861.577,186.317Z" transform="translate(-841.791 -179.832)" fill="#208c7f" style="mix-blend-mode: multiply;isolation: isolate"></path><path id="Path_21666" data-name="Path 21666" d="M859.836,189.064a6.773,6.773,0,0,0-2.126-5.359,10.648,10.648,0,0,0-10.9-1.191,10.129,10.129,0,0,0-2.75,2.1q-.219.179-.43.367A14.893,14.893,0,0,0,841,188.187c-.123.194-.241.391-.356.59-.469.669-.761,1.132-.785,1.194a3.933,3.933,0,0,0-.254,1.11.483.483,0,0,1-.064.007c0-.071,0-.141.008-.213a7.375,7.375,0,0,1,.746-2.411,20.7,20.7,0,0,1,1.224-2.294c.35-.57.73-1.12,1.123-1.661a13.262,13.262,0,0,1,5.6-4,10.225,10.225,0,0,1,6.616-.234,8.756,8.756,0,0,1,4.771,3.66c1.5,2.467,1.226,5.412.462,8.076-.087.3-.574.3-.733.06A9.34,9.34,0,0,0,859.836,189.064Z" transform="translate(-839.538 -179.832)" fill="#032351"></path><circle id="Ellipse_338" data-name="Ellipse 338" cx="7.172" cy="7.172" r="7.172" transform="translate(0.685 14.606) rotate(-67.163)" fill="#092042"></circle><path id="Path_21667" data-name="Path 21667" d="M850.825,217.074c1.312,1.453,2.166,3.745,4.963,3.729,3.066-.017,4.36-2.277,5.672-3.729h1.805a7.17,7.17,0,0,1-14.245,0Z" transform="translate(-846.065 -205.467)" fill="#002760"></path><ellipse id="Ellipse_339" data-name="Ellipse 339" cx="2.614" cy="1.025" rx="2.614" ry="1.025" transform="translate(11.265 4.882)" fill="#fff"></ellipse><circle id="Ellipse_340" data-name="Ellipse 340" cx="0.948" cy="0.948" r="0.948" transform="translate(7.02 6.978)" fill="#fff"></circle></g></g><path id="Path_21668" data-name="Path 21668" d="M773.485,189.126" transform="translate(-748.924 -160.817)" fill="none" stroke="#fff" stroke-miterlimit="10" stroke-width="1"></path><path id="Path_21669" data-name="Path 21669" d="M779.245,175.1a5.8,5.8,0,0,0-.3-.755,12.822,12.822,0,0,0-2.009-3.854,6.336,6.336,0,0,0-2-1.84,2.064,2.064,0,0,0-2.477.113c-.669.73-.074,1.785.291,2.511a18.363,18.363,0,0,0,1.61,2.566c.584.8,1.212,1.561,1.843,2.322a3.134,3.134,0,0,0,2.106,1.431,1.029,1.029,0,0,0,1.154-.868A4.094,4.094,0,0,0,779.245,175.1Z" transform="translate(-748.008 -146.475)" fill="#032351"></path><path id="Path_21670" data-name="Path 21670" d="M837.366,176.722a1.029,1.029,0,0,0,1.154.868,3.134,3.134,0,0,0,2.106-1.431c.631-.76,1.26-1.524,1.843-2.322a18.375,18.375,0,0,0,1.61-2.566c.365-.725.961-1.781.291-2.511a2.064,2.064,0,0,0-2.477-.113,6.336,6.336,0,0,0-2,1.84,12.815,12.815,0,0,0-2.009,3.854,5.788,5.788,0,0,0-.3.755A4.1,4.1,0,0,0,837.366,176.722Z" transform="translate(-792.886 -146.475)" fill="#032351"></path><path id="Path_21671" data-name="Path 21671" d="M820.576,231.3a.757.757,0,0,0-.552.021,2.8,2.8,0,0,0-.825.621,3.679,3.679,0,0,0-.452.5,3.142,3.142,0,0,0-.289.324c-.134.172.157.318.3.237l1.065-.616a2.515,2.515,0,0,0,.865-.632A.286.286,0,0,0,820.576,231.3Z" transform="translate(-779.857 -189.819)" fill="#fff"></path><path id="Path_21672" data-name="Path 21672" d="M816.578,237.165c-.008-.015-.015-.03-.023-.044a.13.13,0,0,0-.049-.042.151.151,0,0,0-.064-.027l-.05-.005a.224.224,0,0,0-.093.02.2.2,0,0,0-.027,0,.342.342,0,0,0-.045.015l-.015.007a.344.344,0,0,0-.059.037.24.24,0,0,0-.081.112.1.1,0,0,0,0,.062.1.1,0,0,0,.023.058l.031.032a.213.213,0,0,0,.086.04.406.406,0,0,0,.074.01.237.237,0,0,0,.074-.007.458.458,0,0,0,.069-.023.427.427,0,0,0,.059-.035l.019-.014.023-.024a.273.273,0,0,0,.023-.024l.008-.01,0,0,0,0,.021-.039A.122.122,0,0,0,816.578,237.165Z" transform="translate(-778.234 -193.803)" fill="#fff"></path><g id="Group_2850" data-name="Group 2850" transform="translate(0 5.343)"><g id="Group_2849" data-name="Group 2849"><path id="Path_21673" data-name="Path 21673" d="M711.871,133.728c-2.554-4.148-9.347-14.641-15.5-16.021-3.642,4.459-.293,34.169-.293,34.169l.6-.24A43.539,43.539,0,0,1,711.871,133.728Z" transform="translate(-694.676 -116.999)" fill="#206f8d"></path><path id="Path_21674" data-name="Path 21674" d="M696.9,122.89a2.883,2.883,0,0,1,1.735.718,5.318,5.318,0,0,1,1.629,3.019,13.714,13.714,0,0,1,.247,3.835c-.024.392-.065.784-.114,1.175a4.815,4.815,0,0,1,.694-.86,2.4,2.4,0,0,1,1.23-.685,2.215,2.215,0,0,1,1.344.238,2.073,2.073,0,0,1,1.014,1.915,14.361,14.361,0,0,1-1.155,4.473,2.5,2.5,0,0,1,1.228-.066,1.737,1.737,0,0,1,1.078.892,3.768,3.768,0,0,1,.417,1.171,39.766,39.766,0,0,1,6.15-4.989c-2.555-4.148-9.347-14.641-15.5-16.021-.762.933-1.217,2.973-1.462,5.613A2.677,2.677,0,0,1,696.9,122.89Z" transform="translate(-695.199 -116.999)" fill="#208c7f" opacity="0.31" style="mix-blend-mode: multiply;isolation: isolate"></path><path id="Path_21675" data-name="Path 21675" d="M715.224,132.123a38.976,38.976,0,0,1,8.705-4.262l-.571-.19s-18.574-14.126-23.082-12.022a1.593,1.593,0,0,0-.549.453C705.878,117.481,712.67,127.975,715.224,132.123Z" transform="translate(-698.154 -115.434)" fill="#092042"></path></g><path id="Path_21676" data-name="Path 21676" d="M706.167,148.377a20.585,20.585,0,0,1-3.555-4.417A10.794,10.794,0,0,1,701,138.713a4.166,4.166,0,0,1,.864-2.754c.021-.024-.028-.046-.046-.028a3.37,3.37,0,0,0-.733,1.025,4.42,4.42,0,0,0-.334,1.255,7.51,7.51,0,0,0,.266,2.753,14.455,14.455,0,0,0,2.675,5.145c.472.606.98,1.184,1.508,1.742a2.542,2.542,0,0,0-.925-.181,1.78,1.78,0,0,0-1.467.754,1.636,1.636,0,0,0,.136,1.728,5.362,5.362,0,0,0,.406.637.586.586,0,0,0-.525.634,4.1,4.1,0,0,0,.45,1.414,4.533,4.533,0,0,0,.873,1.22c.1.1.362-.022.249-.153a5.41,5.41,0,0,1-1.126-1.986c-.081-.273-.274-.81.163-.864a.42.42,0,0,1,.121,0,5.383,5.383,0,0,0,.673.681c.123.1.4,0,.289-.179a1.7,1.7,0,0,0-.693-.717,5.071,5.071,0,0,1-.434-.614,1.685,1.685,0,0,1-.322-1.556,1.372,1.372,0,0,1,1.207-.709,2.986,2.986,0,0,1,1.635.616C706.059,148.681,706.336,148.541,706.167,148.377Z" transform="translate(-698.834 -129.538)" fill="#092042"></path></g><g id="Group_2851" data-name="Group 2851" transform="translate(0.343 16.088)"><path id="Path_21677" data-name="Path 21677" d="M721.372,211c-2,1.132-4.448.68-6.529.038a23.339,23.339,0,0,1-5.945-2.846,28.565,28.565,0,0,1-5.03-4.258,36.54,36.54,0,0,1-4.247-5.525,58.115,58.115,0,0,1-3.372-6.183c-.128-.27-.258-.538-.386-.808-.019-.039-.1-.027-.085.019a46.565,46.565,0,0,0,3.215,6.365,37.8,37.8,0,0,0,4.279,5.793,28.964,28.964,0,0,0,5.02,4.417,23.811,23.811,0,0,0,5.892,2.979c2.035.683,4.41,1.241,6.492.432a5.012,5.012,0,0,0,.739-.362C721.464,211.027,721.413,210.972,721.372,211Z" transform="translate(-695.775 -178.464)" fill="#fff"></path><path id="Path_21678" data-name="Path 21678" d="M722.809,247.385c-2.685,2.452-6.638,2.709-10.072,2.228a28.713,28.713,0,0,1-10.613-3.858,42.186,42.186,0,0,1-5.242-3.765c-.054-.044-.16.018-.1.077a30.982,30.982,0,0,0,4.686,3.536,31.341,31.341,0,0,0,5.148,2.6,27.08,27.08,0,0,0,5.6,1.539,18.125,18.125,0,0,0,5.4.129,9.557,9.557,0,0,0,5.309-2.389C723,247.407,722.873,247.327,722.809,247.385Z" transform="translate(-696.458 -213.284)" fill="#fff"></path><path id="Path_21679" data-name="Path 21679" d="M790.539,153.312a18.412,18.412,0,0,0-1.308-3.371c-.023-.046-.122-.03-.1.021a21.45,21.45,0,0,1,1.749,5.955,19.337,19.337,0,0,1-.066,6.072,3.145,3.145,0,0,1-1.4,2.35c-.044.023,0,.071.038.052a2.928,2.928,0,0,0,1.377-1.882,12.314,12.314,0,0,0,.4-2.848A20.075,20.075,0,0,0,790.539,153.312Z" transform="translate(-760.035 -149.914)" fill="#fff"></path><path id="Path_21680" data-name="Path 21680" d="M788.3,174.22a15.381,15.381,0,0,0-1-4.241c-.013-.033-.079-.023-.068.015a24.518,24.518,0,0,1,.893,3.9,10.484,10.484,0,0,1,.052,1.928,9.661,9.661,0,0,1-.125,1.012c-.029.165-.063.328-.1.491s-.077.419-.281.451c-.018,0-.012.026,0,.025.238-.01.3-.268.357-.458a7.48,7.48,0,0,0,.216-.989A9.4,9.4,0,0,0,788.3,174.22Z" transform="translate(-758.732 -163.712)" fill="#fff"></path><path id="Path_21681" data-name="Path 21681" d="M849.765,211c2,1.132,4.448.68,6.529.038a23.342,23.342,0,0,0,5.945-2.846,28.571,28.571,0,0,0,5.03-4.258,36.583,36.583,0,0,0,4.247-5.525,58.236,58.236,0,0,0,3.372-6.183c.128-.27.258-.538.386-.808.018-.039.1-.027.084.019a46.528,46.528,0,0,1-3.215,6.365,37.8,37.8,0,0,1-4.279,5.793,28.964,28.964,0,0,1-5.02,4.417,23.82,23.82,0,0,1-5.892,2.979c-2.035.683-4.41,1.241-6.492.432a5.007,5.007,0,0,1-.739-.362C849.672,211.027,849.723,210.972,849.765,211Z" transform="translate(-801.73 -178.464)" fill="#fff"></path><path id="Path_21682" data-name="Path 21682" d="M847.172,247.385c2.685,2.452,6.639,2.709,10.072,2.228a28.718,28.718,0,0,0,10.613-3.858,42.21,42.21,0,0,0,5.241-3.765c.054-.044.16.018.1.077a30.975,30.975,0,0,1-4.686,3.536,31.356,31.356,0,0,1-5.148,2.6,27.081,27.081,0,0,1-5.6,1.539,18.123,18.123,0,0,1-5.4.129,9.557,9.557,0,0,1-5.309-2.389C846.98,247.407,847.109,247.327,847.172,247.385Z" transform="translate(-799.893 -213.284)" fill="#fff"></path><path id="Path_21683" data-name="Path 21683" d="M832.562,153.312a18.4,18.4,0,0,1,1.308-3.371c.023-.046.122-.03.1.021a21.46,21.46,0,0,0-1.749,5.955,19.337,19.337,0,0,0,.066,6.072,3.145,3.145,0,0,0,1.4,2.35c.044.023,0,.071-.038.052a2.928,2.928,0,0,1-1.377-1.882,12.324,12.324,0,0,1-.4-2.848A20.063,20.063,0,0,1,832.562,153.312Z" transform="translate(-789.434 -149.914)" fill="#fff"></path><path id="Path_21684" data-name="Path 21684" d="M837.073,174.22a15.373,15.373,0,0,1,1-4.241c.013-.033.079-.023.068.015a24.477,24.477,0,0,0-.893,3.9,10.479,10.479,0,0,0-.052,1.928,9.612,9.612,0,0,0,.125,1.012c.029.165.063.328.1.491s.077.419.281.451c.018,0,.013.026,0,.025-.238-.01-.3-.268-.357-.458a7.49,7.49,0,0,1-.217-.989A9.4,9.4,0,0,1,837.073,174.22Z" transform="translate(-793.012 -163.712)" fill="#fff"></path></g></g><g id="Group_2855" data-name="Group 2855" transform="translate(582.127 20.211)"><g id="Group_2854" data-name="Group 2854"><path id="Path_21685" data-name="Path 21685" d="M784.687,20.248c-.987-.678-7.5,8.171-10.742,8.4l-5.687,21.637s13.823,5.005,20.379.065L785.872,33.1l-1.5-1.227,1.264-.065-.869-1.356s.51-5.031,2.212-2.713c.118.161,10.031,1.905,10.979-.582C797.958,27.159,787.935,22.479,784.687,20.248Z" transform="translate(-756.521 -20.211)" fill="#e94200"></path><path id="Path_21686" data-name="Path 21686" d="M765.432,130.189s-9.716,6.477-25.987.395l-8.847,2.449s11.967,7.7,17.378,10.269,12.757,5.174,20.379,2.686l-.237-1.9,2.844,1.264.316-1.5,1.817.711s9.4-1.5,5.687-11.216C778.781,133.349,771.159,133.665,765.432,130.189Z" transform="translate(-730.598 -95.914)" fill="#f48100"></path><g id="Group_2853" data-name="Group 2853" transform="translate(8.121 29.091)"><path id="Path_21687" data-name="Path 21687" d="M777.439,114.428a23.405,23.405,0,0,1-15.562-.62,3.854,3.854,0,0,0-5.168,4.225,3.738,3.738,0,0,0,.079.366c.191.147.382.3.582.433.016.011,0,.038-.016.027-.186-.127-.367-.26-.545-.4a2.763,2.763,0,0,0,.44.907c.226.3,19.1,6.1,27.512-1.11A5.893,5.893,0,0,0,777.439,114.428Z" transform="translate(-756.655 -113.554)" fill="#df2200"></path><rect id="Rectangle_182" data-name="Rectangle 182" width="13.304" height="9.361" rx="4.68" transform="translate(6.431 0.018)" fill="#f68600"></rect><path id="Path_21688" data-name="Path 21688" d="M800.872,113.611h-3.218c.008.088.018.176.03.265a.858.858,0,0,0,.424.709,6.2,6.2,0,0,0,2.119.443,4.639,4.639,0,0,1,1.852.538,3.347,3.347,0,0,1,1.157,1.195,4.162,4.162,0,0,1,.469,3,2.266,2.266,0,0,1-.765,1.33c-.421.343-1.03.6-1.284,1.045a1.984,1.984,0,0,0-.222.8c1.792-.213,3.179-1.424,3.179-2.879v-3.529C804.612,114.923,802.929,113.611,800.872,113.611Z" transform="translate(-784.877 -113.593)" fill="#ff9c31"></path><rect id="Rectangle_183" data-name="Rectangle 183" width="11.329" height="7.971" rx="3.985" transform="translate(7.419 0.713)" fill="none" stroke="#24007c" stroke-miterlimit="10" stroke-width="0.25"></rect><rect id="Rectangle_184" data-name="Rectangle 184" width="8.735" height="6.146" rx="3.073" transform="translate(8.715 1.625)" fill="#e94200"></rect></g></g><path id="Path_21689" data-name="Path 21689" d="M776.7,20.248c-.987-.678-7.5,8.171-10.742,8.4L760.528,49.3a3.855,3.855,0,0,0-3.819,4.477,3.543,3.543,0,0,0,.083.37c.19.146.379.294.578.43.016.011,0,.038-.016.027-.185-.126-.365-.259-.542-.394a2.954,2.954,0,0,0,.3.678,14.254,14.254,0,0,0,2.98.883c.335.062.673.107,1.011.145a30.751,30.751,0,0,1,.172-3.418,5.325,5.325,0,0,1,1.3-3.18c.348-.343.747-.63,1.1-.973a2.709,2.709,0,0,0,.688-1.11,13.455,13.455,0,0,0,.563-2.927,10.145,10.145,0,0,0,.009-2.867c-.024-.123.083-.276.223-.223a5.714,5.714,0,0,1,2.479,2.221,8.169,8.169,0,0,0,2.129,2.353,4.631,4.631,0,0,0-.1-1.759c-.6-2.606-2.374-4.748-3.17-7.28a.182.182,0,0,1,.264-.2,7.573,7.573,0,0,0,1.419.742c.327.1.563.046.668-.3a3.71,3.71,0,0,0-.032-1.889c-.3-1.187-1.051-2.228-1.143-3.471a.17.17,0,0,1,.255-.146,5.876,5.876,0,0,0,1.712.934c.249.065.443.055.519-.173a2.076,2.076,0,0,0,0-.872c-.051-.412-.131-.821-.2-1.231a5.361,5.361,0,0,1-.014-2.494,3.141,3.141,0,0,1,.908-1.26,13.354,13.354,0,0,1,1.8-1.324,20.922,20.922,0,0,0,1.862-1.279,6.01,6.01,0,0,0,.772-.8,6.275,6.275,0,0,0,.806-1.107.163.163,0,0,1,.218-.057c.994.424,1.963.9,2.922,1.4,3.343,1.737,6.738,3.807,10.554,4.233a1.135,1.135,0,0,0,.178-.3S779.948,22.479,776.7,20.248Z" transform="translate(-748.534 -20.211)" fill="#f48100"></path><path id="Path_21690" data-name="Path 21690" d="M822.113,63.3a5.991,5.991,0,0,0-4.149-3.9l-2.726-17-1.5-1.227L815,41.1l-.869-1.356s.51-5.031,2.211-2.713c.118.161,10.031,1.905,10.979-.582l-.133-.062a13.4,13.4,0,0,1-1.486.182c-4.363.282-8.595-1.3-12.6-2.86a6.579,6.579,0,0,1-.656,3.3c-.447,1.038-1.021,2.011-1.532,3.016a8.335,8.335,0,0,0,.891-.175c.182-.056.3.118.277.277a5.906,5.906,0,0,1-.786,2.1,5.382,5.382,0,0,1,1.421-.262.234.234,0,0,1,.223.169,23.358,23.358,0,0,1,.608,4.227c.29,4.956-.636,9.865-1.087,14.783a2.124,2.124,0,0,1,.448-.145,3.331,3.331,0,0,1,3.264,1.339,5.226,5.226,0,0,1,.467,2.909,5.968,5.968,0,0,0,1.436,3.416,24,24,0,0,0,2.68,2.8,27.541,27.541,0,0,0,6.87,4.764,16.4,16.4,0,0,0,3.14,1.133c2.5-1.189,5.746-4.024,3.3-10.425,0,0-7.243.3-12.913-2.906A11.46,11.46,0,0,0,822.113,63.3Z" transform="translate(-785.887 -29.503)" fill="#e94200" style="mix-blend-mode: multiply;isolation: isolate"></path></g><g id="Group_2856" data-name="Group 2856" transform="translate(551.968 97.974)"><path id="Path_21691" data-name="Path 21691" d="M753.79,333.055a4.678,4.678,0,0,1,3.028-1.716,12.17,12.17,0,0,1,2.3-.317,9.759,9.759,0,0,0,2.327-.293,9.083,9.083,0,0,0,3.294-2.28,31.559,31.559,0,0,1,3.563-2.791,23.412,23.412,0,0,1,4.133-2.286,30.023,30.023,0,0,1,4.626-1.42c.783-.183,1.569-.346,2.356-.507.575-.118,1.148-.245,1.727-.328-2.243-9.053-9.976-15.729-19.174-15.729-10.953,0-19.832,9.465-19.832,21.141a22.154,22.154,0,0,0,2.355,10c2.464-.527,4.922-1.086,7.374-1.656l1.447-.338A3.191,3.191,0,0,1,753.79,333.055Z" transform="translate(-708.383 -294.275)" fill="#001233"></path><path id="Path_21692" data-name="Path 21692" d="M807.755,389.7a27.57,27.57,0,0,1-4.6-1.065,37.184,37.184,0,0,0-4.593-1.252c-.322-.055-.516.364-.15.436,1.583.312,3.112.8,4.656,1.26a16.781,16.781,0,0,0,4.641.875C807.876,389.953,807.941,389.721,807.755,389.7Z" transform="translate(-746.985 -350.711)" fill="#032351"></path><path id="Path_21693" data-name="Path 21693" d="M787.736,389.43a5.459,5.459,0,0,0-1.659.895,4.37,4.37,0,0,0-1.044,1.374,5.01,5.01,0,0,0-.48,1.81,5.961,5.961,0,0,0,.017,1.1,2.326,2.326,0,0,0,.223.955.226.226,0,0,0,.4-.086,4.835,4.835,0,0,0-.114-.924,5.93,5.93,0,0,1-.019-.936,4.829,4.829,0,0,1,.426-1.727,4.562,4.562,0,0,1,2.43-2.218C788.126,389.576,787.909,389.362,787.736,389.43Z" transform="translate(-737.567 -352.116)" fill="#032351"></path><path id="Path_21694" data-name="Path 21694" d="M794.445,390.032a5.463,5.463,0,0,0-1.659.895,4.371,4.371,0,0,0-1.044,1.374,5,5,0,0,0-.479,1.81,5.932,5.932,0,0,0,.016,1.1,2.33,2.33,0,0,0,.223.956.227.227,0,0,0,.4-.086,4.844,4.844,0,0,0-.114-.924,5.941,5.941,0,0,1-.019-.936,4.83,4.83,0,0,1,.426-1.727,4.563,4.563,0,0,1,2.43-2.218C794.836,390.178,794.619,389.964,794.445,390.032Z" transform="translate(-742.185 -352.53)" fill="#032351"></path><path id="Path_21695" data-name="Path 21695" d="M808.75,393.209a4.032,4.032,0,0,0-1.271.8,3.912,3.912,0,0,0-.8,1.233,5.108,5.108,0,0,0-.368,1.624,6.24,6.24,0,0,0,.013.987,2.387,2.387,0,0,0,.171.857.166.166,0,0,0,.3-.077,5.024,5.024,0,0,0-.088-.829,6.246,6.246,0,0,1-.014-.84,4.944,4.944,0,0,1,.327-1.549,3.768,3.768,0,0,1,1.862-1.989C809.049,393.34,808.883,393.147,808.75,393.209Z" transform="translate(-752.546 -354.718)" fill="#032351"></path><path id="Path_21696" data-name="Path 21696" d="M659.668,395.7a10.551,10.551,0,0,0-3.808-2.632,13.118,13.118,0,0,0-2.2-.743,7.528,7.528,0,0,0-1.9-.261l-.017.011a3.894,3.894,0,0,1-.53.312c-.075.033-.152.061-.229.087a.292.292,0,0,0,.272.084,5.674,5.674,0,0,1,2.417.236,12.747,12.747,0,0,1,2.065.719,18.108,18.108,0,0,1,3.644,2.362C659.5,395.965,659.8,395.859,659.668,395.7Z" transform="translate(-645.638 -353.937)" fill="#032351"></path><path id="Path_21697" data-name="Path 21697" d="M906.88,404.163" transform="translate(-821.782 -362.266)" fill="none" stroke="#fff" stroke-miterlimit="10" stroke-width="1"></path><path id="Path_21698" data-name="Path 21698" d="M891.451,412.2" transform="translate(-811.162 -367.799)" fill="none" stroke="#fff" stroke-miterlimit="10" stroke-width="1"></path><path id="Path_21699" data-name="Path 21699" d="M661.2,269.729a11.515,11.515,0,0,0-1.356,2.5,75.85,75.85,0,0,0-5.054,18.638,23.076,23.076,0,0,1-.859,4.824,6.007,6.007,0,0,1-3.214,3.213,28.27,28.27,0,0,0-4.035,2.331,19.025,19.025,0,0,0-3.409,3.27,15.248,15.248,0,0,1-3,3.2,9.964,9.964,0,0,1-3.681,1.14,4.173,4.173,0,0,0-2.776,1.491" transform="translate(-633.827 -269.729)" fill="none" stroke="#154660" stroke-linecap="round" stroke-linejoin="round" stroke-width="2"></path><path id="Path_21700" data-name="Path 21700" d="M814.148,351.99s-12.653.919-17.728,4.237c-5,3.266-9.325,7.293-11.987,6.96s-6.827,1.483-5.047,5.187" transform="translate(-733.727 -326.353)" fill="none" stroke="#154660" stroke-linecap="round" stroke-linejoin="round" stroke-width="2"></path><path id="Path_21701" data-name="Path 21701" d="M800.455,340.783a11.16,11.16,0,0,0-.263-2.361,8.241,8.241,0,0,0-.933-2.518c-.04-.065-.2-.031-.162.055.245.644.511,1.275.7,1.94a10.878,10.878,0,0,1,.363,2.077q.04.525.029,1.052a2.4,2.4,0,0,1-.124.9.572.572,0,0,1-.742.329,1.242,1.242,0,0,1-.682-.7c-.168-.347-.291-.718-.429-1.077-.153-.4-.307-.8-.459-1.194-.049-.128-.279-.089-.255.056a12.261,12.261,0,0,1,.056,3.832c-.047.318-.1.636-.179.949-.071.295-.226.57-.558.376a2.5,2.5,0,0,1-.906-1.3c-.019-.053-.029-.108-.045-.161a7.943,7.943,0,0,0-.068-1.668c-.02-.138-.282-.191-.316-.034,0,.012,0,.023,0,.034h0v0a3.523,3.523,0,0,0,.055,1.625,7.562,7.562,0,0,1-.167,1.195,4.675,4.675,0,0,1-1.061,2.266,1.609,1.609,0,0,1-2.071.321,2.1,2.1,0,0,1-.606-1.042,9.24,9.24,0,0,1-.332-1.368,9.734,9.734,0,0,1,.007-3.206c.018-.1-.162-.136-.183-.04a9.028,9.028,0,0,0-.149,3.1,9.153,9.153,0,0,0,.326,1.509,2.635,2.635,0,0,0,.592,1.131,1.839,1.839,0,0,0,2.2.142,3.7,3.7,0,0,0,1.456-2.19,7.73,7.73,0,0,0,.252-1.122,2.477,2.477,0,0,0,.768.952.742.742,0,0,0,.731.113.869.869,0,0,0,.393-.681,12.877,12.877,0,0,0,.259-2.249,12.364,12.364,0,0,0-.051-1.457l.073.19a11.84,11.84,0,0,0,.442,1.1c.262.52.83,1.026,1.455.78S800.457,341.342,800.455,340.783Z" transform="translate(-741.947 -315.258)" fill="#154660"></path></g><g id="Group_2859" data-name="Group 2859" transform="translate(580.433 97.161)"><path id="Path_21702" data-name="Path 21702" d="M778.545,267.12a17.371,17.371,0,0,1-1.948,3.321,26.523,26.523,0,0,1-2.519,2.959,28.534,28.534,0,0,1-6.278,4.752c-.572.342-1.181.611-1.778.916a9.265,9.265,0,0,1-.916.407l-.931.379a27.6,27.6,0,0,1-3.85,1.193,31.08,31.08,0,0,1-8.023.779l-2.009-.127c-.665-.073-1.325-.177-1.987-.269-.329-.055-.663-.087-.987-.162l-.974-.214-.971-.221-.485-.112c-.16-.041-.317-.094-.476-.141-.632-.192-1.263-.386-1.89-.588l-.47-.151-.458-.181-.913-.367-.91-.367a9.355,9.355,0,0,1-.9-.393l-1.747-.87a39.729,39.729,0,0,1-11.967-9.49c1.214.431,2.373.913,3.511,1.408,1.166.451,2.312.908,3.438,1.381l1.716.637c.572.206,1.122.453,1.695.643s1.14.385,1.7.581l.845.294c.282.1.57.172.852.262,1.137.342,2.259.7,3.4.971l.848.218.422.112.427.088c.569.113,1.135.234,1.7.358.281.069.566.112.85.154l.85.134.848.141c.282.054.567.063.85.1.567.056,1.132.134,1.7.18l1.7.091a36.878,36.878,0,0,0,13.376-1.986,43.176,43.176,0,0,0,6.446-2.838A49.678,49.678,0,0,0,778.545,267.12Z" transform="translate(-725.163 -267.12)" fill="#f48100"></path><path id="Path_21703" data-name="Path 21703" d="M773.22,271.1a43.175,43.175,0,0,1-6.446,2.838,36.879,36.879,0,0,1-13.376,1.986l-1.7-.091c-.566-.046-1.131-.124-1.7-.18-.283-.034-.568-.043-.85-.1l-.848-.141-.85-.134c-.284-.042-.568-.085-.849-.154-.564-.123-1.13-.244-1.7-.358l-.427-.088-.422-.112-.848-.218c-1.138-.269-2.26-.629-3.4-.971-.283-.089-.57-.166-.852-.262l-.845-.294c-.565-.2-1.129-.4-1.7-.581s-1.123-.437-1.695-.643L733,270.962c-1.126-.473-2.272-.93-3.438-1.381-1.011-.44-2.041-.867-3.109-1.26.191.123.381.246.573.367,2.1,1.33,4.221,2.609,6.429,3.748a51.267,51.267,0,0,0,6.9,2.962,43.407,43.407,0,0,0,7.662,1.787,38.606,38.606,0,0,0,3.927.418,22.365,22.365,0,0,0,3.611-.21c2.38-.282,4.825-.734,7.212-.275a.192.192,0,0,1,.134.235,3.2,3.2,0,0,1-1.076,1.276,1.788,1.788,0,0,1,.9.16.181.181,0,0,1,.065.247,10.328,10.328,0,0,1-.618.962,1.791,1.791,0,0,1,.529.655q1.2-.351,2.359-.8l.931-.379a9.251,9.251,0,0,0,.916-.407c.6-.3,1.205-.574,1.778-.916a28.526,28.526,0,0,0,6.278-4.752,26.5,26.5,0,0,0,2.519-2.959,17.371,17.371,0,0,0,1.948-3.321A49.674,49.674,0,0,1,773.22,271.1Z" transform="translate(-726.052 -267.12)" fill="#f48100" style="mix-blend-mode: multiply;isolation: isolate"></path><g id="Group_2858" data-name="Group 2858" transform="translate(21.272 11.252)"><g id="Group_2857" data-name="Group 2857"><path id="Path_21704" data-name="Path 21704" d="M802.632,311.751a1.464,1.464,0,0,0,.777-.774,1.8,1.8,0,0,0,.112-.8,1.405,1.405,0,0,1,.093-.724c.24-.459.871-.454,1.237-.772a1.736,1.736,0,0,0,.474-1.3c0-.077,0-.159,0-.242a1.412,1.412,0,0,0-.384-.6,2.466,2.466,0,0,0-.726-.414,5.117,5.117,0,0,0-.893-.32.142.142,0,0,0-.039,0c-.088-.121-.179-.24-.279-.352a3.2,3.2,0,0,0-.5-.737,4.389,4.389,0,0,0-1.659-1.137,5.372,5.372,0,0,0-2.306-.339,4.676,4.676,0,0,0-2.161.624,4.927,4.927,0,0,0-1.984,3.344,1.024,1.024,0,0,0-.724.443,1.663,1.663,0,0,0-.232,1.1,1.5,1.5,0,0,0,.294.771c.544.476,1.471.358,2.167.335a.244.244,0,0,1,.209.364,1.311,1.311,0,0,0-.028.982,2.559,2.559,0,0,0,.389.879.8.8,0,0,0,.621.335c.031,0,.061,0,.091,0a2.458,2.458,0,0,0,1.12-1.047,1.663,1.663,0,0,0,1.713.892,1.6,1.6,0,0,0,1.24-1.144,1.7,1.7,0,0,0,1.348.644Z" transform="translate(-793.42 -303.223)" fill="#fff"></path><path id="Path_21705" data-name="Path 21705" d="M803.831,313.605c-.008-.028-.017-.055-.026-.081a2.283,2.283,0,0,0-.19-.422,2.334,2.334,0,0,0-.544-.675,1.2,1.2,0,0,0-.907-.3.652.652,0,0,0-.589.635,2.164,2.164,0,0,0,.267.9,2.93,2.93,0,0,0,.566.8,1.135,1.135,0,0,0,.809.35.756.756,0,0,0,.713-.463A.952.952,0,0,0,803.831,313.605Z" transform="translate(-799.033 -309.345)" fill="#092042"></path><path id="Path_21706" data-name="Path 21706" d="M816.687,312.581a.756.756,0,0,0-.713-.463,1.134,1.134,0,0,0-.809.35,2.921,2.921,0,0,0-.566.8,2.165,2.165,0,0,0-.267.9.652.652,0,0,0,.589.635,1.2,1.2,0,0,0,.907-.3,2.344,2.344,0,0,0,.544-.675,2.278,2.278,0,0,0,.19-.422c.008-.026.018-.054.026-.081A.952.952,0,0,0,816.687,312.581Z" transform="translate(-807.814 -309.346)" fill="#092042"></path><path id="Path_21707" data-name="Path 21707" d="M810.793,321.263c-.071-.076-.14-.153-.209-.232a2.312,2.312,0,0,0-.206-.231.3.3,0,0,0-.416.025,1.293,1.293,0,0,0-.17.252c-.016.03-.028.062-.044.093a1.235,1.235,0,0,0-.13.209.9.9,0,0,0-.1.485.284.284,0,0,0,.129.214.308.308,0,0,0,.331-.02.672.672,0,0,0,.184-.217c.007-.012.051-.09.081-.152l.055.05a.664.664,0,0,0,.212.142.4.4,0,0,0,.485-.133C811.1,321.555,810.913,321.394,810.793,321.263Z" transform="translate(-804.495 -315.272)" fill="#092042"></path></g><path id="Path_21708" data-name="Path 21708" d="M816.486,307.139a1.411,1.411,0,0,0-.384-.6,2.466,2.466,0,0,0-.726-.414,5.119,5.119,0,0,0-.893-.32.142.142,0,0,0-.039,0c-.088-.121-.178-.24-.279-.352a3.192,3.192,0,0,0-.5-.737,4.389,4.389,0,0,0-1.659-1.137,5.372,5.372,0,0,0-2.306-.339l-.059.005a3.141,3.141,0,0,1,1.461,1.038,2.08,2.08,0,0,1,.472,1.455,3.2,3.2,0,0,1-.18.8,1.385,1.385,0,0,1,1.465-.124.756.756,0,0,1,.241,1.012,1.548,1.548,0,0,1-.681.584,9.928,9.928,0,0,1,.445,1.138,3.932,3.932,0,0,1,.147,2.437v0a1.47,1.47,0,0,0,.751.167l.035,0a1.464,1.464,0,0,0,.777-.774,1.8,1.8,0,0,0,.112-.8,1.405,1.405,0,0,1,.093-.724c.24-.459.871-.454,1.237-.772a1.736,1.736,0,0,0,.474-1.3C816.491,307.3,816.49,307.223,816.486,307.139Z" transform="translate(-804.586 -303.223)" fill="#565656" opacity="0.54" style="mix-blend-mode: multiply;isolation: isolate"></path></g></g></g></g></svg>