<svg xmlns="http://www.w3.org/2000/svg" width="199.125" height="135.331" viewBox="0 0 199.125 135.331"><g id="Group_3118" data-name="Group 3118" transform="translate(-1247 -4851.173)"><g id="Group_3117" data-name="Group 3117" transform="translate(1330.375 4865.708)"><g id="Group_3105" data-name="Group 3105" transform="translate(0.717 96.726)" opacity="0.36"><g id="Group_2861" data-name="Group 2861"><path id="Path_21709" data-name="Path 21709" d="M247.315,418.647c4.9-1.593,7.727-3.463,7.727-5.463,0-5.809-23.8-10.518-53.16-10.518s-53.159,4.709-53.159,10.518,23.8,10.518,53.159,10.518a217.578,217.578,0,0,0,33.712-2.385,27.6,27.6,0,0,0,8.672,1.066c5.351,0,9.688-.858,9.688-1.917C253.955,419.617,251.17,418.9,247.315,418.647Z" transform="translate(-146.436 -402.666)" fill="#412c4c" stroke="rgba(0,0,0,0)" stroke-width="1" style="mix-blend-mode: multiply;isolation: isolate"></path><path id="Path_21710" data-name="Path 21710" d="M146.33,437.071c0-.224-.688-.405-1.538-.405s-1.538.182-1.538.405.689.405,1.538.405S146.33,437.3,146.33,437.071Z" transform="translate(-143.18 -422.912)" fill="#412c4c" stroke="rgba(0,0,0,0)" stroke-width="1" style="mix-blend-mode: multiply;isolation: isolate"></path><ellipse id="Ellipse_341" data-name="Ellipse 341" cx="3.768" cy="0.993" rx="3.768" ry="0.993" transform="translate(2.159 16.757)" fill="#412c4c" stroke="rgba(0,0,0,0)" stroke-width="1" style="mix-blend-mode: multiply;isolation: isolate"></ellipse><path id="Path_21711" data-name="Path 21711" d="M352.222,445.93c-1.188,0-2.152.254-2.152.567s.964.568,2.152.568,2.152-.254,2.152-.568S353.411,445.93,352.222,445.93Z" transform="translate(-239.841 -428.429)" fill="#412c4c" stroke="rgba(0,0,0,0)" stroke-width="1" style="mix-blend-mode: multiply;isolation: isolate"></path><path id="Path_21712" data-name="Path 21712" d="M147.374,416.831c0-.313-.964-.567-2.152-.567s-2.152.254-2.152.567.964.567,2.152.567S147.374,417.144,147.374,416.831Z" transform="translate(-143.07 -410.763)" fill="#412c4c" stroke="rgba(0,0,0,0)" stroke-width="1" style="mix-blend-mode: multiply;isolation: isolate"></path><path id="Path_21713" data-name="Path 21713" d="M350.053,438.235c0-.411-1.266-.745-2.826-.745s-2.827.334-2.827.745,1.266.745,2.827.745S350.053,438.646,350.053,438.235Z" transform="translate(-236.464 -423.403)" fill="#412c4c" stroke="rgba(0,0,0,0)" stroke-width="1" style="mix-blend-mode: multiply;isolation: isolate"></path><path id="Path_21714" data-name="Path 21714" d="M341.9,415.314c1.561,0,2.827-.333,2.827-.745s-1.266-.745-2.827-.745-2.826.334-2.826.745S340.336,415.314,341.9,415.314Z" transform="translate(-233.291 -409.31)" fill="#412c4c" stroke="rgba(0,0,0,0)" stroke-width="1" style="mix-blend-mode: multiply;isolation: isolate"></path></g></g><g id="Group_2860" data-name="Group 2860" transform="translate(-3 -2)"><path id="Path_21643" data-name="Path 21643" d="M709.535,284.45a104.138,104.138,0,0,0-1.853-13.865c-.458-2.321-.978-4.63-1.543-6.928q-.431-1.755-.9-3.5a18.756,18.756,0,0,0-.6-2.024c-3.5,6.238-9.6,12.791-19.784,12.877a41.885,41.885,0,0,1-26.938-9.92,10.206,10.206,0,0,0-1.2,2.218,67.259,67.259,0,0,0-4.481,16.524,20.464,20.464,0,0,1-.761,4.276,5.324,5.324,0,0,1-2.849,2.849,25.067,25.067,0,0,0-3.577,2.066,16.865,16.865,0,0,0-3.022,2.9,13.519,13.519,0,0,1-2.655,2.84,8.838,8.838,0,0,1-3.263,1.011,3.7,3.7,0,0,0-2.461,1.322,2.5,2.5,0,0,0,.462,3.061,5.479,5.479,0,0,0,3.628,1.357c1.625.146,3.262.195,4.893.2a81.677,81.677,0,0,0,9.825-.6,179.121,179.121,0,0,0,19.52-3.706l1.792-.419a2.039,2.039,0,0,0,.161,1.606A2.973,2.973,0,0,0,675.908,300a16.05,16.05,0,0,0,3.256.319c1.2.059,2.394.1,3.592.123,4.9.1,9.805.035,14.706.026l7.365-.014a8.015,8.015,0,0,0,2.725-.254,2.413,2.413,0,0,0,1.538-1.966,30.952,30.952,0,0,0,.361-3.225q.147-1.792.2-3.589C709.72,289.1,709.676,286.77,709.535,284.45Z" transform="translate(-600.591 -192.396)" fill="#391d59"></path><path id="Path_21644" data-name="Path 21644" d="M642.029,397.354a2.318,2.318,0,0,0-1.713-.164,3.644,3.644,0,0,0-1.573.75,3.16,3.16,0,0,0-.968,1.4,2.38,2.38,0,0,0-.031,1.7c.079.161.434.184.429-.046s-.048-.474-.043-.714a2.673,2.673,0,0,1,.116-.715,2.807,2.807,0,0,1,.774-1.252,3.079,3.079,0,0,1,1.281-.7,3.744,3.744,0,0,1,.725-.116,1.548,1.548,0,0,1,.779.082C641.949,397.659,642.211,397.47,642.029,397.354Z" transform="translate(-603.699 -292.971)" fill="#032351"></path><path id="Path_21645" data-name="Path 21645" d="M653.944,398.651a9.317,9.317,0,0,0-1.875-.06,2.323,2.323,0,0,0-1.315.83,3.861,3.861,0,0,0-.714,1.547c-.075.3-.132.6-.185.906a2.1,2.1,0,0,0,0,.954c.074.258.582.174.508-.112a2.021,2.021,0,0,1,.022-.874c.048-.267.1-.533.166-.8a3.763,3.763,0,0,1,.6-1.37,1.864,1.864,0,0,1,1.1-.743,10.208,10.208,0,0,1,1.682.011C654.172,398.937,654.174,398.652,653.944,398.651Z" transform="translate(-612.531 -294.015)" fill="#032351"></path><g id="Group_2843" data-name="Group 2843" transform="translate(0 41.384)"><path id="Path_21646" data-name="Path 21646" d="M559.875,178.45a11.8,11.8,0,0,1,6.834-7.413,11.642,11.642,0,0,1,10.07.206,12.119,12.119,0,0,1,6.079,7.719,14.8,14.8,0,0,1-1.352,10.409,44.329,44.329,0,0,1-3.112,5.042c-.766,1.124-1.49,2.186-2.145,3.3-1.635,2.783-2.262,5.167-1.918,7.289a5.921,5.921,0,0,0,1.094,2.661,4.479,4.479,0,0,0,2.475,1.523c.433.12.91.229,1.415.345,2.641.6,6.257,1.433,7.315,5.1a4.889,4.889,0,0,1-.09,3.075,2.273,2.273,0,0,1-2.16,1.437,2.516,2.516,0,0,1-.851-.149,2.077,2.077,0,0,1-1.315-2.678,1.472,1.472,0,0,0-.649-1.433,7.727,7.727,0,0,0-3.1-1.1l-.292-.062a12.209,12.209,0,0,1-4.771-1.847,8.84,8.84,0,0,1-2.788-3.479,11.96,11.96,0,0,1-.242-8.844,31.031,31.031,0,0,1,4.15-7.5q.309-.453.615-.9c1.568-2.322,3.127-4.815,3.464-7.519a8.873,8.873,0,0,0-1.837-6.815,6.831,6.831,0,0,0-5.544-2.495,8.25,8.25,0,0,0-5.959,3.256,6.341,6.341,0,0,0-.986,5.6c.45,1.582,1.7,3.577,3.736,3.994a2.337,2.337,0,0,0,1.16-.042,2.172,2.172,0,0,1,2.657,1.4A1.954,1.954,0,0,1,570.593,191c-3.784,1.378-7.473-.978-9.3-3.751A10.956,10.956,0,0,1,559.875,178.45Z" transform="translate(-547.182 -169.995)" fill="#000c23"></path><path id="Path_21647" data-name="Path 21647" d="M549.092,331.905a3.7,3.7,0,0,1,2.461-1.322,8.84,8.84,0,0,0,3.263-1.011,13.53,13.53,0,0,0,2.655-2.84,16.86,16.86,0,0,1,3.022-2.9,25.081,25.081,0,0,1,3.577-2.066,5.324,5.324,0,0,0,2.849-2.849,20.448,20.448,0,0,0,.761-4.276,69.9,69.9,0,0,1,1.7-8.364,1.988,1.988,0,0,0-.82,0c-.368.076-.258.458.022.519a.212.212,0,0,0-.047.008c-4.585,1.7-9.5,2.124-14.233,3.24-2.419.57-4.808,1.26-7.18,2s-4.726,1.486-7.065,2.295a28.792,28.792,0,0,0-3.36,1.364,23.524,23.524,0,0,0-2.71,1.6c-1.7,1.147-3.3,2.442-5,3.583a16.242,16.242,0,0,1-5.712,2.564c-2.141.446-4.5.61-6.245,2.08a5.261,5.261,0,0,0-1.461,5.379,9.8,9.8,0,0,0,1.124,2.844,3.264,3.264,0,0,0,1.032,1.113,4.3,4.3,0,0,0,1.557.547c2.48.443,4.983-.125,7.427-.525q3.741-.613,7.521-.951c2.489-.222,4.983-.344,7.481-.4,2.35-.053,4.7-.075,7.049-.245A2.121,2.121,0,0,1,549.092,331.905Z" transform="translate(-515.253 -268.59)" fill="#2a1348"></path><path id="Path_21648" data-name="Path 21648" d="M570.946,372.915a1.9,1.9,0,0,0-1.279.787,9.026,9.026,0,0,1-3.943-.078c-1.544-.3-3.078-.651-4.623-.946a63.269,63.269,0,0,0-9.519-1.185c-3.3-.122-6.606.033-9.9.116-1.592.04-3.186.059-4.777.123a4.013,4.013,0,0,0-3.373,1.384,6.36,6.36,0,0,0-.75,3.8,8.378,8.378,0,0,0,1.069,4,6.008,6.008,0,0,0,1.582,1.763c1.294-.133,2.585-.386,3.859-.595q3.741-.613,7.521-.951c2.489-.222,4.983-.344,7.481-.4,2.35-.053,4.7-.075,7.049-.245a2.122,2.122,0,0,1,.332-1.381,3.7,3.7,0,0,1,2.461-1.322,8.84,8.84,0,0,0,3.263-1.011,13.535,13.535,0,0,0,2.655-2.84Q570.479,373.4,570.946,372.915Z" transform="translate(-527.833 -315.787)" fill="#001233"></path><path id="Path_21649" data-name="Path 21649" d="M538.115,384.6c-.5.036-1.01-.009-1.514,0s-1.028.046-1.54.1a15.13,15.13,0,0,0-1.5.235c-.35.075-.768.189-.916.549-.086.207.246.25.362.169a2.7,2.7,0,0,1,1.131-.407c.456-.088.916-.16,1.378-.21s.929-.079,1.395-.089a3.922,3.922,0,0,0,1.28-.138C538.324,384.765,538.235,384.593,538.115,384.6Z" transform="translate(-527.731 -325.306)" fill="#092042"></path><path id="Path_21650" data-name="Path 21650" d="M540.96,394.151a6.976,6.976,0,0,0-1.5-.193,7.426,7.426,0,0,0-1.485.154,6.021,6.021,0,0,0-1.293.417,2.528,2.528,0,0,0-1.073.726c-.109.175.135.283.275.22a3.5,3.5,0,0,0,.481-.315,4.285,4.285,0,0,1,.555-.3,5.491,5.491,0,0,1,1.179-.382,7.759,7.759,0,0,1,2.772-.064C541.061,394.441,541.177,394.2,540.96,394.151Z" transform="translate(-529.868 -332.078)" fill="#092042"></path><path id="Path_21651" data-name="Path 21651" d="M518.842,385.13a7.049,7.049,0,0,0-1.272.11,7.925,7.925,0,0,0-1.19.345,3.115,3.115,0,0,0-.95.542,2.251,2.251,0,0,0-.353.385.85.85,0,0,0-.171.484c-.013.171.264.178.342.074a3.859,3.859,0,0,1,.6-.718,3,3,0,0,1,.832-.46,6.819,6.819,0,0,1,1.013-.291,10.38,10.38,0,0,1,1.147-.217C519.035,385.365,519.046,385.124,518.842,385.13Z" transform="translate(-514.905 -325.689)" fill="#032351"></path><path id="Path_21652" data-name="Path 21652" d="M520.569,398.052a6.847,6.847,0,0,0-1.9.264,14.212,14.212,0,0,0-1.841.573.191.191,0,0,0-.093.284.3.3,0,0,0,.355.075,13.927,13.927,0,0,1,1.747-.55c.589-.144,1.2-.2,1.784-.361C520.818,398.282,520.76,398.063,520.569,398.052Z" transform="translate(-516.203 -335.037)" fill="#032351"></path></g><g id="Group_2852" data-name="Group 2852" transform="translate(49.67 21.573)"><g id="Group_2845" data-name="Group 2845" transform="translate(34.896)"><g id="Group_2844" data-name="Group 2844"><path id="Path_21653" data-name="Path 21653" d="M850.87,116.559c1.4-4.084,5.236-14.482,10.286-16.872,4.018,3.148,6.9,29.5,6.9,29.5l-.562-.091A38.6,38.6,0,0,0,850.87,116.559Z" transform="translate(-842.61 -99.301)" fill="#ff8b9f"></path><path id="Path_21654" data-name="Path 21654" d="M862.166,104.17a2.556,2.556,0,0,0-1.361.959,4.719,4.719,0,0,0-.822,2.928,12.165,12.165,0,0,0,.532,3.365c.1.334.209.665.328.994a4.278,4.278,0,0,0-.768-.609,2.128,2.128,0,0,0-1.2-.353,1.963,1.963,0,0,0-1.116.467,1.837,1.837,0,0,0-.5,1.853,12.725,12.725,0,0,0,1.87,3.644,2.213,2.213,0,0,0-1.075.182,1.539,1.539,0,0,0-.759.981,3.337,3.337,0,0,0-.133,1.094,35.276,35.276,0,0,0-6.29-3.118c1.4-4.084,5.236-14.482,10.286-16.872.841.659,1.631,2.335,2.356,4.57A2.377,2.377,0,0,0,862.166,104.17Z" transform="translate(-842.61 -99.301)" fill="#208c7f" opacity="0.31" style="mix-blend-mode: multiply;isolation: isolate"></path><path id="Path_21655" data-name="Path 21655" d="M829.334,115.49a34.557,34.557,0,0,0-8.359-1.993l.457-.276s13.317-15.831,17.625-14.889a1.42,1.42,0,0,1,.563.285C834.57,101.008,830.736,111.405,829.334,115.49Z" transform="translate(-820.975 -98.292)" fill="#2a1348"></path></g><path id="Path_21656" data-name="Path 21656" d="M883.154,129.992a18.24,18.24,0,0,0,2.216-4.513,9.563,9.563,0,0,0,.371-4.851,3.693,3.693,0,0,0-1.283-2.214c-.023-.017.015-.046.034-.033a2.988,2.988,0,0,1,.834.744,3.915,3.915,0,0,1,.533,1.021,6.655,6.655,0,0,1,.306,2.433,12.819,12.819,0,0,1-1.313,4.971c-.29.616-.617,1.215-.965,1.8a2.256,2.256,0,0,1,.765-.337,1.578,1.578,0,0,1,1.415.367,1.45,1.45,0,0,1,.219,1.521,4.777,4.777,0,0,1-.227.63.519.519,0,0,1,.577.446,3.641,3.641,0,0,1-.114,1.31,4.025,4.025,0,0,1-.518,1.226c-.066.1-.317.051-.245-.085a4.792,4.792,0,0,0,.588-1.936c.017-.252.08-.754-.309-.716a.379.379,0,0,0-.1.027,4.776,4.776,0,0,1-.449.72c-.086.113-.344.074-.285-.1a1.5,1.5,0,0,1,.46-.755,4.555,4.555,0,0,0,.256-.616,1.493,1.493,0,0,0-.025-1.408,1.217,1.217,0,0,0-1.182-.379,2.646,2.646,0,0,0-1.294.851C883.306,130.234,883.039,130.167,883.154,129.992Z" transform="translate(-865.954 -112.828)" fill="#092042"></path></g><path id="Path_21657" data-name="Path 21657" d="M753.064,158.339a10.116,10.116,0,0,1,3.015,11.487c-3.134,8.113-10.4,20.583-25.47,20.711-16.169.137-27.647-8.315-32.762-13a6.25,6.25,0,0,1-1.485-7.123c2.946-6.717,10.8-19.613,28.373-22.249C736.159,146.447,746.977,153.374,753.064,158.339Z" transform="translate(-695.512 -134.189)" fill="#391d59"></path><path id="Path_21658" data-name="Path 21658" d="M800.5,233.159c-.263.461-.441.97-.691,1.439a12.616,12.616,0,0,1-.8,1.308,4.289,4.289,0,0,1-2.07,1.834c-1.016.3-1.882-.478-2.487-1.2a22.214,22.214,0,0,1-1.691-2.48,3.8,3.8,0,0,0,.6-.474l.586-.482c.379-.312.757-.625,1.1-.972a2.945,2.945,0,0,0,.835-1.127.75.75,0,0,0-.624-.964,1.783,1.783,0,0,0-1.374.365,5.167,5.167,0,0,0-1,.952c-.028.034-.052.071-.079.106a.537.537,0,1,1-1.022,0c-.027-.035-.051-.072-.08-.106a5.158,5.158,0,0,0-1-.952,1.783,1.783,0,0,0-1.374-.365.75.75,0,0,0-.624.964,2.945,2.945,0,0,0,.836,1.127c.347.347.726.66,1.1.972l.586.482a3.8,3.8,0,0,0,.6.474,22.238,22.238,0,0,1-1.691,2.48c-.605.723-1.471,1.5-2.487,1.2a4.288,4.288,0,0,1-2.07-1.834,12.615,12.615,0,0,1-.8-1.308c-.25-.469-.428-.978-.691-1.439-.119-.208-.509-.086-.463.156a6.076,6.076,0,0,0,.683,1.639,11.626,11.626,0,0,0,.987,1.554,4.12,4.12,0,0,0,2.391,1.765,3,3,0,0,0,2.677-1.133,12.675,12.675,0,0,0,1.931-3,12.686,12.686,0,0,0,1.932,3,3,3,0,0,0,2.677,1.133,4.119,4.119,0,0,0,2.39-1.765,11.635,11.635,0,0,0,.987-1.554,6.074,6.074,0,0,0,.683-1.639C801.01,233.073,800.619,232.951,800.5,233.159Z" transform="translate(-759.047 -193.618)" fill="#5b2781"></path><path id="Path_21659" data-name="Path 21659" d="M804.06,221.516a4.019,4.019,0,0,0-1.528-1.217,7.428,7.428,0,0,0-1.85-.715,10.379,10.379,0,0,0-4.072,0,7.43,7.43,0,0,0-1.85.715,4.019,4.019,0,0,0-1.528,1.217c-.093.152.125.283.256.2.519-.314.955-.74,1.485-1.042a7.451,7.451,0,0,1,1.746-.719.169.169,0,0,0,.09,0,6.768,6.768,0,0,1,3.673,0,.169.169,0,0,0,.09,0,7.462,7.462,0,0,1,1.746.719c.531.3.966.728,1.485,1.042C803.935,221.8,804.153,221.668,804.06,221.516Z" transform="translate(-765.985 -185.922)" fill="#5b2781"></path><g id="Group_2848" data-name="Group 2848" transform="translate(8.305 22.529)"><g id="Group_2846" data-name="Group 2846"><path id="Path_21660" data-name="Path 21660" d="M745.248,192.814c-.081-.206-3.477-5.4-6.168-6.61a9.44,9.44,0,0,0-9.661,1.055,6,6,0,0,0-1.885,4.751,7.837,7.837,0,0,0,1.64,4.928,10.691,10.691,0,0,0,4.058,2.977,9.752,9.752,0,0,0,5.536.94A9.147,9.147,0,0,0,743.8,198C745.01,196.667,745.949,194.6,745.248,192.814Z" transform="translate(-726.761 -183.825)" fill="#f7709a"></path><path id="Path_21661" data-name="Path 21661" d="M726.007,185.581a8.678,8.678,0,0,1,2.078-.985,17.49,17.49,0,0,1,2.614-.707,12.834,12.834,0,0,1,5.216.052,17.927,17.927,0,0,1,2.213.7,15.675,15.675,0,0,1,1.915.848,8.658,8.658,0,0,1,1.72,1.175c.114.1.22.21.323.319h.558q-.388-.787-.849-1.536c-.311-.505-.647-.993-1-1.473a11.76,11.76,0,0,0-4.967-3.544,9.065,9.065,0,0,0-5.866-.207,7.762,7.762,0,0,0-4.23,3.245,6.765,6.765,0,0,0-.94,3.16A7.248,7.248,0,0,1,726.007,185.581Z" transform="translate(-724.779 -179.832)" fill="#f7709a" style="mix-blend-mode: multiply;isolation: isolate"></path><path id="Path_21662" data-name="Path 21662" d="M725.508,188.017a6,6,0,0,1,1.885-4.751,9.44,9.44,0,0,1,9.661-1.055,8.984,8.984,0,0,1,2.438,1.859q.194.159.381.325a13.205,13.205,0,0,1,2.337,2.845c.109.172.214.347.316.523.416.593.674,1,.7,1.058a3.478,3.478,0,0,1,.225.984.427.427,0,0,0,.057.006c0-.063,0-.125-.008-.189a6.535,6.535,0,0,0-.661-2.138,18.352,18.352,0,0,0-1.085-2.034c-.311-.505-.647-.993-1-1.473a11.761,11.761,0,0,0-4.967-3.544,9.065,9.065,0,0,0-5.866-.207,7.762,7.762,0,0,0-4.23,3.245c-1.326,2.187-1.087,4.8-.409,7.16.077.269.509.264.649.054A8.273,8.273,0,0,1,725.508,188.017Z" transform="translate(-724.735 -179.832)" fill="#032351"></path><ellipse id="Ellipse_335" data-name="Ellipse 335" cx="6.358" cy="6.358" rx="6.358" ry="6.358" transform="matrix(0.922, -0.388, 0.388, 0.922, 1.508, 6.165)" fill="#092042"></ellipse><path id="Path_21663" data-name="Path 21663" d="M748.5,217.074c-1.163,1.288-1.92,3.32-4.4,3.306-2.718-.015-3.866-2.018-5.029-3.306h-1.6a6.357,6.357,0,0,0,12.629,0Z" transform="translate(-733.955 -206.784)" fill="#002760"></path><ellipse id="Ellipse_336" data-name="Ellipse 336" cx="2.317" cy="0.909" rx="2.317" ry="0.909" transform="translate(4.147 4.328)" fill="#fff"></ellipse><ellipse id="Ellipse_337" data-name="Ellipse 337" cx="0.841" cy="0.841" rx="0.841" ry="0.841" transform="translate(10.864 6.187)" fill="#fff"></ellipse></g><g id="Group_2847" data-name="Group 2847" transform="translate(31.719)"><path id="Path_21664" data-name="Path 21664" d="M841.374,198a9.146,9.146,0,0,0,5.034,2.859,9.753,9.753,0,0,0,5.536-.94A10.691,10.691,0,0,0,856,196.938a7.839,7.839,0,0,0,1.64-4.928,6,6,0,0,0-1.885-4.751A9.44,9.44,0,0,0,846.1,186.2c-2.69,1.214-6.087,6.4-6.168,6.61C839.228,194.6,840.166,196.667,841.374,198Z" transform="translate(-839.647 -183.825)" fill="#f7709a"></path><path id="Path_21665" data-name="Path 21665" d="M859.447,185.581a8.68,8.68,0,0,0-2.078-.985,17.493,17.493,0,0,0-2.613-.707,12.836,12.836,0,0,0-5.216.052,17.927,17.927,0,0,0-2.213.7,15.68,15.68,0,0,0-1.915.848,8.654,8.654,0,0,0-1.72,1.175c-.114.1-.22.21-.323.319h-.558q.388-.787.849-1.536c.311-.505.647-.993,1-1.473a11.757,11.757,0,0,1,4.967-3.544,9.065,9.065,0,0,1,5.866-.207,7.762,7.762,0,0,1,4.23,3.245,6.762,6.762,0,0,1,.94,3.16A7.251,7.251,0,0,0,859.447,185.581Z" transform="translate(-841.907 -179.832)" fill="#f7709a" style="mix-blend-mode: multiply;isolation: isolate"></path><path id="Path_21666" data-name="Path 21666" d="M857.534,188.017a6,6,0,0,0-1.885-4.751,9.44,9.44,0,0,0-9.661-1.055,8.981,8.981,0,0,0-2.438,1.859q-.194.159-.381.325a13.2,13.2,0,0,0-2.337,2.845c-.109.172-.214.347-.316.523-.416.593-.674,1-.7,1.058a3.486,3.486,0,0,0-.225.984.427.427,0,0,1-.057.006c0-.063,0-.125.007-.189a6.54,6.54,0,0,1,.661-2.138,18.352,18.352,0,0,1,1.085-2.034c.311-.505.647-.993,1-1.473a11.758,11.758,0,0,1,4.967-3.544,9.065,9.065,0,0,1,5.866-.207,7.762,7.762,0,0,1,4.23,3.245c1.326,2.187,1.087,4.8.41,7.16-.077.269-.509.264-.65.054A8.28,8.28,0,0,0,857.534,188.017Z" transform="translate(-839.538 -179.832)" fill="#032351"></path><ellipse id="Ellipse_338" data-name="Ellipse 338" cx="6.358" cy="6.358" rx="6.358" ry="6.358" transform="matrix(0.388, -0.922, 0.922, 0.388, 0.607, 12.949)" fill="#092042"></ellipse><path id="Path_21667" data-name="Path 21667" d="M850.62,217.074c1.163,1.288,1.921,3.32,4.4,3.306,2.718-.015,3.866-2.018,5.029-3.306h1.6a6.357,6.357,0,0,1-12.629,0Z" transform="translate(-846.4 -206.784)" fill="#002760"></path><ellipse id="Ellipse_339" data-name="Ellipse 339" cx="2.317" cy="0.909" rx="2.317" ry="0.909" transform="translate(9.987 4.328)" fill="#fff"></ellipse><ellipse id="Ellipse_340" data-name="Ellipse 340" cx="0.841" cy="0.841" rx="0.841" ry="0.841" transform="translate(6.224 6.187)" fill="#fff"></ellipse></g></g><path id="Path_21668" data-name="Path 21668" d="M773.485,189.126" transform="translate(-751.711 -164.029)" fill="none" stroke="#fff" stroke-miterlimit="10" stroke-width="1"></path><path id="Path_21669" data-name="Path 21669" d="M778.44,174.324a5.146,5.146,0,0,0-.266-.669,11.368,11.368,0,0,0-1.781-3.416,5.617,5.617,0,0,0-1.774-1.632,1.83,1.83,0,0,0-2.2.1c-.594.647-.065,1.583.258,2.226a16.28,16.28,0,0,0,1.428,2.275c.517.707,1.075,1.384,1.634,2.058a2.779,2.779,0,0,0,1.867,1.268.912.912,0,0,0,1.023-.77A3.629,3.629,0,0,0,778.44,174.324Z" transform="translate(-750.748 -148.95)" fill="#032351"></path><path id="Path_21670" data-name="Path 21670" d="M837.364,175.765a.912.912,0,0,0,1.023.77,2.778,2.778,0,0,0,1.867-1.268c.56-.674,1.117-1.351,1.634-2.058a16.291,16.291,0,0,0,1.428-2.275c.323-.643.852-1.579.258-2.226a1.83,1.83,0,0,0-2.2-.1,5.617,5.617,0,0,0-1.774,1.632,11.361,11.361,0,0,0-1.781,3.416,5.138,5.138,0,0,0-.266.669A3.632,3.632,0,0,0,837.364,175.765Z" transform="translate(-797.931 -148.95)" fill="#032351"></path><path id="Path_21671" data-name="Path 21671" d="M820.332,231.3a.671.671,0,0,0-.489.019,2.483,2.483,0,0,0-.732.55,3.259,3.259,0,0,0-.4.443,2.79,2.79,0,0,0-.256.287c-.119.153.14.282.263.211l.945-.546a2.23,2.23,0,0,0,.767-.56A.254.254,0,0,0,820.332,231.3Z" transform="translate(-784.233 -194.521)" fill="#fff"></path><path id="Path_21672" data-name="Path 21672" d="M816.52,237.152c-.007-.013-.013-.026-.021-.039a.115.115,0,0,0-.043-.038.134.134,0,0,0-.057-.024l-.044,0a.2.2,0,0,0-.083.018.181.181,0,0,0-.024,0,.306.306,0,0,0-.039.014l-.013.006a.3.3,0,0,0-.052.033.213.213,0,0,0-.072.1.086.086,0,0,0,0,.055.089.089,0,0,0,.02.051l.027.028a.189.189,0,0,0,.076.035.359.359,0,0,0,.065.009.209.209,0,0,0,.065-.007.4.4,0,0,0,.061-.02.377.377,0,0,0,.052-.031l.017-.012.02-.021a.244.244,0,0,0,.02-.022l.007-.009,0,0v0l.018-.035A.108.108,0,0,0,816.52,237.152Z" transform="translate(-782.526 -198.71)" fill="#fff"></path><g id="Group_2850" data-name="Group 2850" transform="translate(0 4.736)"><g id="Group_2849" data-name="Group 2849"><path id="Path_21673" data-name="Path 21673" d="M709.92,131.911c-2.265-3.677-8.286-12.98-13.738-14.2-3.229,3.953-.259,30.293-.259,30.293l.529-.212A38.6,38.6,0,0,1,709.92,131.911Z" transform="translate(-694.676 -117.079)" fill="#ff8b9f"></path><path id="Path_21674" data-name="Path 21674" d="M696.73,122.3a2.556,2.556,0,0,1,1.538.637,4.714,4.714,0,0,1,1.444,2.677,12.156,12.156,0,0,1,.219,3.4c-.022.347-.058.695-.1,1.042a4.267,4.267,0,0,1,.615-.762,2.13,2.13,0,0,1,1.091-.607,1.963,1.963,0,0,1,1.191.211,1.838,1.838,0,0,1,.9,1.7,12.731,12.731,0,0,1-1.024,3.966,2.214,2.214,0,0,1,1.089-.059,1.54,1.54,0,0,1,.956.791,3.342,3.342,0,0,1,.37,1.039,35.256,35.256,0,0,1,5.453-4.423c-2.265-3.677-8.286-12.98-13.738-14.2-.676.827-1.079,2.636-1.3,4.976A2.374,2.374,0,0,1,696.73,122.3Z" transform="translate(-695.225 -117.079)" fill="#208c7f" opacity="0.31" style="mix-blend-mode: multiply;isolation: isolate"></path><path id="Path_21675" data-name="Path 21675" d="M713.466,130.229a34.555,34.555,0,0,1,7.718-3.779l-.506-.169s-16.466-12.523-20.463-10.658a1.413,1.413,0,0,0-.487.4C705.18,117.249,711.2,126.552,713.466,130.229Z" transform="translate(-698.332 -115.434)" fill="#2a1348"></path></g><path id="Path_21676" data-name="Path 21676" d="M705.548,146.965a18.249,18.249,0,0,1-3.152-3.916,9.57,9.57,0,0,1-1.427-4.652,3.694,3.694,0,0,1,.766-2.442c.018-.021-.025-.041-.041-.025a2.987,2.987,0,0,0-.65.909,3.919,3.919,0,0,0-.3,1.113,6.66,6.66,0,0,0,.235,2.441,12.815,12.815,0,0,0,2.372,4.562c.418.538.868,1.05,1.337,1.545a2.254,2.254,0,0,0-.82-.16,1.578,1.578,0,0,0-1.3.668,1.45,1.45,0,0,0,.12,1.532,4.755,4.755,0,0,0,.36.564.52.52,0,0,0-.465.562,3.639,3.639,0,0,0,.4,1.253,4.019,4.019,0,0,0,.774,1.082c.087.085.32-.019.22-.136a4.8,4.8,0,0,1-1-1.76c-.072-.242-.243-.718.145-.766a.372.372,0,0,1,.107,0,4.777,4.777,0,0,0,.6.6c.109.091.352,0,.256-.158a1.505,1.505,0,0,0-.615-.635,4.489,4.489,0,0,1-.385-.544,1.494,1.494,0,0,1-.285-1.379,1.216,1.216,0,0,1,1.07-.629,2.647,2.647,0,0,1,1.449.546C705.453,147.234,705.7,147.11,705.548,146.965Z" transform="translate(-699.048 -130.263)" fill="#092042"></path></g><g id="Group_2851" data-name="Group 2851" transform="translate(0.304 14.263)"><path id="Path_21677" data-name="Path 21677" d="M718.468,208.772c-1.772,1-3.943.6-5.788.034a20.691,20.691,0,0,1-5.271-2.523,25.322,25.322,0,0,1-4.459-3.775,32.392,32.392,0,0,1-3.765-4.9,51.527,51.527,0,0,1-2.989-5.482c-.113-.239-.229-.477-.342-.716-.017-.035-.092-.024-.075.017a41.284,41.284,0,0,0,2.85,5.643,33.511,33.511,0,0,0,3.793,5.136,25.677,25.677,0,0,0,4.451,3.916,21.109,21.109,0,0,0,5.224,2.641c1.8.606,3.91,1.1,5.755.383a4.441,4.441,0,0,0,.655-.321C718.55,208.8,718.5,208.75,718.468,208.772Z" transform="translate(-695.775 -179.931)" fill="#fff"></path><path id="Path_21678" data-name="Path 21678" d="M719.855,246.772c-2.38,2.174-5.885,2.4-8.93,1.975a25.455,25.455,0,0,1-9.409-3.42,37.4,37.4,0,0,1-4.647-3.338c-.048-.039-.142.016-.085.069a27.469,27.469,0,0,0,4.155,3.135,27.787,27.787,0,0,0,4.564,2.3,24.009,24.009,0,0,0,4.964,1.364,16.069,16.069,0,0,0,4.786.114,8.473,8.473,0,0,0,4.706-2.118C720.026,246.791,719.911,246.72,719.855,246.772Z" transform="translate(-696.493 -216.539)" fill="#fff"></path><path id="Path_21679" data-name="Path 21679" d="M790.379,152.926a16.323,16.323,0,0,0-1.16-2.988c-.02-.04-.109-.027-.088.019a19.017,19.017,0,0,1,1.55,5.279,17.145,17.145,0,0,1-.058,5.383,2.788,2.788,0,0,1-1.241,2.083c-.039.02,0,.063.034.046a2.6,2.6,0,0,0,1.221-1.669,10.92,10.92,0,0,0,.359-2.525A17.8,17.8,0,0,0,790.379,152.926Z" transform="translate(-763.336 -149.914)" fill="#fff"></path><path id="Path_21680" data-name="Path 21680" d="M788.181,173.737a13.637,13.637,0,0,0-.884-3.76c-.011-.029-.07-.021-.06.014a21.734,21.734,0,0,1,.792,3.46,9.294,9.294,0,0,1,.046,1.709,8.544,8.544,0,0,1-.111.9c-.026.146-.055.291-.091.435s-.068.371-.25.4c-.016,0-.011.023,0,.022.211-.009.267-.237.316-.406a6.64,6.64,0,0,0,.192-.877A8.334,8.334,0,0,0,788.181,173.737Z" transform="translate(-761.966 -164.421)" fill="#fff"></path><path id="Path_21681" data-name="Path 21681" d="M849.758,208.772c1.772,1,3.943.6,5.788.034a20.693,20.693,0,0,0,5.271-2.523,25.328,25.328,0,0,0,4.46-3.775,32.423,32.423,0,0,0,3.765-4.9,51.615,51.615,0,0,0,2.989-5.482c.114-.239.229-.477.342-.716.016-.035.092-.024.075.017a41.248,41.248,0,0,1-2.85,5.643,33.512,33.512,0,0,1-3.793,5.136,25.682,25.682,0,0,1-4.45,3.916,21.119,21.119,0,0,1-5.224,2.641c-1.8.606-3.91,1.1-5.755.383a4.437,4.437,0,0,1-.655-.321C849.675,208.8,849.721,208.75,849.758,208.772Z" transform="translate(-807.172 -179.931)" fill="#fff"></path><path id="Path_21682" data-name="Path 21682" d="M847.157,246.772c2.38,2.174,5.886,2.4,8.93,1.975a25.46,25.46,0,0,0,9.409-3.42,37.419,37.419,0,0,0,4.647-3.338c.048-.039.142.016.086.069a27.459,27.459,0,0,1-4.155,3.135,27.8,27.8,0,0,1-4.564,2.3,24.008,24.008,0,0,1-4.964,1.364,16.067,16.067,0,0,1-4.785.114,8.473,8.473,0,0,1-4.707-2.118C846.986,246.791,847.1,246.72,847.157,246.772Z" transform="translate(-805.241 -216.539)" fill="#fff"></path><path id="Path_21683" data-name="Path 21683" d="M832.48,152.926a16.31,16.31,0,0,1,1.16-2.988c.02-.04.109-.027.087.019a19.025,19.025,0,0,0-1.55,5.279,17.145,17.145,0,0,0,.058,5.383,2.789,2.789,0,0,0,1.241,2.083c.039.02,0,.063-.034.046a2.6,2.6,0,0,1-1.221-1.669,10.923,10.923,0,0,1-.359-2.525A17.787,17.787,0,0,1,832.48,152.926Z" transform="translate(-794.245 -149.914)" fill="#fff"></path><path id="Path_21684" data-name="Path 21684" d="M837.069,173.737a13.626,13.626,0,0,1,.884-3.76c.011-.029.07-.021.06.014a21.687,21.687,0,0,0-.791,3.46,9.288,9.288,0,0,0-.046,1.709,8.5,8.5,0,0,0,.111.9q.039.219.091.435c.035.144.068.371.25.4.016,0,.011.023,0,.022-.211-.009-.267-.237-.316-.406a6.641,6.641,0,0,1-.192-.877A8.344,8.344,0,0,1,837.069,173.737Z" transform="translate(-798.007 -164.421)" fill="#fff"></path></g></g><g id="Group_2855" data-name="Group 2855" transform="translate(59.595)"><g id="Group_2854" data-name="Group 2854" transform="translate(0)"><path id="Path_21685" data-name="Path 21685" d="M782.823,20.244c-.875-.6-6.652,7.244-9.524,7.444L768.258,46.87s12.255,4.438,18.067.057l-2.451-15.289-1.331-1.088,1.121-.057-.77-1.2s.452-4.461,1.961-2.4c.1.143,8.893,1.689,9.734-.516C794.588,26.371,785.7,22.221,782.823,20.244Z" transform="translate(-757.853 -20.211)" fill="#e43469"></path><path id="Path_21686" data-name="Path 21686" d="M761.48,130.189s-8.613,5.742-23.039.35L730.6,132.71s10.609,6.828,15.406,9.1,11.309,4.587,18.067,2.381l-.21-1.681,2.521,1.12.28-1.33,1.61.63s8.333-1.331,5.042-9.944C773.314,132.99,766.557,133.27,761.48,130.189Z" transform="translate(-730.598 -99.803)" fill="#f7709a"></path><g id="Group_2853" data-name="Group 2853" transform="translate(7.199 25.79)"><path id="Path_21687" data-name="Path 21687" d="M775.081,114.329a20.75,20.75,0,0,1-13.8-.55,3.417,3.417,0,0,0-4.582,3.745,3.3,3.3,0,0,0,.07.325c.17.13.338.263.516.384.014.01,0,.034-.014.024-.165-.112-.325-.23-.483-.351a2.45,2.45,0,0,0,.39.8c.2.265,16.929,5.411,24.39-.984A5.224,5.224,0,0,0,775.081,114.329Z" transform="translate(-756.655 -113.554)" fill="#e43469"></path><rect id="Rectangle_182" data-name="Rectangle 182" width="11.795" height="8.299" rx="4.149" transform="translate(5.701 0.016)" fill="#f68600"></rect><path id="Path_21688" data-name="Path 21688" d="M800.507,113.611h-2.852c.007.078.016.156.027.235a.761.761,0,0,0,.376.629,5.5,5.5,0,0,0,1.878.393,4.112,4.112,0,0,1,1.642.477A2.968,2.968,0,0,1,802.6,116.4a3.69,3.69,0,0,1,.415,2.66,2.009,2.009,0,0,1-.679,1.179c-.374.3-.913.528-1.139.926a1.76,1.76,0,0,0-.2.708,2.9,2.9,0,0,0,2.818-2.552V116.2C803.823,114.774,802.331,113.611,800.507,113.611Z" transform="translate(-786.327 -113.595)" fill="#ff9c31"></path><rect id="Rectangle_183" data-name="Rectangle 183" width="10.043" height="7.066" rx="3.533" transform="translate(6.577 0.632)" fill="none" stroke="#24007c" stroke-miterlimit="10" stroke-width="0.25"></rect><rect id="Rectangle_184" data-name="Rectangle 184" width="7.744" height="5.449" rx="2.724" transform="translate(7.727 1.441)" fill="#dc1740"></rect></g></g><path id="Path_21689" data-name="Path 21689" d="M774.426,20.244c-.875-.6-6.652,7.244-9.523,7.444L760.089,46a3.417,3.417,0,0,0-3.386,3.969,3.154,3.154,0,0,0,.074.328c.169.129.336.261.512.381.014.01,0,.034-.014.024-.164-.112-.323-.229-.481-.349a2.618,2.618,0,0,0,.263.6,12.636,12.636,0,0,0,2.642.782c.3.055.6.095.9.128a27.266,27.266,0,0,1,.152-3.03,4.721,4.721,0,0,1,1.154-2.819c.309-.3.662-.559.972-.862a2.4,2.4,0,0,0,.61-.984,11.93,11.93,0,0,0,.5-2.595,9,9,0,0,0,.008-2.541c-.021-.109.073-.245.2-.2a5.066,5.066,0,0,1,2.2,1.969,7.242,7.242,0,0,0,1.887,2.086,4.106,4.106,0,0,0-.086-1.559c-.532-2.31-2.1-4.209-2.81-6.454a.161.161,0,0,1,.234-.18,6.714,6.714,0,0,0,1.258.658c.29.092.5.041.592-.27a3.289,3.289,0,0,0-.029-1.674,18.134,18.134,0,0,1-1.014-3.078.151.151,0,0,1,.226-.13,5.21,5.21,0,0,0,1.518.828c.221.058.393.048.46-.154a1.84,1.84,0,0,0,0-.773c-.045-.366-.116-.727-.175-1.091a4.753,4.753,0,0,1-.012-2.211,2.785,2.785,0,0,1,.805-1.117,11.837,11.837,0,0,1,1.6-1.174,18.553,18.553,0,0,0,1.651-1.134,5.327,5.327,0,0,0,.685-.705,5.562,5.562,0,0,0,.715-.981.144.144,0,0,1,.193-.051c.881.376,1.74.8,2.591,1.239,2.964,1.54,5.974,3.375,9.357,3.753a1,1,0,0,0,.158-.264S777.3,22.221,774.426,20.244Z" transform="translate(-749.455 -20.211)" fill="#f7709a"></path><path id="Path_21690" data-name="Path 21690" d="M820.843,59.943a5.311,5.311,0,0,0-3.679-3.461l-2.417-15.073-1.331-1.088,1.121-.057-.77-1.2s.452-4.46,1.961-2.4c.1.143,8.893,1.689,9.734-.516l-.118-.055a11.878,11.878,0,0,1-1.318.161c-3.868.25-7.62-1.148-11.168-2.536a5.832,5.832,0,0,1-.581,2.929c-.4.92-.9,1.783-1.358,2.674a7.391,7.391,0,0,0,.79-.155c.161-.049.264.1.245.246a5.235,5.235,0,0,1-.7,1.863,4.771,4.771,0,0,1,1.26-.233.207.207,0,0,1,.2.15,20.71,20.71,0,0,1,.539,3.747c.257,4.394-.564,8.746-.964,13.106a1.884,1.884,0,0,1,.4-.129,2.953,2.953,0,0,1,2.894,1.187,4.633,4.633,0,0,1,.414,2.579,5.291,5.291,0,0,0,1.273,3.029,21.277,21.277,0,0,0,2.376,2.479,24.417,24.417,0,0,0,6.091,4.224,14.542,14.542,0,0,0,2.784,1c2.216-1.054,5.094-3.568,2.925-9.243,0,0-6.421.265-11.448-2.577A10.16,10.16,0,0,0,820.843,59.943Z" transform="translate(-788.727 -29.98)" fill="#e43469" style="mix-blend-mode: multiply;isolation: isolate"></path></g><g id="Group_2856" data-name="Group 2856" transform="translate(32.857 68.94)"><path id="Path_21691" data-name="Path 21691" d="M752.468,329.916a4.147,4.147,0,0,1,2.685-1.521,10.788,10.788,0,0,1,2.038-.281,8.652,8.652,0,0,0,2.063-.26,8.052,8.052,0,0,0,2.92-2.022,27.968,27.968,0,0,1,3.158-2.474A20.754,20.754,0,0,1,769,321.332a26.613,26.613,0,0,1,4.1-1.259c.694-.162,1.391-.307,2.089-.45.51-.1,1.018-.217,1.531-.291-1.989-8.026-8.844-13.944-17-13.944-9.71,0-17.582,8.391-17.582,18.742a19.64,19.64,0,0,0,2.088,8.863c2.184-.467,4.363-.962,6.538-1.468l1.283-.3A2.828,2.828,0,0,1,752.468,329.916Z" transform="translate(-712.212 -295.536)" fill="#5b2781"></path><path id="Path_21692" data-name="Path 21692" d="M806.673,389.434a24.444,24.444,0,0,1-4.075-.944,32.966,32.966,0,0,0-4.072-1.11c-.285-.048-.457.322-.133.386,1.4.277,2.759.705,4.128,1.117a14.877,14.877,0,0,0,4.115.775C806.78,389.661,806.838,389.455,806.673,389.434Z" transform="translate(-752.797 -354.871)" fill="#032351"></path><path id="Path_21693" data-name="Path 21693" d="M787.373,389.428a4.84,4.84,0,0,0-1.471.793,3.874,3.874,0,0,0-.926,1.218,4.442,4.442,0,0,0-.425,1.6,5.284,5.284,0,0,0,.015.976,2.063,2.063,0,0,0,.2.847.2.2,0,0,0,.353-.076,4.289,4.289,0,0,0-.1-.819,5.253,5.253,0,0,1-.017-.83,4.281,4.281,0,0,1,.378-1.531,4.045,4.045,0,0,1,2.154-1.966C787.719,389.558,787.527,389.368,787.373,389.428Z" transform="translate(-742.895 -356.348)" fill="#032351"></path><path id="Path_21694" data-name="Path 21694" d="M794.082,390.03a4.843,4.843,0,0,0-1.47.793,3.874,3.874,0,0,0-.926,1.218,4.436,4.436,0,0,0-.425,1.6,5.26,5.26,0,0,0,.014.975,2.066,2.066,0,0,0,.2.847.2.2,0,0,0,.353-.077,4.3,4.3,0,0,0-.1-.819,5.272,5.272,0,0,1-.017-.829,4.282,4.282,0,0,1,.378-1.531,4.045,4.045,0,0,1,2.154-1.966C794.428,390.16,794.236,389.97,794.082,390.03Z" transform="translate(-747.751 -356.783)" fill="#032351"></path><path id="Path_21695" data-name="Path 21695" d="M808.471,393.207a3.574,3.574,0,0,0-1.127.711,3.468,3.468,0,0,0-.709,1.093,4.527,4.527,0,0,0-.326,1.439,5.533,5.533,0,0,0,.011.875,2.116,2.116,0,0,0,.151.76.147.147,0,0,0,.27-.069,4.451,4.451,0,0,0-.078-.735,5.537,5.537,0,0,1-.013-.744,4.383,4.383,0,0,1,.29-1.373,3.341,3.341,0,0,1,1.651-1.764C808.737,393.324,808.59,393.153,808.471,393.207Z" transform="translate(-758.645 -359.083)" fill="#032351"></path><path id="Path_21696" data-name="Path 21696" d="M658.683,395.287a9.354,9.354,0,0,0-3.376-2.333,11.629,11.629,0,0,0-1.952-.659,6.677,6.677,0,0,0-1.681-.231l-.015.01a3.448,3.448,0,0,1-.47.277c-.067.029-.135.054-.2.077a.259.259,0,0,0,.241.074,5.031,5.031,0,0,1,2.143.209,11.3,11.3,0,0,1,1.83.637,16.055,16.055,0,0,1,3.23,2.094C658.532,395.522,658.8,395.428,658.683,395.287Z" transform="translate(-646.244 -358.263)" fill="#032351"></path><path id="Path_21697" data-name="Path 21697" d="M906.88,404.163" transform="translate(-831.437 -367.02)" fill="none" stroke="#fff" stroke-miterlimit="10" stroke-width="1"></path><path id="Path_21698" data-name="Path 21698" d="M891.451,412.2" transform="translate(-820.271 -372.837)" fill="none" stroke="#fff" stroke-miterlimit="10" stroke-width="1"></path><path id="Path_21699" data-name="Path 21699" d="M658.1,269.729a10.209,10.209,0,0,0-1.2,2.218,67.246,67.246,0,0,0-4.481,16.524,20.459,20.459,0,0,1-.761,4.276,5.325,5.325,0,0,1-2.849,2.849,25.061,25.061,0,0,0-3.577,2.066,16.865,16.865,0,0,0-3.022,2.9,13.518,13.518,0,0,1-2.655,2.84,8.834,8.834,0,0,1-3.263,1.011,3.7,3.7,0,0,0-2.461,1.322" transform="translate(-633.827 -269.729)" fill="none" stroke="#ba7786" stroke-linecap="round" stroke-linejoin="round" stroke-width="2"></path><path id="Path_21700" data-name="Path 21700" d="M810.156,351.99s-11.217.815-15.717,3.756c-4.429,2.9-8.267,6.466-10.627,6.171s-6.052,1.314-4.474,4.6" transform="translate(-738.859 -329.262)" fill="none" stroke="#ba7786" stroke-linecap="round" stroke-linejoin="round" stroke-width="2"></path><path id="Path_21701" data-name="Path 21701" d="M799.371,340.226a9.894,9.894,0,0,0-.233-2.093,7.306,7.306,0,0,0-.827-2.232c-.035-.058-.173-.028-.144.049.217.571.453,1.13.616,1.72a9.644,9.644,0,0,1,.322,1.841q.035.465.026.933a2.127,2.127,0,0,1-.11.8.507.507,0,0,1-.658.292,1.1,1.1,0,0,1-.6-.618c-.149-.307-.258-.636-.38-.955-.136-.353-.272-.705-.407-1.058-.043-.113-.248-.079-.226.05a10.871,10.871,0,0,1,.05,3.4c-.041.282-.091.564-.158.841-.063.261-.2.505-.494.333a2.213,2.213,0,0,1-.8-1.149c-.017-.047-.026-.1-.04-.143a7.043,7.043,0,0,0-.06-1.478c-.018-.122-.25-.169-.28-.03,0,.01,0,.02,0,.03h0v0A3.124,3.124,0,0,0,795,342.2a6.709,6.709,0,0,1-.148,1.059,4.144,4.144,0,0,1-.94,2.009,1.427,1.427,0,0,1-1.836.285,1.865,1.865,0,0,1-.537-.924,8.2,8.2,0,0,1-.294-1.212,8.629,8.629,0,0,1,.006-2.842c.016-.092-.144-.12-.162-.036a8,8,0,0,0-.132,2.751,8.114,8.114,0,0,0,.289,1.338,2.337,2.337,0,0,0,.525,1,1.631,1.631,0,0,0,1.947.126,3.282,3.282,0,0,0,1.291-1.942,6.852,6.852,0,0,0,.224-.995,2.2,2.2,0,0,0,.681.844.658.658,0,0,0,.648.1.771.771,0,0,0,.349-.6,11.413,11.413,0,0,0,.23-1.994,10.956,10.956,0,0,0-.045-1.291l.065.169a10.5,10.5,0,0,0,.392.975c.233.461.736.909,1.29.691S799.372,340.722,799.371,340.226Z" transform="translate(-747.5 -317.596)" fill="#ba7786"></path></g><g id="Group_2859" data-name="Group 2859" transform="translate(58.093 68.22)"><path id="Path_21702" data-name="Path 21702" d="M772.489,267.12a15.4,15.4,0,0,1-1.727,2.944,23.517,23.517,0,0,1-2.233,2.624,25.3,25.3,0,0,1-5.565,4.213c-.508.3-1.047.542-1.576.812a8.222,8.222,0,0,1-.812.361l-.826.336a24.467,24.467,0,0,1-3.413,1.057,27.553,27.553,0,0,1-7.113.691l-1.781-.112c-.59-.065-1.175-.157-1.761-.238-.292-.049-.588-.077-.875-.144l-.863-.19-.861-.2-.43-.1c-.142-.036-.281-.083-.422-.125-.561-.17-1.12-.342-1.676-.521l-.417-.133-.406-.16-.809-.326-.807-.326a8.288,8.288,0,0,1-.794-.348l-1.548-.772a35.222,35.222,0,0,1-10.61-8.413c1.076.382,2.1.809,3.113,1.249,1.033.4,2.049.8,3.048,1.224l1.521.564c.507.183.995.4,1.5.57s1.011.341,1.511.515l.749.261c.25.085.505.153.756.232,1.008.3,2,.622,3.012.861l.752.193.374.1.378.078c.5.1,1.006.208,1.506.317.249.061.5.1.753.136l.754.118.752.125c.25.048.5.056.754.086.5.049,1,.119,1.5.159l1.5.081a32.694,32.694,0,0,0,11.858-1.761,38.28,38.28,0,0,0,5.715-2.516A44.044,44.044,0,0,0,772.489,267.12Z" transform="translate(-725.163 -267.12)" fill="#f7709a"></path><path id="Path_21703" data-name="Path 21703" d="M767.914,270.646a38.279,38.279,0,0,1-5.715,2.516,32.7,32.7,0,0,1-11.858,1.761l-1.5-.081c-.5-.041-1-.11-1.5-.159-.251-.03-.5-.038-.754-.086l-.752-.125-.754-.118c-.252-.037-.5-.076-.753-.136-.5-.109-1-.217-1.506-.317l-.378-.078-.374-.1-.752-.193c-1.009-.239-2-.558-3.012-.861-.251-.079-.505-.147-.756-.232l-.749-.261c-.5-.173-1-.352-1.511-.515s-1-.387-1.5-.57l-1.521-.564c-1-.419-2.014-.824-3.048-1.224-.9-.39-1.81-.769-2.756-1.117.169.109.338.218.508.326,1.859,1.179,3.742,2.313,5.7,3.322a45.451,45.451,0,0,0,6.121,2.626,38.485,38.485,0,0,0,6.793,1.585,34.221,34.221,0,0,0,3.482.371,19.827,19.827,0,0,0,3.2-.186,20.9,20.9,0,0,1,6.394-.244.17.17,0,0,1,.119.208,2.835,2.835,0,0,1-.954,1.131,1.585,1.585,0,0,1,.8.141.161.161,0,0,1,.057.219,9.163,9.163,0,0,1-.548.853,1.588,1.588,0,0,1,.469.581q1.062-.311,2.091-.709l.826-.336a8.207,8.207,0,0,0,.812-.361c.529-.27,1.069-.509,1.576-.812a25.289,25.289,0,0,0,5.565-4.213,23.493,23.493,0,0,0,2.233-2.623,15.4,15.4,0,0,0,1.727-2.944A44.031,44.031,0,0,1,767.914,270.646Z" transform="translate(-726.097 -267.12)" fill="#e43469" style="mix-blend-mode: multiply;isolation: isolate"></path><g id="Group_2858" data-name="Group 2858" transform="translate(18.859 9.975)"><g id="Group_2857" data-name="Group 2857" transform="translate(0)"><path id="Path_21704" data-name="Path 21704" d="M801.586,310.784a1.352,1.352,0,0,0,.17-.087,1.338,1.338,0,0,0,.519-.6,1.6,1.6,0,0,0,.1-.71,1.246,1.246,0,0,1,.082-.642c.213-.407.772-.4,1.1-.684a1.539,1.539,0,0,0,.421-1.152c0-.068,0-.141,0-.215a1.252,1.252,0,0,0-.34-.534,2.186,2.186,0,0,0-.643-.367,4.537,4.537,0,0,0-.792-.284.125.125,0,0,0-.034,0c-.078-.107-.158-.213-.247-.312a2.835,2.835,0,0,0-.443-.653A3.891,3.891,0,0,0,800,303.536a4.763,4.763,0,0,0-2.045-.3,4.146,4.146,0,0,0-1.916.553,4.368,4.368,0,0,0-1.759,2.965.908.908,0,0,0-.642.393,1.474,1.474,0,0,0-.206.976,1.329,1.329,0,0,0,.261.683c.483.422,1.3.317,1.921.3a.216.216,0,0,1,.185.323,1.162,1.162,0,0,0-.025.87,2.268,2.268,0,0,0,.345.78.711.711,0,0,0,.55.3c.027,0,.054,0,.081,0a2.179,2.179,0,0,0,.993-.929,1.474,1.474,0,0,0,1.519.791,1.415,1.415,0,0,0,1.1-1.014,1.506,1.506,0,0,0,1.2.571Z" transform="translate(-793.42 -303.223)" fill="#b736bf"></path><path id="Path_21705" data-name="Path 21705" d="M803.575,313.436c-.007-.025-.015-.049-.023-.072a2.019,2.019,0,0,0-.169-.374,2.068,2.068,0,0,0-.483-.6,1.065,1.065,0,0,0-.8-.267.578.578,0,0,0-.522.563,1.919,1.919,0,0,0,.237.8,2.6,2.6,0,0,0,.5.7,1.006,1.006,0,0,0,.718.31.67.67,0,0,0,.632-.41A.844.844,0,0,0,803.575,313.436Z" transform="translate(-799.322 -309.66)" fill="#092042"></path><path id="Path_21706" data-name="Path 21706" d="M816.419,312.528a.67.67,0,0,0-.632-.41,1.006,1.006,0,0,0-.718.31,2.591,2.591,0,0,0-.5.7,1.919,1.919,0,0,0-.237.8.578.578,0,0,0,.522.563,1.065,1.065,0,0,0,.8-.267,2.077,2.077,0,0,0,.483-.6,2.017,2.017,0,0,0,.169-.374c.008-.023.016-.048.023-.072A.844.844,0,0,0,816.419,312.528Z" transform="translate(-808.553 -309.66)" fill="#092042"></path><path id="Path_21707" data-name="Path 21707" d="M810.647,321.2c-.063-.068-.124-.136-.185-.206a2.05,2.05,0,0,0-.183-.2.261.261,0,0,0-.369.022,1.145,1.145,0,0,0-.151.223c-.014.027-.025.055-.039.082a1.094,1.094,0,0,0-.115.186.8.8,0,0,0-.092.43.252.252,0,0,0,.115.19.273.273,0,0,0,.294-.018.6.6,0,0,0,.163-.192c.007-.011.045-.08.072-.135l.048.045a.59.59,0,0,0,.188.126.354.354,0,0,0,.43-.118C810.92,321.461,810.754,321.318,810.647,321.2Z" transform="translate(-805.064 -315.891)" fill="#092042"></path></g><path id="Path_21708" data-name="Path 21708" d="M815.709,306.695a1.251,1.251,0,0,0-.34-.534,2.186,2.186,0,0,0-.643-.367,4.536,4.536,0,0,0-.792-.284.125.125,0,0,0-.034,0c-.078-.107-.158-.213-.247-.312a2.829,2.829,0,0,0-.443-.653,3.891,3.891,0,0,0-1.471-1.008,4.763,4.763,0,0,0-2.045-.3l-.052,0a2.785,2.785,0,0,1,1.3.921,1.844,1.844,0,0,1,.418,1.29,2.841,2.841,0,0,1-.159.712,1.228,1.228,0,0,1,1.3-.11.67.67,0,0,1,.214.9,1.372,1.372,0,0,1-.6.518,8.809,8.809,0,0,1,.394,1.008,3.485,3.485,0,0,1,.13,2.161v0a1.3,1.3,0,0,0,.666.148l.031,0a1.3,1.3,0,0,0,.689-.686,1.6,1.6,0,0,0,.1-.71,1.246,1.246,0,0,1,.082-.642c.212-.407.772-.4,1.1-.684a1.539,1.539,0,0,0,.42-1.152C815.714,306.842,815.713,306.769,815.709,306.695Z" transform="translate(-805.159 -303.223)" fill="#565656" opacity="0.54" style="mix-blend-mode: multiply;isolation: isolate"></path></g></g></g></g><g id="Group_3116" data-name="Group 3116" transform="translate(346)"><g id="Group_3105-2" data-name="Group 3105" transform="translate(768.058 4711.298)" opacity="0.36"><g id="Group_2861-2" data-name="Group 2861" transform="translate(135.751 250.98)"><path id="Path_21709-2" data-name="Path 21709" d="M259.932,420.692c5.53-1.8,8.716-3.906,8.716-6.163,0-6.552-26.847-11.864-59.963-11.864s-59.962,5.312-59.962,11.864,26.846,11.864,59.962,11.864a245.431,245.431,0,0,0,38.027-2.69c1.787.712,5.491,1.2,9.782,1.2,6.035,0,10.928-.968,10.928-2.162C267.422,421.786,264.281,420.977,259.932,420.692Z" transform="translate(-146.144 -402.666)" fill="#412c4c" stroke="rgba(0,0,0,0)" stroke-width="1" style="mix-blend-mode: multiply;isolation: isolate"></path><path id="Path_21710-2" data-name="Path 21710" d="M146.724,437.123c0-.252-.777-.457-1.735-.457s-1.735.2-1.735.457.777.457,1.735.457S146.724,437.376,146.724,437.123Z" transform="translate(-143.17 -421.152)" fill="#412c4c" stroke="rgba(0,0,0,0)" stroke-width="1" style="mix-blend-mode: multiply;isolation: isolate"></path><ellipse id="Ellipse_341-2" data-name="Ellipse 341" cx="4.25" cy="1.12" rx="4.25" ry="1.12" transform="translate(2.436 18.901)" fill="#412c4c" stroke="rgba(0,0,0,0)" stroke-width="1" style="mix-blend-mode: multiply;isolation: isolate"></ellipse><path id="Path_21711-2" data-name="Path 21711" d="M352.5,445.93c-1.341,0-2.428.287-2.428.64s1.087.641,2.428.641,2.427-.287,2.427-.641S353.838,445.93,352.5,445.93Z" transform="translate(-225.734 -426.189)" fill="#412c4c" stroke="rgba(0,0,0,0)" stroke-width="1" style="mix-blend-mode: multiply;isolation: isolate"></path><path id="Path_21712-2" data-name="Path 21712" d="M147.925,416.9c0-.353-1.087-.64-2.427-.64s-2.427.287-2.427.64,1.087.64,2.427.64S147.925,417.257,147.925,416.9Z" transform="translate(-143.07 -410.059)" fill="#412c4c" stroke="rgba(0,0,0,0)" stroke-width="1" style="mix-blend-mode: multiply;isolation: isolate"></path><path id="Path_21713-2" data-name="Path 21713" d="M350.777,438.33c0-.464-1.428-.84-3.188-.84s-3.189.376-3.189.84,1.428.841,3.189.841S350.777,438.794,350.777,438.33Z" transform="translate(-222.651 -421.6)" fill="#412c4c" stroke="rgba(0,0,0,0)" stroke-width="1" style="mix-blend-mode: multiply;isolation: isolate"></path><path id="Path_21714-2" data-name="Path 21714" d="M342.258,415.5c1.761,0,3.189-.376,3.189-.841s-1.428-.84-3.189-.84-3.188.377-3.188.84S340.5,415.5,342.258,415.5Z" transform="translate(-219.754 -408.733)" fill="#412c4c" stroke="rgba(0,0,0,0)" stroke-width="1" style="mix-blend-mode: multiply;isolation: isolate"></path></g></g><g id="Group_2860-2" data-name="Group 2860" transform="translate(386.094 4830.962)"><path id="Path_21643-2" data-name="Path 21643" d="M719.291,287.818a117.46,117.46,0,0,0-2.091-15.639c-.517-2.618-1.1-5.222-1.74-7.814q-.486-1.98-1.01-3.95a21.145,21.145,0,0,0-.681-2.283c-3.948,7.036-10.825,14.427-22.316,14.525-14.2.12-24.711-6.488-30.385-11.189a11.511,11.511,0,0,0-1.356,2.5,75.864,75.864,0,0,0-5.054,18.638,23.081,23.081,0,0,1-.859,4.823,6.006,6.006,0,0,1-3.214,3.213,28.274,28.274,0,0,0-4.035,2.331,19.026,19.026,0,0,0-3.409,3.271,15.247,15.247,0,0,1-3,3.2,9.968,9.968,0,0,1-3.681,1.141,4.172,4.172,0,0,0-2.776,1.491,2.817,2.817,0,0,0,.521,3.452,6.18,6.18,0,0,0,4.092,1.53c1.833.164,3.679.22,5.519.226a92.135,92.135,0,0,0,11.082-.681,202.042,202.042,0,0,0,22.018-4.181l2.021-.472a2.3,2.3,0,0,0,.182,1.812,3.354,3.354,0,0,0,2.234,1.59,18.1,18.1,0,0,0,3.673.36c1.35.067,2.7.111,4.052.139,5.527.116,11.06.04,16.588.029l8.307-.016a9.04,9.04,0,0,0,3.074-.287,2.721,2.721,0,0,0,1.734-2.218,34.916,34.916,0,0,0,.407-3.638q.166-2.021.225-4.048C719.5,293.058,719.449,290.435,719.291,287.818Z" transform="translate(-81.499 -163.772)" fill="#000c23"></path><path id="Path_21644-2" data-name="Path 21644" d="M642.6,397.386a2.614,2.614,0,0,0-1.933-.185,4.111,4.111,0,0,0-1.774.846,3.564,3.564,0,0,0-1.092,1.581,2.684,2.684,0,0,0-.035,1.921c.089.181.49.208.484-.052s-.055-.535-.048-.806a3.013,3.013,0,0,1,.131-.807,3.166,3.166,0,0,1,.874-1.412,3.474,3.474,0,0,1,1.445-.788,4.225,4.225,0,0,1,.818-.131,1.746,1.746,0,0,1,.879.092C642.506,397.73,642.8,397.517,642.6,397.386Z" transform="translate(-84.455 -259.434)" fill="#032351"></path><path id="Path_21645-2" data-name="Path 21645" d="M654.474,398.665a10.511,10.511,0,0,0-2.115-.067,2.621,2.621,0,0,0-1.483.936,4.355,4.355,0,0,0-.806,1.745c-.084.338-.149.68-.209,1.022a2.366,2.366,0,0,0,0,1.076c.083.291.657.2.573-.127a2.28,2.28,0,0,1,.025-.986c.055-.3.112-.6.187-.9a4.245,4.245,0,0,1,.682-1.546,2.1,2.1,0,0,1,1.243-.838,11.515,11.515,0,0,1,1.9.012C654.731,398.987,654.734,398.665,654.474,398.665Z" transform="translate(-92.855 -260.427)" fill="#032351"></path><g id="Group_2843-2" data-name="Group 2843" transform="translate(514.905 66.892)"><path id="Path_21646-2" data-name="Path 21646" d="M559.922,179.532a13.308,13.308,0,0,1,7.708-8.361,13.132,13.132,0,0,1,11.358.232,13.669,13.669,0,0,1,6.857,8.707,16.693,16.693,0,0,1-1.526,11.742,50,50,0,0,1-3.51,5.688c-.864,1.268-1.68,2.466-2.42,3.725-1.844,3.139-2.552,5.828-2.163,8.222a6.679,6.679,0,0,0,1.234,3,5.052,5.052,0,0,0,2.792,1.718c.489.135,1.027.258,1.6.389,2.979.682,7.058,1.616,8.252,5.751a5.515,5.515,0,0,1-.1,3.469,2.564,2.564,0,0,1-2.437,1.621,2.839,2.839,0,0,1-.96-.168,2.343,2.343,0,0,1-1.483-3.02,1.661,1.661,0,0,0-.732-1.616,8.717,8.717,0,0,0-3.5-1.239l-.329-.07a13.772,13.772,0,0,1-5.381-2.083,9.971,9.971,0,0,1-3.145-3.925,13.49,13.49,0,0,1-.273-9.976,35,35,0,0,1,4.681-8.461q.349-.51.694-1.02c1.769-2.619,3.528-5.431,3.908-8.481a10.009,10.009,0,0,0-2.072-7.687,7.7,7.7,0,0,0-6.253-2.814A9.306,9.306,0,0,0,566,178.547a7.153,7.153,0,0,0-1.112,6.316c.507,1.785,1.915,4.035,4.214,4.5a2.636,2.636,0,0,0,1.309-.047,2.45,2.45,0,0,1,3,1.576,2.2,2.2,0,0,1-1.393,2.792c-4.268,1.555-8.43-1.1-10.49-4.231A12.358,12.358,0,0,1,559.922,179.532Z" transform="translate(-545.606 -169.995)" fill="#000c23"></path><path id="Path_21647-2" data-name="Path 21647" d="M553.405,335.191a4.172,4.172,0,0,1,2.776-1.491,9.971,9.971,0,0,0,3.681-1.141,15.262,15.262,0,0,0,3-3.2,19.014,19.014,0,0,1,3.409-3.271,28.282,28.282,0,0,1,4.035-2.331,6.006,6.006,0,0,0,3.213-3.213,23.065,23.065,0,0,0,.859-4.823,78.839,78.839,0,0,1,1.919-9.434,2.243,2.243,0,0,0-.925-.006c-.415.086-.291.517.024.586a.239.239,0,0,0-.053.009c-5.172,1.914-10.715,2.4-16.055,3.654-2.728.643-5.423,1.422-8.1,2.253s-5.331,1.676-7.969,2.589a32.484,32.484,0,0,0-3.79,1.539,26.536,26.536,0,0,0-3.056,1.807c-1.919,1.293-3.718,2.754-5.641,4.042a18.322,18.322,0,0,1-6.443,2.892c-2.415.5-5.073.688-7.044,2.346a5.935,5.935,0,0,0-1.648,6.067,11.053,11.053,0,0,0,1.268,3.208,3.682,3.682,0,0,0,1.164,1.255,4.851,4.851,0,0,0,1.756.616c2.8.5,5.62-.141,8.377-.592q4.22-.692,8.483-1.073c2.807-.25,5.621-.388,8.438-.451,2.651-.06,5.305-.085,7.951-.276A2.393,2.393,0,0,1,553.405,335.191Z" transform="translate(-515.236 -263.773)" fill="#000c23"></path><path id="Path_21648-2" data-name="Path 21648" d="M575.832,373.1a2.143,2.143,0,0,0-1.442.887,10.181,10.181,0,0,1-4.447-.088c-1.742-.335-3.472-.735-5.215-1.067a71.363,71.363,0,0,0-10.737-1.336c-3.721-.137-7.452.037-11.172.131-1.8.046-3.594.067-5.389.139-1.415.057-2.943.308-3.8,1.562a7.174,7.174,0,0,0-.846,4.281,9.451,9.451,0,0,0,1.206,4.511,6.778,6.778,0,0,0,1.784,1.988c1.46-.15,2.916-.435,4.353-.671q4.22-.692,8.483-1.073c2.807-.25,5.621-.388,8.438-.451,2.651-.06,5.305-.085,7.951-.276a2.394,2.394,0,0,1,.375-1.557,4.172,4.172,0,0,1,2.776-1.491,9.971,9.971,0,0,0,3.681-1.141,15.266,15.266,0,0,0,3-3.2Q575.3,373.655,575.832,373.1Z" transform="translate(-527.201 -308.664)" fill="#001233"></path><path id="Path_21649-2" data-name="Path 21649" d="M538.817,384.6c-.567.041-1.14-.011-1.708,0s-1.16.052-1.737.116a17.076,17.076,0,0,0-1.7.265c-.4.084-.866.213-1.034.62-.1.233.278.282.408.19a3.043,3.043,0,0,1,1.276-.459c.515-.1,1.033-.18,1.555-.237s1.047-.089,1.573-.1a4.424,4.424,0,0,0,1.444-.155C539.053,384.786,538.953,384.592,538.817,384.6Z" transform="translate(-527.104 -317.718)" fill="#092042"></path><path id="Path_21650-2" data-name="Path 21650" d="M541.649,394.176a7.869,7.869,0,0,0-1.693-.218,8.377,8.377,0,0,0-1.675.174,6.792,6.792,0,0,0-1.459.47,2.852,2.852,0,0,0-1.21.819c-.123.2.153.319.311.248a3.953,3.953,0,0,0,.542-.356,4.835,4.835,0,0,1,.626-.343,6.2,6.2,0,0,1,1.33-.431,8.752,8.752,0,0,1,3.127-.072C541.763,394.5,541.893,394.229,541.649,394.176Z" transform="translate(-529.137 -324.159)" fill="#092042"></path><path id="Path_21651-2" data-name="Path 21651" d="M519.345,385.13a7.951,7.951,0,0,0-1.435.124,8.94,8.94,0,0,0-1.342.389,3.512,3.512,0,0,0-1.072.612,2.537,2.537,0,0,0-.4.434.958.958,0,0,0-.193.546c-.014.193.3.2.386.083a4.352,4.352,0,0,1,.678-.81,3.386,3.386,0,0,1,.939-.519,7.693,7.693,0,0,1,1.142-.328,11.719,11.719,0,0,1,1.294-.244C519.564,385.4,519.576,385.123,519.345,385.13Z" transform="translate(-514.905 -318.082)" fill="#032351"></path><path id="Path_21652-2" data-name="Path 21652" d="M521.064,398.053a7.724,7.724,0,0,0-2.147.3,16.035,16.035,0,0,0-2.077.646.216.216,0,0,0-.105.321.339.339,0,0,0,.4.084,15.709,15.709,0,0,1,1.97-.62c.664-.163,1.354-.225,2.013-.407C521.345,398.312,521.28,398.065,521.064,398.053Z" transform="translate(-516.14 -326.974)" fill="#032351"></path></g><g id="Group_2852-2" data-name="Group 2852" transform="translate(570.931 44.545)"><g id="Group_2845-2" data-name="Group 2845" transform="translate(39.361)"><g id="Group_2844-2" data-name="Group 2844"><path id="Path_21653-2" data-name="Path 21653" d="M850.87,118.719c1.582-4.607,5.906-16.336,11.6-19.032,4.532,3.551,7.784,33.272,7.784,33.272l-.634-.1A43.542,43.542,0,0,0,850.87,118.719Z" transform="translate(-841.553 -99.252)" fill="#206f8d"></path><path id="Path_21654-2" data-name="Path 21654" d="M863.611,104.744a2.883,2.883,0,0,0-1.535,1.081,5.322,5.322,0,0,0-.927,3.3,13.721,13.721,0,0,0,.6,3.8c.11.377.236.75.37,1.122a4.825,4.825,0,0,0-.866-.687,2.4,2.4,0,0,0-1.35-.4,2.214,2.214,0,0,0-1.259.527,2.072,2.072,0,0,0-.569,2.091,14.353,14.353,0,0,0,2.109,4.111,2.5,2.5,0,0,0-1.213.205,1.737,1.737,0,0,0-.856,1.107,3.763,3.763,0,0,0-.15,1.234,39.79,39.79,0,0,0-7.1-3.517c1.582-4.607,5.906-16.336,11.6-19.032.948.743,1.84,2.633,2.658,5.155A2.681,2.681,0,0,0,863.611,104.744Z" transform="translate(-841.553 -99.252)" fill="#208c7f" opacity="0.31" style="mix-blend-mode: multiply;isolation: isolate"></path><path id="Path_21655-2" data-name="Path 21655" d="M830.4,117.691a38.978,38.978,0,0,0-9.428-2.248l.515-.311s15.021-17.857,19.881-16.794a1.6,1.6,0,0,1,.635.322C836.309,101.355,831.985,113.083,830.4,117.691Z" transform="translate(-820.975 -98.292)" fill="#092042"></path></g><path id="Path_21656-2" data-name="Path 21656" d="M883.158,131.478a20.576,20.576,0,0,0,2.5-5.09,10.788,10.788,0,0,0,.419-5.472,4.166,4.166,0,0,0-1.448-2.5c-.026-.019.017-.051.039-.038a3.37,3.37,0,0,1,.941.839,4.417,4.417,0,0,1,.6,1.152,7.507,7.507,0,0,1,.345,2.744,14.459,14.459,0,0,1-1.481,5.607c-.327.7-.7,1.37-1.089,2.031a2.545,2.545,0,0,1,.863-.38,1.78,1.78,0,0,1,1.6.414,1.636,1.636,0,0,1,.247,1.716,5.4,5.4,0,0,1-.256.711.586.586,0,0,1,.651.5,4.108,4.108,0,0,1-.128,1.478,4.541,4.541,0,0,1-.584,1.382c-.074.115-.357.058-.276-.1a5.405,5.405,0,0,0,.663-2.184c.019-.284.09-.85-.349-.807a.427.427,0,0,0-.117.03,5.381,5.381,0,0,1-.507.812c-.1.127-.388.084-.321-.111a1.7,1.7,0,0,1,.519-.851,5.134,5.134,0,0,0,.289-.694,1.685,1.685,0,0,0-.028-1.588,1.372,1.372,0,0,0-1.333-.427,2.985,2.985,0,0,0-1.459.96C883.329,131.751,883.028,131.675,883.158,131.478Z" transform="translate(-863.756 -112.118)" fill="#092042"></path></g><path id="Path_21657-2" data-name="Path 21657" d="M760.389,159.675a11.411,11.411,0,0,1,3.4,12.957c-3.535,9.151-11.729,23.217-28.73,23.361-18.238.155-31.185-9.379-36.954-14.667a7.05,7.05,0,0,1-1.675-8.035c3.323-7.576,12.182-22.123,32-25.1C741.32,146.262,753.522,154.075,760.389,159.675Z" transform="translate(-695.471 -132.436)" fill="#001233"></path><path id="Path_21658-2" data-name="Path 21658" d="M802.66,233.562c-.3.52-.5,1.094-.779,1.623a14.241,14.241,0,0,1-.908,1.476,4.838,4.838,0,0,1-2.336,2.068c-1.146.333-2.123-.539-2.805-1.354a25.06,25.06,0,0,1-1.907-2.8,4.284,4.284,0,0,0,.677-.534l.661-.543c.427-.352.854-.7,1.246-1.1a3.322,3.322,0,0,0,.942-1.271.846.846,0,0,0-.7-1.088,2.011,2.011,0,0,0-1.549.412,5.83,5.83,0,0,0-1.126,1.074c-.032.039-.059.08-.089.12a.606.606,0,1,1-1.153,0c-.03-.04-.058-.081-.09-.12a5.819,5.819,0,0,0-1.126-1.074,2.012,2.012,0,0,0-1.55-.412.846.846,0,0,0-.7,1.088,3.322,3.322,0,0,0,.942,1.271c.392.391.819.745,1.246,1.1l.661.543a4.285,4.285,0,0,0,.677.534,25.076,25.076,0,0,1-1.907,2.8c-.682.815-1.659,1.687-2.806,1.354a4.837,4.837,0,0,1-2.335-2.068,14.219,14.219,0,0,1-.908-1.476c-.282-.529-.483-1.1-.78-1.623-.134-.235-.574-.1-.523.176a6.854,6.854,0,0,0,.77,1.848,13.116,13.116,0,0,0,1.113,1.752,4.647,4.647,0,0,0,2.7,1.991,3.381,3.381,0,0,0,3.02-1.278,14.3,14.3,0,0,0,2.178-3.378,14.31,14.31,0,0,0,2.179,3.378,3.38,3.38,0,0,0,3.02,1.278,4.646,4.646,0,0,0,2.7-1.991,13.125,13.125,0,0,0,1.113-1.752,6.852,6.852,0,0,0,.77-1.848C803.235,233.465,802.794,233.327,802.66,233.562Z" transform="translate(-755.902 -188.96)" fill="#002760"></path><path id="Path_21659-2" data-name="Path 21659" d="M805.448,221.79a4.534,4.534,0,0,0-1.723-1.373,8.38,8.38,0,0,0-2.087-.807,11.707,11.707,0,0,0-4.594,0,8.381,8.381,0,0,0-2.087.807,4.533,4.533,0,0,0-1.723,1.373c-.105.172.141.319.288.231.586-.354,1.077-.835,1.675-1.175a8.4,8.4,0,0,1,1.97-.811.191.191,0,0,0,.1,0,7.634,7.634,0,0,1,4.143,0,.191.191,0,0,0,.1,0,8.414,8.414,0,0,1,1.97.811c.6.341,1.09.821,1.675,1.175C805.307,222.109,805.553,221.962,805.448,221.79Z" transform="translate(-762.501 -181.641)" fill="#002760"></path><g id="Group_2848-2" data-name="Group 2848" transform="translate(9.368 25.412)"><g id="Group_2846-2" data-name="Group 2846"><path id="Path_21660-2" data-name="Path 21660" d="M747.515,193.769c-.091-.232-3.922-6.087-6.957-7.456a10.648,10.648,0,0,0-10.9,1.191,6.771,6.771,0,0,0-2.126,5.359,8.84,8.84,0,0,0,1.85,5.559,12.058,12.058,0,0,0,4.577,3.358,11,11,0,0,0,6.244,1.06,10.317,10.317,0,0,0,5.678-3.225C747.247,198.115,748.305,195.784,747.515,193.769Z" transform="translate(-726.662 -183.629)" fill="#208c7f"></path><path id="Path_21661-2" data-name="Path 21661" d="M726.162,186.317a9.788,9.788,0,0,1,2.344-1.111,19.727,19.727,0,0,1,2.948-.8,14.477,14.477,0,0,1,5.883.059,20.225,20.225,0,0,1,2.5.792,17.683,17.683,0,0,1,2.16.956,9.767,9.767,0,0,1,1.94,1.326c.129.116.248.237.364.36h.63q-.438-.888-.958-1.733c-.35-.57-.73-1.12-1.123-1.661a13.265,13.265,0,0,0-5.6-4,10.225,10.225,0,0,0-6.616-.234,8.756,8.756,0,0,0-4.771,3.66A7.631,7.631,0,0,0,724.8,187.5,8.177,8.177,0,0,1,726.162,186.317Z" transform="translate(-724.777 -179.832)" fill="#208c7f" style="mix-blend-mode: multiply;isolation: isolate"></path><path id="Path_21662-2" data-name="Path 21662" d="M725.607,189.064a6.771,6.771,0,0,1,2.126-5.359,10.648,10.648,0,0,1,10.9-1.191,10.134,10.134,0,0,1,2.749,2.1q.219.179.43.367a14.893,14.893,0,0,1,2.637,3.209c.123.194.241.391.356.59.469.669.761,1.132.785,1.194a3.921,3.921,0,0,1,.254,1.11.483.483,0,0,0,.064.007c0-.071,0-.141-.009-.213a7.371,7.371,0,0,0-.746-2.411,20.7,20.7,0,0,0-1.224-2.294c-.35-.57-.73-1.12-1.122-1.661a13.266,13.266,0,0,0-5.6-4,10.225,10.225,0,0,0-6.616-.234,8.755,8.755,0,0,0-4.771,3.66c-1.5,2.467-1.226,5.412-.462,8.076.087.3.574.3.732.06A9.333,9.333,0,0,1,725.607,189.064Z" transform="translate(-724.735 -179.832)" fill="#032351"></path><circle id="Ellipse_335-2" data-name="Ellipse 335" cx="7.172" cy="7.172" r="7.172" transform="translate(1.701 6.954) rotate(-22.837)" fill="#092042"></circle><path id="Path_21663-2" data-name="Path 21663" d="M749.915,217.074c-1.312,1.453-2.166,3.745-4.963,3.729-3.066-.017-4.36-2.277-5.672-3.729h-1.805a7.17,7.17,0,0,0,14.245,0Z" transform="translate(-733.504 -205.467)" fill="#002760"></path><ellipse id="Ellipse_336-2" data-name="Ellipse 336" cx="2.614" cy="1.025" rx="2.614" ry="1.025" transform="translate(4.678 4.882)" fill="#fff"></ellipse><circle id="Ellipse_337-2" data-name="Ellipse 337" cx="0.948" cy="0.948" r="0.948" transform="translate(12.255 6.978)" fill="#fff"></circle></g><g id="Group_2847-2" data-name="Group 2847" transform="translate(35.779)"><path id="Path_21664-2" data-name="Path 21664" d="M841.59,199.614a10.317,10.317,0,0,0,5.678,3.225,11,11,0,0,0,6.245-1.06,12.059,12.059,0,0,0,4.577-3.358,8.843,8.843,0,0,0,1.85-5.559,6.773,6.773,0,0,0-2.126-5.359,10.648,10.648,0,0,0-10.9-1.191c-3.035,1.369-6.866,7.224-6.957,7.456C839.169,195.784,840.227,198.115,841.59,199.614Z" transform="translate(-839.641 -183.629)" fill="#208c7f"></path><path id="Path_21665-2" data-name="Path 21665" d="M861.577,186.317a9.791,9.791,0,0,0-2.344-1.111,19.734,19.734,0,0,0-2.948-.8,14.478,14.478,0,0,0-5.883.059,20.223,20.223,0,0,0-2.5.792,17.688,17.688,0,0,0-2.16.956,9.761,9.761,0,0,0-1.94,1.326c-.129.116-.248.237-.364.36h-.629q.437-.888.958-1.733c.35-.57.73-1.12,1.123-1.661a13.262,13.262,0,0,1,5.6-4,10.225,10.225,0,0,1,6.616-.234,8.756,8.756,0,0,1,4.771,3.66,7.627,7.627,0,0,1,1.061,3.564A8.177,8.177,0,0,0,861.577,186.317Z" transform="translate(-841.791 -179.832)" fill="#208c7f" style="mix-blend-mode: multiply;isolation: isolate"></path><path id="Path_21666-2" data-name="Path 21666" d="M859.836,189.064a6.773,6.773,0,0,0-2.126-5.359,10.648,10.648,0,0,0-10.9-1.191,10.129,10.129,0,0,0-2.75,2.1q-.219.179-.43.367A14.893,14.893,0,0,0,841,188.187c-.123.194-.241.391-.356.59-.469.669-.761,1.132-.785,1.194a3.933,3.933,0,0,0-.254,1.11.483.483,0,0,1-.064.007c0-.071,0-.141.008-.213a7.375,7.375,0,0,1,.746-2.411,20.7,20.7,0,0,1,1.224-2.294c.35-.57.73-1.12,1.123-1.661a13.262,13.262,0,0,1,5.6-4,10.225,10.225,0,0,1,6.616-.234,8.756,8.756,0,0,1,4.771,3.66c1.5,2.467,1.226,5.412.462,8.076-.087.3-.574.3-.733.06A9.34,9.34,0,0,0,859.836,189.064Z" transform="translate(-839.538 -179.832)" fill="#032351"></path><circle id="Ellipse_338-2" data-name="Ellipse 338" cx="7.172" cy="7.172" r="7.172" transform="translate(0.685 14.606) rotate(-67.163)" fill="#092042"></circle><path id="Path_21667-2" data-name="Path 21667" d="M850.825,217.074c1.312,1.453,2.166,3.745,4.963,3.729,3.066-.017,4.36-2.277,5.672-3.729h1.805a7.17,7.17,0,0,1-14.245,0Z" transform="translate(-846.065 -205.467)" fill="#002760"></path><ellipse id="Ellipse_339-2" data-name="Ellipse 339" cx="2.614" cy="1.025" rx="2.614" ry="1.025" transform="translate(11.265 4.882)" fill="#fff"></ellipse><circle id="Ellipse_340-2" data-name="Ellipse 340" cx="0.948" cy="0.948" r="0.948" transform="translate(7.02 6.978)" fill="#fff"></circle></g></g><path id="Path_21668-2" data-name="Path 21668" d="M773.485,189.126" transform="translate(-748.924 -160.817)" fill="none" stroke="#fff" stroke-miterlimit="10" stroke-width="1"></path><path id="Path_21669-2" data-name="Path 21669" d="M779.245,175.1a5.8,5.8,0,0,0-.3-.755,12.822,12.822,0,0,0-2.009-3.854,6.336,6.336,0,0,0-2-1.84,2.064,2.064,0,0,0-2.477.113c-.669.73-.074,1.785.291,2.511a18.363,18.363,0,0,0,1.61,2.566c.584.8,1.212,1.561,1.843,2.322a3.134,3.134,0,0,0,2.106,1.431,1.029,1.029,0,0,0,1.154-.868A4.094,4.094,0,0,0,779.245,175.1Z" transform="translate(-748.008 -146.475)" fill="#032351"></path><path id="Path_21670-2" data-name="Path 21670" d="M837.366,176.722a1.029,1.029,0,0,0,1.154.868,3.134,3.134,0,0,0,2.106-1.431c.631-.76,1.26-1.524,1.843-2.322a18.375,18.375,0,0,0,1.61-2.566c.365-.725.961-1.781.291-2.511a2.064,2.064,0,0,0-2.477-.113,6.336,6.336,0,0,0-2,1.84,12.815,12.815,0,0,0-2.009,3.854,5.788,5.788,0,0,0-.3.755A4.1,4.1,0,0,0,837.366,176.722Z" transform="translate(-792.886 -146.475)" fill="#032351"></path><path id="Path_21671-2" data-name="Path 21671" d="M820.576,231.3a.757.757,0,0,0-.552.021,2.8,2.8,0,0,0-.825.621,3.679,3.679,0,0,0-.452.5,3.142,3.142,0,0,0-.289.324c-.134.172.157.318.3.237l1.065-.616a2.515,2.515,0,0,0,.865-.632A.286.286,0,0,0,820.576,231.3Z" transform="translate(-779.857 -189.819)" fill="#fff"></path><path id="Path_21672-2" data-name="Path 21672" d="M816.578,237.165c-.008-.015-.015-.03-.023-.044a.13.13,0,0,0-.049-.042.151.151,0,0,0-.064-.027l-.05-.005a.224.224,0,0,0-.093.02.2.2,0,0,0-.027,0,.342.342,0,0,0-.045.015l-.015.007a.344.344,0,0,0-.059.037.24.24,0,0,0-.081.112.1.1,0,0,0,0,.062.1.1,0,0,0,.023.058l.031.032a.213.213,0,0,0,.086.04.406.406,0,0,0,.074.01.237.237,0,0,0,.074-.007.458.458,0,0,0,.069-.023.427.427,0,0,0,.059-.035l.019-.014.023-.024a.273.273,0,0,0,.023-.024l.008-.01,0,0,0,0,.021-.039A.122.122,0,0,0,816.578,237.165Z" transform="translate(-778.234 -193.803)" fill="#fff"></path><g id="Group_2850-2" data-name="Group 2850" transform="translate(0 5.343)"><g id="Group_2849-2" data-name="Group 2849"><path id="Path_21673-2" data-name="Path 21673" d="M711.871,133.728c-2.554-4.148-9.347-14.641-15.5-16.021-3.642,4.459-.293,34.169-.293,34.169l.6-.24A43.539,43.539,0,0,1,711.871,133.728Z" transform="translate(-694.676 -116.999)" fill="#206f8d"></path><path id="Path_21674-2" data-name="Path 21674" d="M696.9,122.89a2.883,2.883,0,0,1,1.735.718,5.318,5.318,0,0,1,1.629,3.019,13.714,13.714,0,0,1,.247,3.835c-.024.392-.065.784-.114,1.175a4.815,4.815,0,0,1,.694-.86,2.4,2.4,0,0,1,1.23-.685,2.215,2.215,0,0,1,1.344.238,2.073,2.073,0,0,1,1.014,1.915,14.361,14.361,0,0,1-1.155,4.473,2.5,2.5,0,0,1,1.228-.066,1.737,1.737,0,0,1,1.078.892,3.768,3.768,0,0,1,.417,1.171,39.766,39.766,0,0,1,6.15-4.989c-2.555-4.148-9.347-14.641-15.5-16.021-.762.933-1.217,2.973-1.462,5.613A2.677,2.677,0,0,1,696.9,122.89Z" transform="translate(-695.199 -116.999)" fill="#208c7f" opacity="0.31" style="mix-blend-mode: multiply;isolation: isolate"></path><path id="Path_21675-2" data-name="Path 21675" d="M715.224,132.123a38.976,38.976,0,0,1,8.705-4.262l-.571-.19s-18.574-14.126-23.082-12.022a1.593,1.593,0,0,0-.549.453C705.878,117.481,712.67,127.975,715.224,132.123Z" transform="translate(-698.154 -115.434)" fill="#092042"></path></g><path id="Path_21676-2" data-name="Path 21676" d="M706.167,148.377a20.585,20.585,0,0,1-3.555-4.417A10.794,10.794,0,0,1,701,138.713a4.166,4.166,0,0,1,.864-2.754c.021-.024-.028-.046-.046-.028a3.37,3.37,0,0,0-.733,1.025,4.42,4.42,0,0,0-.334,1.255,7.51,7.51,0,0,0,.266,2.753,14.455,14.455,0,0,0,2.675,5.145c.472.606.98,1.184,1.508,1.742a2.542,2.542,0,0,0-.925-.181,1.78,1.78,0,0,0-1.467.754,1.636,1.636,0,0,0,.136,1.728,5.362,5.362,0,0,0,.406.637.586.586,0,0,0-.525.634,4.1,4.1,0,0,0,.45,1.414,4.533,4.533,0,0,0,.873,1.22c.1.1.362-.022.249-.153a5.41,5.41,0,0,1-1.126-1.986c-.081-.273-.274-.81.163-.864a.42.42,0,0,1,.121,0,5.383,5.383,0,0,0,.673.681c.123.1.4,0,.289-.179a1.7,1.7,0,0,0-.693-.717,5.071,5.071,0,0,1-.434-.614,1.685,1.685,0,0,1-.322-1.556,1.372,1.372,0,0,1,1.207-.709,2.986,2.986,0,0,1,1.635.616C706.059,148.681,706.336,148.541,706.167,148.377Z" transform="translate(-698.834 -129.538)" fill="#092042"></path></g><g id="Group_2851-2" data-name="Group 2851" transform="translate(0.343 16.088)"><path id="Path_21677-2" data-name="Path 21677" d="M721.372,211c-2,1.132-4.448.68-6.529.038a23.339,23.339,0,0,1-5.945-2.846,28.565,28.565,0,0,1-5.03-4.258,36.54,36.54,0,0,1-4.247-5.525,58.115,58.115,0,0,1-3.372-6.183c-.128-.27-.258-.538-.386-.808-.019-.039-.1-.027-.085.019a46.565,46.565,0,0,0,3.215,6.365,37.8,37.8,0,0,0,4.279,5.793,28.964,28.964,0,0,0,5.02,4.417,23.811,23.811,0,0,0,5.892,2.979c2.035.683,4.41,1.241,6.492.432a5.012,5.012,0,0,0,.739-.362C721.464,211.027,721.413,210.972,721.372,211Z" transform="translate(-695.775 -178.464)" fill="#fff"></path><path id="Path_21678-2" data-name="Path 21678" d="M722.809,247.385c-2.685,2.452-6.638,2.709-10.072,2.228a28.713,28.713,0,0,1-10.613-3.858,42.186,42.186,0,0,1-5.242-3.765c-.054-.044-.16.018-.1.077a30.982,30.982,0,0,0,4.686,3.536,31.341,31.341,0,0,0,5.148,2.6,27.08,27.08,0,0,0,5.6,1.539,18.125,18.125,0,0,0,5.4.129,9.557,9.557,0,0,0,5.309-2.389C723,247.407,722.873,247.327,722.809,247.385Z" transform="translate(-696.458 -213.284)" fill="#fff"></path><path id="Path_21679-2" data-name="Path 21679" d="M790.539,153.312a18.412,18.412,0,0,0-1.308-3.371c-.023-.046-.122-.03-.1.021a21.45,21.45,0,0,1,1.749,5.955,19.337,19.337,0,0,1-.066,6.072,3.145,3.145,0,0,1-1.4,2.35c-.044.023,0,.071.038.052a2.928,2.928,0,0,0,1.377-1.882,12.314,12.314,0,0,0,.4-2.848A20.075,20.075,0,0,0,790.539,153.312Z" transform="translate(-760.035 -149.914)" fill="#fff"></path><path id="Path_21680-2" data-name="Path 21680" d="M788.3,174.22a15.381,15.381,0,0,0-1-4.241c-.013-.033-.079-.023-.068.015a24.518,24.518,0,0,1,.893,3.9,10.484,10.484,0,0,1,.052,1.928,9.661,9.661,0,0,1-.125,1.012c-.029.165-.063.328-.1.491s-.077.419-.281.451c-.018,0-.012.026,0,.025.238-.01.3-.268.357-.458a7.48,7.48,0,0,0,.216-.989A9.4,9.4,0,0,0,788.3,174.22Z" transform="translate(-758.732 -163.712)" fill="#fff"></path><path id="Path_21681-2" data-name="Path 21681" d="M849.765,211c2,1.132,4.448.68,6.529.038a23.342,23.342,0,0,0,5.945-2.846,28.571,28.571,0,0,0,5.03-4.258,36.583,36.583,0,0,0,4.247-5.525,58.236,58.236,0,0,0,3.372-6.183c.128-.27.258-.538.386-.808.018-.039.1-.027.084.019a46.528,46.528,0,0,1-3.215,6.365,37.8,37.8,0,0,1-4.279,5.793,28.964,28.964,0,0,1-5.02,4.417,23.82,23.82,0,0,1-5.892,2.979c-2.035.683-4.41,1.241-6.492.432a5.007,5.007,0,0,1-.739-.362C849.672,211.027,849.723,210.972,849.765,211Z" transform="translate(-801.73 -178.464)" fill="#fff"></path><path id="Path_21682-2" data-name="Path 21682" d="M847.172,247.385c2.685,2.452,6.639,2.709,10.072,2.228a28.718,28.718,0,0,0,10.613-3.858,42.21,42.21,0,0,0,5.241-3.765c.054-.044.16.018.1.077a30.975,30.975,0,0,1-4.686,3.536,31.356,31.356,0,0,1-5.148,2.6,27.081,27.081,0,0,1-5.6,1.539,18.123,18.123,0,0,1-5.4.129,9.557,9.557,0,0,1-5.309-2.389C846.98,247.407,847.109,247.327,847.172,247.385Z" transform="translate(-799.893 -213.284)" fill="#fff"></path><path id="Path_21683-2" data-name="Path 21683" d="M832.562,153.312a18.4,18.4,0,0,1,1.308-3.371c.023-.046.122-.03.1.021a21.46,21.46,0,0,0-1.749,5.955,19.337,19.337,0,0,0,.066,6.072,3.145,3.145,0,0,0,1.4,2.35c.044.023,0,.071-.038.052a2.928,2.928,0,0,1-1.377-1.882,12.324,12.324,0,0,1-.4-2.848A20.063,20.063,0,0,1,832.562,153.312Z" transform="translate(-789.434 -149.914)" fill="#fff"></path><path id="Path_21684-2" data-name="Path 21684" d="M837.073,174.22a15.373,15.373,0,0,1,1-4.241c.013-.033.079-.023.068.015a24.477,24.477,0,0,0-.893,3.9,10.479,10.479,0,0,0-.052,1.928,9.612,9.612,0,0,0,.125,1.012c.029.165.063.328.1.491s.077.419.281.451c.018,0,.013.026,0,.025-.238-.01-.3-.268-.357-.458a7.49,7.49,0,0,1-.217-.989A9.4,9.4,0,0,1,837.073,174.22Z" transform="translate(-793.012 -163.712)" fill="#fff"></path></g></g><g id="Group_2855-2" data-name="Group 2855" transform="translate(582.127 20.211)"><g id="Group_2854-2" data-name="Group 2854"><path id="Path_21685-2" data-name="Path 21685" d="M784.687,20.248c-.987-.678-7.5,8.171-10.742,8.4l-5.687,21.637s13.823,5.005,20.379.065L785.872,33.1l-1.5-1.227,1.264-.065-.869-1.356s.51-5.031,2.212-2.713c.118.161,10.031,1.905,10.979-.582C797.958,27.159,787.935,22.479,784.687,20.248Z" transform="translate(-756.521 -20.211)" fill="#e94200"></path><path id="Path_21686-2" data-name="Path 21686" d="M765.432,130.189s-9.716,6.477-25.987.395l-8.847,2.449s11.967,7.7,17.378,10.269,12.757,5.174,20.379,2.686l-.237-1.9,2.844,1.264.316-1.5,1.817.711s9.4-1.5,5.687-11.216C778.781,133.349,771.159,133.665,765.432,130.189Z" transform="translate(-730.598 -95.914)" fill="#f48100"></path><g id="Group_2853-2" data-name="Group 2853" transform="translate(8.121 29.091)"><path id="Path_21687-2" data-name="Path 21687" d="M777.439,114.428a23.405,23.405,0,0,1-15.562-.62,3.854,3.854,0,0,0-5.168,4.225,3.738,3.738,0,0,0,.079.366c.191.147.382.3.582.433.016.011,0,.038-.016.027-.186-.127-.367-.26-.545-.4a2.763,2.763,0,0,0,.44.907c.226.3,19.1,6.1,27.512-1.11A5.893,5.893,0,0,0,777.439,114.428Z" transform="translate(-756.655 -113.554)" fill="#df2200"></path><rect id="Rectangle_182-2" data-name="Rectangle 182" width="13.304" height="9.361" rx="4.68" transform="translate(6.431 0.018)" fill="#f68600"></rect><path id="Path_21688-2" data-name="Path 21688" d="M800.872,113.611h-3.218c.008.088.018.176.03.265a.858.858,0,0,0,.424.709,6.2,6.2,0,0,0,2.119.443,4.639,4.639,0,0,1,1.852.538,3.347,3.347,0,0,1,1.157,1.195,4.162,4.162,0,0,1,.469,3,2.266,2.266,0,0,1-.765,1.33c-.421.343-1.03.6-1.284,1.045a1.984,1.984,0,0,0-.222.8c1.792-.213,3.179-1.424,3.179-2.879v-3.529C804.612,114.923,802.929,113.611,800.872,113.611Z" transform="translate(-784.877 -113.593)" fill="#ff9c31"></path><rect id="Rectangle_183-2" data-name="Rectangle 183" width="11.329" height="7.971" rx="3.985" transform="translate(7.419 0.713)" fill="none" stroke="#24007c" stroke-miterlimit="10" stroke-width="0.25"></rect><rect id="Rectangle_184-2" data-name="Rectangle 184" width="8.735" height="6.146" rx="3.073" transform="translate(8.715 1.625)" fill="#e94200"></rect></g></g><path id="Path_21689-2" data-name="Path 21689" d="M776.7,20.248c-.987-.678-7.5,8.171-10.742,8.4L760.528,49.3a3.855,3.855,0,0,0-3.819,4.477,3.543,3.543,0,0,0,.083.37c.19.146.379.294.578.43.016.011,0,.038-.016.027-.185-.126-.365-.259-.542-.394a2.954,2.954,0,0,0,.3.678,14.254,14.254,0,0,0,2.98.883c.335.062.673.107,1.011.145a30.751,30.751,0,0,1,.172-3.418,5.325,5.325,0,0,1,1.3-3.18c.348-.343.747-.63,1.1-.973a2.709,2.709,0,0,0,.688-1.11,13.455,13.455,0,0,0,.563-2.927,10.145,10.145,0,0,0,.009-2.867c-.024-.123.083-.276.223-.223a5.714,5.714,0,0,1,2.479,2.221,8.169,8.169,0,0,0,2.129,2.353,4.631,4.631,0,0,0-.1-1.759c-.6-2.606-2.374-4.748-3.17-7.28a.182.182,0,0,1,.264-.2,7.573,7.573,0,0,0,1.419.742c.327.1.563.046.668-.3a3.71,3.71,0,0,0-.032-1.889c-.3-1.187-1.051-2.228-1.143-3.471a.17.17,0,0,1,.255-.146,5.876,5.876,0,0,0,1.712.934c.249.065.443.055.519-.173a2.076,2.076,0,0,0,0-.872c-.051-.412-.131-.821-.2-1.231a5.361,5.361,0,0,1-.014-2.494,3.141,3.141,0,0,1,.908-1.26,13.354,13.354,0,0,1,1.8-1.324,20.922,20.922,0,0,0,1.862-1.279,6.01,6.01,0,0,0,.772-.8,6.275,6.275,0,0,0,.806-1.107.163.163,0,0,1,.218-.057c.994.424,1.963.9,2.922,1.4,3.343,1.737,6.738,3.807,10.554,4.233a1.135,1.135,0,0,0,.178-.3S779.948,22.479,776.7,20.248Z" transform="translate(-748.534 -20.211)" fill="#f48100"></path><path id="Path_21690-2" data-name="Path 21690" d="M822.113,63.3a5.991,5.991,0,0,0-4.149-3.9l-2.726-17-1.5-1.227L815,41.1l-.869-1.356s.51-5.031,2.211-2.713c.118.161,10.031,1.905,10.979-.582l-.133-.062a13.4,13.4,0,0,1-1.486.182c-4.363.282-8.595-1.3-12.6-2.86a6.579,6.579,0,0,1-.656,3.3c-.447,1.038-1.021,2.011-1.532,3.016a8.335,8.335,0,0,0,.891-.175c.182-.056.3.118.277.277a5.906,5.906,0,0,1-.786,2.1,5.382,5.382,0,0,1,1.421-.262.234.234,0,0,1,.223.169,23.358,23.358,0,0,1,.608,4.227c.29,4.956-.636,9.865-1.087,14.783a2.124,2.124,0,0,1,.448-.145,3.331,3.331,0,0,1,3.264,1.339,5.226,5.226,0,0,1,.467,2.909,5.968,5.968,0,0,0,1.436,3.416,24,24,0,0,0,2.68,2.8,27.541,27.541,0,0,0,6.87,4.764,16.4,16.4,0,0,0,3.14,1.133c2.5-1.189,5.746-4.024,3.3-10.425,0,0-7.243.3-12.913-2.906A11.46,11.46,0,0,0,822.113,63.3Z" transform="translate(-785.887 -29.503)" fill="#e94200" style="mix-blend-mode: multiply;isolation: isolate"></path></g><g id="Group_2856-2" data-name="Group 2856" transform="translate(551.968 97.974)"><path id="Path_21691-2" data-name="Path 21691" d="M753.79,333.055a4.678,4.678,0,0,1,3.028-1.716,12.17,12.17,0,0,1,2.3-.317,9.759,9.759,0,0,0,2.327-.293,9.083,9.083,0,0,0,3.294-2.28,31.559,31.559,0,0,1,3.563-2.791,23.412,23.412,0,0,1,4.133-2.286,30.023,30.023,0,0,1,4.626-1.42c.783-.183,1.569-.346,2.356-.507.575-.118,1.148-.245,1.727-.328-2.243-9.053-9.976-15.729-19.174-15.729-10.953,0-19.832,9.465-19.832,21.141a22.154,22.154,0,0,0,2.355,10c2.464-.527,4.922-1.086,7.374-1.656l1.447-.338A3.191,3.191,0,0,1,753.79,333.055Z" transform="translate(-708.383 -294.275)" fill="#001233"></path><path id="Path_21692-2" data-name="Path 21692" d="M807.755,389.7a27.57,27.57,0,0,1-4.6-1.065,37.184,37.184,0,0,0-4.593-1.252c-.322-.055-.516.364-.15.436,1.583.312,3.112.8,4.656,1.26a16.781,16.781,0,0,0,4.641.875C807.876,389.953,807.941,389.721,807.755,389.7Z" transform="translate(-746.985 -350.711)" fill="#032351"></path><path id="Path_21693-2" data-name="Path 21693" d="M787.736,389.43a5.459,5.459,0,0,0-1.659.895,4.37,4.37,0,0,0-1.044,1.374,5.01,5.01,0,0,0-.48,1.81,5.961,5.961,0,0,0,.017,1.1,2.326,2.326,0,0,0,.223.955.226.226,0,0,0,.4-.086,4.835,4.835,0,0,0-.114-.924,5.93,5.93,0,0,1-.019-.936,4.829,4.829,0,0,1,.426-1.727,4.562,4.562,0,0,1,2.43-2.218C788.126,389.576,787.909,389.362,787.736,389.43Z" transform="translate(-737.567 -352.116)" fill="#032351"></path><path id="Path_21694-2" data-name="Path 21694" d="M794.445,390.032a5.463,5.463,0,0,0-1.659.895,4.371,4.371,0,0,0-1.044,1.374,5,5,0,0,0-.479,1.81,5.932,5.932,0,0,0,.016,1.1,2.33,2.33,0,0,0,.223.956.227.227,0,0,0,.4-.086,4.844,4.844,0,0,0-.114-.924,5.941,5.941,0,0,1-.019-.936,4.83,4.83,0,0,1,.426-1.727,4.563,4.563,0,0,1,2.43-2.218C794.836,390.178,794.619,389.964,794.445,390.032Z" transform="translate(-742.185 -352.53)" fill="#032351"></path><path id="Path_21695-2" data-name="Path 21695" d="M808.75,393.209a4.032,4.032,0,0,0-1.271.8,3.912,3.912,0,0,0-.8,1.233,5.108,5.108,0,0,0-.368,1.624,6.24,6.24,0,0,0,.013.987,2.387,2.387,0,0,0,.171.857.166.166,0,0,0,.3-.077,5.024,5.024,0,0,0-.088-.829,6.246,6.246,0,0,1-.014-.84,4.944,4.944,0,0,1,.327-1.549,3.768,3.768,0,0,1,1.862-1.989C809.049,393.34,808.883,393.147,808.75,393.209Z" transform="translate(-752.546 -354.718)" fill="#032351"></path><path id="Path_21696-2" data-name="Path 21696" d="M659.668,395.7a10.551,10.551,0,0,0-3.808-2.632,13.118,13.118,0,0,0-2.2-.743,7.528,7.528,0,0,0-1.9-.261l-.017.011a3.894,3.894,0,0,1-.53.312c-.075.033-.152.061-.229.087a.292.292,0,0,0,.272.084,5.674,5.674,0,0,1,2.417.236,12.747,12.747,0,0,1,2.065.719,18.108,18.108,0,0,1,3.644,2.362C659.5,395.965,659.8,395.859,659.668,395.7Z" transform="translate(-645.638 -353.937)" fill="#032351"></path><path id="Path_21697-2" data-name="Path 21697" d="M906.88,404.163" transform="translate(-821.782 -362.266)" fill="none" stroke="#fff" stroke-miterlimit="10" stroke-width="1"></path><path id="Path_21698-2" data-name="Path 21698" d="M891.451,412.2" transform="translate(-811.162 -367.799)" fill="none" stroke="#fff" stroke-miterlimit="10" stroke-width="1"></path><path id="Path_21699-2" data-name="Path 21699" d="M661.2,269.729a11.515,11.515,0,0,0-1.356,2.5,75.85,75.85,0,0,0-5.054,18.638,23.076,23.076,0,0,1-.859,4.824,6.007,6.007,0,0,1-3.214,3.213,28.27,28.27,0,0,0-4.035,2.331,19.025,19.025,0,0,0-3.409,3.27,15.248,15.248,0,0,1-3,3.2,9.964,9.964,0,0,1-3.681,1.14,4.173,4.173,0,0,0-2.776,1.491" transform="translate(-633.827 -269.729)" fill="none" stroke="#154660" stroke-linecap="round" stroke-linejoin="round" stroke-width="2"></path><path id="Path_21700-2" data-name="Path 21700" d="M814.148,351.99s-12.653.919-17.728,4.237c-5,3.266-9.325,7.293-11.987,6.96s-6.827,1.483-5.047,5.187" transform="translate(-733.727 -326.353)" fill="none" stroke="#154660" stroke-linecap="round" stroke-linejoin="round" stroke-width="2"></path><path id="Path_21701-2" data-name="Path 21701" d="M800.455,340.783a11.16,11.16,0,0,0-.263-2.361,8.241,8.241,0,0,0-.933-2.518c-.04-.065-.2-.031-.162.055.245.644.511,1.275.7,1.94a10.878,10.878,0,0,1,.363,2.077q.04.525.029,1.052a2.4,2.4,0,0,1-.124.9.572.572,0,0,1-.742.329,1.242,1.242,0,0,1-.682-.7c-.168-.347-.291-.718-.429-1.077-.153-.4-.307-.8-.459-1.194-.049-.128-.279-.089-.255.056a12.261,12.261,0,0,1,.056,3.832c-.047.318-.1.636-.179.949-.071.295-.226.57-.558.376a2.5,2.5,0,0,1-.906-1.3c-.019-.053-.029-.108-.045-.161a7.943,7.943,0,0,0-.068-1.668c-.02-.138-.282-.191-.316-.034,0,.012,0,.023,0,.034h0v0a3.523,3.523,0,0,0,.055,1.625,7.562,7.562,0,0,1-.167,1.195,4.675,4.675,0,0,1-1.061,2.266,1.609,1.609,0,0,1-2.071.321,2.1,2.1,0,0,1-.606-1.042,9.24,9.24,0,0,1-.332-1.368,9.734,9.734,0,0,1,.007-3.206c.018-.1-.162-.136-.183-.04a9.028,9.028,0,0,0-.149,3.1,9.153,9.153,0,0,0,.326,1.509,2.635,2.635,0,0,0,.592,1.131,1.839,1.839,0,0,0,2.2.142,3.7,3.7,0,0,0,1.456-2.19,7.73,7.73,0,0,0,.252-1.122,2.477,2.477,0,0,0,.768.952.742.742,0,0,0,.731.113.869.869,0,0,0,.393-.681,12.877,12.877,0,0,0,.259-2.249,12.364,12.364,0,0,0-.051-1.457l.073.19a11.84,11.84,0,0,0,.442,1.1c.262.52.83,1.026,1.455.78S800.457,341.342,800.455,340.783Z" transform="translate(-741.947 -315.258)" fill="#154660"></path></g><g id="Group_2859-2" data-name="Group 2859" transform="translate(580.433 97.161)"><path id="Path_21702-2" data-name="Path 21702" d="M778.545,267.12a17.371,17.371,0,0,1-1.948,3.321,26.523,26.523,0,0,1-2.519,2.959,28.534,28.534,0,0,1-6.278,4.752c-.572.342-1.181.611-1.778.916a9.265,9.265,0,0,1-.916.407l-.931.379a27.6,27.6,0,0,1-3.85,1.193,31.08,31.08,0,0,1-8.023.779l-2.009-.127c-.665-.073-1.325-.177-1.987-.269-.329-.055-.663-.087-.987-.162l-.974-.214-.971-.221-.485-.112c-.16-.041-.317-.094-.476-.141-.632-.192-1.263-.386-1.89-.588l-.47-.151-.458-.181-.913-.367-.91-.367a9.355,9.355,0,0,1-.9-.393l-1.747-.87a39.729,39.729,0,0,1-11.967-9.49c1.214.431,2.373.913,3.511,1.408,1.166.451,2.312.908,3.438,1.381l1.716.637c.572.206,1.122.453,1.695.643s1.14.385,1.7.581l.845.294c.282.1.57.172.852.262,1.137.342,2.259.7,3.4.971l.848.218.422.112.427.088c.569.113,1.135.234,1.7.358.281.069.566.112.85.154l.85.134.848.141c.282.054.567.063.85.1.567.056,1.132.134,1.7.18l1.7.091a36.878,36.878,0,0,0,13.376-1.986,43.176,43.176,0,0,0,6.446-2.838A49.678,49.678,0,0,0,778.545,267.12Z" transform="translate(-725.163 -267.12)" fill="#f48100"></path><path id="Path_21703-2" data-name="Path 21703" d="M773.22,271.1a43.175,43.175,0,0,1-6.446,2.838,36.879,36.879,0,0,1-13.376,1.986l-1.7-.091c-.566-.046-1.131-.124-1.7-.18-.283-.034-.568-.043-.85-.1l-.848-.141-.85-.134c-.284-.042-.568-.085-.849-.154-.564-.123-1.13-.244-1.7-.358l-.427-.088-.422-.112-.848-.218c-1.138-.269-2.26-.629-3.4-.971-.283-.089-.57-.166-.852-.262l-.845-.294c-.565-.2-1.129-.4-1.7-.581s-1.123-.437-1.695-.643L733,270.962c-1.126-.473-2.272-.93-3.438-1.381-1.011-.44-2.041-.867-3.109-1.26.191.123.381.246.573.367,2.1,1.33,4.221,2.609,6.429,3.748a51.267,51.267,0,0,0,6.9,2.962,43.407,43.407,0,0,0,7.662,1.787,38.606,38.606,0,0,0,3.927.418,22.365,22.365,0,0,0,3.611-.21c2.38-.282,4.825-.734,7.212-.275a.192.192,0,0,1,.134.235,3.2,3.2,0,0,1-1.076,1.276,1.788,1.788,0,0,1,.9.16.181.181,0,0,1,.065.247,10.328,10.328,0,0,1-.618.962,1.791,1.791,0,0,1,.529.655q1.2-.351,2.359-.8l.931-.379a9.251,9.251,0,0,0,.916-.407c.6-.3,1.205-.574,1.778-.916a28.526,28.526,0,0,0,6.278-4.752,26.5,26.5,0,0,0,2.519-2.959,17.371,17.371,0,0,0,1.948-3.321A49.674,49.674,0,0,1,773.22,271.1Z" transform="translate(-726.052 -267.12)" fill="#f48100" style="mix-blend-mode: multiply;isolation: isolate"></path><g id="Group_2858-2" data-name="Group 2858" transform="translate(21.272 11.252)"><g id="Group_2857-2" data-name="Group 2857"><path id="Path_21704-2" data-name="Path 21704" d="M802.632,311.751a1.464,1.464,0,0,0,.777-.774,1.8,1.8,0,0,0,.112-.8,1.405,1.405,0,0,1,.093-.724c.24-.459.871-.454,1.237-.772a1.736,1.736,0,0,0,.474-1.3c0-.077,0-.159,0-.242a1.412,1.412,0,0,0-.384-.6,2.466,2.466,0,0,0-.726-.414,5.117,5.117,0,0,0-.893-.32.142.142,0,0,0-.039,0c-.088-.121-.179-.24-.279-.352a3.2,3.2,0,0,0-.5-.737,4.389,4.389,0,0,0-1.659-1.137,5.372,5.372,0,0,0-2.306-.339,4.676,4.676,0,0,0-2.161.624,4.927,4.927,0,0,0-1.984,3.344,1.024,1.024,0,0,0-.724.443,1.663,1.663,0,0,0-.232,1.1,1.5,1.5,0,0,0,.294.771c.544.476,1.471.358,2.167.335a.244.244,0,0,1,.209.364,1.311,1.311,0,0,0-.028.982,2.559,2.559,0,0,0,.389.879.8.8,0,0,0,.621.335c.031,0,.061,0,.091,0a2.458,2.458,0,0,0,1.12-1.047,1.663,1.663,0,0,0,1.713.892,1.6,1.6,0,0,0,1.24-1.144,1.7,1.7,0,0,0,1.348.644Z" transform="translate(-793.42 -303.223)" fill="#fff"></path><path id="Path_21705-2" data-name="Path 21705" d="M803.831,313.605c-.008-.028-.017-.055-.026-.081a2.283,2.283,0,0,0-.19-.422,2.334,2.334,0,0,0-.544-.675,1.2,1.2,0,0,0-.907-.3.652.652,0,0,0-.589.635,2.164,2.164,0,0,0,.267.9,2.93,2.93,0,0,0,.566.8,1.135,1.135,0,0,0,.809.35.756.756,0,0,0,.713-.463A.952.952,0,0,0,803.831,313.605Z" transform="translate(-799.033 -309.345)" fill="#092042"></path><path id="Path_21706-2" data-name="Path 21706" d="M816.687,312.581a.756.756,0,0,0-.713-.463,1.134,1.134,0,0,0-.809.35,2.921,2.921,0,0,0-.566.8,2.165,2.165,0,0,0-.267.9.652.652,0,0,0,.589.635,1.2,1.2,0,0,0,.907-.3,2.344,2.344,0,0,0,.544-.675,2.278,2.278,0,0,0,.19-.422c.008-.026.018-.054.026-.081A.952.952,0,0,0,816.687,312.581Z" transform="translate(-807.814 -309.346)" fill="#092042"></path><path id="Path_21707-2" data-name="Path 21707" d="M810.793,321.263c-.071-.076-.14-.153-.209-.232a2.312,2.312,0,0,0-.206-.231.3.3,0,0,0-.416.025,1.293,1.293,0,0,0-.17.252c-.016.03-.028.062-.044.093a1.235,1.235,0,0,0-.13.209.9.9,0,0,0-.1.485.284.284,0,0,0,.129.214.308.308,0,0,0,.331-.02.672.672,0,0,0,.184-.217c.007-.012.051-.09.081-.152l.055.05a.664.664,0,0,0,.212.142.4.4,0,0,0,.485-.133C811.1,321.555,810.913,321.394,810.793,321.263Z" transform="translate(-804.495 -315.272)" fill="#092042"></path></g><path id="Path_21708-2" data-name="Path 21708" d="M816.486,307.139a1.411,1.411,0,0,0-.384-.6,2.466,2.466,0,0,0-.726-.414,5.119,5.119,0,0,0-.893-.32.142.142,0,0,0-.039,0c-.088-.121-.178-.24-.279-.352a3.192,3.192,0,0,0-.5-.737,4.389,4.389,0,0,0-1.659-1.137,5.372,5.372,0,0,0-2.306-.339l-.059.005a3.141,3.141,0,0,1,1.461,1.038,2.08,2.08,0,0,1,.472,1.455,3.2,3.2,0,0,1-.18.8,1.385,1.385,0,0,1,1.465-.124.756.756,0,0,1,.241,1.012,1.548,1.548,0,0,1-.681.584,9.928,9.928,0,0,1,.445,1.138,3.932,3.932,0,0,1,.147,2.437v0a1.47,1.47,0,0,0,.751.167l.035,0a1.464,1.464,0,0,0,.777-.774,1.8,1.8,0,0,0,.112-.8,1.405,1.405,0,0,1,.093-.724c.24-.459.871-.454,1.237-.772a1.736,1.736,0,0,0,.474-1.3C816.491,307.3,816.49,307.223,816.486,307.139Z" transform="translate(-804.586 -303.223)" fill="#565656" opacity="0.54" style="mix-blend-mode: multiply;isolation: isolate"></path></g></g></g></g></g></svg>